<svg xmlns="http://www.w3.org/2000/svg" width="760" height="520" viewBox="0 0 760 520" role="img"><defs><linearGradient id="g" x1="0" y1="0" x2="1" y2="1"><stop stop-color="#6558e8"/><stop offset="1" stop-color="#9285ff"/></linearGradient><linearGradient id="soft" x1="0" y1="0" x2="1" y2="1"><stop stop-color="#10a7a0" stop-opacity=".22"/><stop offset="1" stop-color="#6558e8" stop-opacity=".05"/></linearGradient><filter id="sh" x="-20%" y="-20%" width="140%" height="140%"><feDropShadow dx="0" dy="12" stdDeviation="13" flood-color="#302860" flood-opacity=".12"/></filter></defs><rect width="760" height="520" rx="34" fill="#f8f7ff"/><circle cx="90" cy="68" r="74" fill="#6558e8" opacity=".07"/><circle cx="690" cy="475" r="90" fill="#10a7a0" opacity=".09"/><text x="380" y="62" text-anchor="middle" direction="rtl" font-family="Cairo,Tahoma,Arial,sans-serif" font-size="27" font-weight="900" fill="#282344">دمج ملفات PDF</text><g transform="rotate(-5 155 267.5)"><rect x="70" y="150" width="170" height="235" rx="18" fill="#fff" stroke="#d9d5ec" stroke-width="2" filter="url(#sh)"/><path d="M95 200h120M95 228h98M95 256h128" stroke="#d8d4e8" stroke-width="9" stroke-linecap="round"/></g><g transform="rotate(3 260 229.5)"><rect x="175" y="112" width="170" height="235" rx="18" fill="#fff" stroke="#d9d5ec" stroke-width="2" filter="url(#sh)"/><path d="M200 162h120M200 190h98M200 218h128" stroke="#d8d4e8" stroke-width="9" stroke-linecap="round"/></g><path d="M365 245h90m-35-35 40 35-40 35" fill="none" stroke="#6558e8" stroke-width="13" stroke-linecap="round" stroke-linejoin="round"/><g transform="rotate(0 587.5 239.5)"><rect x="485" y="92" width="205" height="295" rx="18" fill="#fff" stroke="#d9d5ec" stroke-width="2" filter="url(#sh)"/><path d="M510 142h155M510 170h133M510 198h163" stroke="#d8d4e8" stroke-width="9" stroke-linecap="round"/></g><text x="588" y="350" text-anchor="middle" direction="rtl" font-family="Cairo,Tahoma,Arial,sans-serif" font-size="20" font-weight="800" fill="#6558e8">ملف واحد مرتب</text></svg>