<svg xmlns="http://www.w3.org/2000/svg" width="760" height="520" viewBox="0 0 760 520" role="img"><defs><linearGradient id="g" x1="0" y1="0" x2="1" y2="1"><stop stop-color="#334155"/><stop offset="1" stop-color="#64748b"/></linearGradient><linearGradient id="soft" x1="0" y1="0" x2="1" y2="1"><stop stop-color="#6558e8" stop-opacity=".22"/><stop offset="1" stop-color="#334155" stop-opacity=".05"/></linearGradient><filter id="sh" x="-20%" y="-20%" width="140%" height="140%"><feDropShadow dx="0" dy="12" stdDeviation="13" flood-color="#302860" flood-opacity=".12"/></filter></defs><rect width="760" height="520" rx="34" fill="#f8f7ff"/><circle cx="90" cy="68" r="74" fill="#334155" opacity=".07"/><circle cx="690" cy="475" r="90" fill="#6558e8" opacity=".09"/><text x="380" y="62" text-anchor="middle" direction="rtl" font-family="Cairo,Tahoma,Arial,sans-serif" font-size="27" font-weight="900" fill="#282344">إضافة ترقيم لملف PDF</text><path d="M70 330C180 215 280 390 390 270S600 165 700 275" fill="none" stroke="#6558e8" stroke-width="8" stroke-dasharray="14 11"/><g transform="rotate(-2 152.5 207.5)"><rect x="85" y="100" width="135" height="215" rx="18" fill="#fff" stroke="#d9d5ec" stroke-width="2" filter="url(#sh)"/><path d="M110 150h85M110 178h63M110 206h93" stroke="#d8d4e8" stroke-width="9" stroke-linecap="round"/></g><circle cx="152" cy="285" r="24" fill="#334155"/><text x="152" y="294" text-anchor="middle" direction="rtl" font-family="Cairo,Tahoma,Arial,sans-serif" font-size="19" font-weight="900" fill="#fff">1</text><g transform="rotate(2 312.5 235.5)"><rect x="245" y="128" width="135" height="215" rx="18" fill="#fff" stroke="#d9d5ec" stroke-width="2" filter="url(#sh)"/><path d="M270 178h85M270 206h63M270 234h93" stroke="#d8d4e8" stroke-width="9" stroke-linecap="round"/></g><circle cx="312" cy="313" r="24" fill="#334155"/><text x="312" y="322" text-anchor="middle" direction="rtl" font-family="Cairo,Tahoma,Arial,sans-serif" font-size="19" font-weight="900" fill="#fff">2</text><g transform="rotate(-2 472.5 207.5)"><rect x="405" y="100" width="135" height="215" rx="18" fill="#fff" stroke="#d9d5ec" stroke-width="2" filter="url(#sh)"/><path d="M430 150h85M430 178h63M430 206h93" stroke="#d8d4e8" stroke-width="9" stroke-linecap="round"/></g><circle cx="472" cy="285" r="24" fill="#334155"/><text x="472" y="294" text-anchor="middle" direction="rtl" font-family="Cairo,Tahoma,Arial,sans-serif" font-size="19" font-weight="900" fill="#fff">3</text><g transform="rotate(2 632.5 235.5)"><rect x="565" y="128" width="135" height="215" rx="18" fill="#fff" stroke="#d9d5ec" stroke-width="2" filter="url(#sh)"/><path d="M590 178h85M590 206h63M590 234h93" stroke="#d8d4e8" stroke-width="9" stroke-linecap="round"/></g><circle cx="632" cy="313" r="24" fill="#334155"/><text x="632" y="322" text-anchor="middle" direction="rtl" font-family="Cairo,Tahoma,Arial,sans-serif" font-size="19" font-weight="900" fill="#fff">4</text><text x="380" y="420" text-anchor="middle" direction="rtl" font-family="Cairo,Tahoma,Arial,sans-serif" font-size="20" font-weight="800" fill="#334155">تسلسل يمكن الإحالة إليه</text></svg>