<svg xmlns="http://www.w3.org/2000/svg" width="960" height="360" viewBox="0 0 960 360" role="img"><defs><linearGradient id="g" x1="0" y1="0" x2="1" y2="1"><stop stop-color="#334155"/><stop offset="1" stop-color="#64748b"/></linearGradient><linearGradient id="soft" x1="0" y1="0" x2="1" y2="1"><stop stop-color="#6558e8" stop-opacity=".22"/><stop offset="1" stop-color="#334155" stop-opacity=".05"/></linearGradient><filter id="sh" x="-20%" y="-20%" width="140%" height="140%"><feDropShadow dx="0" dy="12" stdDeviation="13" flood-color="#302860" flood-opacity=".12"/></filter></defs><rect width="960" height="360" rx="34" fill="#f8f7ff"/><circle cx="90" cy="68" r="74" fill="#334155" opacity=".07"/><circle cx="890" cy="315" r="90" fill="#6558e8" opacity=".09"/><g transform="translate(850 7) scale(.72)"><g opacity=".85"><path d="M3 61c20-35 39 17 59-16S78 12 85 29" fill="none" stroke="url(#g)" stroke-width="5" stroke-dasharray="7 6"/><circle cx="18" cy="39" r="13" fill="url(#g)"/><circle cx="46" cy="47" r="13" fill="url(#g)"/><circle cx="72" cy="29" r="13" fill="url(#g)"/></g></g><g transform="translate(70 65)"><circle cx="90" cy="90" r="72" fill="#fff" stroke="#334155" stroke-width="5" filter="url(#sh)"/><text x="90" y="82" text-anchor="middle" direction="rtl" font-family="Cairo,Tahoma,Arial,sans-serif" font-size="15" font-weight="800" fill="#302b50">أسفل الوسط</text><text x="90" y="111" text-anchor="middle" direction="rtl" font-family="Cairo,Tahoma,Arial,sans-serif" font-size="12" font-weight="700" fill="#334155">قربه من التذييل</text></g><g transform="translate(285 105)"><circle cx="90" cy="90" r="68" fill="#fff" stroke="#6558e8" stroke-width="5" filter="url(#sh)"/><text x="90" y="82" text-anchor="middle" direction="rtl" font-family="Cairo,Tahoma,Arial,sans-serif" font-size="15" font-weight="800" fill="#302b50">أسفل الخارج</text><text x="90" y="111" text-anchor="middle" direction="rtl" font-family="Cairo,Tahoma,Arial,sans-serif" font-size="12" font-weight="700" fill="#334155">يمين ويسار الصفحة</text></g><g transform="translate(500 65)"><circle cx="90" cy="90" r="64" fill="#fff" stroke="#334155" stroke-width="5" filter="url(#sh)"/><text x="90" y="82" text-anchor="middle" direction="rtl" font-family="Cairo,Tahoma,Arial,sans-serif" font-size="15" font-weight="800" fill="#302b50">بدء من 1</text><text x="90" y="111" text-anchor="middle" direction="rtl" font-family="Cairo,Tahoma,Arial,sans-serif" font-size="12" font-weight="700" fill="#334155">استثناء الغلاف</text></g><g transform="translate(715 105)"><circle cx="90" cy="90" r="60" fill="#fff" stroke="#6558e8" stroke-width="5" filter="url(#sh)"/><text x="90" y="82" text-anchor="middle" direction="rtl" font-family="Cairo,Tahoma,Arial,sans-serif" font-size="15" font-weight="800" fill="#302b50">بدء مخصص</text><text x="90" y="111" text-anchor="middle" direction="rtl" font-family="Cairo,Tahoma,Arial,sans-serif" font-size="12" font-weight="700" fill="#334155">اتساق الإحالات</text></g><path d="M95 300h770" stroke="#6558e8" stroke-width="6" stroke-linecap="round"/></svg>