<svg xmlns="http://www.w3.org/2000/svg" width="960" height="360" viewBox="0 0 960 360" role="img"><defs><linearGradient id="g" x1="0" y1="0" x2="1" y2="1"><stop stop-color="#334155"/><stop offset="1" stop-color="#64748b"/></linearGradient><linearGradient id="soft" x1="0" y1="0" x2="1" y2="1"><stop stop-color="#6558e8" stop-opacity=".22"/><stop offset="1" stop-color="#334155" stop-opacity=".05"/></linearGradient><filter id="sh" x="-20%" y="-20%" width="140%" height="140%"><feDropShadow dx="0" dy="12" stdDeviation="13" flood-color="#302860" flood-opacity=".12"/></filter></defs><rect width="960" height="360" rx="34" fill="#f8f7ff"/><circle cx="90" cy="68" r="74" fill="#334155" opacity=".07"/><circle cx="890" cy="315" r="90" fill="#6558e8" opacity=".09"/><g transform="translate(850 7) scale(.72)"><g opacity=".85"><path d="M3 61c20-35 39 17 59-16S78 12 85 29" fill="none" stroke="url(#g)" stroke-width="5" stroke-dasharray="7 6"/><circle cx="18" cy="39" r="13" fill="url(#g)"/><circle cx="46" cy="47" r="13" fill="url(#g)"/><circle cx="72" cy="29" r="13" fill="url(#g)"/></g></g><g transform="translate(55 65)"><path d="M0 20h240l30 80-30 80H0l30-80Z" fill="#fff" stroke="#334155" stroke-width="4" filter="url(#sh)"/><text x="135" y="94" text-anchor="middle" direction="rtl" font-family="Cairo,Tahoma,Arial,sans-serif" font-size="16" font-weight="800" fill="#302b50">الرقم يغطي تذييلً</text><text x="135" y="127" text-anchor="middle" direction="rtl" font-family="Cairo,Tahoma,Arial,sans-serif" font-size="13" font-weight="700" fill="#334155">سبب</text></g><g transform="translate(355 87)"><path d="M0 20h240l30 80-30 80H0l30-80Z" fill="#fff" stroke="#6558e8" stroke-width="4" filter="url(#sh)"/><text x="135" y="94" text-anchor="middle" direction="rtl" font-family="Cairo,Tahoma,Arial,sans-serif" font-size="16" font-weight="800" fill="#302b50">الغلاف يحمل رقمًا</text><text x="135" y="127" text-anchor="middle" direction="rtl" font-family="Cairo,Tahoma,Arial,sans-serif" font-size="13" font-weight="700" fill="#334155">تحقق</text></g><g transform="translate(655 109)"><path d="M0 20h240l30 80-30 80H0l30-80Z" fill="#fff" stroke="#334155" stroke-width="4" filter="url(#sh)"/><text x="135" y="94" text-anchor="middle" direction="rtl" font-family="Cairo,Tahoma,Arial,sans-serif" font-size="16" font-weight="800" fill="#302b50">صفحة أفقية رقمها </text><text x="135" y="127" text-anchor="middle" direction="rtl" font-family="Cairo,Tahoma,Arial,sans-serif" font-size="13" font-weight="700" fill="#334155">قرار</text></g></svg>