<svg xmlns="http://www.w3.org/2000/svg" width="960" height="360" viewBox="0 0 960 360" role="img"><defs><linearGradient id="g" x1="0" y1="0" x2="1" y2="1"><stop stop-color="#d9467a"/><stop offset="1" stop-color="#fb7185"/></linearGradient><linearGradient id="soft" x1="0" y1="0" x2="1" y2="1"><stop stop-color="#6558e8" stop-opacity=".22"/><stop offset="1" stop-color="#d9467a" stop-opacity=".05"/></linearGradient><filter id="sh" x="-20%" y="-20%" width="140%" height="140%"><feDropShadow dx="0" dy="12" stdDeviation="13" flood-color="#302860" flood-opacity=".12"/></filter></defs><rect width="960" height="360" rx="34" fill="#f8f7ff"/><circle cx="90" cy="68" r="74" fill="#d9467a" opacity=".07"/><circle cx="890" cy="315" r="90" fill="#6558e8" opacity=".09"/><g transform="translate(850 7) scale(.72)"><g opacity=".85"><rect x="0" y="0" width="36" height="46" rx="7" fill="#fff" stroke="url(#g)" stroke-width="3"/><rect x="42" y="8" width="30" height="30" rx="7" fill="#fff" stroke="url(#g)" stroke-width="3"/><rect x="8" y="52" width="30" height="22" rx="7" fill="#fff" stroke="url(#g)" stroke-width="3"/><circle cx="58" cy="58" r="12" fill="url(#g)"/></g></g><g transform="translate(50 90) rotate(-2 135 90)"><rect width="270" height="185" rx="25" fill="#fff" stroke="#ddd9ed" filter="url(#sh)"/><path d="M35 45h200" stroke="#6558e8" stroke-width="8" stroke-linecap="round" opacity=".35"/><text x="135" y="86" text-anchor="middle" direction="rtl" font-family="Cairo,Tahoma,Arial,sans-serif" font-size="17" font-weight="800" fill="#302b50">النص ضبابي</text><text x="135" y="132" text-anchor="middle" direction="rtl" font-family="Cairo,Tahoma,Arial,sans-serif" font-size="14" font-weight="700" fill="#d9467a">افحص المصدر</text><circle cx="135" cy="168" r="8" fill="#d9467a"/></g><g transform="translate(350 90) rotate(3 135 90)"><rect width="270" height="185" rx="25" fill="#fff" stroke="#ddd9ed" filter="url(#sh)"/><path d="M35 45h200" stroke="#6558e8" stroke-width="8" stroke-linecap="round" opacity=".35"/><text x="135" y="86" text-anchor="middle" direction="rtl" font-family="Cairo,Tahoma,Arial,sans-serif" font-size="17" font-weight="800" fill="#302b50">كل صفحة كبيرة جدً</text><text x="135" y="132" text-anchor="middle" direction="rtl" font-family="Cairo,Tahoma,Arial,sans-serif" font-size="14" font-weight="700" fill="#d9467a">راجع الإعداد</text><circle cx="135" cy="168" r="8" fill="#d9467a"/></g><g transform="translate(650 90) rotate(-1 135 90)"><rect width="270" height="185" rx="25" fill="#fff" stroke="#ddd9ed" filter="url(#sh)"/><path d="M35 45h200" stroke="#6558e8" stroke-width="8" stroke-linecap="round" opacity=".35"/><text x="135" y="86" text-anchor="middle" direction="rtl" font-family="Cairo,Tahoma,Arial,sans-serif" font-size="17" font-weight="800" fill="#302b50">الخلفية الشفافة س</text><text x="135" y="132" text-anchor="middle" direction="rtl" font-family="Cairo,Tahoma,Arial,sans-serif" font-size="14" font-weight="700" fill="#d9467a">اختبر الناتج</text><circle cx="135" cy="168" r="8" fill="#d9467a"/></g></svg>