<svg xmlns="http://www.w3.org/2000/svg" width="760" height="520" viewBox="0 0 760 520" role="img"><defs><linearGradient id="g" x1="0" y1="0" x2="1" y2="1"><stop stop-color="#d9467a"/><stop offset="1" stop-color="#fb7185"/></linearGradient><linearGradient id="soft" x1="0" y1="0" x2="1" y2="1"><stop stop-color="#6558e8" stop-opacity=".22"/><stop offset="1" stop-color="#d9467a" stop-opacity=".05"/></linearGradient><filter id="sh" x="-20%" y="-20%" width="140%" height="140%"><feDropShadow dx="0" dy="12" stdDeviation="13" flood-color="#302860" flood-opacity=".12"/></filter></defs><rect width="760" height="520" rx="34" fill="#f8f7ff"/><circle cx="90" cy="68" r="74" fill="#d9467a" opacity=".07"/><circle cx="690" cy="475" r="90" fill="#6558e8" opacity=".09"/><text x="380" y="62" text-anchor="middle" direction="rtl" font-family="Cairo,Tahoma,Arial,sans-serif" font-size="27" font-weight="900" fill="#282344">PDF إلى صور</text><g transform="rotate(0 184.5 260)"><rect x="62" y="95" width="245" height="330" rx="18" fill="#fff" stroke="#d9d5ec" stroke-width="2" filter="url(#sh)"/><path d="M87 145h195M87 173h173M87 201h203" stroke="#d8d4e8" stroke-width="9" stroke-linecap="round"/></g><path d="M338 250h75m-25-25 30 25-30 25" fill="none" stroke="#d9467a" stroke-width="11"/><rect x="455" y="105" width="125" height="155" rx="20" fill="#fff" stroke="#d9d5ec" filter="url(#sh)"/><rect x="592" y="145" width="125" height="155" rx="20" fill="#fff" stroke="#d9d5ec" filter="url(#sh)"/><rect x="455" y="285" width="125" height="120" rx="20" fill="#fff" stroke="#d9d5ec" filter="url(#sh)"/><path d="M475 235l35-42 24 25 28-38" fill="none" stroke="#6558e8" stroke-width="10"/><circle cx="635" cy="200" r="32" fill="#fb7185" opacity=".35"/><text x="585" y="380" text-anchor="middle" direction="rtl" font-family="Cairo,Tahoma,Arial,sans-serif" font-size="20" font-weight="800" fill="#d9467a">صور مرتبة</text></svg>