<svg xmlns="http://www.w3.org/2000/svg" width="960" height="360" viewBox="0 0 960 360" role="img"><defs><linearGradient id="g" x1="0" y1="0" x2="1" y2="1"><stop stop-color="#7c3aed"/><stop offset="1" stop-color="#a78bfa"/></linearGradient><linearGradient id="soft" x1="0" y1="0" x2="1" y2="1"><stop stop-color="#ec4899" stop-opacity=".22"/><stop offset="1" stop-color="#7c3aed" stop-opacity=".05"/></linearGradient><filter id="sh" x="-20%" y="-20%" width="140%" height="140%"><feDropShadow dx="0" dy="12" stdDeviation="13" flood-color="#302860" flood-opacity=".12"/></filter></defs><rect width="960" height="360" rx="34" fill="#f8f7ff"/><circle cx="90" cy="68" r="74" fill="#7c3aed" opacity=".07"/><circle cx="890" cy="315" r="90" fill="#ec4899" opacity=".09"/><g transform="translate(850 7) scale(.72)"><g opacity=".85" transform="rotate(-13 42 37)"><rect x="0" y="9" width="84" height="56" rx="10" fill="#fff" stroke="url(#g)" stroke-width="3"/><path d="M10 28h64M16 42h52" stroke="url(#g)" stroke-width="7" opacity=".5"/></g></g><g transform="translate(50 90) rotate(-3 135 90)"><rect width="270" height="185" rx="28" fill="#fff" stroke="#ddd9ed" filter="url(#sh)"/><path d="M35 45h200" stroke="#ec4899" stroke-width="8" stroke-linecap="round" opacity=".35"/><text x="135" y="86" text-anchor="middle" direction="rtl" font-family="Cairo,Tahoma,Arial,sans-serif" font-size="17" font-weight="800" fill="#302b50">العلامة تغطي النص</text><text x="135" y="132" text-anchor="middle" direction="rtl" font-family="Cairo,Tahoma,Arial,sans-serif" font-size="14" font-weight="700" fill="#7c3aed">افحص المصدر</text><circle cx="135" cy="168" r="8" fill="#7c3aed"/></g><g transform="translate(350 90) rotate(2 135 90)"><rect width="270" height="185" rx="28" fill="#fff" stroke="#ddd9ed" filter="url(#sh)"/><path d="M35 45h200" stroke="#ec4899" stroke-width="8" stroke-linecap="round" opacity=".35"/><text x="135" y="86" text-anchor="middle" direction="rtl" font-family="Cairo,Tahoma,Arial,sans-serif" font-size="17" font-weight="800" fill="#302b50">لا تظهر في الطباع</text><text x="135" y="132" text-anchor="middle" direction="rtl" font-family="Cairo,Tahoma,Arial,sans-serif" font-size="14" font-weight="700" fill="#7c3aed">راجع الإعداد</text><circle cx="135" cy="168" r="8" fill="#7c3aed"/></g><g transform="translate(650 90) rotate(-2 135 90)"><rect width="270" height="185" rx="28" fill="#fff" stroke="#ddd9ed" filter="url(#sh)"/><path d="M35 45h200" stroke="#ec4899" stroke-width="8" stroke-linecap="round" opacity=".35"/><text x="135" y="86" text-anchor="middle" direction="rtl" font-family="Cairo,Tahoma,Arial,sans-serif" font-size="17" font-weight="800" fill="#302b50">الشعار مشوش</text><text x="135" y="132" text-anchor="middle" direction="rtl" font-family="Cairo,Tahoma,Arial,sans-serif" font-size="14" font-weight="700" fill="#7c3aed">اختبر الناتج</text><circle cx="135" cy="168" r="8" fill="#7c3aed"/></g></svg>