<svg xmlns="http://www.w3.org/2000/svg" width="960" height="340" viewBox="0 0 960 340" role="img"><defs><linearGradient id="g" x1="0" y1="0" x2="1" y2="1"><stop stop-color="#7c3aed"/><stop offset="1" stop-color="#a78bfa"/></linearGradient><linearGradient id="soft" x1="0" y1="0" x2="1" y2="1"><stop stop-color="#ec4899" stop-opacity=".22"/><stop offset="1" stop-color="#7c3aed" stop-opacity=".05"/></linearGradient><filter id="sh" x="-20%" y="-20%" width="140%" height="140%"><feDropShadow dx="0" dy="12" stdDeviation="13" flood-color="#302860" flood-opacity=".12"/></filter></defs><rect width="960" height="340" rx="34" fill="#f8f7ff"/><circle cx="90" cy="68" r="74" fill="#7c3aed" opacity=".07"/><circle cx="890" cy="295" r="90" fill="#ec4899" opacity=".09"/><g transform="translate(850 7) scale(.72)"><g opacity=".85" transform="rotate(-13 42 37)"><rect x="0" y="9" width="84" height="56" rx="10" fill="#fff" stroke="url(#g)" stroke-width="3"/><path d="M10 28h64M16 42h52" stroke="url(#g)" stroke-width="7" opacity=".5"/></g></g><rect x="45" y="95" width="195" height="170" rx="26" fill="#fff" stroke="#ddd9ed" filter="url(#sh)"/><circle cx="142.5" cy="95" r="27" fill="url(#g)"/><text x="142.5" y="104" text-anchor="middle" direction="rtl" font-family="Cairo,Tahoma,Arial,sans-serif" font-size="21" font-weight="900" fill="#fff">1</text><text x="142.5" y="167" text-anchor="middle" direction="rtl" font-family="Cairo,Tahoma,Arial,sans-serif" font-size="19" font-weight="800" fill="#302b50">حضّر</text><text x="142.5" y="217" text-anchor="middle" direction="rtl" font-family="Cairo,Tahoma,Arial,sans-serif" font-size="14" font-weight="700" fill="#7c3aed">مصدر</text><rect x="270" y="117" width="195" height="170" rx="26" fill="#fff" stroke="#ddd9ed" filter="url(#sh)"/><circle cx="367.5" cy="117" r="27" fill="url(#g)"/><text x="367.5" y="126" text-anchor="middle" direction="rtl" font-family="Cairo,Tahoma,Arial,sans-serif" font-size="21" font-weight="900" fill="#fff">2</text><text x="367.5" y="189" text-anchor="middle" direction="rtl" font-family="Cairo,Tahoma,Arial,sans-serif" font-size="19" font-weight="800" fill="#302b50">اضبط</text><text x="367.5" y="239" text-anchor="middle" direction="rtl" font-family="Cairo,Tahoma,Arial,sans-serif" font-size="14" font-weight="700" fill="#7c3aed">إعداد</text><rect x="495" y="95" width="195" height="170" rx="26" fill="#fff" stroke="#ddd9ed" filter="url(#sh)"/><circle cx="592.5" cy="95" r="27" fill="url(#g)"/><text x="592.5" y="104" text-anchor="middle" direction="rtl" font-family="Cairo,Tahoma,Arial,sans-serif" font-size="21" font-weight="900" fill="#fff">3</text><text x="592.5" y="167" text-anchor="middle" direction="rtl" font-family="Cairo,Tahoma,Arial,sans-serif" font-size="19" font-weight="800" fill="#302b50">نفّذ</text><text x="592.5" y="217" text-anchor="middle" direction="rtl" font-family="Cairo,Tahoma,Arial,sans-serif" font-size="14" font-weight="700" fill="#7c3aed">معالجة</text><rect x="720" y="117" width="195" height="170" rx="26" fill="#fff" stroke="#ddd9ed" filter="url(#sh)"/><circle cx="817.5" cy="117" r="27" fill="url(#g)"/><text x="817.5" y="126" text-anchor="middle" direction="rtl" font-family="Cairo,Tahoma,Arial,sans-serif" font-size="21" font-weight="900" fill="#fff">4</text><text x="817.5" y="189" text-anchor="middle" direction="rtl" font-family="Cairo,Tahoma,Arial,sans-serif" font-size="19" font-weight="800" fill="#302b50">راجع</text><text x="817.5" y="239" text-anchor="middle" direction="rtl" font-family="Cairo,Tahoma,Arial,sans-serif" font-size="14" font-weight="700" fill="#7c3aed">اعتماد</text><path d="M65 300 Q480 308 895 300" fill="none" stroke="#ec4899" stroke-width="5" stroke-dasharray="10 10" opacity=".5"/></svg>