<svg xmlns="http://www.w3.org/2000/svg" width="760" height="520" viewBox="0 0 760 520" role="img"><defs><linearGradient id="g" x1="0" y1="0" x2="1" y2="1"><stop stop-color="#7c3aed"/><stop offset="1" stop-color="#a78bfa"/></linearGradient><linearGradient id="soft" x1="0" y1="0" x2="1" y2="1"><stop stop-color="#ec4899" stop-opacity=".22"/><stop offset="1" stop-color="#7c3aed" stop-opacity=".05"/></linearGradient><filter id="sh" x="-20%" y="-20%" width="140%" height="140%"><feDropShadow dx="0" dy="12" stdDeviation="13" flood-color="#302860" flood-opacity=".12"/></filter></defs><rect width="760" height="520" rx="34" fill="#f8f7ff"/><circle cx="90" cy="68" r="74" fill="#7c3aed" opacity=".07"/><circle cx="690" cy="475" r="90" fill="#ec4899" opacity=".09"/><text x="380" y="62" text-anchor="middle" direction="rtl" font-family="Cairo,Tahoma,Arial,sans-serif" font-size="27" font-weight="900" fill="#282344">إضافة علامة مائية إلى PDF</text><g transform="rotate(0 380 257)"><rect x="80" y="92" width="600" height="330" rx="18" fill="#fff" stroke="#d9d5ec" stroke-width="2" filter="url(#sh)"/><path d="M105 142h550M105 170h528M105 198h558" stroke="#d8d4e8" stroke-width="9" stroke-linecap="round"/></g><g transform="rotate(-18 380 260)"><rect x="180" y="215" width="400" height="90" rx="22" fill="#7c3aed" opacity=".13" stroke="#7c3aed" stroke-width="4"/><text x="380" y="275" text-anchor="middle" direction="rtl" font-family="Cairo,Tahoma,Arial,sans-serif" font-size="34" font-weight="900" fill="#7c3aed">نسخة مراجعة</text></g><path d="M610 145v85" stroke="#ec4899" stroke-width="9" stroke-dasharray="10 10"/><circle cx="610" cy="120" r="27" fill="#ec4899"/><text x="610" y="128" text-anchor="middle" direction="rtl" font-family="Cairo,Tahoma,Arial,sans-serif" font-size="11" font-weight="800" fill="#fff">شفافية</text></svg>