<svg xmlns="http://www.w3.org/2000/svg" width="760" height="520" viewBox="0 0 760 520" role="img"><defs><linearGradient id="g" x1="0" y1="0" x2="1" y2="1"><stop stop-color="#4f46e5"/><stop offset="1" stop-color="#7c6cf2"/></linearGradient><linearGradient id="soft" x1="0" y1="0" x2="1" y2="1"><stop stop-color="#0f9f8f" stop-opacity=".22"/><stop offset="1" stop-color="#4f46e5" stop-opacity=".05"/></linearGradient><filter id="sh" x="-20%" y="-20%" width="140%" height="140%"><feDropShadow dx="0" dy="12" stdDeviation="13" flood-color="#302860" flood-opacity=".12"/></filter></defs><rect width="760" height="520" rx="34" fill="#f8f7ff"/><circle cx="90" cy="68" r="74" fill="#4f46e5" opacity=".07"/><circle cx="690" cy="475" r="90" fill="#0f9f8f" opacity=".09"/><text x="380" y="62" text-anchor="middle" direction="rtl" font-family="Cairo,Tahoma,Arial,sans-serif" font-size="27" font-weight="900" fill="#282344">حماية PDF</text><g transform="rotate(-3 197 267.5)"><rect x="72" y="110" width="250" height="315" rx="18" fill="#fff" stroke="#d9d5ec" stroke-width="2" filter="url(#sh)"/><path d="M97 160h200M97 188h178M97 216h208" stroke="#d8d4e8" stroke-width="9" stroke-linecap="round"/></g><path d="M510 105 660 165v95c0 95-62 145-150 170-88-25-150-75-150-170v-95Z" fill="url(#g)" filter="url(#sh)"/><rect x="455" y="235" width="110" height="100" rx="22" fill="#fff"/><path d="M478 235v-32a32 32 0 0 1 64 0v32" fill="none" stroke="#fff" stroke-width="16"/><circle cx="510" cy="278" r="12" fill="#4f46e5"/><path d="M510 290v22" stroke="#4f46e5" stroke-width="8"/><text x="510" y="390" text-anchor="middle" direction="rtl" font-family="Cairo,Tahoma,Arial,sans-serif" font-size="20" font-weight="800" fill="#fff">وصول محمي</text></svg>