<svg xmlns="http://www.w3.org/2000/svg" width="960" height="360" viewBox="0 0 960 360" role="img"><defs><linearGradient id="g" x1="0" y1="0" x2="1" y2="1"><stop stop-color="#4f46e5"/><stop offset="1" stop-color="#7c6cf2"/></linearGradient><linearGradient id="soft" x1="0" y1="0" x2="1" y2="1"><stop stop-color="#0f9f8f" stop-opacity=".22"/><stop offset="1" stop-color="#4f46e5" stop-opacity=".05"/></linearGradient><filter id="sh" x="-20%" y="-20%" width="140%" height="140%"><feDropShadow dx="0" dy="12" stdDeviation="13" flood-color="#302860" flood-opacity=".12"/></filter></defs><rect width="960" height="360" rx="34" fill="#f8f7ff"/><circle cx="90" cy="68" r="74" fill="#4f46e5" opacity=".07"/><circle cx="890" cy="315" r="90" fill="#0f9f8f" opacity=".09"/><g transform="translate(850 7) scale(.72)"><g opacity=".85"><path d="M40 0 77 15v24c0 25-15 39-37 47C18 78 3 64 3 39V15Z" fill="#fff" stroke="url(#g)" stroke-width="4"/><rect x="24" y="34" width="32" height="28" rx="7" fill="url(#g)"/><path d="M30 34V24a10 10 0 0 1 20 0v10" fill="none" stroke="url(#g)" stroke-width="6"/></g></g><g transform="translate(45 55)"><rect width="420" height="115" rx="24" fill="#fff" stroke="#ddd9ed" filter="url(#sh)"/><rect width="14" height="115" rx="7" fill="#4f46e5"/><text x="210" y="42" text-anchor="middle" direction="rtl" font-family="Cairo,Tahoma,Arial,sans-serif" font-size="17" font-weight="800" fill="#302b50">كلمة فتح</text><text x="210" y="75" text-anchor="middle" direction="rtl" font-family="Cairo,Tahoma,Arial,sans-serif" font-size="14" font-weight="800" fill="#4f46e5">منع قراءة الملف بلا سر</text><text x="210" y="101" text-anchor="middle" direction="rtl" font-family="Cairo,Tahoma,Arial,sans-serif" font-size="13" font-weight="700" fill="#625d72">قوة التشفير والكلمة</text></g><g transform="translate(490 55)"><rect width="420" height="115" rx="24" fill="#fff" stroke="#ddd9ed" filter="url(#sh)"/><rect width="14" height="115" rx="7" fill="#0f9f8f"/><text x="210" y="42" text-anchor="middle" direction="rtl" font-family="Cairo,Tahoma,Arial,sans-serif" font-size="17" font-weight="800" fill="#302b50">كلمة مالك</text><text x="210" y="75" text-anchor="middle" direction="rtl" font-family="Cairo,Tahoma,Arial,sans-serif" font-size="14" font-weight="800" fill="#4f46e5">إدارة الصلاحيات</text><text x="210" y="101" text-anchor="middle" direction="rtl" font-family="Cairo,Tahoma,Arial,sans-serif" font-size="13" font-weight="700" fill="#625d72">التزام القارئ بالقيود</text></g><g transform="translate(45 195)"><rect width="420" height="115" rx="24" fill="#fff" stroke="#ddd9ed" filter="url(#sh)"/><rect width="14" height="115" rx="7" fill="#4f46e5"/><text x="210" y="42" text-anchor="middle" direction="rtl" font-family="Cairo,Tahoma,Arial,sans-serif" font-size="17" font-weight="800" fill="#302b50">منع النسخ</text><text x="210" y="75" text-anchor="middle" direction="rtl" font-family="Cairo,Tahoma,Arial,sans-serif" font-size="14" font-weight="800" fill="#4f46e5">تقليل الاستخدام العرضي</text><text x="210" y="101" text-anchor="middle" direction="rtl" font-family="Cairo,Tahoma,Arial,sans-serif" font-size="13" font-weight="700" fill="#625d72">ليس حماية مطلقة</text></g><g transform="translate(490 195)"><rect width="420" height="115" rx="24" fill="#fff" stroke="#ddd9ed" filter="url(#sh)"/><rect width="14" height="115" rx="7" fill="#0f9f8f"/><text x="210" y="42" text-anchor="middle" direction="rtl" font-family="Cairo,Tahoma,Arial,sans-serif" font-size="17" font-weight="800" fill="#302b50">قناة مشفرة</text><text x="210" y="75" text-anchor="middle" direction="rtl" font-family="Cairo,Tahoma,Arial,sans-serif" font-size="14" font-weight="800" fill="#4f46e5">ملفات شديدة الحساسية</text><text x="210" y="101" text-anchor="middle" direction="rtl" font-family="Cairo,Tahoma,Arial,sans-serif" font-size="13" font-weight="700" fill="#625d72">إدارة الوصول والاسترداد</text></g></svg>