<svg xmlns="http://www.w3.org/2000/svg" width="760" height="520" viewBox="0 0 760 520" role="img"><defs><linearGradient id="g" x1="0" y1="0" x2="1" y2="1"><stop stop-color="#ea580c"/><stop offset="1" stop-color="#f59e0b"/></linearGradient><linearGradient id="soft" x1="0" y1="0" x2="1" y2="1"><stop stop-color="#2563eb" stop-opacity=".22"/><stop offset="1" stop-color="#ea580c" stop-opacity=".05"/></linearGradient><filter id="sh" x="-20%" y="-20%" width="140%" height="140%"><feDropShadow dx="0" dy="12" stdDeviation="13" flood-color="#302860" flood-opacity=".12"/></filter></defs><rect width="760" height="520" rx="34" fill="#f8f7ff"/><circle cx="90" cy="68" r="74" fill="#ea580c" opacity=".07"/><circle cx="690" cy="475" r="90" fill="#2563eb" opacity=".09"/><text x="380" y="62" text-anchor="middle" direction="rtl" font-family="Cairo,Tahoma,Arial,sans-serif" font-size="27" font-weight="900" fill="#282344">تدوير صفحات PDF</text><g transform="rotate(-9 195 270)"><rect x="85" y="125" width="220" height="290" rx="18" fill="#fff" stroke="#d9d5ec" stroke-width="2" filter="url(#sh)"/><path d="M110 175h170M110 203h148M110 231h178" stroke="#d8d4e8" stroke-width="9" stroke-linecap="round"/></g><path d="M370 310a145 145 0 1 1 230 55" fill="none" stroke="url(#g)" stroke-width="18" stroke-linecap="round"/><path d="m570 330 38 38-54 12" fill="none" stroke="#ea580c" stroke-width="15" stroke-linecap="round" stroke-linejoin="round"/><g transform="rotate(90 542.5 242.5)"><rect x="440" y="105" width="205" height="275" rx="18" fill="#fff" stroke="#d9d5ec" stroke-width="2" filter="url(#sh)"/><path d="M465 155h155M465 183h133M465 211h163" stroke="#d8d4e8" stroke-width="9" stroke-linecap="round"/></g><text x="520" y="415" text-anchor="middle" direction="rtl" font-family="Cairo,Tahoma,Arial,sans-serif" font-size="20" font-weight="800" fill="#ea580c">اتجاه محفوظ</text></svg>