<svg xmlns="http://www.w3.org/2000/svg" width="960" height="360" viewBox="0 0 960 360" role="img"><defs><linearGradient id="g" x1="0" y1="0" x2="1" y2="1"><stop stop-color="#ea580c"/><stop offset="1" stop-color="#f59e0b"/></linearGradient><linearGradient id="soft" x1="0" y1="0" x2="1" y2="1"><stop stop-color="#2563eb" stop-opacity=".22"/><stop offset="1" stop-color="#ea580c" stop-opacity=".05"/></linearGradient><filter id="sh" x="-20%" y="-20%" width="140%" height="140%"><feDropShadow dx="0" dy="12" stdDeviation="13" flood-color="#302860" flood-opacity=".12"/></filter></defs><rect width="960" height="360" rx="34" fill="#f8f7ff"/><circle cx="90" cy="68" r="74" fill="#ea580c" opacity=".07"/><circle cx="890" cy="315" r="90" fill="#2563eb" opacity=".09"/><g transform="translate(850 7) scale(.72)"><g opacity=".85"><path d="M13 58a34 34 0 1 1 57-18" fill="none" stroke="url(#g)" stroke-width="7" stroke-linecap="round"/><path d="m62 33 10 9-15 5" fill="none" stroke="url(#g)" stroke-width="6"/><rect x="23" y="17" width="31" height="42" rx="6" fill="#fff" stroke="url(#g)" stroke-width="3"/></g></g><g transform="translate(45 55)"><rect width="420" height="115" rx="24" fill="#fff" stroke="#ddd9ed" filter="url(#sh)"/><rect width="14" height="115" rx="7" fill="#ea580c"/><text x="210" y="42" text-anchor="middle" direction="rtl" font-family="Cairo,Tahoma,Arial,sans-serif" font-size="17" font-weight="800" fill="#302b50">90 درجة يمينًا</text><text x="210" y="75" text-anchor="middle" direction="rtl" font-family="Cairo,Tahoma,Arial,sans-serif" font-size="14" font-weight="800" fill="#ea580c">صفحة مائلة لليسار</text><text x="210" y="101" text-anchor="middle" direction="rtl" font-family="Cairo,Tahoma,Arial,sans-serif" font-size="13" font-weight="700" fill="#625d72">رأس النص</text></g><g transform="translate(490 55)"><rect width="420" height="115" rx="24" fill="#fff" stroke="#ddd9ed" filter="url(#sh)"/><rect width="14" height="115" rx="7" fill="#2563eb"/><text x="210" y="42" text-anchor="middle" direction="rtl" font-family="Cairo,Tahoma,Arial,sans-serif" font-size="17" font-weight="800" fill="#302b50">90 درجة يسارًا</text><text x="210" y="75" text-anchor="middle" direction="rtl" font-family="Cairo,Tahoma,Arial,sans-serif" font-size="14" font-weight="800" fill="#ea580c">صفحة مائلة لليمين</text><text x="210" y="101" text-anchor="middle" direction="rtl" font-family="Cairo,Tahoma,Arial,sans-serif" font-size="13" font-weight="700" fill="#625d72">اتجاه القراءة</text></g><g transform="translate(45 195)"><rect width="420" height="115" rx="24" fill="#fff" stroke="#ddd9ed" filter="url(#sh)"/><rect width="14" height="115" rx="7" fill="#ea580c"/><text x="210" y="42" text-anchor="middle" direction="rtl" font-family="Cairo,Tahoma,Arial,sans-serif" font-size="17" font-weight="800" fill="#302b50">180 درجة</text><text x="210" y="75" text-anchor="middle" direction="rtl" font-family="Cairo,Tahoma,Arial,sans-serif" font-size="14" font-weight="800" fill="#ea580c">صفحة مقلوبة</text><text x="210" y="101" text-anchor="middle" direction="rtl" font-family="Cairo,Tahoma,Arial,sans-serif" font-size="13" font-weight="700" fill="#625d72">أعلى وأسفل</text></g><g transform="translate(490 195)"><rect width="420" height="115" rx="24" fill="#fff" stroke="#ddd9ed" filter="url(#sh)"/><rect width="14" height="115" rx="7" fill="#2563eb"/><text x="210" y="42" text-anchor="middle" direction="rtl" font-family="Cairo,Tahoma,Arial,sans-serif" font-size="17" font-weight="800" fill="#302b50">تدوير العرض فقط</text><text x="210" y="75" text-anchor="middle" direction="rtl" font-family="Cairo,Tahoma,Arial,sans-serif" font-size="14" font-weight="800" fill="#ea580c">قراءة مؤقتة</text><text x="210" y="101" text-anchor="middle" direction="rtl" font-family="Cairo,Tahoma,Arial,sans-serif" font-size="13" font-weight="700" fill="#625d72">لا يغيّر الملف</text></g></svg>