<svg xmlns="http://www.w3.org/2000/svg" width="960" height="340" viewBox="0 0 960 340" role="img"><defs><linearGradient id="g" x1="0" y1="0" x2="1" y2="1"><stop stop-color="#0f8f83"/><stop offset="1" stop-color="#39c6b8"/></linearGradient><linearGradient id="soft" x1="0" y1="0" x2="1" y2="1"><stop stop-color="#6558e8" stop-opacity=".22"/><stop offset="1" stop-color="#0f8f83" stop-opacity=".05"/></linearGradient><filter id="sh" x="-20%" y="-20%" width="140%" height="140%"><feDropShadow dx="0" dy="12" stdDeviation="13" flood-color="#302860" flood-opacity=".12"/></filter></defs><rect width="960" height="340" rx="34" fill="#f8f7ff"/><circle cx="90" cy="68" r="74" fill="#0f8f83" opacity=".07"/><circle cx="890" cy="295" r="90" fill="#6558e8" opacity=".09"/><g transform="translate(850 7) scale(.72)"><g opacity=".85"><rect x="5" y="2" width="55" height="66" rx="8" fill="#fff" stroke="url(#g)" stroke-width="3"/><path d="M32 4v63" stroke="url(#g)" stroke-width="3" stroke-dasharray="6 5"/><circle cx="71" cy="23" r="9" fill="none" stroke="url(#g)" stroke-width="4"/><circle cx="71" cy="47" r="9" fill="none" stroke="url(#g)" stroke-width="4"/></g></g><rect x="55" y="72" width="185" height="178" rx="21" fill="#fff" stroke="#ddd9ed" filter="url(#sh)"/><circle cx="147.5" cy="72" r="27" fill="url(#g)"/><text x="147.5" y="81" text-anchor="middle" direction="rtl" font-family="Cairo,Tahoma,Arial,sans-serif" font-size="21" font-weight="900" fill="#fff">1</text><text x="147.5" y="144" text-anchor="middle" direction="rtl" font-family="Cairo,Tahoma,Arial,sans-serif" font-size="19" font-weight="800" fill="#302b50">حضّر</text><text x="147.5" y="194" text-anchor="middle" direction="rtl" font-family="Cairo,Tahoma,Arial,sans-serif" font-size="14" font-weight="700" fill="#0f8f83">مصدر</text><rect x="275" y="96" width="185" height="178" rx="21" fill="#fff" stroke="#ddd9ed" filter="url(#sh)"/><circle cx="367.5" cy="96" r="27" fill="url(#g)"/><text x="367.5" y="105" text-anchor="middle" direction="rtl" font-family="Cairo,Tahoma,Arial,sans-serif" font-size="21" font-weight="900" fill="#fff">2</text><text x="367.5" y="168" text-anchor="middle" direction="rtl" font-family="Cairo,Tahoma,Arial,sans-serif" font-size="19" font-weight="800" fill="#302b50">اضبط</text><text x="367.5" y="218" text-anchor="middle" direction="rtl" font-family="Cairo,Tahoma,Arial,sans-serif" font-size="14" font-weight="700" fill="#0f8f83">إعداد</text><rect x="495" y="120" width="185" height="178" rx="21" fill="#fff" stroke="#ddd9ed" filter="url(#sh)"/><circle cx="587.5" cy="120" r="27" fill="url(#g)"/><text x="587.5" y="129" text-anchor="middle" direction="rtl" font-family="Cairo,Tahoma,Arial,sans-serif" font-size="21" font-weight="900" fill="#fff">3</text><text x="587.5" y="192" text-anchor="middle" direction="rtl" font-family="Cairo,Tahoma,Arial,sans-serif" font-size="19" font-weight="800" fill="#302b50">نفّذ</text><text x="587.5" y="242" text-anchor="middle" direction="rtl" font-family="Cairo,Tahoma,Arial,sans-serif" font-size="14" font-weight="700" fill="#0f8f83">معالجة</text><rect x="715" y="144" width="185" height="178" rx="21" fill="#fff" stroke="#ddd9ed" filter="url(#sh)"/><circle cx="807.5" cy="144" r="27" fill="url(#g)"/><text x="807.5" y="153" text-anchor="middle" direction="rtl" font-family="Cairo,Tahoma,Arial,sans-serif" font-size="21" font-weight="900" fill="#fff">4</text><text x="807.5" y="216" text-anchor="middle" direction="rtl" font-family="Cairo,Tahoma,Arial,sans-serif" font-size="19" font-weight="800" fill="#302b50">راجع</text><text x="807.5" y="266" text-anchor="middle" direction="rtl" font-family="Cairo,Tahoma,Arial,sans-serif" font-size="14" font-weight="700" fill="#0f8f83">اعتماد</text><path d="M65 300 Q480 293 895 300" fill="none" stroke="#6558e8" stroke-width="5" stroke-dasharray="10 10" opacity=".5"/></svg>