<svg xmlns="http://www.w3.org/2000/svg" width="760" height="520" viewBox="0 0 760 520" role="img"><defs><linearGradient id="g" x1="0" y1="0" x2="1" y2="1"><stop stop-color="#0f8f83"/><stop offset="1" stop-color="#39c6b8"/></linearGradient><linearGradient id="soft" x1="0" y1="0" x2="1" y2="1"><stop stop-color="#6558e8" stop-opacity=".22"/><stop offset="1" stop-color="#0f8f83" stop-opacity=".05"/></linearGradient><filter id="sh" x="-20%" y="-20%" width="140%" height="140%"><feDropShadow dx="0" dy="12" stdDeviation="13" flood-color="#302860" flood-opacity=".12"/></filter></defs><rect width="760" height="520" rx="34" fill="#f8f7ff"/><circle cx="90" cy="68" r="74" fill="#0f8f83" opacity=".07"/><circle cx="690" cy="475" r="90" fill="#6558e8" opacity=".09"/><text x="380" y="62" text-anchor="middle" direction="rtl" font-family="Cairo,Tahoma,Arial,sans-serif" font-size="27" font-weight="900" fill="#282344">تقسيم ملف PDF</text><g transform="rotate(0 205 260)"><rect x="80" y="100" width="250" height="320" rx="18" fill="#fff" stroke="#d9d5ec" stroke-width="2" filter="url(#sh)"/><path d="M105 150h200M105 178h178M105 206h208" stroke="#d8d4e8" stroke-width="9" stroke-linecap="round"/></g><path d="M205 105v310" stroke="#0f8f83" stroke-width="4" stroke-dasharray="12 9"/><path d="M170 250c42-32 82-32 120 0M170 250c42 32 82 32 120 0" fill="none" stroke="#6558e8" stroke-width="10"/><g transform="rotate(-4 482.5 210)"><rect x="420" y="120" width="125" height="180" rx="18" fill="#fff" stroke="#d9d5ec" stroke-width="2" filter="url(#sh)"/><path d="M445 170h75M445 198h53M445 226h83" stroke="#d8d4e8" stroke-width="9" stroke-linecap="round"/></g><g transform="rotate(5 632.5 250)"><rect x="570" y="160" width="125" height="180" rx="18" fill="#fff" stroke="#d9d5ec" stroke-width="2" filter="url(#sh)"/><path d="M595 210h75M595 238h53M595 266h83" stroke="#d8d4e8" stroke-width="9" stroke-linecap="round"/></g><text x="555" y="380" text-anchor="middle" direction="rtl" font-family="Cairo,Tahoma,Arial,sans-serif" font-size="21" font-weight="800" fill="#0f8f83">نطاقات مستقلة</text></svg>