<svg xmlns="http://www.w3.org/2000/svg" width="960" height="360" viewBox="0 0 960 360" role="img"><defs><linearGradient id="g" x1="0" y1="0" x2="1" y2="1"><stop stop-color="#0f8f83"/><stop offset="1" stop-color="#39c6b8"/></linearGradient><linearGradient id="soft" x1="0" y1="0" x2="1" y2="1"><stop stop-color="#6558e8" stop-opacity=".22"/><stop offset="1" stop-color="#0f8f83" stop-opacity=".05"/></linearGradient><filter id="sh" x="-20%" y="-20%" width="140%" height="140%"><feDropShadow dx="0" dy="12" stdDeviation="13" flood-color="#302860" flood-opacity=".12"/></filter></defs><rect width="960" height="360" rx="34" fill="#f8f7ff"/><circle cx="90" cy="68" r="74" fill="#0f8f83" opacity=".07"/><circle cx="890" cy="315" r="90" fill="#6558e8" opacity=".09"/><g transform="translate(850 7) scale(.72)"><g opacity=".85"><rect x="5" y="2" width="55" height="66" rx="8" fill="#fff" stroke="url(#g)" stroke-width="3"/><path d="M32 4v63" stroke="url(#g)" stroke-width="3" stroke-dasharray="6 5"/><circle cx="71" cy="23" r="9" fill="none" stroke="url(#g)" stroke-width="4"/><circle cx="71" cy="47" r="9" fill="none" stroke="url(#g)" stroke-width="4"/></g></g><path d="M120 180h720" stroke="#6558e8" stroke-width="7" stroke-dasharray="12 10"/><g transform="translate(65 70)"><circle cx="110" cy="110" r="80" fill="#fff" stroke="#0f8f83" stroke-width="5" filter="url(#sh)"/><text x="110" y="102" text-anchor="middle" direction="rtl" font-family="Cairo,Tahoma,Arial,sans-serif" font-size="16" font-weight="800" fill="#302b50">استخرجت الصفحة ال</text><text x="110" y="135" text-anchor="middle" direction="rtl" font-family="Cairo,Tahoma,Arial,sans-serif" font-size="13" font-weight="700" fill="#0f8f83">الملف</text></g><g transform="translate(365 70)"><circle cx="110" cy="110" r="80" fill="#fff" stroke="#6558e8" stroke-width="5" filter="url(#sh)"/><text x="110" y="102" text-anchor="middle" direction="rtl" font-family="Cairo,Tahoma,Arial,sans-serif" font-size="16" font-weight="800" fill="#302b50">النطاق مرفوض</text><text x="110" y="135" text-anchor="middle" direction="rtl" font-family="Cairo,Tahoma,Arial,sans-serif" font-size="13" font-weight="700" fill="#0f8f83">الخيار</text></g><g transform="translate(665 70)"><circle cx="110" cy="110" r="80" fill="#fff" stroke="#0f8f83" stroke-width="5" filter="url(#sh)"/><text x="110" y="102" text-anchor="middle" direction="rtl" font-family="Cairo,Tahoma,Arial,sans-serif" font-size="16" font-weight="800" fill="#302b50">الرابط الداخلي لا</text><text x="110" y="135" text-anchor="middle" direction="rtl" font-family="Cairo,Tahoma,Arial,sans-serif" font-size="13" font-weight="700" fill="#0f8f83">المراجعة</text></g></svg>