<svg xmlns="http://www.w3.org/2000/svg" width="960" height="360" viewBox="0 0 960 360" role="img"><defs><linearGradient id="g" x1="0" y1="0" x2="1" y2="1"><stop stop-color="#0f766e"/><stop offset="1" stop-color="#14b8a6"/></linearGradient><linearGradient id="soft" x1="0" y1="0" x2="1" y2="1"><stop stop-color="#f59e0b" stop-opacity=".22"/><stop offset="1" stop-color="#0f766e" stop-opacity=".05"/></linearGradient><filter id="sh" x="-20%" y="-20%" width="140%" height="140%"><feDropShadow dx="0" dy="12" stdDeviation="13" flood-color="#302860" flood-opacity=".12"/></filter></defs><rect width="960" height="360" rx="34" fill="#f8f7ff"/><circle cx="90" cy="68" r="74" fill="#0f766e" opacity=".07"/><circle cx="890" cy="315" r="90" fill="#f59e0b" opacity=".09"/><g transform="translate(850 7) scale(.72)"><g opacity=".85"><rect x="0" y="22" width="48" height="42" rx="9" fill="#fff" stroke="url(#g)" stroke-width="3"/><path d="M12 22V12a14 14 0 0 1 26-7" fill="none" stroke="url(#g)" stroke-width="7"/><circle cx="69" cy="31" r="14" fill="none" stroke="url(#g)" stroke-width="6"/><path d="M58 42 43 57m4-4 11 11" stroke="url(#g)" stroke-width="6"/></g></g><g transform="translate(70 65)"><circle cx="90" cy="90" r="72" fill="#fff" stroke="#0f766e" stroke-width="5" filter="url(#sh)"/><text x="90" y="82" text-anchor="middle" direction="rtl" font-family="Cairo,Tahoma,Arial,sans-serif" font-size="15" font-weight="800" fill="#302b50">كلمة فتح معروفة</text><text x="90" y="111" text-anchor="middle" direction="rtl" font-family="Cairo,Tahoma,Arial,sans-serif" font-size="12" font-weight="700" fill="#0f766e">صحة الكلمة</text></g><g transform="translate(285 105)"><circle cx="90" cy="90" r="68" fill="#fff" stroke="#f59e0b" stroke-width="5" filter="url(#sh)"/><text x="90" y="82" text-anchor="middle" direction="rtl" font-family="Cairo,Tahoma,Arial,sans-serif" font-size="15" font-weight="800" fill="#302b50">قيود صلاحيات</text><text x="90" y="111" text-anchor="middle" direction="rtl" font-family="Cairo,Tahoma,Arial,sans-serif" font-size="12" font-weight="700" fill="#0f766e">حق الاستخدام</text></g><g transform="translate(500 65)"><circle cx="90" cy="90" r="64" fill="#fff" stroke="#0f766e" stroke-width="5" filter="url(#sh)"/><text x="90" y="82" text-anchor="middle" direction="rtl" font-family="Cairo,Tahoma,Arial,sans-serif" font-size="15" font-weight="800" fill="#302b50">توقيع رقمي</text><text x="90" y="111" text-anchor="middle" direction="rtl" font-family="Cairo,Tahoma,Arial,sans-serif" font-size="12" font-weight="700" fill="#0f766e">سلامة التوقيع</text></g><g transform="translate(715 105)"><circle cx="90" cy="90" r="60" fill="#fff" stroke="#f59e0b" stroke-width="5" filter="url(#sh)"/><text x="90" y="82" text-anchor="middle" direction="rtl" font-family="Cairo,Tahoma,Arial,sans-serif" font-size="15" font-weight="800" fill="#302b50">كلمة مفقودة</text><text x="90" y="111" text-anchor="middle" direction="rtl" font-family="Cairo,Tahoma,Arial,sans-serif" font-size="12" font-weight="700" fill="#0f766e">لا يوجد تجاوز مضمون</text></g><path d="M95 300h770" stroke="#f59e0b" stroke-width="6" stroke-linecap="round"/></svg>