<svg xmlns="http://www.w3.org/2000/svg" width="760" height="520" viewBox="0 0 760 520" role="img"><defs><linearGradient id="g" x1="0" y1="0" x2="1" y2="1"><stop stop-color="#0f766e"/><stop offset="1" stop-color="#14b8a6"/></linearGradient><linearGradient id="soft" x1="0" y1="0" x2="1" y2="1"><stop stop-color="#f59e0b" stop-opacity=".22"/><stop offset="1" stop-color="#0f766e" stop-opacity=".05"/></linearGradient><filter id="sh" x="-20%" y="-20%" width="140%" height="140%"><feDropShadow dx="0" dy="12" stdDeviation="13" flood-color="#302860" flood-opacity=".12"/></filter></defs><rect width="760" height="520" rx="34" fill="#f8f7ff"/><circle cx="90" cy="68" r="74" fill="#0f766e" opacity=".07"/><circle cx="690" cy="475" r="90" fill="#f59e0b" opacity=".09"/><text x="380" y="62" text-anchor="middle" direction="rtl" font-family="Cairo,Tahoma,Arial,sans-serif" font-size="27" font-weight="900" fill="#282344">فك قفل PDF أونلاين</text><g transform="rotate(2 193 267.5)"><rect x="68" y="110" width="250" height="315" rx="18" fill="#fff" stroke="#d9d5ec" stroke-width="2" filter="url(#sh)"/><path d="M93 160h200M93 188h178M93 216h208" stroke="#d8d4e8" stroke-width="9" stroke-linecap="round"/></g><rect x="410" y="155" width="170" height="170" rx="34" fill="#fff" stroke="#d9d5ec" filter="url(#sh)"/><path d="M455 208v-30a44 44 0 0 1 82-22" fill="none" stroke="#0f766e" stroke-width="18" stroke-linecap="round"/><rect x="445" y="205" width="100" height="90" rx="20" fill="url(#g)"/><circle cx="495" cy="245" r="12" fill="#fff"/><path d="M495 257v20" stroke="#fff" stroke-width="7"/><circle cx="650" cy="250" r="44" fill="none" stroke="#f59e0b" stroke-width="16"/><path d="M615 285 555 345m18-18 28 28" stroke="#f59e0b" stroke-width="16" stroke-linecap="round"/><text x="555" y="405" text-anchor="middle" direction="rtl" font-family="Cairo,Tahoma,Arial,sans-serif" font-size="20" font-weight="800" fill="#0f766e">نسخة بإذن</text></svg>