<svg xmlns="http://www.w3.org/2000/svg" width="760" height="520" viewBox="0 0 760 520" role="img"><defs><linearGradient id="g" x1="0" y1="0" x2="1" y2="1"><stop stop-color="#2563eb"/><stop offset="1" stop-color="#60a5fa"/></linearGradient><linearGradient id="soft" x1="0" y1="0" x2="1" y2="1"><stop stop-color="#8b5cf6" stop-opacity=".22"/><stop offset="1" stop-color="#2563eb" stop-opacity=".05"/></linearGradient><filter id="sh" x="-20%" y="-20%" width="140%" height="140%"><feDropShadow dx="0" dy="12" stdDeviation="13" flood-color="#302860" flood-opacity=".12"/></filter></defs><rect width="760" height="520" rx="34" fill="#f8f7ff"/><circle cx="90" cy="68" r="74" fill="#2563eb" opacity=".07"/><circle cx="690" cy="475" r="90" fill="#8b5cf6" opacity=".09"/><text x="380" y="62" text-anchor="middle" direction="rtl" font-family="Cairo,Tahoma,Arial,sans-serif" font-size="27" font-weight="900" fill="#282344">تحويل Word إلى PDF</text><rect x="65" y="100" width="260" height="310" rx="25" fill="#fff" stroke="#d9d5ec" filter="url(#sh)"/><rect x="90" y="130" width="72" height="72" rx="18" fill="#2563eb"/><text x="126" y="180" text-anchor="middle" direction="rtl" font-family="Cairo,Tahoma,Arial,sans-serif" font-size="18" font-weight="800" fill="#fff">وورد</text><path d="M95 240h200M95 275h165M95 310h190M95 345h135" stroke="#d8d4e8" stroke-width="11" stroke-linecap="round"/><path d="M355 255h85m-28-27 33 27-33 27" fill="none" stroke="#8b5cf6" stroke-width="12"/><g transform="rotate(0 590 247)"><rect x="480" y="82" width="220" height="330" rx="18" fill="#fff" stroke="#d9d5ec" stroke-width="2" filter="url(#sh)"/><path d="M505 132h170M505 160h148M505 188h178" stroke="#d8d4e8" stroke-width="9" stroke-linecap="round"/></g><rect x="515" y="118" width="150" height="38" rx="12" fill="#2563eb"/><text x="590" y="145" text-anchor="middle" direction="rtl" font-family="Cairo,Tahoma,Arial,sans-serif" font-size="17" font-weight="800" fill="#fff">PDF ثابت</text></svg>