<svg xmlns="http://www.w3.org/2000/svg" width="960" height="360" viewBox="0 0 960 360" role="img"><defs><linearGradient id="g" x1="0" y1="0" x2="1" y2="1"><stop stop-color="#2563eb"/><stop offset="1" stop-color="#60a5fa"/></linearGradient><linearGradient id="soft" x1="0" y1="0" x2="1" y2="1"><stop stop-color="#8b5cf6" stop-opacity=".22"/><stop offset="1" stop-color="#2563eb" stop-opacity=".05"/></linearGradient><filter id="sh" x="-20%" y="-20%" width="140%" height="140%"><feDropShadow dx="0" dy="12" stdDeviation="13" flood-color="#302860" flood-opacity=".12"/></filter></defs><rect width="960" height="360" rx="34" fill="#f8f7ff"/><circle cx="90" cy="68" r="74" fill="#2563eb" opacity=".07"/><circle cx="890" cy="315" r="90" fill="#8b5cf6" opacity=".09"/><g transform="translate(850 7) scale(.72)"><g opacity=".85"><rect x="2" y="2" width="46" height="66" rx="8" fill="#fff" stroke="url(#g)" stroke-width="3"/><path d="M12 22h26M12 33h21M12 44h26" stroke="url(#g)" stroke-width="4"/><path d="M55 35h29m-10-10 11 10-11 10" fill="none" stroke="url(#g)" stroke-width="5"/></g></g><g transform="translate(70 65)"><circle cx="90" cy="90" r="72" fill="#fff" stroke="#2563eb" stroke-width="5" filter="url(#sh)"/><text x="90" y="82" text-anchor="middle" direction="rtl" font-family="Cairo,Tahoma,Arial,sans-serif" font-size="15" font-weight="800" fill="#302b50">جودة الطباعة</text><text x="90" y="111" text-anchor="middle" direction="rtl" font-family="Cairo,Tahoma,Arial,sans-serif" font-size="12" font-weight="700" fill="#2563eb">حجم الملف</text></g><g transform="translate(285 105)"><circle cx="90" cy="90" r="68" fill="#fff" stroke="#8b5cf6" stroke-width="5" filter="url(#sh)"/><text x="90" y="82" text-anchor="middle" direction="rtl" font-family="Cairo,Tahoma,Arial,sans-serif" font-size="15" font-weight="800" fill="#302b50">جودة الشاشة</text><text x="90" y="111" text-anchor="middle" direction="rtl" font-family="Cairo,Tahoma,Arial,sans-serif" font-size="12" font-weight="700" fill="#2563eb">وضوح الصور الصغيرة</text></g><g transform="translate(500 65)"><circle cx="90" cy="90" r="64" fill="#fff" stroke="#2563eb" stroke-width="5" filter="url(#sh)"/><text x="90" y="82" text-anchor="middle" direction="rtl" font-family="Cairo,Tahoma,Arial,sans-serif" font-size="15" font-weight="800" fill="#302b50">PDF موسوم</text><text x="90" y="111" text-anchor="middle" direction="rtl" font-family="Cairo,Tahoma,Arial,sans-serif" font-size="12" font-weight="700" fill="#2563eb">العناوين والترتيب</text></g><g transform="translate(715 105)"><circle cx="90" cy="90" r="60" fill="#fff" stroke="#8b5cf6" stroke-width="5" filter="url(#sh)"/><text x="90" y="82" text-anchor="middle" direction="rtl" font-family="Cairo,Tahoma,Arial,sans-serif" font-size="15" font-weight="800" fill="#302b50">طباعة افتراضية</text><text x="90" y="111" text-anchor="middle" direction="rtl" font-family="Cairo,Tahoma,Arial,sans-serif" font-size="12" font-weight="700" fill="#2563eb">فقدان الروابط والبنية</text></g><path d="M95 300h770" stroke="#8b5cf6" stroke-width="6" stroke-linecap="round"/></svg>