<svg xmlns="http://www.w3.org/2000/svg" width="960" height="360" viewBox="0 0 960 360" role="img" aria-labelledby="t"><title id="t">إضافة مدة إلى تاريخ</title><defs><linearGradient id="g" x1="0" y1="0" x2="1" y2="1"><stop stop-color="#7c3aed"/><stop offset="1" stop-color="#a855f7"/></linearGradient><linearGradient id="s" x1="0" y1="0" x2="1" y2="1"><stop stop-color="#7c3aed" stop-opacity=".14"/><stop offset="1" stop-color="#14b8a6" stop-opacity=".06"/></linearGradient><filter id="sh" x="-25%" y="-25%" width="150%" height="150%"><feDropShadow dx="0" dy="12" stdDeviation="14" flood-color="#172554" flood-opacity=".12"/></filter><marker id="ar" viewBox="0 0 10 10" refX="8" refY="5" markerWidth="7" markerHeight="7" orient="auto-start-reverse"><path d="M0 0 10 5 0 10Z" fill="#7c3aed"/></marker></defs><rect width="960" height="360" rx="34" fill="#f8faff"/><circle cx="890" cy="65" r="105" fill="#a855f7" opacity=".06"/><circle cx="65" cy="325" r="120" fill="#14b8a6" opacity=".07"/><rect x="610" y="56" width="320" height="255" rx="22" fill="#fff" stroke="#d9deef" filter="url(#sh)"/><g opacity=".9" transform="translate(620 78) scale(.30)"><rect x="90" y="130" width="180" height="190" rx="22" fill="#fff" stroke="#d9deef" filter="url(#sh)"/><rect x="90" y="130" width="180" height="48" rx="22" fill="url(#g)"/><text x="180" y="163" text-anchor="middle" direction="rtl" font-family="Tahoma,Arial,sans-serif" font-size="16" font-weight="800" fill="#fff">التاريخ</text><text x="180" y="250" text-anchor="middle" direction="rtl" font-family="Tahoma,Arial,sans-serif" font-size="46" font-weight="900" fill="#7c3aed">31</text><path d="M120 280h120" stroke="#d7dced" stroke-width="8" stroke-linecap="round"/><path d="M300 225 L465 225" fill="none" stroke="#7c3aed" stroke-width="5" stroke-linecap="round" marker-end="url(#ar)"/><rect x="480" y="130" width="180" height="190" rx="22" fill="#fff" stroke="#d9deef" filter="url(#sh)"/><rect x="480" y="130" width="180" height="48" rx="22" fill="url(#g)"/><text x="570" y="163" text-anchor="middle" direction="rtl" font-family="Tahoma,Arial,sans-serif" font-size="16" font-weight="800" fill="#fff">بعد الإضافة</text><text x="570" y="250" text-anchor="middle" direction="rtl" font-family="Tahoma,Arial,sans-serif" font-size="46" font-weight="900" fill="#7c3aed">28</text><path d="M510 280h120" stroke="#d7dced" stroke-width="8" stroke-linecap="round"/><circle cx="385" cy="145" r="42" fill="url(#g)" filter="url(#sh)"/><text x="385" y="153" text-anchor="middle" direction="rtl" font-family="Tahoma,Arial,sans-serif" font-size="17.64" font-weight="900" fill="#fff">+ شهر</text></g><text x="770" y="338" text-anchor="middle" direction="rtl" font-family="Tahoma,Arial,sans-serif" font-size="14" font-weight="800" fill="#7c3aed">افحص موضوع الحاسبة نفسه</text><path d="M105 88V310M105 118H500M105 205H500M105 292H500" stroke="#d7ddec" stroke-width="6" stroke-linecap="round"/><circle cx="105" cy="118" r="22" fill="url(#g)"/><rect x="150" y="87" width="370" height="62" rx="22" fill="#fff" stroke="#d9deef" filter="url(#sh)"/><text x="270" y="124" text-anchor="middle" direction="rtl" font-family="Tahoma,Arial,sans-serif" font-size="14" font-weight="800" fill="#7c3aed">نتيجة بعيدة</text><text x="435" y="124" text-anchor="middle" direction="rtl" font-family="Tahoma,Arial,sans-serif" font-size="12" font-weight="700" fill="#596078">المدخل</text><circle cx="105" cy="205" r="22" fill="#7c3aed"/><rect x="150" y="174" width="370" height="62" rx="22" fill="#fff" stroke="#d9deef" filter="url(#sh)"/><text x="270" y="211" text-anchor="middle" direction="rtl" font-family="Tahoma,Arial,sans-serif" font-size="14" font-weight="800" fill="#7c3aed">نتيجتان مختلفتان</text><text x="435" y="211" text-anchor="middle" direction="rtl" font-family="Tahoma,Arial,sans-serif" font-size="12" font-weight="700" fill="#596078">القاعدة</text><circle cx="105" cy="292" r="22" fill="#7c3aed"/><rect x="150" y="261" width="370" height="62" rx="22" fill="#fff" stroke="#d9deef" filter="url(#sh)"/><text x="270" y="298" text-anchor="middle" direction="rtl" font-family="Tahoma,Arial,sans-serif" font-size="14" font-weight="800" fill="#7c3aed">افتراض مجهول</text><text x="435" y="298" text-anchor="middle" direction="rtl" font-family="Tahoma,Arial,sans-serif" font-size="12" font-weight="700" fill="#596078">النطاق</text><text x="300" y="48" text-anchor="middle" direction="rtl" font-family="Tahoma,Arial,sans-serif" font-size="17" font-weight="800" fill="#7c3aed">مسار تشخيص متسلسل</text></svg>