<svg xmlns="http://www.w3.org/2000/svg" width="760" height="520" viewBox="0 0 760 520" role="img" aria-labelledby="t"><title id="t">حساب العمر بالهجري والميلادي</title><defs><linearGradient id="g" x1="0" y1="0" x2="1" y2="1"><stop stop-color="#0f766e"/><stop offset="1" stop-color="#2dd4bf"/></linearGradient><linearGradient id="s" x1="0" y1="0" x2="1" y2="1"><stop stop-color="#0f766e" stop-opacity=".14"/><stop offset="1" stop-color="#8b5cf6" stop-opacity=".06"/></linearGradient><filter id="sh" x="-25%" y="-25%" width="150%" height="150%"><feDropShadow dx="0" dy="12" stdDeviation="14" flood-color="#172554" flood-opacity=".12"/></filter><marker id="ar" viewBox="0 0 10 10" refX="8" refY="5" markerWidth="7" markerHeight="7" orient="auto-start-reverse"><path d="M0 0 10 5 0 10Z" fill="#0f766e"/></marker></defs><rect width="760" height="520" rx="34" fill="#f8faff"/><circle cx="690" cy="65" r="105" fill="#2dd4bf" opacity=".06"/><circle cx="65" cy="485" r="120" fill="#8b5cf6" opacity=".07"/><text x="380" y="48" text-anchor="middle" direction="rtl" font-family="Tahoma,Arial,sans-serif" font-size="21" font-weight="900" fill="#0f766e">حساب العمر بالهجري والميلادي</text><rect x="65" y="130" width="180" height="190" rx="22" fill="#fff" stroke="#d9deef" filter="url(#sh)"/><rect x="65" y="130" width="180" height="48" rx="22" fill="url(#g)"/><text x="155" y="163" text-anchor="middle" direction="rtl" font-family="Tahoma,Arial,sans-serif" font-size="16" font-weight="800" fill="#fff">ميلادي</text><text x="155" y="250" text-anchor="middle" direction="rtl" font-family="Tahoma,Arial,sans-serif" font-size="46" font-weight="900" fill="#0f766e">23</text><path d="M95 280h120" stroke="#d7dced" stroke-width="8" stroke-linecap="round"/><rect x="515" y="130" width="180" height="190" rx="22" fill="#fff" stroke="#d9deef" filter="url(#sh)"/><rect x="515" y="130" width="180" height="48" rx="22" fill="url(#g)"/><text x="605" y="163" text-anchor="middle" direction="rtl" font-family="Tahoma,Arial,sans-serif" font-size="16" font-weight="800" fill="#fff">هجري</text><text x="605" y="250" text-anchor="middle" direction="rtl" font-family="Tahoma,Arial,sans-serif" font-size="46" font-weight="900" fill="#0f766e">17</text><path d="M545 280h120" stroke="#d7dced" stroke-width="8" stroke-linecap="round"/><path d="M265 225 L500 225" fill="none" stroke="#0f766e" stroke-width="5" stroke-linecap="round" marker-end="url(#ar)"/><text x="380" y="395" text-anchor="middle" direction="rtl" font-family="Tahoma,Arial,sans-serif" font-size="22" font-weight="800" fill="#0f766e">العمر نفسه بتقويمين</text></svg>