<svg xmlns="http://www.w3.org/2000/svg" width="960" height="360" viewBox="0 0 960 360" role="img" aria-labelledby="t"><title id="t">أداة حل المعادلات الجبرية والخطية والتربيعية</title><defs><linearGradient id="g" x1="0" y1="0" x2="1" y2="1"><stop stop-color="#1d4ed8"/><stop offset="1" stop-color="#60a5fa"/></linearGradient><linearGradient id="s" x1="0" y1="0" x2="1" y2="1"><stop stop-color="#1d4ed8" stop-opacity=".14"/><stop offset="1" stop-color="#f97316" stop-opacity=".06"/></linearGradient><filter id="sh" x="-25%" y="-25%" width="150%" height="150%"><feDropShadow dx="0" dy="12" stdDeviation="14" flood-color="#172554" flood-opacity=".12"/></filter><marker id="ar" viewBox="0 0 10 10" refX="8" refY="5" markerWidth="7" markerHeight="7" orient="auto-start-reverse"><path d="M0 0 10 5 0 10Z" fill="#1d4ed8"/></marker></defs><rect width="960" height="360" rx="34" fill="#f8faff"/><circle cx="890" cy="65" r="105" fill="#60a5fa" opacity=".06"/><circle cx="65" cy="325" r="120" fill="#f97316" opacity=".07"/><rect x="610" y="56" width="320" height="255" rx="22" fill="#fff" stroke="#d9deef" filter="url(#sh)"/><g opacity=".9" transform="translate(620 78) scale(.30)"><path d="M380 115v290M170 160h420" stroke="#1d4ed8" stroke-width="12"/><path d="M170 160 80 340h180Z" fill="#fff" stroke="#60a5fa" stroke-width="7" filter="url(#sh)"/><path d="M590 160 500 340h180Z" fill="#fff" stroke="#60a5fa" stroke-width="7" filter="url(#sh)"/><text x="170" y="275" text-anchor="middle" direction="rtl" font-family="Tahoma,Arial,sans-serif" font-size="29" font-weight="800" fill="#1d4ed8">2س + 6</text><text x="590" y="275" text-anchor="middle" direction="rtl" font-family="Tahoma,Arial,sans-serif" font-size="34" font-weight="800" fill="#1d4ed8">14</text><path d="M285 400 L475 400" fill="none" stroke="#1d4ed8" stroke-width="5" stroke-linecap="round" marker-end="url(#ar)"/><text x="380" y="445" text-anchor="middle" direction="rtl" font-family="Tahoma,Arial,sans-serif" font-size="22" font-weight="800" fill="#1d4ed8">س = 4 بالتعويض</text></g><text x="770" y="338" text-anchor="middle" direction="rtl" font-family="Tahoma,Arial,sans-serif" font-size="14" font-weight="800" fill="#1d4ed8">افحص موضوع الحاسبة نفسه</text><rect x="60" y="42" width="280" height="70" rx="22" fill="#fff" stroke="#d9deef" filter="url(#sh)"/><text x="200" y="75" text-anchor="middle" direction="rtl" font-family="Tahoma,Arial,sans-serif" font-size="17" font-weight="800" fill="#1d4ed8">النتيجة غير متوقعة</text><text x="200" y="101" text-anchor="middle" direction="rtl" font-family="Tahoma,Arial,sans-serif" font-size="12" font-weight="700" fill="#596078">اعزل السبب قبل التعديل</text><path d="M340 127 L410 127" fill="none" stroke="#1d4ed8" stroke-width="5" stroke-linecap="round" marker-end="url(#ar)"/><rect x="60" y="145" width="460" height="52" rx="22" fill="#fff" stroke="#d9deef" filter="url(#sh)"/><text x="180" y="176" text-anchor="middle" direction="rtl" font-family="Tahoma,Arial,sans-serif" font-size="14" font-weight="800" fill="#1d4ed8">نتيجة بعيدة</text><text x="395" y="176" text-anchor="middle" direction="rtl" font-family="Tahoma,Arial,sans-serif" font-size="13" font-weight="700" fill="#596078">راجع الوحدة</text><path d="M340 195 L410 195" fill="none" stroke="#1d4ed8" stroke-width="5" stroke-linecap="round" marker-end="url(#ar)"/><rect x="60" y="213" width="460" height="52" rx="22" fill="#fff" stroke="#d9deef" filter="url(#sh)"/><text x="180" y="244" text-anchor="middle" direction="rtl" font-family="Tahoma,Arial,sans-serif" font-size="14" font-weight="800" fill="#1d4ed8">نتيجتان مختلفتان</text><text x="395" y="244" text-anchor="middle" direction="rtl" font-family="Tahoma,Arial,sans-serif" font-size="13" font-weight="700" fill="#596078">طابق المرجع</text><path d="M340 263 L410 263" fill="none" stroke="#1d4ed8" stroke-width="5" stroke-linecap="round" marker-end="url(#ar)"/><rect x="60" y="281" width="460" height="52" rx="22" fill="#fff" stroke="#d9deef" filter="url(#sh)"/><text x="180" y="312" text-anchor="middle" direction="rtl" font-family="Tahoma,Arial,sans-serif" font-size="14" font-weight="800" fill="#1d4ed8">افتراض مجهول</text><text x="395" y="312" text-anchor="middle" direction="rtl" font-family="Tahoma,Arial,sans-serif" font-size="13" font-weight="700" fill="#596078">اختبر قيمة</text></svg>