<svg xmlns="http://www.w3.org/2000/svg" width="960" height="360" viewBox="0 0 960 360" role="img" aria-labelledby="t"><title id="t">حاسبة مخاطر ASCVD</title><defs><linearGradient id="g" x1="0" y1="0" x2="1" y2="1"><stop stop-color="#0369a1"/><stop offset="1" stop-color="#38bdf8"/></linearGradient><linearGradient id="s" x1="0" y1="0" x2="1" y2="1"><stop stop-color="#0369a1" stop-opacity=".14"/><stop offset="1" stop-color="#f59e0b" stop-opacity=".06"/></linearGradient><filter id="sh" x="-25%" y="-25%" width="150%" height="150%"><feDropShadow dx="0" dy="12" stdDeviation="14" flood-color="#172554" flood-opacity=".12"/></filter><marker id="ar" viewBox="0 0 10 10" refX="8" refY="5" markerWidth="7" markerHeight="7" orient="auto-start-reverse"><path d="M0 0 10 5 0 10Z" fill="#0369a1"/></marker></defs><rect width="960" height="360" rx="34" fill="#f8faff"/><circle cx="890" cy="65" r="105" fill="#38bdf8" opacity=".06"/><circle cx="65" cy="325" r="120" fill="#f59e0b" opacity=".07"/><rect x="610" y="56" width="320" height="255" rx="22" fill="#fff" stroke="#d9deef" filter="url(#sh)"/><g opacity=".9" transform="translate(620 78) scale(.30)"><path d="M205 105c65 0 65 90 0 90s-65-90 0-90m-5 105v215m0-135-95 85m95-85 95 85" fill="none" stroke="#0369a1" stroke-width="18" stroke-linecap="round"/><path d="M200 225c100 10 120 80 215 90s130-75 230-30" fill="none" stroke="#f59e0b" stroke-width="13"/><circle cx="420" cy="315" r="16" fill="url(#g)"/><circle cx="505" cy="310" r="19" fill="url(#g)"/><circle cx="595" cy="285" r="22" fill="url(#g)"/><text x="515" y="400" text-anchor="middle" direction="rtl" font-family="Tahoma,Arial,sans-serif" font-size="19" font-weight="800" fill="#0369a1">عوامل تتجمع عبر الشرايين</text></g><text x="770" y="338" text-anchor="middle" direction="rtl" font-family="Tahoma,Arial,sans-serif" font-size="14" font-weight="800" fill="#0369a1">افحص موضوع الحاسبة نفسه</text><rect x="60" y="42" width="280" height="70" rx="22" fill="#fff" stroke="#d9deef" filter="url(#sh)"/><text x="200" y="75" text-anchor="middle" direction="rtl" font-family="Tahoma,Arial,sans-serif" font-size="17" font-weight="800" fill="#0369a1">النتيجة غير متوقعة</text><text x="200" y="101" text-anchor="middle" direction="rtl" font-family="Tahoma,Arial,sans-serif" font-size="12" font-weight="700" fill="#596078">اعزل السبب قبل التعديل</text><path d="M340 127 L410 127" fill="none" stroke="#0369a1" stroke-width="5" stroke-linecap="round" marker-end="url(#ar)"/><rect x="60" y="145" width="460" height="52" rx="22" fill="#fff" stroke="#d9deef" filter="url(#sh)"/><text x="180" y="176" text-anchor="middle" direction="rtl" font-family="Tahoma,Arial,sans-serif" font-size="14" font-weight="800" fill="#0369a1">نتيجة بعيدة</text><text x="395" y="176" text-anchor="middle" direction="rtl" font-family="Tahoma,Arial,sans-serif" font-size="13" font-weight="700" fill="#596078">راجع الوحدة</text><path d="M340 195 L410 195" fill="none" stroke="#0369a1" stroke-width="5" stroke-linecap="round" marker-end="url(#ar)"/><rect x="60" y="213" width="460" height="52" rx="22" fill="#fff" stroke="#d9deef" filter="url(#sh)"/><text x="180" y="244" text-anchor="middle" direction="rtl" font-family="Tahoma,Arial,sans-serif" font-size="14" font-weight="800" fill="#0369a1">نتيجتان مختلفتان</text><text x="395" y="244" text-anchor="middle" direction="rtl" font-family="Tahoma,Arial,sans-serif" font-size="13" font-weight="700" fill="#596078">طابق المرجع</text><path d="M340 263 L410 263" fill="none" stroke="#0369a1" stroke-width="5" stroke-linecap="round" marker-end="url(#ar)"/><rect x="60" y="281" width="460" height="52" rx="22" fill="#fff" stroke="#d9deef" filter="url(#sh)"/><text x="180" y="312" text-anchor="middle" direction="rtl" font-family="Tahoma,Arial,sans-serif" font-size="14" font-weight="800" fill="#0369a1">افتراض مجهول</text><text x="395" y="312" text-anchor="middle" direction="rtl" font-family="Tahoma,Arial,sans-serif" font-size="13" font-weight="700" fill="#596078">اختبر قيمة</text><rect x="610" y="315" width="320" height="38" rx="22" fill="#fff7ed" stroke="#d9deef" filter="url(#sh)"/><text x="770" y="340" text-anchor="middle" direction="rtl" font-family="Tahoma,Arial,sans-serif" font-size="12" font-weight="800" fill="#9a3412">الأعراض والقرار للطبيب</text></svg>