<svg xmlns="http://www.w3.org/2000/svg" width="760" height="520" viewBox="0 0 760 520" role="img" aria-labelledby="t"><title id="t">حاسبة مخاطر ASCVD</title><defs><linearGradient id="g" x1="0" y1="0" x2="1" y2="1"><stop stop-color="#0369a1"/><stop offset="1" stop-color="#38bdf8"/></linearGradient><linearGradient id="s" x1="0" y1="0" x2="1" y2="1"><stop stop-color="#0369a1" stop-opacity=".14"/><stop offset="1" stop-color="#f59e0b" stop-opacity=".06"/></linearGradient><filter id="sh" x="-25%" y="-25%" width="150%" height="150%"><feDropShadow dx="0" dy="12" stdDeviation="14" flood-color="#172554" flood-opacity=".12"/></filter><marker id="ar" viewBox="0 0 10 10" refX="8" refY="5" markerWidth="7" markerHeight="7" orient="auto-start-reverse"><path d="M0 0 10 5 0 10Z" fill="#0369a1"/></marker></defs><rect width="760" height="520" rx="34" fill="#f8faff"/><circle cx="690" cy="65" r="105" fill="#38bdf8" opacity=".06"/><circle cx="65" cy="485" r="120" fill="#f59e0b" opacity=".07"/><text x="380" y="48" text-anchor="middle" direction="rtl" font-family="Tahoma,Arial,sans-serif" font-size="21" font-weight="900" fill="#0369a1">حاسبة مخاطر صيغة تقنية</text><path d="M205 105c65 0 65 90 0 90s-65-90 0-90m-5 105v215m0-135-95 85m95-85 95 85" fill="none" stroke="#0369a1" stroke-width="18" stroke-linecap="round"/><path d="M200 225c100 10 120 80 215 90s130-75 230-30" fill="none" stroke="#f59e0b" stroke-width="13"/><circle cx="420" cy="315" r="16" fill="url(#g)"/><circle cx="505" cy="310" r="19" fill="url(#g)"/><circle cx="595" cy="285" r="22" fill="url(#g)"/><text x="515" y="400" text-anchor="middle" direction="rtl" font-family="Tahoma,Arial,sans-serif" font-size="19" font-weight="800" fill="#0369a1">عوامل تتجمع عبر الشرايين</text></svg>