<svg xmlns="http://www.w3.org/2000/svg" width="760" height="520" viewBox="0 0 760 520" role="img" aria-labelledby="t"><title id="t">حاسبة نسبة الكحول في الدم BAC</title><defs><linearGradient id="g" x1="0" y1="0" x2="1" y2="1"><stop stop-color="#1d4ed8"/><stop offset="1" stop-color="#60a5fa"/></linearGradient><linearGradient id="s" x1="0" y1="0" x2="1" y2="1"><stop stop-color="#1d4ed8" stop-opacity=".14"/><stop offset="1" stop-color="#f97316" stop-opacity=".06"/></linearGradient><filter id="sh" x="-25%" y="-25%" width="150%" height="150%"><feDropShadow dx="0" dy="12" stdDeviation="14" flood-color="#172554" flood-opacity=".12"/></filter><marker id="ar" viewBox="0 0 10 10" refX="8" refY="5" markerWidth="7" markerHeight="7" orient="auto-start-reverse"><path d="M0 0 10 5 0 10Z" fill="#1d4ed8"/></marker></defs><rect width="760" height="520" rx="34" fill="#f8faff"/><circle cx="690" cy="65" r="105" fill="#60a5fa" opacity=".06"/><circle cx="65" cy="485" r="120" fill="#f97316" opacity=".07"/><text x="380" y="48" text-anchor="middle" direction="rtl" font-family="Tahoma,Arial,sans-serif" font-size="21" font-weight="900" fill="#1d4ed8">حاسبة نسبة الكحول في الدم صيغة تقنية</text><path d="M95 390H675M120 390V120" stroke="#cfd6e8" stroke-width="5"/><path d="M130 355 C220 150 310 145 365 230 S505 390 650 375" fill="none" stroke="url(#g)" stroke-width="12"/><circle cx="155" cy="310" r="13" fill="#fff" stroke="#1d4ed8" stroke-width="6"/><circle cx="285" cy="175" r="13" fill="#fff" stroke="#1d4ed8" stroke-width="6"/><circle cx="420" cy="285" r="13" fill="#fff" stroke="#1d4ed8" stroke-width="6"/><circle cx="560" cy="370" r="13" fill="#fff" stroke="#1d4ed8" stroke-width="6"/><path d="M120 250h530" stroke="#f97316" stroke-width="5" stroke-dasharray="12 9"/><text x="570" y="235" text-anchor="middle" direction="rtl" font-family="Tahoma,Arial,sans-serif" font-size="17" font-weight="800" fill="#f97316">ليس حد أمان</text><text x="380" y="450" text-anchor="middle" direction="rtl" font-family="Tahoma,Arial,sans-serif" font-size="19" font-weight="800" fill="#1d4ed8">تقدير يتغير مع الوقت والجسم</text></svg>