<svg xmlns="http://www.w3.org/2000/svg" width="760" height="520" viewBox="0 0 760 520" role="img" aria-labelledby="t"><title id="t">حاسبة مؤشر كتلة الجسم BMI</title><defs><linearGradient id="g" x1="0" y1="0" x2="1" y2="1"><stop stop-color="#334155"/><stop offset="1" stop-color="#64748b"/></linearGradient><linearGradient id="s" x1="0" y1="0" x2="1" y2="1"><stop stop-color="#334155" stop-opacity=".14"/><stop offset="1" stop-color="#22c55e" stop-opacity=".06"/></linearGradient><filter id="sh" x="-25%" y="-25%" width="150%" height="150%"><feDropShadow dx="0" dy="12" stdDeviation="14" flood-color="#172554" flood-opacity=".12"/></filter><marker id="ar" viewBox="0 0 10 10" refX="8" refY="5" markerWidth="7" markerHeight="7" orient="auto-start-reverse"><path d="M0 0 10 5 0 10Z" fill="#334155"/></marker></defs><rect width="760" height="520" rx="34" fill="#f8faff"/><circle cx="690" cy="65" r="105" fill="#64748b" opacity=".06"/><circle cx="65" cy="485" r="120" fill="#22c55e" opacity=".07"/><text x="380" y="48" text-anchor="middle" direction="rtl" font-family="Tahoma,Arial,sans-serif" font-size="21" font-weight="900" fill="#334155">حاسبة مؤشر كتلة الجسم صيغة تقنية</text><path d="M125 385h250l-35-215H160Z" fill="#fff" stroke="#334155" stroke-width="8" filter="url(#sh)"/><circle cx="250" cy="250" r="73" fill="#eef2ff" stroke="#64748b" stroke-width="7"/><path d="M250 250 290 205" stroke="#334155" stroke-width="9" stroke-linecap="round"/><text x="250" y="325" text-anchor="middle" direction="rtl" font-family="Tahoma,Arial,sans-serif" font-size="25" font-weight="800" fill="#334155">صيغة تقنية</text><path d="M400 270 L490 270" fill="none" stroke="#334155" stroke-width="5" stroke-linecap="round" marker-end="url(#ar)"/><rect x="510" y="130" width="165" height="280" rx="22" fill="#fff" stroke="#d9deef" filter="url(#sh)"/><text x="592" y="205" text-anchor="middle" direction="rtl" font-family="Tahoma,Arial,sans-serif" font-size="18" font-weight="800" fill="#596078">الوزن</text><text x="592" y="280" text-anchor="middle" direction="rtl" font-family="Tahoma,Arial,sans-serif" font-size="18" font-weight="800" fill="#596078">الطول²</text><text x="592" y="355" text-anchor="middle" direction="rtl" font-family="Tahoma,Arial,sans-serif" font-size="18" font-weight="800" fill="#334155">فئة فحص</text></svg>