<svg xmlns="http://www.w3.org/2000/svg" width="960" height="380" viewBox="0 0 960 380" role="img" aria-labelledby="t"><title id="t">حاسبة معدل الأيض الأساسي BMR</title><defs><linearGradient id="g" x1="0" y1="0" x2="1" y2="1"><stop stop-color="#166534"/><stop offset="1" stop-color="#4ade80"/></linearGradient><linearGradient id="s" x1="0" y1="0" x2="1" y2="1"><stop stop-color="#166534" stop-opacity=".14"/><stop offset="1" stop-color="#6366f1" stop-opacity=".06"/></linearGradient><filter id="sh" x="-25%" y="-25%" width="150%" height="150%"><feDropShadow dx="0" dy="12" stdDeviation="14" flood-color="#172554" flood-opacity=".12"/></filter><marker id="ar" viewBox="0 0 10 10" refX="8" refY="5" markerWidth="7" markerHeight="7" orient="auto-start-reverse"><path d="M0 0 10 5 0 10Z" fill="#166534"/></marker></defs><rect width="960" height="380" rx="34" fill="#f8faff"/><circle cx="890" cy="65" r="105" fill="#4ade80" opacity=".06"/><circle cx="65" cy="345" r="120" fill="#6366f1" opacity=".07"/><rect x="24" y="55" width="330" height="278" rx="22" fill="#fff" stroke="#d9deef" filter="url(#sh)"/><g opacity=".98" transform="translate(27 72) scale(.39)"><path d="M145 405h240l-25-245H170Z" fill="#fff" stroke="#166534" stroke-width="8" filter="url(#sh)"/><path d="M265 350c-75-55-15-105 0-145 55 55 90 85 0 145Z" fill="url(#g)"/><text x="265" y="445" text-anchor="middle" direction="rtl" font-family="Tahoma,Arial,sans-serif" font-size="19" font-weight="800" fill="#166534">طاقة الراحة</text><path d="M410 270 L500 270" fill="none" stroke="#166534" stroke-width="5" stroke-linecap="round" marker-end="url(#ar)"/><rect x="520" y="135" width="160" height="270" rx="22" fill="#fff" stroke="#d9deef" filter="url(#sh)"/><text x="600" y="205" text-anchor="middle" direction="rtl" font-family="Tahoma,Arial,sans-serif" font-size="18" font-weight="800" fill="#20243a">وزن</text><text x="600" y="260" text-anchor="middle" direction="rtl" font-family="Tahoma,Arial,sans-serif" font-size="18" font-weight="800" fill="#20243a">طول</text><text x="600" y="315" text-anchor="middle" direction="rtl" font-family="Tahoma,Arial,sans-serif" font-size="18" font-weight="800" fill="#20243a">عمر</text><text x="600" y="370" text-anchor="middle" direction="rtl" font-family="Tahoma,Arial,sans-serif" font-size="18" font-weight="800" fill="#166534">جنس</text></g><text x="189" y="356" text-anchor="middle" direction="rtl" font-family="Tahoma,Arial,sans-serif" font-size="15" font-weight="800" fill="#166534">نموذج حاسبة معدل الأيض الأسا…</text><text x="650" y="42" text-anchor="middle" direction="rtl" font-family="Tahoma,Arial,sans-serif" font-size="18" font-weight="800" fill="#166534">مسارات متوازية</text><circle cx="410" cy="92" r="17" fill="url(#g)"/><path d="M430 92H703" stroke="#166534" stroke-width="11" stroke-linecap="round"/><circle cx="703" cy="92" r="13" fill="#fff" stroke="#166534" stroke-width="5"/><text x="510" y="75" text-anchor="middle" direction="rtl" font-family="Tahoma,Arial,sans-serif" font-size="13" font-weight="700" fill="#166534">السيناريو الأسا…</text><text x="820" y="97" text-anchor="middle" direction="rtl" font-family="Tahoma,Arial,sans-serif" font-size="12" font-weight="700" fill="#596078">معادلة الحسا…</text><circle cx="410" cy="160" r="17" fill="#166534"/><path d="M430 160H756" stroke="#166534" stroke-width="10" stroke-linecap="round"/><circle cx="756" cy="160" r="13" fill="#fff" stroke="#166534" stroke-width="5"/><text x="510" y="143" text-anchor="middle" direction="rtl" font-family="Tahoma,Arial,sans-serif" font-size="13" font-weight="700" fill="#166534">افتراض محافظ</text><text x="820" y="165" text-anchor="middle" direction="rtl" font-family="Tahoma,Arial,sans-serif" font-size="12" font-weight="700" fill="#596078">وحدات القياس</text><circle cx="410" cy="228" r="17" fill="#166534"/><path d="M430 228H809" stroke="#166534" stroke-width="9" stroke-linecap="round"/><circle cx="809" cy="228" r="13" fill="#fff" stroke="#166534" stroke-width="5"/><text x="510" y="211" text-anchor="middle" direction="rtl" font-family="Tahoma,Arial,sans-serif" font-size="13" font-weight="700" fill="#166534">افتراض مرتفع</text><text x="820" y="233" text-anchor="middle" direction="rtl" font-family="Tahoma,Arial,sans-serif" font-size="12" font-weight="700" fill="#596078">العمر المدخل</text><circle cx="410" cy="296" r="17" fill="#166534"/><path d="M430 296H632" stroke="#6366f1" stroke-width="8" stroke-linecap="round"/><circle cx="632" cy="296" r="13" fill="#fff" stroke="#166534" stroke-width="5"/><text x="510" y="279" text-anchor="middle" direction="rtl" font-family="Tahoma,Arial,sans-serif" font-size="13" font-weight="700" fill="#166534">مرجع رسمي</text><text x="820" y="301" text-anchor="middle" direction="rtl" font-family="Tahoma,Arial,sans-serif" font-size="12" font-weight="700" fill="#596078">الفرق عن الن…</text></svg>