<svg xmlns="http://www.w3.org/2000/svg" width="960" height="360" viewBox="0 0 960 360" role="img" aria-labelledby="t"><title id="t">حاسبة دهون الجسم</title><defs><linearGradient id="g" x1="0" y1="0" x2="1" y2="1"><stop stop-color="#7c3aed"/><stop offset="1" stop-color="#a855f7"/></linearGradient><linearGradient id="s" x1="0" y1="0" x2="1" y2="1"><stop stop-color="#7c3aed" stop-opacity=".14"/><stop offset="1" stop-color="#14b8a6" stop-opacity=".06"/></linearGradient><filter id="sh" x="-25%" y="-25%" width="150%" height="150%"><feDropShadow dx="0" dy="12" stdDeviation="14" flood-color="#172554" flood-opacity=".12"/></filter><marker id="ar" viewBox="0 0 10 10" refX="8" refY="5" markerWidth="7" markerHeight="7" orient="auto-start-reverse"><path d="M0 0 10 5 0 10Z" fill="#7c3aed"/></marker></defs><rect width="960" height="360" rx="34" fill="#f8faff"/><circle cx="890" cy="65" r="105" fill="#a855f7" opacity=".06"/><circle cx="65" cy="325" r="120" fill="#14b8a6" opacity=".07"/><rect x="610" y="56" width="320" height="255" rx="22" fill="#fff" stroke="#d9deef" filter="url(#sh)"/><g opacity=".9" transform="translate(620 78) scale(.30)"><path d="M260 135c50 0 50 70 0 70s-50-70 0-70m-65 270 20-180h90l20 180m-110-110-70 65m160-65 70 65" fill="none" stroke="#7c3aed" stroke-width="15" stroke-linecap="round"/><path d="M175 290c55 35 115 35 170 0" fill="none" stroke="#14b8a6" stroke-width="12" stroke-dasharray="13 8"/><path d="M390 290 L490 290" fill="none" stroke="#7c3aed" stroke-width="5" stroke-linecap="round" marker-end="url(#ar)"/><rect x="510" y="170" width="170" height="220" rx="22" fill="#fff" stroke="#d9deef" filter="url(#sh)"/><text x="595" y="230" text-anchor="middle" direction="rtl" font-family="Tahoma,Arial,sans-serif" font-size="21" font-weight="800" fill="#7c3aed">محيط</text><text x="595" y="285" text-anchor="middle" direction="rtl" font-family="Tahoma,Arial,sans-serif" font-size="21" font-weight="800" fill="#20243a">+ طول</text><text x="595" y="340" text-anchor="middle" direction="rtl" font-family="Tahoma,Arial,sans-serif" font-size="21" font-weight="800" fill="#7c3aed">= تقدير</text></g><text x="770" y="338" text-anchor="middle" direction="rtl" font-family="Tahoma,Arial,sans-serif" font-size="14" font-weight="800" fill="#7c3aed">افحص موضوع الحاسبة نفسه</text><path d="M105 88V310M105 118H500M105 205H500M105 292H500" stroke="#d7ddec" stroke-width="6" stroke-linecap="round"/><circle cx="105" cy="118" r="22" fill="url(#g)"/><rect x="150" y="87" width="370" height="62" rx="22" fill="#fff" stroke="#d9deef" filter="url(#sh)"/><text x="270" y="124" text-anchor="middle" direction="rtl" font-family="Tahoma,Arial,sans-serif" font-size="14" font-weight="800" fill="#7c3aed">نتيجة بعيدة</text><text x="435" y="124" text-anchor="middle" direction="rtl" font-family="Tahoma,Arial,sans-serif" font-size="12" font-weight="700" fill="#596078">المدخل</text><circle cx="105" cy="205" r="22" fill="#7c3aed"/><rect x="150" y="174" width="370" height="62" rx="22" fill="#fff" stroke="#d9deef" filter="url(#sh)"/><text x="270" y="211" text-anchor="middle" direction="rtl" font-family="Tahoma,Arial,sans-serif" font-size="14" font-weight="800" fill="#7c3aed">نتيجتان مختلفتان</text><text x="435" y="211" text-anchor="middle" direction="rtl" font-family="Tahoma,Arial,sans-serif" font-size="12" font-weight="700" fill="#596078">القاعدة</text><circle cx="105" cy="292" r="22" fill="#7c3aed"/><rect x="150" y="261" width="370" height="62" rx="22" fill="#fff" stroke="#d9deef" filter="url(#sh)"/><text x="270" y="298" text-anchor="middle" direction="rtl" font-family="Tahoma,Arial,sans-serif" font-size="14" font-weight="800" fill="#7c3aed">افتراض مجهول</text><text x="435" y="298" text-anchor="middle" direction="rtl" font-family="Tahoma,Arial,sans-serif" font-size="12" font-weight="700" fill="#596078">النطاق</text><text x="300" y="48" text-anchor="middle" direction="rtl" font-family="Tahoma,Arial,sans-serif" font-size="17" font-weight="800" fill="#7c3aed">مسار تشخيص متسلسل</text><rect x="610" y="315" width="320" height="38" rx="22" fill="#fff7ed" stroke="#d9deef" filter="url(#sh)"/><text x="770" y="340" text-anchor="middle" direction="rtl" font-family="Tahoma,Arial,sans-serif" font-size="12" font-weight="800" fill="#9a3412">التفسير الفردي لمختص صحي</text></svg>