<svg xmlns="http://www.w3.org/2000/svg" width="760" height="520" viewBox="0 0 760 520" role="img" aria-labelledby="t"><title id="t">حاسبة دهون الجسم</title><defs><linearGradient id="g" x1="0" y1="0" x2="1" y2="1"><stop stop-color="#7c3aed"/><stop offset="1" stop-color="#a855f7"/></linearGradient><linearGradient id="s" x1="0" y1="0" x2="1" y2="1"><stop stop-color="#7c3aed" stop-opacity=".14"/><stop offset="1" stop-color="#14b8a6" stop-opacity=".06"/></linearGradient><filter id="sh" x="-25%" y="-25%" width="150%" height="150%"><feDropShadow dx="0" dy="12" stdDeviation="14" flood-color="#172554" flood-opacity=".12"/></filter><marker id="ar" viewBox="0 0 10 10" refX="8" refY="5" markerWidth="7" markerHeight="7" orient="auto-start-reverse"><path d="M0 0 10 5 0 10Z" fill="#7c3aed"/></marker></defs><rect width="760" height="520" rx="34" fill="#f8faff"/><circle cx="690" cy="65" r="105" fill="#a855f7" opacity=".06"/><circle cx="65" cy="485" r="120" fill="#14b8a6" opacity=".07"/><text x="380" y="48" text-anchor="middle" direction="rtl" font-family="Tahoma,Arial,sans-serif" font-size="21" font-weight="900" fill="#7c3aed">حاسبة دهون الجسم</text><path d="M260 135c50 0 50 70 0 70s-50-70 0-70m-65 270 20-180h90l20 180m-110-110-70 65m160-65 70 65" fill="none" stroke="#7c3aed" stroke-width="15" stroke-linecap="round"/><path d="M175 290c55 35 115 35 170 0" fill="none" stroke="#14b8a6" stroke-width="12" stroke-dasharray="13 8"/><path d="M390 290 L490 290" fill="none" stroke="#7c3aed" stroke-width="5" stroke-linecap="round" marker-end="url(#ar)"/><rect x="510" y="170" width="170" height="220" rx="22" fill="#fff" stroke="#d9deef" filter="url(#sh)"/><text x="595" y="230" text-anchor="middle" direction="rtl" font-family="Tahoma,Arial,sans-serif" font-size="21" font-weight="800" fill="#7c3aed">محيط</text><text x="595" y="285" text-anchor="middle" direction="rtl" font-family="Tahoma,Arial,sans-serif" font-size="21" font-weight="800" fill="#20243a">+ طول</text><text x="595" y="340" text-anchor="middle" direction="rtl" font-family="Tahoma,Arial,sans-serif" font-size="21" font-weight="800" fill="#7c3aed">= تقدير</text></svg>