<svg xmlns="http://www.w3.org/2000/svg" width="960" height="380" viewBox="0 0 960 380" role="img" aria-labelledby="t"><title id="t">حاسبة مساحة سطح الجسم BSA</title><defs><linearGradient id="g" x1="0" y1="0" x2="1" y2="1"><stop stop-color="#6d28d9"/><stop offset="1" stop-color="#c084fc"/></linearGradient><linearGradient id="s" x1="0" y1="0" x2="1" y2="1"><stop stop-color="#6d28d9" stop-opacity=".14"/><stop offset="1" stop-color="#22c55e" stop-opacity=".06"/></linearGradient><filter id="sh" x="-25%" y="-25%" width="150%" height="150%"><feDropShadow dx="0" dy="12" stdDeviation="14" flood-color="#172554" flood-opacity=".12"/></filter><marker id="ar" viewBox="0 0 10 10" refX="8" refY="5" markerWidth="7" markerHeight="7" orient="auto-start-reverse"><path d="M0 0 10 5 0 10Z" fill="#6d28d9"/></marker></defs><rect width="960" height="380" rx="34" fill="#f8faff"/><circle cx="890" cy="65" r="105" fill="#c084fc" opacity=".06"/><circle cx="65" cy="345" r="120" fill="#22c55e" opacity=".07"/><rect x="24" y="55" width="330" height="278" rx="22" fill="#fff" stroke="#d9deef" filter="url(#sh)"/><g opacity=".98" transform="translate(27 72) scale(.39)"><path d="M230 125c55 0 55 80 0 80s-55-80 0-80m-75 285 25-170h100l25 170m-125-110-70 80m170-80 70 80" fill="url(#s)" stroke="#6d28d9" stroke-width="12" stroke-linejoin="round"/><circle cx="150" cy="225" r="8" fill="#c084fc" opacity=".7"/><circle cx="192" cy="283" r="9" fill="#c084fc" opacity=".7"/><circle cx="234" cy="225" r="10" fill="#c084fc" opacity=".7"/><circle cx="276" cy="283" r="11" fill="#c084fc" opacity=".7"/><circle cx="318" cy="225" r="12" fill="#22c55e" opacity=".7"/><path d="M385 270 L480 270" fill="none" stroke="#6d28d9" stroke-width="5" stroke-linecap="round" marker-end="url(#ar)"/><rect x="505" y="145" width="180" height="250" rx="22" fill="#fff" stroke="#d9deef" filter="url(#sh)"/><text x="595" y="210" text-anchor="middle" direction="rtl" font-family="Tahoma,Arial,sans-serif" font-size="19" font-weight="800" fill="#6d28d9">الطول × الوزن</text><text x="595" y="270" text-anchor="middle" direction="rtl" font-family="Tahoma,Arial,sans-serif" font-size="22" font-weight="800" fill="#20243a">÷ 3600</text><text x="595" y="330" text-anchor="middle" direction="rtl" font-family="Tahoma,Arial,sans-serif" font-size="22" font-weight="800" fill="#6d28d9">ثم الجذر</text><text x="380" y="455" text-anchor="middle" direction="rtl" font-family="Tahoma,Arial,sans-serif" font-size="19" font-weight="800" fill="#6d28d9">مساحة سطح تقديرية بالمتر²</text></g><text x="189" y="356" text-anchor="middle" direction="rtl" font-family="Tahoma,Arial,sans-serif" font-size="15" font-weight="800" fill="#6d28d9">نموذج حاسبة مساحة سطح الجسم …</text><text x="650" y="42" text-anchor="middle" direction="rtl" font-family="Tahoma,Arial,sans-serif" font-size="18" font-weight="800" fill="#6d28d9">مسارات متوازية</text><circle cx="410" cy="92" r="17" fill="url(#g)"/><path d="M430 92H805" stroke="#6d28d9" stroke-width="11" stroke-linecap="round"/><circle cx="805" cy="92" r="13" fill="#fff" stroke="#6d28d9" stroke-width="5"/><text x="510" y="75" text-anchor="middle" direction="rtl" font-family="Tahoma,Arial,sans-serif" font-size="13" font-weight="700" fill="#6d28d9">السيناريو الأسا…</text><text x="820" y="97" text-anchor="middle" direction="rtl" font-family="Tahoma,Arial,sans-serif" font-size="12" font-weight="700" fill="#596078">وحدات الطول …</text><circle cx="410" cy="160" r="17" fill="#6d28d9"/><path d="M430 160H628" stroke="#6d28d9" stroke-width="10" stroke-linecap="round"/><circle cx="628" cy="160" r="13" fill="#fff" stroke="#6d28d9" stroke-width="5"/><text x="510" y="143" text-anchor="middle" direction="rtl" font-family="Tahoma,Arial,sans-serif" font-size="13" font-weight="700" fill="#6d28d9">افتراض محافظ</text><text x="820" y="165" text-anchor="middle" direction="rtl" font-family="Tahoma,Arial,sans-serif" font-size="12" font-weight="700" fill="#596078">الصيغة المست…</text><circle cx="410" cy="228" r="17" fill="#6d28d9"/><path d="M430 228H681" stroke="#6d28d9" stroke-width="9" stroke-linecap="round"/><circle cx="681" cy="228" r="13" fill="#fff" stroke="#6d28d9" stroke-width="5"/><text x="510" y="211" text-anchor="middle" direction="rtl" font-family="Tahoma,Arial,sans-serif" font-size="13" font-weight="700" fill="#6d28d9">افتراض مرتفع</text><text x="820" y="233" text-anchor="middle" direction="rtl" font-family="Tahoma,Arial,sans-serif" font-size="12" font-weight="700" fill="#596078">دقة القياس</text><circle cx="410" cy="296" r="17" fill="#6d28d9"/><path d="M430 296H734" stroke="#22c55e" stroke-width="8" stroke-linecap="round"/><circle cx="734" cy="296" r="13" fill="#fff" stroke="#6d28d9" stroke-width="5"/><text x="510" y="279" text-anchor="middle" direction="rtl" font-family="Tahoma,Arial,sans-serif" font-size="13" font-weight="700" fill="#6d28d9">مرجع رسمي</text><text x="820" y="301" text-anchor="middle" direction="rtl" font-family="Tahoma,Arial,sans-serif" font-size="12" font-weight="700" fill="#596078">الغرض السرير…</text></svg>