<svg xmlns="http://www.w3.org/2000/svg" width="960" height="360" viewBox="0 0 960 360" role="img" aria-labelledby="t"><title id="t">حاسبة مساحة سطح الجسم BSA</title><defs><linearGradient id="g" x1="0" y1="0" x2="1" y2="1"><stop stop-color="#6d28d9"/><stop offset="1" stop-color="#c084fc"/></linearGradient><linearGradient id="s" x1="0" y1="0" x2="1" y2="1"><stop stop-color="#6d28d9" stop-opacity=".14"/><stop offset="1" stop-color="#22c55e" stop-opacity=".06"/></linearGradient><filter id="sh" x="-25%" y="-25%" width="150%" height="150%"><feDropShadow dx="0" dy="12" stdDeviation="14" flood-color="#172554" flood-opacity=".12"/></filter><marker id="ar" viewBox="0 0 10 10" refX="8" refY="5" markerWidth="7" markerHeight="7" orient="auto-start-reverse"><path d="M0 0 10 5 0 10Z" fill="#6d28d9"/></marker></defs><rect width="960" height="360" rx="34" fill="#f8faff"/><circle cx="890" cy="65" r="105" fill="#c084fc" opacity=".06"/><circle cx="65" cy="325" r="120" fill="#22c55e" opacity=".07"/><rect x="610" y="56" width="320" height="255" rx="22" fill="#fff" stroke="#d9deef" filter="url(#sh)"/><g opacity=".9" transform="translate(620 78) scale(.30)"><path d="M230 125c55 0 55 80 0 80s-55-80 0-80m-75 285 25-170h100l25 170m-125-110-70 80m170-80 70 80" fill="url(#s)" stroke="#6d28d9" stroke-width="12" stroke-linejoin="round"/><circle cx="150" cy="225" r="8" fill="#c084fc" opacity=".7"/><circle cx="192" cy="283" r="9" fill="#c084fc" opacity=".7"/><circle cx="234" cy="225" r="10" fill="#c084fc" opacity=".7"/><circle cx="276" cy="283" r="11" fill="#c084fc" opacity=".7"/><circle cx="318" cy="225" r="12" fill="#22c55e" opacity=".7"/><path d="M385 270 L480 270" fill="none" stroke="#6d28d9" stroke-width="5" stroke-linecap="round" marker-end="url(#ar)"/><rect x="505" y="145" width="180" height="250" rx="22" fill="#fff" stroke="#d9deef" filter="url(#sh)"/><text x="595" y="210" text-anchor="middle" direction="rtl" font-family="Tahoma,Arial,sans-serif" font-size="19" font-weight="800" fill="#6d28d9">الطول × الوزن</text><text x="595" y="270" text-anchor="middle" direction="rtl" font-family="Tahoma,Arial,sans-serif" font-size="22" font-weight="800" fill="#20243a">÷ 3600</text><text x="595" y="330" text-anchor="middle" direction="rtl" font-family="Tahoma,Arial,sans-serif" font-size="22" font-weight="800" fill="#6d28d9">ثم الجذر</text><text x="380" y="455" text-anchor="middle" direction="rtl" font-family="Tahoma,Arial,sans-serif" font-size="19" font-weight="800" fill="#6d28d9">مساحة سطح تقديرية بالمتر²</text></g><text x="770" y="338" text-anchor="middle" direction="rtl" font-family="Tahoma,Arial,sans-serif" font-size="14" font-weight="800" fill="#6d28d9">افحص موضوع الحاسبة نفسه</text><rect x="60" y="42" width="280" height="70" rx="22" fill="#fff" stroke="#d9deef" filter="url(#sh)"/><text x="200" y="75" text-anchor="middle" direction="rtl" font-family="Tahoma,Arial,sans-serif" font-size="17" font-weight="800" fill="#6d28d9">النتيجة غير متوقعة</text><text x="200" y="101" text-anchor="middle" direction="rtl" font-family="Tahoma,Arial,sans-serif" font-size="12" font-weight="700" fill="#596078">اعزل السبب قبل التعديل</text><path d="M340 127 L410 127" fill="none" stroke="#6d28d9" stroke-width="5" stroke-linecap="round" marker-end="url(#ar)"/><rect x="60" y="145" width="460" height="52" rx="22" fill="#fff" stroke="#d9deef" filter="url(#sh)"/><text x="180" y="176" text-anchor="middle" direction="rtl" font-family="Tahoma,Arial,sans-serif" font-size="14" font-weight="800" fill="#6d28d9">نتيجة بعيدة</text><text x="395" y="176" text-anchor="middle" direction="rtl" font-family="Tahoma,Arial,sans-serif" font-size="13" font-weight="700" fill="#596078">راجع الوحدة</text><path d="M340 195 L410 195" fill="none" stroke="#6d28d9" stroke-width="5" stroke-linecap="round" marker-end="url(#ar)"/><rect x="60" y="213" width="460" height="52" rx="22" fill="#fff" stroke="#d9deef" filter="url(#sh)"/><text x="180" y="244" text-anchor="middle" direction="rtl" font-family="Tahoma,Arial,sans-serif" font-size="14" font-weight="800" fill="#6d28d9">نتيجتان مختلفتان</text><text x="395" y="244" text-anchor="middle" direction="rtl" font-family="Tahoma,Arial,sans-serif" font-size="13" font-weight="700" fill="#596078">طابق المرجع</text><path d="M340 263 L410 263" fill="none" stroke="#6d28d9" stroke-width="5" stroke-linecap="round" marker-end="url(#ar)"/><rect x="60" y="281" width="460" height="52" rx="22" fill="#fff" stroke="#d9deef" filter="url(#sh)"/><text x="180" y="312" text-anchor="middle" direction="rtl" font-family="Tahoma,Arial,sans-serif" font-size="14" font-weight="800" fill="#6d28d9">افتراض مجهول</text><text x="395" y="312" text-anchor="middle" direction="rtl" font-family="Tahoma,Arial,sans-serif" font-size="13" font-weight="700" fill="#596078">اختبر قيمة</text><rect x="610" y="315" width="320" height="38" rx="22" fill="#fff7ed" stroke="#d9deef" filter="url(#sh)"/><text x="770" y="340" text-anchor="middle" direction="rtl" font-family="Tahoma,Arial,sans-serif" font-size="12" font-weight="800" fill="#9a3412">الأعراض والقرار للطبيب</text></svg>