<svg xmlns="http://www.w3.org/2000/svg" width="760" height="520" viewBox="0 0 760 520" role="img" aria-labelledby="t"><title id="t">حاسبة السعرات الحرارية والماكروز</title><defs><linearGradient id="g" x1="0" y1="0" x2="1" y2="1"><stop stop-color="#0f766e"/><stop offset="1" stop-color="#2dd4bf"/></linearGradient><linearGradient id="s" x1="0" y1="0" x2="1" y2="1"><stop stop-color="#0f766e" stop-opacity=".14"/><stop offset="1" stop-color="#8b5cf6" stop-opacity=".06"/></linearGradient><filter id="sh" x="-25%" y="-25%" width="150%" height="150%"><feDropShadow dx="0" dy="12" stdDeviation="14" flood-color="#172554" flood-opacity=".12"/></filter><marker id="ar" viewBox="0 0 10 10" refX="8" refY="5" markerWidth="7" markerHeight="7" orient="auto-start-reverse"><path d="M0 0 10 5 0 10Z" fill="#0f766e"/></marker></defs><rect width="760" height="520" rx="34" fill="#f8faff"/><circle cx="690" cy="65" r="105" fill="#2dd4bf" opacity=".06"/><circle cx="65" cy="485" r="120" fill="#8b5cf6" opacity=".07"/><text x="380" y="48" text-anchor="middle" direction="rtl" font-family="Tahoma,Arial,sans-serif" font-size="21" font-weight="900" fill="#0f766e">حاسبة السعرات الحرارية والماكروز</text><circle cx="260" cy="260" r="150" fill="#fff" stroke="#dce2f3" stroke-width="22" filter="url(#sh)"/><path d="M260 110a150 150 0 0 1 142 102L260 260Z" fill="#0f766e"/><path d="M402 212a150 150 0 0 1-75 181L260 260Z" fill="#2dd4bf"/><path d="M327 393a150 150 0 0 1-217-133h150Z" fill="#8b5cf6"/><text x="260" y="270" text-anchor="middle" direction="rtl" font-family="Tahoma,Arial,sans-serif" font-size="23" font-weight="800" fill="#fff">الماكروز</text><rect x="465" y="145" width="210" height="210" rx="22" fill="#fff" stroke="#d9deef" filter="url(#sh)"/><text x="570" y="205" text-anchor="middle" direction="rtl" font-family="Tahoma,Arial,sans-serif" font-size="18" font-weight="800" fill="#0f766e">طاقة الراحة</text><text x="570" y="250" text-anchor="middle" direction="rtl" font-family="Tahoma,Arial,sans-serif" font-size="22" font-weight="800" fill="#0f766e">+ النشاط</text><text x="570" y="298" text-anchor="middle" direction="rtl" font-family="Tahoma,Arial,sans-serif" font-size="22" font-weight="800" fill="#0f766e">± الهدف</text><text x="570" y="350" text-anchor="middle" direction="rtl" font-family="Tahoma,Arial,sans-serif" font-size="18" font-weight="800" fill="#0f766e">السعرات اليومية</text></svg>