<svg xmlns="http://www.w3.org/2000/svg" width="960" height="360" viewBox="0 0 960 360" role="img" aria-labelledby="t"><title id="t">حاسبة السعرات الحرارية والماكروز</title><defs><linearGradient id="g" x1="0" y1="0" x2="1" y2="1"><stop stop-color="#0f766e"/><stop offset="1" stop-color="#2dd4bf"/></linearGradient><linearGradient id="s" x1="0" y1="0" x2="1" y2="1"><stop stop-color="#0f766e" stop-opacity=".14"/><stop offset="1" stop-color="#8b5cf6" stop-opacity=".06"/></linearGradient><filter id="sh" x="-25%" y="-25%" width="150%" height="150%"><feDropShadow dx="0" dy="12" stdDeviation="14" flood-color="#172554" flood-opacity=".12"/></filter><marker id="ar" viewBox="0 0 10 10" refX="8" refY="5" markerWidth="7" markerHeight="7" orient="auto-start-reverse"><path d="M0 0 10 5 0 10Z" fill="#0f766e"/></marker></defs><rect width="960" height="360" rx="34" fill="#f8faff"/><circle cx="890" cy="65" r="105" fill="#2dd4bf" opacity=".06"/><circle cx="65" cy="325" r="120" fill="#8b5cf6" opacity=".07"/><rect x="610" y="56" width="320" height="255" rx="22" fill="#fff" stroke="#d9deef" filter="url(#sh)"/><g opacity=".9" transform="translate(620 78) scale(.30)"><circle cx="260" cy="260" r="150" fill="#fff" stroke="#dce2f3" stroke-width="22" filter="url(#sh)"/><path d="M260 110a150 150 0 0 1 142 102L260 260Z" fill="#0f766e"/><path d="M402 212a150 150 0 0 1-75 181L260 260Z" fill="#2dd4bf"/><path d="M327 393a150 150 0 0 1-217-133h150Z" fill="#8b5cf6"/><text x="260" y="270" text-anchor="middle" direction="rtl" font-family="Tahoma,Arial,sans-serif" font-size="23" font-weight="800" fill="#fff">الماكروز</text><rect x="465" y="145" width="210" height="210" rx="22" fill="#fff" stroke="#d9deef" filter="url(#sh)"/><text x="570" y="205" text-anchor="middle" direction="rtl" font-family="Tahoma,Arial,sans-serif" font-size="18" font-weight="800" fill="#0f766e">طاقة الراحة</text><text x="570" y="250" text-anchor="middle" direction="rtl" font-family="Tahoma,Arial,sans-serif" font-size="22" font-weight="800" fill="#0f766e">+ النشاط</text><text x="570" y="298" text-anchor="middle" direction="rtl" font-family="Tahoma,Arial,sans-serif" font-size="22" font-weight="800" fill="#0f766e">± الهدف</text><text x="570" y="350" text-anchor="middle" direction="rtl" font-family="Tahoma,Arial,sans-serif" font-size="18" font-weight="800" fill="#0f766e">السعرات اليومية</text></g><text x="770" y="338" text-anchor="middle" direction="rtl" font-family="Tahoma,Arial,sans-serif" font-size="14" font-weight="800" fill="#0f766e">افحص موضوع الحاسبة نفسه</text><text x="300" y="45" text-anchor="middle" direction="rtl" font-family="Tahoma,Arial,sans-serif" font-size="17" font-weight="800" fill="#0f766e">دوائر سبب ونتيجة</text><circle cx="300" cy="205" r="62" fill="url(#g)" filter="url(#sh)"/><text x="300" y="199" text-anchor="middle" direction="rtl" font-family="Tahoma,Arial,sans-serif" font-size="17" font-weight="800" fill="#fff">اختلاف</text><text x="300" y="226" text-anchor="middle" direction="rtl" font-family="Tahoma,Arial,sans-serif" font-size="14" font-weight="800" fill="#fff">النتيجة</text><path d="M300 205L139.78530029987883 142.5" stroke="#d6dceb" stroke-width="6"/><circle cx="139.78530029987883" cy="142.5" r="54" fill="#fff" stroke="#0f766e" stroke-width="6"/><text x="139.78530029987883" y="147.5" text-anchor="middle" direction="rtl" font-family="Tahoma,Arial,sans-serif" font-size="12" font-weight="700" fill="#0f766e">نتيجة بعيدة</text><path d="M300 205L485 205" stroke="#d6dceb" stroke-width="6"/><circle cx="485" cy="205" r="54" fill="#fff" stroke="#0f766e" stroke-width="6"/><text x="485" y="210" text-anchor="middle" direction="rtl" font-family="Tahoma,Arial,sans-serif" font-size="12" font-weight="700" fill="#0f766e">نتيجتان مختل…</text><path d="M300 205L139.78530029987883 267.5" stroke="#d6dceb" stroke-width="6"/><circle cx="139.78530029987883" cy="267.5" r="54" fill="#fff" stroke="#8b5cf6" stroke-width="6"/><text x="139.78530029987883" y="272.5" text-anchor="middle" direction="rtl" font-family="Tahoma,Arial,sans-serif" font-size="12" font-weight="700" fill="#0f766e">افتراض مجهول</text><rect x="610" y="315" width="320" height="38" rx="22" fill="#fff7ed" stroke="#d9deef" filter="url(#sh)"/><text x="770" y="340" text-anchor="middle" direction="rtl" font-family="Tahoma,Arial,sans-serif" font-size="12" font-weight="800" fill="#9a3412">التفسير الفردي لمختص صحي</text></svg>