<svg xmlns="http://www.w3.org/2000/svg" width="960" height="380" viewBox="0 0 960 380" role="img" aria-labelledby="t"><title id="t">حاسبة توقعات التدفق النقدي</title><defs><linearGradient id="g" x1="0" y1="0" x2="1" y2="1"><stop stop-color="#1d4ed8"/><stop offset="1" stop-color="#60a5fa"/></linearGradient><linearGradient id="s" x1="0" y1="0" x2="1" y2="1"><stop stop-color="#1d4ed8" stop-opacity=".14"/><stop offset="1" stop-color="#f97316" stop-opacity=".06"/></linearGradient><filter id="sh" x="-25%" y="-25%" width="150%" height="150%"><feDropShadow dx="0" dy="12" stdDeviation="14" flood-color="#172554" flood-opacity=".12"/></filter><marker id="ar" viewBox="0 0 10 10" refX="8" refY="5" markerWidth="7" markerHeight="7" orient="auto-start-reverse"><path d="M0 0 10 5 0 10Z" fill="#1d4ed8"/></marker></defs><rect width="960" height="380" rx="34" fill="#f8faff"/><circle cx="890" cy="65" r="105" fill="#60a5fa" opacity=".06"/><circle cx="65" cy="345" r="120" fill="#f97316" opacity=".07"/><rect x="24" y="55" width="330" height="278" rx="22" fill="#fff" stroke="#d9deef" filter="url(#sh)"/><g opacity=".98" transform="translate(27 72) scale(.39)"><path d="M100 390H675M120 390V115" stroke="#cfd6e8" stroke-width="5"/><path d="M135 230 L235 185 L335 315 L435 245 L535 350 L650 165" fill="none" stroke="url(#g)" stroke-width="10" stroke-linecap="round" stroke-linejoin="round"/><circle cx="135" cy="230" r="10" fill="#fff" stroke="#1d4ed8" stroke-width="5"/><circle cx="235" cy="185" r="10" fill="#fff" stroke="#1d4ed8" stroke-width="5"/><circle cx="335" cy="315" r="10" fill="#fff" stroke="#1d4ed8" stroke-width="5"/><circle cx="435" cy="245" r="10" fill="#fff" stroke="#1d4ed8" stroke-width="5"/><circle cx="535" cy="350" r="10" fill="#fff" stroke="#1d4ed8" stroke-width="5"/><circle cx="650" cy="165" r="10" fill="#fff" stroke="#1d4ed8" stroke-width="5"/><path d="M120 325h530" stroke="#f97316" stroke-width="5" stroke-dasharray="12 10"/><text x="570" y="310" text-anchor="middle" direction="rtl" font-family="Tahoma,Arial,sans-serif" font-size="17" font-weight="800" fill="#f97316">حد الأمان</text><text x="380" y="450" text-anchor="middle" direction="rtl" font-family="Tahoma,Arial,sans-serif" font-size="20" font-weight="800" fill="#1d4ed8">الرصيد عبر الفترات</text></g><text x="189" y="356" text-anchor="middle" direction="rtl" font-family="Tahoma,Arial,sans-serif" font-size="15" font-weight="800" fill="#1d4ed8">نموذج حاسبة توقعات التدفق ال…</text><text x="650" y="42" text-anchor="middle" direction="rtl" font-family="Tahoma,Arial,sans-serif" font-size="18" font-weight="800" fill="#1d4ed8">مصفوفة المراجعة</text><rect x="390" y="66" width="520" height="280" rx="22" fill="#fff" stroke="#d9deef" filter="url(#sh)"/><path d="M410 112h480" stroke="#dce1ef" stroke-width="3"/><path d="M410 164h480" stroke="#dce1ef" stroke-width="3"/><path d="M410 216h480" stroke="#dce1ef" stroke-width="3"/><path d="M410 268h480" stroke="#dce1ef" stroke-width="3"/><path d="M410 320h480" stroke="#dce1ef" stroke-width="3"/><path d="M565 82v245M760 82v245" stroke="#dce1ef" stroke-width="3"/><text x="485" y="102" text-anchor="middle" direction="rtl" font-family="Tahoma,Arial,sans-serif" font-size="14" font-weight="800" fill="#1d4ed8">الحالة</text><text x="660" y="102" text-anchor="middle" direction="rtl" font-family="Tahoma,Arial,sans-serif" font-size="14" font-weight="800" fill="#1d4ed8">المتغير</text><text x="835" y="102" text-anchor="middle" direction="rtl" font-family="Tahoma,Arial,sans-serif" font-size="14" font-weight="800" fill="#1d4ed8">المراجعة</text><text x="485" y="145" text-anchor="middle" direction="rtl" font-family="Tahoma,Arial,sans-serif" font-size="13" font-weight="800" fill="#20243a">السيناريو الأس…</text><text x="660" y="145" text-anchor="middle" direction="rtl" font-family="Tahoma,Arial,sans-serif" font-size="12" font-weight="700" fill="#596078">رؤية متى قد ينخ…</text><text x="835" y="145" text-anchor="middle" direction="rtl" font-family="Tahoma,Arial,sans-serif" font-size="12" font-weight="700" fill="#1d4ed8">تاريخ التحصيل</text><text x="485" y="197" text-anchor="middle" direction="rtl" font-family="Tahoma,Arial,sans-serif" font-size="13" font-weight="800" fill="#20243a">افتراض محافظ</text><text x="660" y="197" text-anchor="middle" direction="rtl" font-family="Tahoma,Arial,sans-serif" font-size="12" font-weight="700" fill="#596078">خفض القيمة المت…</text><text x="835" y="197" text-anchor="middle" direction="rtl" font-family="Tahoma,Arial,sans-serif" font-size="12" font-weight="700" fill="#1d4ed8">مدفوعات ثابتة</text><text x="485" y="249" text-anchor="middle" direction="rtl" font-family="Tahoma,Arial,sans-serif" font-size="13" font-weight="800" fill="#20243a">افتراض مرتفع</text><text x="660" y="249" text-anchor="middle" direction="rtl" font-family="Tahoma,Arial,sans-serif" font-size="12" font-weight="700" fill="#596078">اختبر الحد الأع…</text><text x="835" y="249" text-anchor="middle" direction="rtl" font-family="Tahoma,Arial,sans-serif" font-size="12" font-weight="700" fill="#1d4ed8">هامش أمان</text><text x="485" y="301" text-anchor="middle" direction="rtl" font-family="Tahoma,Arial,sans-serif" font-size="13" font-weight="800" fill="#20243a">مرجع رسمي</text><text x="660" y="301" text-anchor="middle" direction="rtl" font-family="Tahoma,Arial,sans-serif" font-size="12" font-weight="700" fill="#596078">طابق القيم مع ا…</text><text x="835" y="301" text-anchor="middle" direction="rtl" font-family="Tahoma,Arial,sans-serif" font-size="12" font-weight="700" fill="#1d4ed8">سيناريو التأخ…</text></svg>