<svg xmlns="http://www.w3.org/2000/svg" width="760" height="520" viewBox="0 0 760 520" role="img" aria-labelledby="t"><title id="t">حاسبة توقعات التدفق النقدي</title><defs><linearGradient id="g" x1="0" y1="0" x2="1" y2="1"><stop stop-color="#1d4ed8"/><stop offset="1" stop-color="#60a5fa"/></linearGradient><linearGradient id="s" x1="0" y1="0" x2="1" y2="1"><stop stop-color="#1d4ed8" stop-opacity=".14"/><stop offset="1" stop-color="#f97316" stop-opacity=".06"/></linearGradient><filter id="sh" x="-25%" y="-25%" width="150%" height="150%"><feDropShadow dx="0" dy="12" stdDeviation="14" flood-color="#172554" flood-opacity=".12"/></filter><marker id="ar" viewBox="0 0 10 10" refX="8" refY="5" markerWidth="7" markerHeight="7" orient="auto-start-reverse"><path d="M0 0 10 5 0 10Z" fill="#1d4ed8"/></marker></defs><rect width="760" height="520" rx="34" fill="#f8faff"/><circle cx="690" cy="65" r="105" fill="#60a5fa" opacity=".06"/><circle cx="65" cy="485" r="120" fill="#f97316" opacity=".07"/><text x="380" y="48" text-anchor="middle" direction="rtl" font-family="Tahoma,Arial,sans-serif" font-size="21" font-weight="900" fill="#1d4ed8">حاسبة توقعات التدفق النقدي</text><path d="M100 390H675M120 390V115" stroke="#cfd6e8" stroke-width="5"/><path d="M135 230 L235 185 L335 315 L435 245 L535 350 L650 165" fill="none" stroke="url(#g)" stroke-width="10" stroke-linecap="round" stroke-linejoin="round"/><circle cx="135" cy="230" r="10" fill="#fff" stroke="#1d4ed8" stroke-width="5"/><circle cx="235" cy="185" r="10" fill="#fff" stroke="#1d4ed8" stroke-width="5"/><circle cx="335" cy="315" r="10" fill="#fff" stroke="#1d4ed8" stroke-width="5"/><circle cx="435" cy="245" r="10" fill="#fff" stroke="#1d4ed8" stroke-width="5"/><circle cx="535" cy="350" r="10" fill="#fff" stroke="#1d4ed8" stroke-width="5"/><circle cx="650" cy="165" r="10" fill="#fff" stroke="#1d4ed8" stroke-width="5"/><path d="M120 325h530" stroke="#f97316" stroke-width="5" stroke-dasharray="12 10"/><text x="570" y="310" text-anchor="middle" direction="rtl" font-family="Tahoma,Arial,sans-serif" font-size="17" font-weight="800" fill="#f97316">حد الأمان</text><text x="380" y="450" text-anchor="middle" direction="rtl" font-family="Tahoma,Arial,sans-serif" font-size="20" font-weight="800" fill="#1d4ed8">الرصيد عبر الفترات</text></svg>