<svg xmlns="http://www.w3.org/2000/svg" width="760" height="520" viewBox="0 0 760 520" role="img" aria-labelledby="t"><title id="t">حاسبة الفائدة المركبة</title><defs><linearGradient id="g" x1="0" y1="0" x2="1" y2="1"><stop stop-color="#334155"/><stop offset="1" stop-color="#64748b"/></linearGradient><linearGradient id="s" x1="0" y1="0" x2="1" y2="1"><stop stop-color="#334155" stop-opacity=".14"/><stop offset="1" stop-color="#22c55e" stop-opacity=".06"/></linearGradient><filter id="sh" x="-25%" y="-25%" width="150%" height="150%"><feDropShadow dx="0" dy="12" stdDeviation="14" flood-color="#172554" flood-opacity=".12"/></filter><marker id="ar" viewBox="0 0 10 10" refX="8" refY="5" markerWidth="7" markerHeight="7" orient="auto-start-reverse"><path d="M0 0 10 5 0 10Z" fill="#334155"/></marker></defs><rect width="760" height="520" rx="34" fill="#f8faff"/><circle cx="690" cy="65" r="105" fill="#64748b" opacity=".06"/><circle cx="65" cy="485" r="120" fill="#22c55e" opacity=".07"/><text x="380" y="48" text-anchor="middle" direction="rtl" font-family="Tahoma,Arial,sans-serif" font-size="21" font-weight="900" fill="#334155">حاسبة الفائدة المركبة</text><path d="M95 405H680M120 405V125" stroke="#cfd6e8" stroke-width="5"/><path d="M130 370 L235 330 L340 270 L445 195 L565 110" fill="none" stroke="url(#g)" stroke-width="10" stroke-linecap="round" stroke-linejoin="round"/><circle cx="130" cy="370" r="10" fill="#fff" stroke="#334155" stroke-width="5"/><circle cx="235" cy="330" r="10" fill="#fff" stroke="#334155" stroke-width="5"/><circle cx="340" cy="270" r="10" fill="#fff" stroke="#334155" stroke-width="5"/><circle cx="445" cy="195" r="10" fill="#fff" stroke="#334155" stroke-width="5"/><circle cx="565" cy="110" r="10" fill="#fff" stroke="#334155" stroke-width="5"/><circle cx="130" cy="370" r="28" fill="url(#g)" filter="url(#sh)"/><text x="130" y="378" text-anchor="middle" direction="rtl" font-family="Tahoma,Arial,sans-serif" font-size="15" font-weight="900" fill="#fff">1</text><circle cx="565" cy="110" r="38" fill="url(#g)" filter="url(#sh)"/><text x="565" y="118" text-anchor="middle" direction="rtl" font-family="Tahoma,Arial,sans-serif" font-size="15.959999999999999" font-weight="900" fill="#fff">نمو</text><text x="390" y="455" text-anchor="middle" direction="rtl" font-family="Tahoma,Arial,sans-serif" font-size="20" font-weight="800" fill="#334155">التراكم يتسارع مع الزمن</text></svg>