<svg xmlns="http://www.w3.org/2000/svg" width="760" height="520" viewBox="0 0 760 520" role="img" aria-labelledby="t"><title id="t">عد تنازلي حتى تاريخ</title><defs><linearGradient id="g" x1="0" y1="0" x2="1" y2="1"><stop stop-color="#0f766e"/><stop offset="1" stop-color="#10b981"/></linearGradient><linearGradient id="s" x1="0" y1="0" x2="1" y2="1"><stop stop-color="#0f766e" stop-opacity=".14"/><stop offset="1" stop-color="#f59e0b" stop-opacity=".06"/></linearGradient><filter id="sh" x="-25%" y="-25%" width="150%" height="150%"><feDropShadow dx="0" dy="12" stdDeviation="14" flood-color="#172554" flood-opacity=".12"/></filter><marker id="ar" viewBox="0 0 10 10" refX="8" refY="5" markerWidth="7" markerHeight="7" orient="auto-start-reverse"><path d="M0 0 10 5 0 10Z" fill="#0f766e"/></marker></defs><rect width="760" height="520" rx="34" fill="#f8faff"/><circle cx="690" cy="65" r="105" fill="#10b981" opacity=".06"/><circle cx="65" cy="485" r="120" fill="#f59e0b" opacity=".07"/><text x="380" y="48" text-anchor="middle" direction="rtl" font-family="Tahoma,Arial,sans-serif" font-size="21" font-weight="900" fill="#0f766e">عد تنازلي حتى تاريخ</text><circle cx="380" cy="255" r="135" fill="#fff" stroke="#dce2f3" stroke-width="25" filter="url(#sh)"/><path d="M380 120a135 135 0 1 1-127 92" fill="none" stroke="url(#g)" stroke-width="25" stroke-linecap="round"/><text x="380" y="240" text-anchor="middle" direction="rtl" font-family="Tahoma,Arial,sans-serif" font-size="42" font-weight="900" fill="#0f766e">12 يومًا</text><text x="380" y="280" text-anchor="middle" direction="rtl" font-family="Tahoma,Arial,sans-serif" font-size="25" font-weight="800" fill="#20243a">08 : 42 : 16</text><text x="380" y="330" text-anchor="middle" direction="rtl" font-family="Tahoma,Arial,sans-serif" font-size="18" font-weight="700" fill="#596078">حتى موعد الحدث</text><rect x="90" y="400" width="165" height="62" rx="22" fill="#fff" stroke="#d9deef" filter="url(#sh)"/><rect x="298" y="400" width="165" height="62" rx="22" fill="#fff" stroke="#d9deef" filter="url(#sh)"/><rect x="505" y="400" width="165" height="62" rx="22" fill="#fff" stroke="#d9deef" filter="url(#sh)"/><text x="172" y="438" text-anchor="middle" direction="rtl" font-family="Tahoma,Arial,sans-serif" font-size="16" font-weight="800" fill="#0f766e">أيام</text><text x="380" y="438" text-anchor="middle" direction="rtl" font-family="Tahoma,Arial,sans-serif" font-size="16" font-weight="800" fill="#0f766e">ساعات</text><text x="587" y="438" text-anchor="middle" direction="rtl" font-family="Tahoma,Arial,sans-serif" font-size="16" font-weight="800" fill="#0f766e">دقائق</text></svg>