<svg xmlns="http://www.w3.org/2000/svg" width="760" height="520" viewBox="0 0 760 520" role="img" aria-labelledby="t"><title id="t">حاسبة الفرق بين تاريخين</title><defs><linearGradient id="g" x1="0" y1="0" x2="1" y2="1"><stop stop-color="#2563eb"/><stop offset="1" stop-color="#06b6d4"/></linearGradient><linearGradient id="s" x1="0" y1="0" x2="1" y2="1"><stop stop-color="#2563eb" stop-opacity=".14"/><stop offset="1" stop-color="#f59e0b" stop-opacity=".06"/></linearGradient><filter id="sh" x="-25%" y="-25%" width="150%" height="150%"><feDropShadow dx="0" dy="12" stdDeviation="14" flood-color="#172554" flood-opacity=".12"/></filter><marker id="ar" viewBox="0 0 10 10" refX="8" refY="5" markerWidth="7" markerHeight="7" orient="auto-start-reverse"><path d="M0 0 10 5 0 10Z" fill="#2563eb"/></marker></defs><rect width="760" height="520" rx="34" fill="#f8faff"/><circle cx="690" cy="65" r="105" fill="#06b6d4" opacity=".06"/><circle cx="65" cy="485" r="120" fill="#f59e0b" opacity=".07"/><text x="380" y="48" text-anchor="middle" direction="rtl" font-family="Tahoma,Arial,sans-serif" font-size="21" font-weight="900" fill="#2563eb">حاسبة الفرق بين تاريخين</text><rect x="65" y="125" width="180" height="190" rx="22" fill="#fff" stroke="#d9deef" filter="url(#sh)"/><rect x="65" y="125" width="180" height="48" rx="22" fill="url(#g)"/><text x="155" y="158" text-anchor="middle" direction="rtl" font-family="Tahoma,Arial,sans-serif" font-size="16" font-weight="800" fill="#fff">البداية</text><text x="155" y="245" text-anchor="middle" direction="rtl" font-family="Tahoma,Arial,sans-serif" font-size="46" font-weight="900" fill="#2563eb">10</text><path d="M95 275h120" stroke="#d7dced" stroke-width="8" stroke-linecap="round"/><rect x="515" y="125" width="180" height="190" rx="22" fill="#fff" stroke="#d9deef" filter="url(#sh)"/><rect x="515" y="125" width="180" height="48" rx="22" fill="url(#g)"/><text x="605" y="158" text-anchor="middle" direction="rtl" font-family="Tahoma,Arial,sans-serif" font-size="16" font-weight="800" fill="#fff">النهاية</text><text x="605" y="245" text-anchor="middle" direction="rtl" font-family="Tahoma,Arial,sans-serif" font-size="46" font-weight="900" fill="#2563eb">25</text><path d="M545 275h120" stroke="#d7dced" stroke-width="8" stroke-linecap="round"/><path d="M265 220 L500 220" fill="none" stroke="#2563eb" stroke-width="5" stroke-linecap="round" marker-end="url(#ar)"/><path d="M260 370h250" stroke="#f59e0b" stroke-width="10" stroke-linecap="round"/><text x="385" y="410" text-anchor="middle" direction="rtl" font-family="Tahoma,Arial,sans-serif" font-size="20" font-weight="800" fill="#2563eb">15 يومًا بين التاريخين</text></svg>