<svg xmlns="http://www.w3.org/2000/svg" width="760" height="520" viewBox="0 0 760 520" role="img" aria-labelledby="t"><title id="t">حاسبة نسبة الدين إلى حقوق الملكية</title><defs><linearGradient id="g" x1="0" y1="0" x2="1" y2="1"><stop stop-color="#be123c"/><stop offset="1" stop-color="#fb7185"/></linearGradient><linearGradient id="s" x1="0" y1="0" x2="1" y2="1"><stop stop-color="#be123c" stop-opacity=".14"/><stop offset="1" stop-color="#6366f1" stop-opacity=".06"/></linearGradient><filter id="sh" x="-25%" y="-25%" width="150%" height="150%"><feDropShadow dx="0" dy="12" stdDeviation="14" flood-color="#172554" flood-opacity=".12"/></filter><marker id="ar" viewBox="0 0 10 10" refX="8" refY="5" markerWidth="7" markerHeight="7" orient="auto-start-reverse"><path d="M0 0 10 5 0 10Z" fill="#be123c"/></marker></defs><rect width="760" height="520" rx="34" fill="#f8faff"/><circle cx="690" cy="65" r="105" fill="#fb7185" opacity=".06"/><circle cx="65" cy="485" r="120" fill="#6366f1" opacity=".07"/><text x="380" y="48" text-anchor="middle" direction="rtl" font-family="Tahoma,Arial,sans-serif" font-size="21" font-weight="900" fill="#be123c">حاسبة نسبة الدين إلى حقوق الملكية</text><path d="M380 130v245M205 170h350" stroke="#be123c" stroke-width="12"/><path d="M205 170 125 330h160Z" fill="#fff" stroke="#fb7185" stroke-width="6" filter="url(#sh)"/><path d="M555 170 475 330h160Z" fill="#fff" stroke="#fb7185" stroke-width="6" filter="url(#sh)"/><circle cx="175" cy="275" r="24" fill="url(#g)" filter="url(#sh)"/><text x="175" y="283" text-anchor="middle" direction="rtl" font-family="Tahoma,Arial,sans-serif" font-size="15" font-weight="900" fill="#fff">د</text><circle cx="230" cy="275" r="24" fill="url(#g)" filter="url(#sh)"/><text x="230" y="283" text-anchor="middle" direction="rtl" font-family="Tahoma,Arial,sans-serif" font-size="15" font-weight="900" fill="#fff">د</text><circle cx="520" cy="275" r="24" fill="url(#g)" filter="url(#sh)"/><text x="520" y="283" text-anchor="middle" direction="rtl" font-family="Tahoma,Arial,sans-serif" font-size="15" font-weight="900" fill="#fff">ح</text><circle cx="575" cy="275" r="24" fill="url(#g)" filter="url(#sh)"/><text x="575" y="283" text-anchor="middle" direction="rtl" font-family="Tahoma,Arial,sans-serif" font-size="15" font-weight="900" fill="#fff">ح</text><text x="205" y="335" text-anchor="middle" direction="rtl" font-family="Tahoma,Arial,sans-serif" font-size="18" font-weight="800" fill="#20243a">الدين</text><text x="555" y="335" text-anchor="middle" direction="rtl" font-family="Tahoma,Arial,sans-serif" font-size="17" font-weight="800" fill="#be123c">حقوق الملكية</text><text x="380" y="430" text-anchor="middle" direction="rtl" font-family="Tahoma,Arial,sans-serif" font-size="25" font-weight="800" fill="#be123c">صيغة تقنية ÷ صيغة تقنية</text></svg>