<svg xmlns="http://www.w3.org/2000/svg" width="960" height="380" viewBox="0 0 960 380" role="img" aria-labelledby="t"><title id="t">حاسبة إهلاك الأصول الثابتة</title><defs><linearGradient id="g" x1="0" y1="0" x2="1" y2="1"><stop stop-color="#2563eb"/><stop offset="1" stop-color="#06b6d4"/></linearGradient><linearGradient id="s" x1="0" y1="0" x2="1" y2="1"><stop stop-color="#2563eb" stop-opacity=".14"/><stop offset="1" stop-color="#f59e0b" stop-opacity=".06"/></linearGradient><filter id="sh" x="-25%" y="-25%" width="150%" height="150%"><feDropShadow dx="0" dy="12" stdDeviation="14" flood-color="#172554" flood-opacity=".12"/></filter><marker id="ar" viewBox="0 0 10 10" refX="8" refY="5" markerWidth="7" markerHeight="7" orient="auto-start-reverse"><path d="M0 0 10 5 0 10Z" fill="#2563eb"/></marker></defs><rect width="960" height="380" rx="34" fill="#f8faff"/><circle cx="890" cy="65" r="105" fill="#06b6d4" opacity=".06"/><circle cx="65" cy="345" r="120" fill="#f59e0b" opacity=".07"/><rect x="24" y="55" width="330" height="278" rx="22" fill="#fff" stroke="#d9deef" filter="url(#sh)"/><g opacity=".98" transform="translate(27 72) scale(.39)"><rect x="80" y="115" width="230" height="270" rx="22" fill="#fff" stroke="#d9deef" filter="url(#sh)"/><rect x="125" y="165" width="140" height="140" rx="18" fill="url(#s)"/><text x="195" y="245" text-anchor="middle" direction="rtl" font-family="Tahoma,Arial,sans-serif" font-size="29" font-weight="800" fill="#2563eb">أصل</text><path d="M330 250 L440 250" fill="none" stroke="#2563eb" stroke-width="5" stroke-linecap="round" marker-end="url(#ar)"/><path d="M460 145 L520 220 L580 295 L645 370" fill="none" stroke="url(#g)" stroke-width="10" stroke-linecap="round" stroke-linejoin="round"/><circle cx="460" cy="145" r="10" fill="#fff" stroke="#2563eb" stroke-width="5"/><circle cx="520" cy="220" r="10" fill="#fff" stroke="#2563eb" stroke-width="5"/><circle cx="580" cy="295" r="10" fill="#fff" stroke="#2563eb" stroke-width="5"/><circle cx="645" cy="370" r="10" fill="#fff" stroke="#2563eb" stroke-width="5"/><text x="560" y="430" text-anchor="middle" direction="rtl" font-family="Tahoma,Arial,sans-serif" font-size="19" font-weight="800" fill="#2563eb">قيمة دفترية تتناقص</text></g><text x="189" y="356" text-anchor="middle" direction="rtl" font-family="Tahoma,Arial,sans-serif" font-size="15" font-weight="800" fill="#2563eb">نموذج حاسبة إهلاك الأصول الث…</text><text x="650" y="42" text-anchor="middle" direction="rtl" font-family="Tahoma,Arial,sans-serif" font-size="18" font-weight="800" fill="#2563eb">لوحة السيناريوهات</text><text x="445" y="93" text-anchor="middle" direction="rtl" font-family="Tahoma,Arial,sans-serif" font-size="14" font-weight="700" fill="#41485e">السيناريو الأسا…</text><rect x="565" y="72" width="212" height="31" rx="15" fill="url(#g)" opacity="0.92"/><text x="787" y="94" text-anchor="middle" direction="rtl" font-family="Tahoma,Arial,sans-serif" font-size="12" font-weight="700" fill="#2563eb">تاريخ الجاهز…</text><text x="445" y="162" text-anchor="middle" direction="rtl" font-family="Tahoma,Arial,sans-serif" font-size="14" font-weight="700" fill="#41485e">افتراض محافظ</text><rect x="565" y="141" width="273" height="31" rx="15" fill="#2563eb" opacity="0.8"/><text x="848" y="163" text-anchor="middle" direction="rtl" font-family="Tahoma,Arial,sans-serif" font-size="12" font-weight="700" fill="#2563eb">قيمة متبقية</text><text x="445" y="231" text-anchor="middle" direction="rtl" font-family="Tahoma,Arial,sans-serif" font-size="14" font-weight="700" fill="#41485e">افتراض مرتفع</text><rect x="565" y="210" width="334" height="31" rx="15" fill="#2563eb" opacity="0.68"/><text x="909" y="232" text-anchor="middle" direction="rtl" font-family="Tahoma,Arial,sans-serif" font-size="12" font-weight="700" fill="#2563eb">عمر إنتاجي</text><text x="445" y="300" text-anchor="middle" direction="rtl" font-family="Tahoma,Arial,sans-serif" font-size="14" font-weight="700" fill="#41485e">مرجع رسمي</text><rect x="565" y="279" width="150" height="31" rx="15" fill="#f59e0b" opacity="0.56"/><text x="725" y="301" text-anchor="middle" direction="rtl" font-family="Tahoma,Arial,sans-serif" font-size="12" font-weight="700" fill="#2563eb">طريقة معتمدة</text></svg>