<svg xmlns="http://www.w3.org/2000/svg" width="760" height="520" viewBox="0 0 760 520" role="img" aria-labelledby="t"><title id="t">السبحة الإلكترونية ومطور الأذكار</title><defs><linearGradient id="g" x1="0" y1="0" x2="1" y2="1"><stop stop-color="#0f766e"/><stop offset="1" stop-color="#2dd4bf"/></linearGradient><linearGradient id="s" x1="0" y1="0" x2="1" y2="1"><stop stop-color="#0f766e" stop-opacity=".14"/><stop offset="1" stop-color="#8b5cf6" stop-opacity=".06"/></linearGradient><filter id="sh" x="-25%" y="-25%" width="150%" height="150%"><feDropShadow dx="0" dy="12" stdDeviation="14" flood-color="#172554" flood-opacity=".12"/></filter><marker id="ar" viewBox="0 0 10 10" refX="8" refY="5" markerWidth="7" markerHeight="7" orient="auto-start-reverse"><path d="M0 0 10 5 0 10Z" fill="#0f766e"/></marker></defs><rect width="760" height="520" rx="34" fill="#f8faff"/><circle cx="690" cy="65" r="105" fill="#2dd4bf" opacity=".06"/><circle cx="65" cy="485" r="120" fill="#8b5cf6" opacity=".07"/><text x="380" y="48" text-anchor="middle" direction="rtl" font-family="Tahoma,Arial,sans-serif" font-size="21" font-weight="900" fill="#0f766e">السبحة الإلكترونية ومطور الأذكار</text><circle cx="270" cy="260" r="150" fill="#fff" stroke="#dce2f3" stroke-width="22" filter="url(#sh)"/><circle cx="420" cy="260" r="13" fill="#0f766e"/><circle cx="399.9038105676658" cy="335" r="13" fill="#0f766e"/><circle cx="345" cy="389.9038105676658" r="13" fill="#0f766e"/><circle cx="270" cy="410" r="13" fill="#0f766e"/><circle cx="195.00000000000003" cy="389.9038105676658" r="13" fill="#0f766e"/><circle cx="140.0961894323342" cy="335" r="13" fill="#0f766e"/><circle cx="120" cy="260" r="13" fill="#0f766e"/><circle cx="140.0961894323342" cy="185" r="13" fill="#0f766e"/><circle cx="194.99999999999994" cy="130.09618943233423" r="13" fill="#0f766e"/><circle cx="270" cy="110" r="13" fill="#0f766e"/><circle cx="345" cy="130.0961894323342" r="13" fill="#0f766e"/><circle cx="399.90381056766574" cy="184.99999999999994" r="18" fill="url(#g)"/><text x="270" y="250" text-anchor="middle" direction="rtl" font-family="Tahoma,Arial,sans-serif" font-size="44" font-weight="800" fill="#0f766e">75</text><text x="270" y="290" text-anchor="middle" direction="rtl" font-family="Tahoma,Arial,sans-serif" font-size="18" font-weight="800" fill="#20243a">من 100</text><rect x="485" y="155" width="180" height="210" rx="22" fill="#fff" stroke="#d9deef" filter="url(#sh)"/><text x="575" y="215" text-anchor="middle" direction="rtl" font-family="Tahoma,Arial,sans-serif" font-size="18" font-weight="800" fill="#0f766e">ذكر موثوق</text><text x="575" y="275" text-anchor="middle" direction="rtl" font-family="Tahoma,Arial,sans-serif" font-size="18" font-weight="800" fill="#20243a">حفظ محلي</text><text x="575" y="335" text-anchor="middle" direction="rtl" font-family="Tahoma,Arial,sans-serif" font-size="18" font-weight="800" fill="#0f766e">إعادة هادئة</text></svg>