<svg xmlns="http://www.w3.org/2000/svg" width="960" height="380" viewBox="0 0 960 380" role="img" aria-labelledby="t"><title id="t">السبحة الإلكترونية ومطور الأذكار</title><defs><linearGradient id="g" x1="0" y1="0" x2="1" y2="1"><stop stop-color="#0f766e"/><stop offset="1" stop-color="#2dd4bf"/></linearGradient><linearGradient id="s" x1="0" y1="0" x2="1" y2="1"><stop stop-color="#0f766e" stop-opacity=".14"/><stop offset="1" stop-color="#8b5cf6" stop-opacity=".06"/></linearGradient><filter id="sh" x="-25%" y="-25%" width="150%" height="150%"><feDropShadow dx="0" dy="12" stdDeviation="14" flood-color="#172554" flood-opacity=".12"/></filter><marker id="ar" viewBox="0 0 10 10" refX="8" refY="5" markerWidth="7" markerHeight="7" orient="auto-start-reverse"><path d="M0 0 10 5 0 10Z" fill="#0f766e"/></marker></defs><rect width="960" height="380" rx="34" fill="#f8faff"/><circle cx="890" cy="65" r="105" fill="#2dd4bf" opacity=".06"/><circle cx="65" cy="345" r="120" fill="#8b5cf6" opacity=".07"/><rect x="24" y="55" width="330" height="278" rx="22" fill="#fff" stroke="#d9deef" filter="url(#sh)"/><g opacity=".98" transform="translate(27 72) scale(.39)"><circle cx="270" cy="260" r="150" fill="#fff" stroke="#dce2f3" stroke-width="22" filter="url(#sh)"/><circle cx="420" cy="260" r="13" fill="#0f766e"/><circle cx="399.9038105676658" cy="335" r="13" fill="#0f766e"/><circle cx="345" cy="389.9038105676658" r="13" fill="#0f766e"/><circle cx="270" cy="410" r="13" fill="#0f766e"/><circle cx="195.00000000000003" cy="389.9038105676658" r="13" fill="#0f766e"/><circle cx="140.0961894323342" cy="335" r="13" fill="#0f766e"/><circle cx="120" cy="260" r="13" fill="#0f766e"/><circle cx="140.0961894323342" cy="185" r="13" fill="#0f766e"/><circle cx="194.99999999999994" cy="130.09618943233423" r="13" fill="#0f766e"/><circle cx="270" cy="110" r="13" fill="#0f766e"/><circle cx="345" cy="130.0961894323342" r="13" fill="#0f766e"/><circle cx="399.90381056766574" cy="184.99999999999994" r="18" fill="url(#g)"/><text x="270" y="250" text-anchor="middle" direction="rtl" font-family="Tahoma,Arial,sans-serif" font-size="44" font-weight="800" fill="#0f766e">75</text><text x="270" y="290" text-anchor="middle" direction="rtl" font-family="Tahoma,Arial,sans-serif" font-size="18" font-weight="800" fill="#20243a">من 100</text><rect x="485" y="155" width="180" height="210" rx="22" fill="#fff" stroke="#d9deef" filter="url(#sh)"/><text x="575" y="215" text-anchor="middle" direction="rtl" font-family="Tahoma,Arial,sans-serif" font-size="18" font-weight="800" fill="#0f766e">ذكر موثوق</text><text x="575" y="275" text-anchor="middle" direction="rtl" font-family="Tahoma,Arial,sans-serif" font-size="18" font-weight="800" fill="#20243a">حفظ محلي</text><text x="575" y="335" text-anchor="middle" direction="rtl" font-family="Tahoma,Arial,sans-serif" font-size="18" font-weight="800" fill="#0f766e">إعادة هادئة</text></g><text x="189" y="356" text-anchor="middle" direction="rtl" font-family="Tahoma,Arial,sans-serif" font-size="15" font-weight="800" fill="#0f766e">نموذج السبحة الإلكترونية ومط…</text><text x="650" y="42" text-anchor="middle" direction="rtl" font-family="Tahoma,Arial,sans-serif" font-size="18" font-weight="800" fill="#0f766e">لوحة السيناريوهات</text><text x="445" y="93" text-anchor="middle" direction="rtl" font-family="Tahoma,Arial,sans-serif" font-size="14" font-weight="700" fill="#41485e">السيناريو الأسا…</text><rect x="565" y="72" width="229" height="31" rx="15" fill="url(#g)" opacity="0.92"/><text x="804" y="94" text-anchor="middle" direction="rtl" font-family="Tahoma,Arial,sans-serif" font-size="12" font-weight="700" fill="#0f766e">صيغة الذكر</text><text x="445" y="162" text-anchor="middle" direction="rtl" font-family="Tahoma,Arial,sans-serif" font-size="14" font-weight="700" fill="#41485e">افتراض محافظ</text><rect x="565" y="141" width="290" height="31" rx="15" fill="#0f766e" opacity="0.8"/><text x="865" y="163" text-anchor="middle" direction="rtl" font-family="Tahoma,Arial,sans-serif" font-size="12" font-weight="700" fill="#0f766e">استجابة الضغ…</text><text x="445" y="231" text-anchor="middle" direction="rtl" font-family="Tahoma,Arial,sans-serif" font-size="14" font-weight="700" fill="#41485e">افتراض مرتفع</text><rect x="565" y="210" width="351" height="31" rx="15" fill="#0f766e" opacity="0.68"/><text x="926" y="232" text-anchor="middle" direction="rtl" font-family="Tahoma,Arial,sans-serif" font-size="12" font-weight="700" fill="#0f766e">حفظ الجلسة</text><text x="445" y="300" text-anchor="middle" direction="rtl" font-family="Tahoma,Arial,sans-serif" font-size="14" font-weight="700" fill="#41485e">مرجع رسمي</text><rect x="565" y="279" width="167" height="31" rx="15" fill="#8b5cf6" opacity="0.56"/><text x="742" y="301" text-anchor="middle" direction="rtl" font-family="Tahoma,Arial,sans-serif" font-size="12" font-weight="700" fill="#0f766e">الخصوصية</text></svg>