<svg xmlns="http://www.w3.org/2000/svg" width="960" height="360" viewBox="0 0 960 360" role="img" aria-labelledby="t"><title id="t">حاسبة EBITDA</title><defs><linearGradient id="g" x1="0" y1="0" x2="1" y2="1"><stop stop-color="#0f766e"/><stop offset="1" stop-color="#10b981"/></linearGradient><linearGradient id="s" x1="0" y1="0" x2="1" y2="1"><stop stop-color="#0f766e" stop-opacity=".14"/><stop offset="1" stop-color="#f59e0b" stop-opacity=".06"/></linearGradient><filter id="sh" x="-25%" y="-25%" width="150%" height="150%"><feDropShadow dx="0" dy="12" stdDeviation="14" flood-color="#172554" flood-opacity=".12"/></filter><marker id="ar" viewBox="0 0 10 10" refX="8" refY="5" markerWidth="7" markerHeight="7" orient="auto-start-reverse"><path d="M0 0 10 5 0 10Z" fill="#0f766e"/></marker></defs><rect width="960" height="360" rx="34" fill="#f8faff"/><circle cx="890" cy="65" r="105" fill="#10b981" opacity=".06"/><circle cx="65" cy="325" r="120" fill="#f59e0b" opacity=".07"/><rect x="610" y="56" width="320" height="255" rx="22" fill="#fff" stroke="#d9deef" filter="url(#sh)"/><g opacity=".9" transform="translate(620 78) scale(.30)"><rect x="95" y="319" width="70" height="91" rx="16" fill="#0f766e" opacity="0.55"/><text x="130" y="442" text-anchor="middle" direction="rtl" font-family="Tahoma,Arial,sans-serif" font-size="14" font-weight="700" fill="#3f465e">ربح</text><rect x="220" y="285.2" width="70" height="124.8" rx="16" fill="#0f766e" opacity="0.68"/><text x="255" y="442" text-anchor="middle" direction="rtl" font-family="Tahoma,Arial,sans-serif" font-size="14" font-weight="700" fill="#3f465e">فائدة</text><rect x="345" y="248.8" width="70" height="161.2" rx="16" fill="#0f766e" opacity="0.81"/><text x="380" y="442" text-anchor="middle" direction="rtl" font-family="Tahoma,Arial,sans-serif" font-size="14" font-weight="700" fill="#3f465e">ضريبة</text><rect x="470" y="212.4" width="70" height="197.6" rx="16" fill="#0f766e" opacity="0.9400000000000001"/><text x="505" y="442" text-anchor="middle" direction="rtl" font-family="Tahoma,Arial,sans-serif" font-size="14" font-weight="700" fill="#3f465e">إهلاك</text><rect x="595" y="181.2" width="70" height="228.8" rx="16" fill="url(#g)" opacity="1.07"/><text x="630" y="442" text-anchor="middle" direction="rtl" font-family="Tahoma,Arial,sans-serif" font-size="14" font-weight="700" fill="#3f465e">صيغة تقنية</text><text x="380" y="105" text-anchor="middle" direction="rtl" font-family="Tahoma,Arial,sans-serif" font-size="20" font-weight="800" fill="#0f766e">جسر من صافي الربح إلى التشغيل</text></g><text x="770" y="338" text-anchor="middle" direction="rtl" font-family="Tahoma,Arial,sans-serif" font-size="14" font-weight="800" fill="#0f766e">افحص موضوع الحاسبة نفسه</text><path d="M105 88V310M105 118H500M105 205H500M105 292H500" stroke="#d7ddec" stroke-width="6" stroke-linecap="round"/><circle cx="105" cy="118" r="22" fill="url(#g)"/><rect x="150" y="87" width="370" height="62" rx="22" fill="#fff" stroke="#d9deef" filter="url(#sh)"/><text x="270" y="124" text-anchor="middle" direction="rtl" font-family="Tahoma,Arial,sans-serif" font-size="14" font-weight="800" fill="#0f766e">نتيجة بعيدة</text><text x="435" y="124" text-anchor="middle" direction="rtl" font-family="Tahoma,Arial,sans-serif" font-size="12" font-weight="700" fill="#596078">المدخل</text><circle cx="105" cy="205" r="22" fill="#0f766e"/><rect x="150" y="174" width="370" height="62" rx="22" fill="#fff" stroke="#d9deef" filter="url(#sh)"/><text x="270" y="211" text-anchor="middle" direction="rtl" font-family="Tahoma,Arial,sans-serif" font-size="14" font-weight="800" fill="#0f766e">نتيجتان مختلفتان</text><text x="435" y="211" text-anchor="middle" direction="rtl" font-family="Tahoma,Arial,sans-serif" font-size="12" font-weight="700" fill="#596078">القاعدة</text><circle cx="105" cy="292" r="22" fill="#0f766e"/><rect x="150" y="261" width="370" height="62" rx="22" fill="#fff" stroke="#d9deef" filter="url(#sh)"/><text x="270" y="298" text-anchor="middle" direction="rtl" font-family="Tahoma,Arial,sans-serif" font-size="14" font-weight="800" fill="#0f766e">افتراض مجهول</text><text x="435" y="298" text-anchor="middle" direction="rtl" font-family="Tahoma,Arial,sans-serif" font-size="12" font-weight="700" fill="#596078">النطاق</text><text x="300" y="48" text-anchor="middle" direction="rtl" font-family="Tahoma,Arial,sans-serif" font-size="17" font-weight="800" fill="#0f766e">مسار تشخيص متسلسل</text></svg>