<svg xmlns="http://www.w3.org/2000/svg" width="960" height="360" viewBox="0 0 960 360" role="img" aria-labelledby="t"><title id="t">حاسبة الأسس والقوى</title><defs><linearGradient id="g" x1="0" y1="0" x2="1" y2="1"><stop stop-color="#1d4ed8"/><stop offset="1" stop-color="#60a5fa"/></linearGradient><linearGradient id="s" x1="0" y1="0" x2="1" y2="1"><stop stop-color="#1d4ed8" stop-opacity=".14"/><stop offset="1" stop-color="#f97316" stop-opacity=".06"/></linearGradient><filter id="sh" x="-25%" y="-25%" width="150%" height="150%"><feDropShadow dx="0" dy="12" stdDeviation="14" flood-color="#172554" flood-opacity=".12"/></filter><marker id="ar" viewBox="0 0 10 10" refX="8" refY="5" markerWidth="7" markerHeight="7" orient="auto-start-reverse"><path d="M0 0 10 5 0 10Z" fill="#1d4ed8"/></marker></defs><rect width="960" height="360" rx="34" fill="#f8faff"/><circle cx="890" cy="65" r="105" fill="#60a5fa" opacity=".06"/><circle cx="65" cy="325" r="120" fill="#f97316" opacity=".07"/><rect x="610" y="56" width="320" height="255" rx="22" fill="#fff" stroke="#d9deef" filter="url(#sh)"/><g opacity=".9" transform="translate(620 78) scale(.30)"><rect x="90" y="365" width="100" height="75" rx="18" fill="url(#s)" stroke="#1d4ed8" stroke-width="4"/><rect x="205" y="305" width="100" height="135" rx="18" fill="url(#s)" stroke="#1d4ed8" stroke-width="4"/><rect x="320" y="245" width="100" height="195" rx="18" fill="url(#s)" stroke="#1d4ed8" stroke-width="4"/><rect x="435" y="185" width="100" height="255" rx="18" fill="url(#s)" stroke="#1d4ed8" stroke-width="4"/><rect x="550" y="125" width="100" height="315" rx="18" fill="url(#g)" stroke="#1d4ed8" stroke-width="4"/><text x="140" y="405" text-anchor="middle" direction="rtl" font-family="Tahoma,Arial,sans-serif" font-size="20" font-weight="800" fill="#1d4ed8">1</text><text x="255" y="345" text-anchor="middle" direction="rtl" font-family="Tahoma,Arial,sans-serif" font-size="20" font-weight="800" fill="#1d4ed8">2</text><text x="370" y="285" text-anchor="middle" direction="rtl" font-family="Tahoma,Arial,sans-serif" font-size="20" font-weight="800" fill="#1d4ed8">4</text><text x="485" y="225" text-anchor="middle" direction="rtl" font-family="Tahoma,Arial,sans-serif" font-size="20" font-weight="800" fill="#1d4ed8">8</text><text x="600" y="165" text-anchor="middle" direction="rtl" font-family="Tahoma,Arial,sans-serif" font-size="20" font-weight="800" fill="#fff">16</text><text x="380" y="90" text-anchor="middle" direction="rtl" font-family="Tahoma,Arial,sans-serif" font-size="22" font-weight="800" fill="#1d4ed8">كل درجة تضرب في 2</text><text x="380" y="475" text-anchor="middle" direction="rtl" font-family="Tahoma,Arial,sans-serif" font-size="29" font-weight="800" fill="#1d4ed8">2⁴ = 16</text></g><text x="770" y="338" text-anchor="middle" direction="rtl" font-family="Tahoma,Arial,sans-serif" font-size="14" font-weight="800" fill="#1d4ed8">افحص موضوع الحاسبة نفسه</text><text x="300" y="45" text-anchor="middle" direction="rtl" font-family="Tahoma,Arial,sans-serif" font-size="17" font-weight="800" fill="#1d4ed8">مثلث التحقق</text><path d="M300 78 75 320h450Z" fill="#fff" stroke="#1d4ed8" stroke-width="7" filter="url(#sh)"/><rect x="210" y="140" width="180" height="48" rx="16" fill="url(#s)"/><text x="300" y="170" text-anchor="middle" direction="rtl" font-family="Tahoma,Arial,sans-serif" font-size="13" font-weight="700" fill="#1d4ed8">نتيجة بعيدة</text><rect x="167.5" y="214" width="265" height="48" rx="16" fill="url(#s)"/><text x="300" y="244" text-anchor="middle" direction="rtl" font-family="Tahoma,Arial,sans-serif" font-size="13" font-weight="700" fill="#1d4ed8">نتيجتان مختلفتان</text><rect x="125" y="288" width="350" height="48" rx="16" fill="url(#g)"/><text x="300" y="318" text-anchor="middle" direction="rtl" font-family="Tahoma,Arial,sans-serif" font-size="13" font-weight="700" fill="#fff">افتراض مجهول</text></svg>