<svg xmlns="http://www.w3.org/2000/svg" width="760" height="520" viewBox="0 0 760 520" role="img" aria-labelledby="t"><title id="t">محلل FFMI</title><defs><linearGradient id="g" x1="0" y1="0" x2="1" y2="1"><stop stop-color="#b45309"/><stop offset="1" stop-color="#f59e0b"/></linearGradient><linearGradient id="s" x1="0" y1="0" x2="1" y2="1"><stop stop-color="#b45309" stop-opacity=".14"/><stop offset="1" stop-color="#2563eb" stop-opacity=".06"/></linearGradient><filter id="sh" x="-25%" y="-25%" width="150%" height="150%"><feDropShadow dx="0" dy="12" stdDeviation="14" flood-color="#172554" flood-opacity=".12"/></filter><marker id="ar" viewBox="0 0 10 10" refX="8" refY="5" markerWidth="7" markerHeight="7" orient="auto-start-reverse"><path d="M0 0 10 5 0 10Z" fill="#b45309"/></marker></defs><rect width="760" height="520" rx="34" fill="#f8faff"/><circle cx="690" cy="65" r="105" fill="#f59e0b" opacity=".06"/><circle cx="65" cy="485" r="120" fill="#2563eb" opacity=".07"/><text x="380" y="48" text-anchor="middle" direction="rtl" font-family="Tahoma,Arial,sans-serif" font-size="21" font-weight="900" fill="#b45309">محلل صيغة تقنية</text><path d="M220 135c55 0 55 80 0 80s-55-80 0-80m-70 275 22-165h96l22 165m-118-105-65 80m161-80 65 80" fill="none" stroke="#b45309" stroke-width="16" stroke-linecap="round"/><path d="M405 145h250" stroke="#dbe1ef" stroke-width="4"/><path d="M405 203h250" stroke="#dbe1ef" stroke-width="4"/><path d="M405 261h250" stroke="#dbe1ef" stroke-width="4"/><path d="M405 319h250" stroke="#dbe1ef" stroke-width="4"/><path d="M405 377h250" stroke="#dbe1ef" stroke-width="4"/><path d="M470 120v310M590 120v310" stroke="#dbe1ef" stroke-width="4"/><path d="M430 350 L495 305 L560 250 L625 185" fill="none" stroke="url(#g)" stroke-width="10" stroke-linecap="round" stroke-linejoin="round"/><circle cx="430" cy="350" r="10" fill="#fff" stroke="#b45309" stroke-width="5"/><circle cx="495" cy="305" r="10" fill="#fff" stroke="#b45309" stroke-width="5"/><circle cx="560" cy="250" r="10" fill="#fff" stroke="#b45309" stroke-width="5"/><circle cx="625" cy="185" r="10" fill="#fff" stroke="#b45309" stroke-width="5"/><text x="525" y="455" text-anchor="middle" direction="rtl" font-family="Tahoma,Arial,sans-serif" font-size="20" font-weight="800" fill="#b45309">كتلة خالية ÷ الطول²</text></svg>