<svg xmlns="http://www.w3.org/2000/svg" width="960" height="360" viewBox="0 0 960 360" role="img" aria-labelledby="t"><title id="t">تحويل الكسر إلى عدد عشري</title><defs><linearGradient id="g" x1="0" y1="0" x2="1" y2="1"><stop stop-color="#2563eb"/><stop offset="1" stop-color="#06b6d4"/></linearGradient><linearGradient id="s" x1="0" y1="0" x2="1" y2="1"><stop stop-color="#2563eb" stop-opacity=".14"/><stop offset="1" stop-color="#f59e0b" stop-opacity=".06"/></linearGradient><filter id="sh" x="-25%" y="-25%" width="150%" height="150%"><feDropShadow dx="0" dy="12" stdDeviation="14" flood-color="#172554" flood-opacity=".12"/></filter><marker id="ar" viewBox="0 0 10 10" refX="8" refY="5" markerWidth="7" markerHeight="7" orient="auto-start-reverse"><path d="M0 0 10 5 0 10Z" fill="#2563eb"/></marker></defs><rect width="960" height="360" rx="34" fill="#f8faff"/><circle cx="890" cy="65" r="105" fill="#06b6d4" opacity=".06"/><circle cx="65" cy="325" r="120" fill="#f59e0b" opacity=".07"/><rect x="610" y="56" width="320" height="255" rx="22" fill="#fff" stroke="#d9deef" filter="url(#sh)"/><g opacity=".9" transform="translate(620 78) scale(.30)"><circle cx="210" cy="250" r="120" fill="#e5e9f4" filter="url(#sh)"/><path d="M210 250V130a120 120 0 0 1 84.85 204.85Z" fill="url(#g)"/><path d="M210 250 294.85 334.85A120 120 0 0 1 210 370Z" fill="#f59e0b"/><text x="210" y="420" text-anchor="middle" direction="rtl" font-family="Tahoma,Arial,sans-serif" font-size="28" font-weight="800" fill="#2563eb">3 / 8</text><path d="M350 250 L470 250" fill="none" stroke="#2563eb" stroke-width="5" stroke-linecap="round" marker-end="url(#ar)"/><rect x="500" y="160" width="180" height="180" rx="22" fill="#fff" stroke="#d9deef" filter="url(#sh)"/><text x="590" y="245" text-anchor="middle" direction="rtl" font-family="Tahoma,Arial,sans-serif" font-size="34" font-weight="800" fill="#2563eb">0.375</text><text x="590" y="290" text-anchor="middle" direction="rtl" font-family="Tahoma,Arial,sans-serif" font-size="17" font-weight="800" fill="#20243a">عشري منتهٍ</text></g><text x="770" y="338" text-anchor="middle" direction="rtl" font-family="Tahoma,Arial,sans-serif" font-size="14" font-weight="800" fill="#2563eb">افحص موضوع الحاسبة نفسه</text><text x="300" y="45" text-anchor="middle" direction="rtl" font-family="Tahoma,Arial,sans-serif" font-size="17" font-weight="800" fill="#2563eb">بوابات التصحيح</text><rect x="55" y="105" width="145" height="150" rx="22" fill="#fff" stroke="#d9deef" filter="url(#sh)"/><text x="127" y="145" text-anchor="middle" direction="rtl" font-family="Tahoma,Arial,sans-serif" font-size="22" font-weight="800" fill="#2563eb">01</text><text x="127" y="184" text-anchor="middle" direction="rtl" font-family="Tahoma,Arial,sans-serif" font-size="13" font-weight="800" fill="#2563eb">نتيجة بعيدة</text><text x="127" y="226" text-anchor="middle" direction="rtl" font-family="Tahoma,Arial,sans-serif" font-size="13" font-weight="700" fill="#596078">قياس</text><path d="M205 180 L225 180" fill="none" stroke="#2563eb" stroke-width="5" stroke-linecap="round" marker-end="url(#ar)"/><rect x="230" y="105" width="145" height="150" rx="22" fill="#fff" stroke="#d9deef" filter="url(#sh)"/><text x="302" y="145" text-anchor="middle" direction="rtl" font-family="Tahoma,Arial,sans-serif" font-size="22" font-weight="800" fill="#2563eb">02</text><text x="302" y="184" text-anchor="middle" direction="rtl" font-family="Tahoma,Arial,sans-serif" font-size="13" font-weight="800" fill="#2563eb">نتيجتان مختلفت…</text><text x="302" y="226" text-anchor="middle" direction="rtl" font-family="Tahoma,Arial,sans-serif" font-size="13" font-weight="700" fill="#596078">صيغة</text><path d="M380 180 L400 180" fill="none" stroke="#2563eb" stroke-width="5" stroke-linecap="round" marker-end="url(#ar)"/><rect x="405" y="105" width="145" height="150" rx="22" fill="#fff" stroke="#d9deef" filter="url(#sh)"/><text x="477" y="145" text-anchor="middle" direction="rtl" font-family="Tahoma,Arial,sans-serif" font-size="22" font-weight="800" fill="#2563eb">03</text><text x="477" y="184" text-anchor="middle" direction="rtl" font-family="Tahoma,Arial,sans-serif" font-size="13" font-weight="800" fill="#2563eb">افتراض مجهول</text><text x="477" y="226" text-anchor="middle" direction="rtl" font-family="Tahoma,Arial,sans-serif" font-size="13" font-weight="700" fill="#596078">سياق</text><rect x="185" y="285" width="225" height="58" rx="22" fill="#fff" stroke="#d9deef" filter="url(#sh)"/><text x="297" y="320" text-anchor="middle" direction="rtl" font-family="Tahoma,Arial,sans-serif" font-size="14" font-weight="800" fill="#2563eb">أعد الحساب بعينة صغيرة</text></svg>