<svg xmlns="http://www.w3.org/2000/svg" width="760" height="520" viewBox="0 0 760 520" role="img" aria-labelledby="t"><title id="t">تحويل الكسر إلى عدد عشري</title><defs><linearGradient id="g" x1="0" y1="0" x2="1" y2="1"><stop stop-color="#2563eb"/><stop offset="1" stop-color="#06b6d4"/></linearGradient><linearGradient id="s" x1="0" y1="0" x2="1" y2="1"><stop stop-color="#2563eb" stop-opacity=".14"/><stop offset="1" stop-color="#f59e0b" stop-opacity=".06"/></linearGradient><filter id="sh" x="-25%" y="-25%" width="150%" height="150%"><feDropShadow dx="0" dy="12" stdDeviation="14" flood-color="#172554" flood-opacity=".12"/></filter><marker id="ar" viewBox="0 0 10 10" refX="8" refY="5" markerWidth="7" markerHeight="7" orient="auto-start-reverse"><path d="M0 0 10 5 0 10Z" fill="#2563eb"/></marker></defs><rect width="760" height="520" rx="34" fill="#f8faff"/><circle cx="690" cy="65" r="105" fill="#06b6d4" opacity=".06"/><circle cx="65" cy="485" r="120" fill="#f59e0b" opacity=".07"/><text x="380" y="48" text-anchor="middle" direction="rtl" font-family="Tahoma,Arial,sans-serif" font-size="21" font-weight="900" fill="#2563eb">تحويل الكسر إلى عدد عشري</text><circle cx="210" cy="250" r="120" fill="#e5e9f4" filter="url(#sh)"/><path d="M210 250V130a120 120 0 0 1 84.85 204.85Z" fill="url(#g)"/><path d="M210 250 294.85 334.85A120 120 0 0 1 210 370Z" fill="#f59e0b"/><text x="210" y="420" text-anchor="middle" direction="rtl" font-family="Tahoma,Arial,sans-serif" font-size="28" font-weight="800" fill="#2563eb">3 / 8</text><path d="M350 250 L470 250" fill="none" stroke="#2563eb" stroke-width="5" stroke-linecap="round" marker-end="url(#ar)"/><rect x="500" y="160" width="180" height="180" rx="22" fill="#fff" stroke="#d9deef" filter="url(#sh)"/><text x="590" y="245" text-anchor="middle" direction="rtl" font-family="Tahoma,Arial,sans-serif" font-size="34" font-weight="800" fill="#2563eb">0.375</text><text x="590" y="290" text-anchor="middle" direction="rtl" font-family="Tahoma,Arial,sans-serif" font-size="17" font-weight="800" fill="#20243a">عشري منتهٍ</text></svg>