<svg xmlns="http://www.w3.org/2000/svg" width="960" height="380" viewBox="0 0 960 380" role="img" aria-labelledby="t"><title id="t">تحويل الكسر إلى عدد عشري</title><defs><linearGradient id="g" x1="0" y1="0" x2="1" y2="1"><stop stop-color="#2563eb"/><stop offset="1" stop-color="#06b6d4"/></linearGradient><linearGradient id="s" x1="0" y1="0" x2="1" y2="1"><stop stop-color="#2563eb" stop-opacity=".14"/><stop offset="1" stop-color="#f59e0b" stop-opacity=".06"/></linearGradient><filter id="sh" x="-25%" y="-25%" width="150%" height="150%"><feDropShadow dx="0" dy="12" stdDeviation="14" flood-color="#172554" flood-opacity=".12"/></filter><marker id="ar" viewBox="0 0 10 10" refX="8" refY="5" markerWidth="7" markerHeight="7" orient="auto-start-reverse"><path d="M0 0 10 5 0 10Z" fill="#2563eb"/></marker></defs><rect width="960" height="380" rx="34" fill="#f8faff"/><circle cx="890" cy="65" r="105" fill="#06b6d4" opacity=".06"/><circle cx="65" cy="345" r="120" fill="#f59e0b" opacity=".07"/><rect x="24" y="55" width="330" height="278" rx="22" fill="#fff" stroke="#d9deef" filter="url(#sh)"/><g opacity=".98" transform="translate(27 72) scale(.39)"><circle cx="210" cy="250" r="120" fill="#e5e9f4" filter="url(#sh)"/><path d="M210 250V130a120 120 0 0 1 84.85 204.85Z" fill="url(#g)"/><path d="M210 250 294.85 334.85A120 120 0 0 1 210 370Z" fill="#f59e0b"/><text x="210" y="420" text-anchor="middle" direction="rtl" font-family="Tahoma,Arial,sans-serif" font-size="28" font-weight="800" fill="#2563eb">3 / 8</text><path d="M350 250 L470 250" fill="none" stroke="#2563eb" stroke-width="5" stroke-linecap="round" marker-end="url(#ar)"/><rect x="500" y="160" width="180" height="180" rx="22" fill="#fff" stroke="#d9deef" filter="url(#sh)"/><text x="590" y="245" text-anchor="middle" direction="rtl" font-family="Tahoma,Arial,sans-serif" font-size="34" font-weight="800" fill="#2563eb">0.375</text><text x="590" y="290" text-anchor="middle" direction="rtl" font-family="Tahoma,Arial,sans-serif" font-size="17" font-weight="800" fill="#20243a">عشري منتهٍ</text></g><text x="189" y="356" text-anchor="middle" direction="rtl" font-family="Tahoma,Arial,sans-serif" font-size="15" font-weight="800" fill="#2563eb">نموذج تحويل الكسر إلى عدد عش…</text><text x="650" y="42" text-anchor="middle" direction="rtl" font-family="Tahoma,Arial,sans-serif" font-size="18" font-weight="800" fill="#2563eb">لوحة السيناريوهات</text><text x="445" y="93" text-anchor="middle" direction="rtl" font-family="Tahoma,Arial,sans-serif" font-size="14" font-weight="700" fill="#41485e">السيناريو الأسا…</text><rect x="565" y="72" width="274" height="31" rx="15" fill="url(#g)" opacity="0.92"/><text x="849" y="94" text-anchor="middle" direction="rtl" font-family="Tahoma,Arial,sans-serif" font-size="12" font-weight="700" fill="#2563eb">المقام غير ا…</text><text x="445" y="162" text-anchor="middle" direction="rtl" font-family="Tahoma,Arial,sans-serif" font-size="14" font-weight="700" fill="#41485e">افتراض محافظ</text><rect x="565" y="141" width="335" height="31" rx="15" fill="#2563eb" opacity="0.8"/><text x="910" y="163" text-anchor="middle" direction="rtl" font-family="Tahoma,Arial,sans-serif" font-size="12" font-weight="700" fill="#2563eb">إشارة الكسر</text><text x="445" y="231" text-anchor="middle" direction="rtl" font-family="Tahoma,Arial,sans-serif" font-size="14" font-weight="700" fill="#41485e">افتراض مرتفع</text><rect x="565" y="210" width="151" height="31" rx="15" fill="#2563eb" opacity="0.68"/><text x="726" y="232" text-anchor="middle" direction="rtl" font-family="Tahoma,Arial,sans-serif" font-size="12" font-weight="700" fill="#2563eb">موضع التكرار</text><text x="445" y="300" text-anchor="middle" direction="rtl" font-family="Tahoma,Arial,sans-serif" font-size="14" font-weight="700" fill="#41485e">مرجع رسمي</text><rect x="565" y="279" width="212" height="31" rx="15" fill="#f59e0b" opacity="0.56"/><text x="787" y="301" text-anchor="middle" direction="rtl" font-family="Tahoma,Arial,sans-serif" font-size="12" font-weight="700" fill="#2563eb">عدد المنازل</text></svg>