<svg xmlns="http://www.w3.org/2000/svg" width="960" height="380" viewBox="0 0 960 380" role="img" aria-labelledby="t"><title id="t">حاسبة خطر فرامينغهام</title><defs><linearGradient id="g" x1="0" y1="0" x2="1" y2="1"><stop stop-color="#9333ea"/><stop offset="1" stop-color="#e879f9"/></linearGradient><linearGradient id="s" x1="0" y1="0" x2="1" y2="1"><stop stop-color="#9333ea" stop-opacity=".14"/><stop offset="1" stop-color="#0ea5e9" stop-opacity=".06"/></linearGradient><filter id="sh" x="-25%" y="-25%" width="150%" height="150%"><feDropShadow dx="0" dy="12" stdDeviation="14" flood-color="#172554" flood-opacity=".12"/></filter><marker id="ar" viewBox="0 0 10 10" refX="8" refY="5" markerWidth="7" markerHeight="7" orient="auto-start-reverse"><path d="M0 0 10 5 0 10Z" fill="#9333ea"/></marker></defs><rect width="960" height="380" rx="34" fill="#f8faff"/><circle cx="890" cy="65" r="105" fill="#e879f9" opacity=".06"/><circle cx="65" cy="345" r="120" fill="#0ea5e9" opacity=".07"/><rect x="24" y="55" width="330" height="278" rx="22" fill="#fff" stroke="#d9deef" filter="url(#sh)"/><g opacity=".98" transform="translate(27 72) scale(.39)"><rect x="85" y="95" width="330" height="350" rx="22" fill="#fff" stroke="#d9deef" filter="url(#sh)"/><text x="170" y="165" text-anchor="middle" direction="rtl" font-family="Tahoma,Arial,sans-serif" font-size="17" font-weight="800" fill="#596078">العمر</text><rect x="245" y="142" width="95" height="24" rx="12" fill="#9333ea" opacity="0.45"/><text x="170" y="233" text-anchor="middle" direction="rtl" font-family="Tahoma,Arial,sans-serif" font-size="17" font-weight="800" fill="#596078">الضغط</text><rect x="245" y="210" width="110" height="24" rx="12" fill="#9333ea" opacity="0.5700000000000001"/><text x="170" y="301" text-anchor="middle" direction="rtl" font-family="Tahoma,Arial,sans-serif" font-size="17" font-weight="800" fill="#596078">الدهون</text><rect x="245" y="278" width="125" height="24" rx="12" fill="#9333ea" opacity="0.69"/><text x="170" y="369" text-anchor="middle" direction="rtl" font-family="Tahoma,Arial,sans-serif" font-size="17" font-weight="800" fill="#9333ea">التدخين</text><rect x="245" y="346" width="140" height="24" rx="12" fill="url(#g)" opacity="0.81"/><path d="M440 270 L515 270" fill="none" stroke="#9333ea" stroke-width="5" stroke-linecap="round" marker-end="url(#ar)"/><circle cx="610" cy="270" r="92" fill="#fff" stroke="#dce2f3" stroke-width="20"/><path d="M610 178a92 92 0 1 1-85 58" fill="none" stroke="url(#g)" stroke-width="20"/><text x="610" y="265" text-anchor="middle" direction="rtl" font-family="Tahoma,Arial,sans-serif" font-size="22" font-weight="800" fill="#9333ea">خطر</text><text x="610" y="305" text-anchor="middle" direction="rtl" font-family="Tahoma,Arial,sans-serif" font-size="18" font-weight="800" fill="#20243a">تقديري</text></g><text x="189" y="356" text-anchor="middle" direction="rtl" font-family="Tahoma,Arial,sans-serif" font-size="15" font-weight="800" fill="#9333ea">نموذج حاسبة خطر فرامينغهام</text><text x="650" y="42" text-anchor="middle" direction="rtl" font-family="Tahoma,Arial,sans-serif" font-size="18" font-weight="800" fill="#9333ea">سُلّم الافتراضات</text><rect x="395" y="292" width="105" height="58" rx="17" fill="url(#s)" stroke="#9333ea" stroke-width="3"/><text x="447" y="324" text-anchor="middle" direction="rtl" font-family="Tahoma,Arial,sans-serif" font-size="12" font-weight="700" fill="#9333ea">أساسي</text><rect x="510" y="236" width="105" height="73" rx="17" fill="url(#s)" stroke="#9333ea" stroke-width="3"/><text x="562" y="268" text-anchor="middle" direction="rtl" font-family="Tahoma,Arial,sans-serif" font-size="12" font-weight="700" fill="#9333ea">محافظ</text><rect x="625" y="180" width="105" height="88" rx="17" fill="url(#s)" stroke="#9333ea" stroke-width="3"/><text x="677" y="212" text-anchor="middle" direction="rtl" font-family="Tahoma,Arial,sans-serif" font-size="12" font-weight="700" fill="#9333ea">مرتفع</text><rect x="740" y="124" width="105" height="103" rx="17" fill="url(#g)" stroke="#9333ea" stroke-width="3"/><text x="792" y="156" text-anchor="middle" direction="rtl" font-family="Tahoma,Arial,sans-serif" font-size="12" font-weight="700" fill="#fff">مرجع رسمي</text><path d="M400 330 842 96" stroke="#0ea5e9" stroke-width="5" stroke-dasharray="11 9" marker-end="url(#ar)"/><text x="690" y="350" text-anchor="middle" direction="rtl" font-family="Tahoma,Arial,sans-serif" font-size="14" font-weight="800" fill="#9333ea">اقرأ اتجاه التغيّر</text></svg>