<svg xmlns="http://www.w3.org/2000/svg" width="760" height="520" viewBox="0 0 760 520" role="img" aria-labelledby="t"><title id="t">حساب المعدل التراكمي من 4</title><defs><linearGradient id="g" x1="0" y1="0" x2="1" y2="1"><stop stop-color="#b45309"/><stop offset="1" stop-color="#f59e0b"/></linearGradient><linearGradient id="s" x1="0" y1="0" x2="1" y2="1"><stop stop-color="#b45309" stop-opacity=".14"/><stop offset="1" stop-color="#2563eb" stop-opacity=".06"/></linearGradient><filter id="sh" x="-25%" y="-25%" width="150%" height="150%"><feDropShadow dx="0" dy="12" stdDeviation="14" flood-color="#172554" flood-opacity=".12"/></filter><marker id="ar" viewBox="0 0 10 10" refX="8" refY="5" markerWidth="7" markerHeight="7" orient="auto-start-reverse"><path d="M0 0 10 5 0 10Z" fill="#b45309"/></marker></defs><rect width="760" height="520" rx="34" fill="#f8faff"/><circle cx="690" cy="65" r="105" fill="#f59e0b" opacity=".06"/><circle cx="65" cy="485" r="120" fill="#2563eb" opacity=".07"/><text x="380" y="48" text-anchor="middle" direction="rtl" font-family="Tahoma,Arial,sans-serif" font-size="21" font-weight="900" fill="#b45309">حساب المعدل التراكمي من 4</text><rect x="120" y="315.5" width="70" height="94.5" rx="16" fill="#b45309" opacity="0.55"/><text x="155" y="442" text-anchor="middle" direction="rtl" font-family="Tahoma,Arial,sans-serif" font-size="14" font-weight="700" fill="#3f465e">1</text><rect x="270" y="269.6" width="70" height="140.4" rx="16" fill="#b45309" opacity="0.68"/><text x="305" y="442" text-anchor="middle" direction="rtl" font-family="Tahoma,Arial,sans-serif" font-size="14" font-weight="700" fill="#3f465e">2</text><rect x="420" y="207.5" width="70" height="202.5" rx="16" fill="#b45309" opacity="0.81"/><text x="455" y="442" text-anchor="middle" direction="rtl" font-family="Tahoma,Arial,sans-serif" font-size="14" font-weight="700" fill="#3f465e">3</text><rect x="570" y="140" width="70" height="270" rx="16" fill="url(#g)" opacity="0.9400000000000001"/><text x="605" y="442" text-anchor="middle" direction="rtl" font-family="Tahoma,Arial,sans-serif" font-size="14" font-weight="700" fill="#3f465e">4</text><text x="380" y="105" text-anchor="middle" direction="rtl" font-family="Tahoma,Arial,sans-serif" font-size="23" font-weight="800" fill="#b45309">سلم من أربع نقاط</text><text x="380" y="455" text-anchor="middle" direction="rtl" font-family="Tahoma,Arial,sans-serif" font-size="18" font-weight="800" fill="#20243a">تأثير الساعات في المتوسط</text></svg>