<svg xmlns="http://www.w3.org/2000/svg" width="760" height="520" viewBox="0 0 760 520" role="img" aria-labelledby="t"><title id="t">حساب المعدل التراكمي من 5</title><defs><linearGradient id="g" x1="0" y1="0" x2="1" y2="1"><stop stop-color="#7c3aed"/><stop offset="1" stop-color="#a855f7"/></linearGradient><linearGradient id="s" x1="0" y1="0" x2="1" y2="1"><stop stop-color="#7c3aed" stop-opacity=".14"/><stop offset="1" stop-color="#14b8a6" stop-opacity=".06"/></linearGradient><filter id="sh" x="-25%" y="-25%" width="150%" height="150%"><feDropShadow dx="0" dy="12" stdDeviation="14" flood-color="#172554" flood-opacity=".12"/></filter><marker id="ar" viewBox="0 0 10 10" refX="8" refY="5" markerWidth="7" markerHeight="7" orient="auto-start-reverse"><path d="M0 0 10 5 0 10Z" fill="#7c3aed"/></marker></defs><rect width="760" height="520" rx="34" fill="#f8faff"/><circle cx="690" cy="65" r="105" fill="#a855f7" opacity=".06"/><circle cx="65" cy="485" r="120" fill="#14b8a6" opacity=".07"/><text x="380" y="48" text-anchor="middle" direction="rtl" font-family="Tahoma,Arial,sans-serif" font-size="21" font-weight="900" fill="#7c3aed">حساب المعدل التراكمي من 5</text><rect x="90" y="356" width="70" height="54" rx="16" fill="#7c3aed" opacity="0.55"/><text x="125" y="442" text-anchor="middle" direction="rtl" font-family="Tahoma,Arial,sans-serif" font-size="14" font-weight="700" fill="#3f465e">1</text><rect x="217.5" y="302" width="70" height="108" rx="16" fill="#7c3aed" opacity="0.68"/><text x="252.5" y="442" text-anchor="middle" direction="rtl" font-family="Tahoma,Arial,sans-serif" font-size="14" font-weight="700" fill="#3f465e">2</text><rect x="345" y="248" width="70" height="162" rx="16" fill="#7c3aed" opacity="0.81"/><text x="380" y="442" text-anchor="middle" direction="rtl" font-family="Tahoma,Arial,sans-serif" font-size="14" font-weight="700" fill="#3f465e">3</text><rect x="472.5" y="194" width="70" height="216" rx="16" fill="#7c3aed" opacity="0.9400000000000001"/><text x="507.5" y="442" text-anchor="middle" direction="rtl" font-family="Tahoma,Arial,sans-serif" font-size="14" font-weight="700" fill="#3f465e">4</text><rect x="600" y="140" width="70" height="270" rx="16" fill="url(#g)" opacity="1.07"/><text x="635" y="442" text-anchor="middle" direction="rtl" font-family="Tahoma,Arial,sans-serif" font-size="14" font-weight="700" fill="#3f465e">5</text><text x="380" y="105" text-anchor="middle" direction="rtl" font-family="Tahoma,Arial,sans-serif" font-size="23" font-weight="800" fill="#7c3aed">سلم من خمس نقاط</text></svg>