<svg xmlns="http://www.w3.org/2000/svg" width="760" height="520" viewBox="0 0 760 520" role="img" aria-labelledby="t"><title id="t">حاسبة درجات المادة</title><defs><linearGradient id="g" x1="0" y1="0" x2="1" y2="1"><stop stop-color="#9333ea"/><stop offset="1" stop-color="#e879f9"/></linearGradient><linearGradient id="s" x1="0" y1="0" x2="1" y2="1"><stop stop-color="#9333ea" stop-opacity=".14"/><stop offset="1" stop-color="#0ea5e9" stop-opacity=".06"/></linearGradient><filter id="sh" x="-25%" y="-25%" width="150%" height="150%"><feDropShadow dx="0" dy="12" stdDeviation="14" flood-color="#172554" flood-opacity=".12"/></filter><marker id="ar" viewBox="0 0 10 10" refX="8" refY="5" markerWidth="7" markerHeight="7" orient="auto-start-reverse"><path d="M0 0 10 5 0 10Z" fill="#9333ea"/></marker></defs><rect width="760" height="520" rx="34" fill="#f8faff"/><circle cx="690" cy="65" r="105" fill="#e879f9" opacity=".06"/><circle cx="65" cy="485" r="120" fill="#0ea5e9" opacity=".07"/><text x="380" y="48" text-anchor="middle" direction="rtl" font-family="Tahoma,Arial,sans-serif" font-size="21" font-weight="900" fill="#9333ea">حاسبة درجات المادة</text><circle cx="380" cy="255" r="145" fill="#fff" stroke="#dce2f3" stroke-width="28" filter="url(#sh)"/><path d="M380 110a145 145 0 0 1 138 100" fill="none" stroke="#9333ea" stroke-width="28"/><path d="M518 210a145 145 0 0 1-65 160" fill="none" stroke="#e879f9" stroke-width="28"/><path d="M453 370a145 145 0 0 1-178-20" fill="none" stroke="#0ea5e9" stroke-width="28"/><text x="380" y="250" text-anchor="middle" direction="rtl" font-family="Tahoma,Arial,sans-serif" font-size="23" font-weight="800" fill="#9333ea">درجة المادة</text><text x="380" y="286" text-anchor="middle" direction="rtl" font-family="Tahoma,Arial,sans-serif" font-size="17" font-weight="800" fill="#20243a">أوزان مجمعة</text></svg>