<svg xmlns="http://www.w3.org/2000/svg" width="960" height="360" viewBox="0 0 960 360" role="img" aria-labelledby="t"><title id="t">حاسبة درجات المادة</title><defs><linearGradient id="g" x1="0" y1="0" x2="1" y2="1"><stop stop-color="#9333ea"/><stop offset="1" stop-color="#e879f9"/></linearGradient><linearGradient id="s" x1="0" y1="0" x2="1" y2="1"><stop stop-color="#9333ea" stop-opacity=".14"/><stop offset="1" stop-color="#0ea5e9" stop-opacity=".06"/></linearGradient><filter id="sh" x="-25%" y="-25%" width="150%" height="150%"><feDropShadow dx="0" dy="12" stdDeviation="14" flood-color="#172554" flood-opacity=".12"/></filter><marker id="ar" viewBox="0 0 10 10" refX="8" refY="5" markerWidth="7" markerHeight="7" orient="auto-start-reverse"><path d="M0 0 10 5 0 10Z" fill="#9333ea"/></marker></defs><rect width="960" height="360" rx="34" fill="#f8faff"/><circle cx="890" cy="65" r="105" fill="#e879f9" opacity=".06"/><circle cx="65" cy="325" r="120" fill="#0ea5e9" opacity=".07"/><rect x="610" y="56" width="320" height="255" rx="22" fill="#fff" stroke="#d9deef" filter="url(#sh)"/><g opacity=".9" transform="translate(620 78) scale(.30)"><circle cx="380" cy="255" r="145" fill="#fff" stroke="#dce2f3" stroke-width="28" filter="url(#sh)"/><path d="M380 110a145 145 0 0 1 138 100" fill="none" stroke="#9333ea" stroke-width="28"/><path d="M518 210a145 145 0 0 1-65 160" fill="none" stroke="#e879f9" stroke-width="28"/><path d="M453 370a145 145 0 0 1-178-20" fill="none" stroke="#0ea5e9" stroke-width="28"/><text x="380" y="250" text-anchor="middle" direction="rtl" font-family="Tahoma,Arial,sans-serif" font-size="23" font-weight="800" fill="#9333ea">درجة المادة</text><text x="380" y="286" text-anchor="middle" direction="rtl" font-family="Tahoma,Arial,sans-serif" font-size="17" font-weight="800" fill="#20243a">أوزان مجمعة</text></g><text x="770" y="338" text-anchor="middle" direction="rtl" font-family="Tahoma,Arial,sans-serif" font-size="14" font-weight="800" fill="#9333ea">افحص موضوع الحاسبة نفسه</text><text x="300" y="45" text-anchor="middle" direction="rtl" font-family="Tahoma,Arial,sans-serif" font-size="17" font-weight="800" fill="#9333ea">بوابات التصحيح</text><rect x="55" y="105" width="145" height="150" rx="22" fill="#fff" stroke="#d9deef" filter="url(#sh)"/><text x="127" y="145" text-anchor="middle" direction="rtl" font-family="Tahoma,Arial,sans-serif" font-size="22" font-weight="800" fill="#9333ea">01</text><text x="127" y="184" text-anchor="middle" direction="rtl" font-family="Tahoma,Arial,sans-serif" font-size="13" font-weight="800" fill="#9333ea">نتيجة بعيدة</text><text x="127" y="226" text-anchor="middle" direction="rtl" font-family="Tahoma,Arial,sans-serif" font-size="13" font-weight="700" fill="#596078">قياس</text><path d="M205 180 L225 180" fill="none" stroke="#9333ea" stroke-width="5" stroke-linecap="round" marker-end="url(#ar)"/><rect x="230" y="105" width="145" height="150" rx="22" fill="#fff" stroke="#d9deef" filter="url(#sh)"/><text x="302" y="145" text-anchor="middle" direction="rtl" font-family="Tahoma,Arial,sans-serif" font-size="22" font-weight="800" fill="#9333ea">02</text><text x="302" y="184" text-anchor="middle" direction="rtl" font-family="Tahoma,Arial,sans-serif" font-size="13" font-weight="800" fill="#9333ea">نتيجتان مختلفت…</text><text x="302" y="226" text-anchor="middle" direction="rtl" font-family="Tahoma,Arial,sans-serif" font-size="13" font-weight="700" fill="#596078">صيغة</text><path d="M380 180 L400 180" fill="none" stroke="#9333ea" stroke-width="5" stroke-linecap="round" marker-end="url(#ar)"/><rect x="405" y="105" width="145" height="150" rx="22" fill="#fff" stroke="#d9deef" filter="url(#sh)"/><text x="477" y="145" text-anchor="middle" direction="rtl" font-family="Tahoma,Arial,sans-serif" font-size="22" font-weight="800" fill="#9333ea">03</text><text x="477" y="184" text-anchor="middle" direction="rtl" font-family="Tahoma,Arial,sans-serif" font-size="13" font-weight="800" fill="#9333ea">افتراض مجهول</text><text x="477" y="226" text-anchor="middle" direction="rtl" font-family="Tahoma,Arial,sans-serif" font-size="13" font-weight="700" fill="#596078">سياق</text><rect x="185" y="285" width="225" height="58" rx="22" fill="#fff" stroke="#d9deef" filter="url(#sh)"/><text x="297" y="320" text-anchor="middle" direction="rtl" font-family="Tahoma,Arial,sans-serif" font-size="14" font-weight="800" fill="#9333ea">أعد الحساب بعينة صغيرة</text></svg>