<svg xmlns="http://www.w3.org/2000/svg" width="760" height="520" viewBox="0 0 760 520" role="img" aria-labelledby="t"><title id="t">أداة رسم الدوال</title><defs><linearGradient id="g" x1="0" y1="0" x2="1" y2="1"><stop stop-color="#0f766e"/><stop offset="1" stop-color="#2dd4bf"/></linearGradient><linearGradient id="s" x1="0" y1="0" x2="1" y2="1"><stop stop-color="#0f766e" stop-opacity=".14"/><stop offset="1" stop-color="#8b5cf6" stop-opacity=".06"/></linearGradient><filter id="sh" x="-25%" y="-25%" width="150%" height="150%"><feDropShadow dx="0" dy="12" stdDeviation="14" flood-color="#172554" flood-opacity=".12"/></filter><marker id="ar" viewBox="0 0 10 10" refX="8" refY="5" markerWidth="7" markerHeight="7" orient="auto-start-reverse"><path d="M0 0 10 5 0 10Z" fill="#0f766e"/></marker></defs><rect width="760" height="520" rx="34" fill="#f8faff"/><circle cx="690" cy="65" r="105" fill="#2dd4bf" opacity=".06"/><circle cx="65" cy="485" r="120" fill="#8b5cf6" opacity=".07"/><text x="380" y="48" text-anchor="middle" direction="rtl" font-family="Tahoma,Arial,sans-serif" font-size="21" font-weight="900" fill="#0f766e">أداة رسم الدوال</text><path d="M95 390H675M380 95v335" stroke="#cfd6e8" stroke-width="5"/><path d="M160 110v290" stroke="#e7eaf3" stroke-width="2"/><path d="M270 110v290" stroke="#e7eaf3" stroke-width="2"/><path d="M490 110v290" stroke="#e7eaf3" stroke-width="2"/><path d="M600 110v290" stroke="#e7eaf3" stroke-width="2"/><path d="M125 120 C235 395 525 395 640 120" fill="none" stroke="url(#g)" stroke-width="11"/><circle cx="230" cy="390" r="14" fill="#fff" stroke="#0f766e" stroke-width="6"/><circle cx="530" cy="390" r="14" fill="#fff" stroke="#0f766e" stroke-width="6"/><text x="230" y="430" text-anchor="middle" direction="rtl" font-family="Tahoma,Arial,sans-serif" font-size="16" font-weight="800" fill="#0f766e">−2</text><text x="530" y="430" text-anchor="middle" direction="rtl" font-family="Tahoma,Arial,sans-serif" font-size="16" font-weight="800" fill="#0f766e">2</text><text x="380" y="265" text-anchor="middle" direction="rtl" font-family="Tahoma,Arial,sans-serif" font-size="18" font-weight="800" fill="#0f766e">رأس المنحنى</text></svg>