<svg xmlns="http://www.w3.org/2000/svg" width="760" height="520" viewBox="0 0 760 520" role="img" aria-labelledby="t"><title id="t">حاسبة الوزن المثالي للجسم</title><defs><linearGradient id="g" x1="0" y1="0" x2="1" y2="1"><stop stop-color="#0f766e"/><stop offset="1" stop-color="#10b981"/></linearGradient><linearGradient id="s" x1="0" y1="0" x2="1" y2="1"><stop stop-color="#0f766e" stop-opacity=".14"/><stop offset="1" stop-color="#f59e0b" stop-opacity=".06"/></linearGradient><filter id="sh" x="-25%" y="-25%" width="150%" height="150%"><feDropShadow dx="0" dy="12" stdDeviation="14" flood-color="#172554" flood-opacity=".12"/></filter><marker id="ar" viewBox="0 0 10 10" refX="8" refY="5" markerWidth="7" markerHeight="7" orient="auto-start-reverse"><path d="M0 0 10 5 0 10Z" fill="#0f766e"/></marker></defs><rect width="760" height="520" rx="34" fill="#f8faff"/><circle cx="690" cy="65" r="105" fill="#10b981" opacity=".06"/><circle cx="65" cy="485" r="120" fill="#f59e0b" opacity=".07"/><text x="380" y="48" text-anchor="middle" direction="rtl" font-family="Tahoma,Arial,sans-serif" font-size="21" font-weight="900" fill="#0f766e">حاسبة الوزن المثالي للجسم</text><path d="M115 275h525" stroke="#d7ddec" stroke-width="22" stroke-linecap="round"/><path d="M240 275h260" stroke="url(#g)" stroke-width="22" stroke-linecap="round"/><circle cx="115" cy="275" r="18" fill="#fff" stroke="#0f766e" stroke-width="6"/><circle cx="240" cy="275" r="18" fill="#fff" stroke="#0f766e" stroke-width="6"/><circle cx="370" cy="275" r="30" fill="#fff" stroke="#0f766e" stroke-width="6"/><circle cx="500" cy="275" r="18" fill="#fff" stroke="#0f766e" stroke-width="6"/><circle cx="640" cy="275" r="18" fill="#fff" stroke="#0f766e" stroke-width="6"/><text x="370" y="230" text-anchor="middle" direction="rtl" font-family="Tahoma,Arial,sans-serif" font-size="22" font-weight="800" fill="#0f766e">نطاق مرجعي</text><text x="115" y="330" text-anchor="middle" direction="rtl" font-family="Tahoma,Arial,sans-serif" font-size="17" font-weight="800" fill="#20243a">أقل</text><text x="640" y="330" text-anchor="middle" direction="rtl" font-family="Tahoma,Arial,sans-serif" font-size="17" font-weight="800" fill="#20243a">أعلى</text><rect x="220" y="375" width="300" height="70" rx="22" fill="#fff" stroke="#d9deef" filter="url(#sh)"/><text x="370" y="417" text-anchor="middle" direction="rtl" font-family="Tahoma,Arial,sans-serif" font-size="18" font-weight="800" fill="#0f766e">صيغ متعددة لا رقم سحري</text></svg>