<svg xmlns="http://www.w3.org/2000/svg" width="760" height="520" viewBox="0 0 760 520" role="img" aria-labelledby="t"><title id="t">حاسبة التضخم وتآكل القوة الشرائية</title><defs><linearGradient id="g" x1="0" y1="0" x2="1" y2="1"><stop stop-color="#b45309"/><stop offset="1" stop-color="#f59e0b"/></linearGradient><linearGradient id="s" x1="0" y1="0" x2="1" y2="1"><stop stop-color="#b45309" stop-opacity=".14"/><stop offset="1" stop-color="#2563eb" stop-opacity=".06"/></linearGradient><filter id="sh" x="-25%" y="-25%" width="150%" height="150%"><feDropShadow dx="0" dy="12" stdDeviation="14" flood-color="#172554" flood-opacity=".12"/></filter><marker id="ar" viewBox="0 0 10 10" refX="8" refY="5" markerWidth="7" markerHeight="7" orient="auto-start-reverse"><path d="M0 0 10 5 0 10Z" fill="#b45309"/></marker></defs><rect width="760" height="520" rx="34" fill="#f8faff"/><circle cx="690" cy="65" r="105" fill="#f59e0b" opacity=".06"/><circle cx="65" cy="485" r="120" fill="#2563eb" opacity=".07"/><text x="380" y="48" text-anchor="middle" direction="rtl" font-family="Tahoma,Arial,sans-serif" font-size="21" font-weight="900" fill="#b45309">حاسبة التضخم وتآكل القوة الشرائية</text><path d="M95 230h250l-35 175H130Z" fill="#fff" stroke="#b45309" stroke-width="7" filter="url(#sh)"/><path d="M145 230c0-85 150-85 150 0" fill="none" stroke="#b45309" stroke-width="7"/><circle cx="180" cy="290" r="30" fill="url(#g)" filter="url(#sh)"/><text x="180" y="298" text-anchor="middle" direction="rtl" font-family="Tahoma,Arial,sans-serif" font-size="15" font-weight="900" fill="#fff">س</text><circle cx="260" cy="330" r="34" fill="url(#g)" filter="url(#sh)"/><text x="260" y="338" text-anchor="middle" direction="rtl" font-family="Tahoma,Arial,sans-serif" font-size="15" font-weight="900" fill="#fff">س</text><path d="M420 390 L500 330 L575 245 L660 145" fill="none" stroke="url(#g)" stroke-width="10" stroke-linecap="round" stroke-linejoin="round"/><circle cx="420" cy="390" r="10" fill="#fff" stroke="#b45309" stroke-width="5"/><circle cx="500" cy="330" r="10" fill="#fff" stroke="#b45309" stroke-width="5"/><circle cx="575" cy="245" r="10" fill="#fff" stroke="#b45309" stroke-width="5"/><circle cx="660" cy="145" r="10" fill="#fff" stroke="#b45309" stroke-width="5"/><text x="555" y="440" text-anchor="middle" direction="rtl" font-family="Tahoma,Arial,sans-serif" font-size="19" font-weight="800" fill="#b45309">الأسعار ترتفع</text></svg>