<svg xmlns="http://www.w3.org/2000/svg" width="960" height="360" viewBox="0 0 960 360" role="img" aria-labelledby="t"><title id="t">حاسبة المواريث الإسلامية</title><defs><linearGradient id="g" x1="0" y1="0" x2="1" y2="1"><stop stop-color="#1d4ed8"/><stop offset="1" stop-color="#60a5fa"/></linearGradient><linearGradient id="s" x1="0" y1="0" x2="1" y2="1"><stop stop-color="#1d4ed8" stop-opacity=".14"/><stop offset="1" stop-color="#f97316" stop-opacity=".06"/></linearGradient><filter id="sh" x="-25%" y="-25%" width="150%" height="150%"><feDropShadow dx="0" dy="12" stdDeviation="14" flood-color="#172554" flood-opacity=".12"/></filter><marker id="ar" viewBox="0 0 10 10" refX="8" refY="5" markerWidth="7" markerHeight="7" orient="auto-start-reverse"><path d="M0 0 10 5 0 10Z" fill="#1d4ed8"/></marker></defs><rect width="960" height="360" rx="34" fill="#f8faff"/><circle cx="890" cy="65" r="105" fill="#60a5fa" opacity=".06"/><circle cx="65" cy="325" r="120" fill="#f97316" opacity=".07"/><rect x="610" y="56" width="320" height="255" rx="22" fill="#fff" stroke="#d9deef" filter="url(#sh)"/><g opacity=".9" transform="translate(620 78) scale(.30)"><rect x="295" y="75" width="170" height="70" rx="22" fill="#fff" stroke="#d9deef" filter="url(#sh)"/><text x="380" y="117" text-anchor="middle" direction="rtl" font-family="Tahoma,Arial,sans-serif" font-size="19" font-weight="800" fill="#1d4ed8">صافي التركة</text><path d="M380 150 L380 205" fill="none" stroke="#1d4ed8" stroke-width="5" stroke-linecap="round" marker-end="url(#ar)"/><path d="M380 205 L120 250" fill="none" stroke="#1d4ed8" stroke-width="5" stroke-linecap="round" marker-end="url(#ar)"/><rect x="45" y="250" width="150" height="105" rx="22" fill="#fff" stroke="#d9deef" filter="url(#sh)"/><text x="120" y="292" text-anchor="middle" direction="rtl" font-family="Tahoma,Arial,sans-serif" font-size="16" font-weight="800" fill="#1d4ed8">زوج/زوجة</text><text x="120" y="326" text-anchor="middle" direction="rtl" font-family="Tahoma,Arial,sans-serif" font-size="13" font-weight="800" fill="#596078">حسب الحالة</text><path d="M380 205 L300 250" fill="none" stroke="#1d4ed8" stroke-width="5" stroke-linecap="round" marker-end="url(#ar)"/><rect x="225" y="250" width="150" height="105" rx="22" fill="#fff" stroke="#d9deef" filter="url(#sh)"/><text x="300" y="292" text-anchor="middle" direction="rtl" font-family="Tahoma,Arial,sans-serif" font-size="16" font-weight="800" fill="#1d4ed8">أصول</text><text x="300" y="326" text-anchor="middle" direction="rtl" font-family="Tahoma,Arial,sans-serif" font-size="13" font-weight="800" fill="#596078">حسب الحالة</text><path d="M380 205 L480 250" fill="none" stroke="#1d4ed8" stroke-width="5" stroke-linecap="round" marker-end="url(#ar)"/><rect x="405" y="250" width="150" height="105" rx="22" fill="#fff" stroke="#d9deef" filter="url(#sh)"/><text x="480" y="292" text-anchor="middle" direction="rtl" font-family="Tahoma,Arial,sans-serif" font-size="16" font-weight="800" fill="#1d4ed8">فروع</text><text x="480" y="326" text-anchor="middle" direction="rtl" font-family="Tahoma,Arial,sans-serif" font-size="13" font-weight="800" fill="#596078">حسب الحالة</text><path d="M380 205 L660 250" fill="none" stroke="#1d4ed8" stroke-width="5" stroke-linecap="round" marker-end="url(#ar)"/><rect x="585" y="250" width="150" height="105" rx="22" fill="#fff" stroke="#d9deef" filter="url(#sh)"/><text x="660" y="292" text-anchor="middle" direction="rtl" font-family="Tahoma,Arial,sans-serif" font-size="16" font-weight="800" fill="#1d4ed8">عصبات</text><text x="660" y="326" text-anchor="middle" direction="rtl" font-family="Tahoma,Arial,sans-serif" font-size="13" font-weight="800" fill="#596078">حسب الحالة</text><text x="380" y="420" text-anchor="middle" direction="rtl" font-family="Tahoma,Arial,sans-serif" font-size="19" font-weight="800" fill="#1d4ed8">الحجب والعول يغيران الفروع</text></g><text x="770" y="338" text-anchor="middle" direction="rtl" font-family="Tahoma,Arial,sans-serif" font-size="14" font-weight="800" fill="#1d4ed8">افحص موضوع الحاسبة نفسه</text><path d="M105 88V310M105 118H500M105 205H500M105 292H500" stroke="#d7ddec" stroke-width="6" stroke-linecap="round"/><circle cx="105" cy="118" r="22" fill="url(#g)"/><rect x="150" y="87" width="370" height="62" rx="22" fill="#fff" stroke="#d9deef" filter="url(#sh)"/><text x="270" y="124" text-anchor="middle" direction="rtl" font-family="Tahoma,Arial,sans-serif" font-size="14" font-weight="800" fill="#1d4ed8">نتيجة بعيدة</text><text x="435" y="124" text-anchor="middle" direction="rtl" font-family="Tahoma,Arial,sans-serif" font-size="12" font-weight="700" fill="#596078">المدخل</text><circle cx="105" cy="205" r="22" fill="#1d4ed8"/><rect x="150" y="174" width="370" height="62" rx="22" fill="#fff" stroke="#d9deef" filter="url(#sh)"/><text x="270" y="211" text-anchor="middle" direction="rtl" font-family="Tahoma,Arial,sans-serif" font-size="14" font-weight="800" fill="#1d4ed8">نتيجتان مختلفتان</text><text x="435" y="211" text-anchor="middle" direction="rtl" font-family="Tahoma,Arial,sans-serif" font-size="12" font-weight="700" fill="#596078">القاعدة</text><circle cx="105" cy="292" r="22" fill="#1d4ed8"/><rect x="150" y="261" width="370" height="62" rx="22" fill="#fff" stroke="#d9deef" filter="url(#sh)"/><text x="270" y="298" text-anchor="middle" direction="rtl" font-family="Tahoma,Arial,sans-serif" font-size="14" font-weight="800" fill="#1d4ed8">افتراض مجهول</text><text x="435" y="298" text-anchor="middle" direction="rtl" font-family="Tahoma,Arial,sans-serif" font-size="12" font-weight="700" fill="#596078">النطاق</text><text x="300" y="48" text-anchor="middle" direction="rtl" font-family="Tahoma,Arial,sans-serif" font-size="17" font-weight="800" fill="#1d4ed8">مسار تشخيص متسلسل</text></svg>