<svg xmlns="http://www.w3.org/2000/svg" width="960" height="380" viewBox="0 0 960 380" role="img" aria-labelledby="t"><title id="t">حاسبة معدل العائد الداخلي IRR</title><defs><linearGradient id="g" x1="0" y1="0" x2="1" y2="1"><stop stop-color="#166534"/><stop offset="1" stop-color="#4ade80"/></linearGradient><linearGradient id="s" x1="0" y1="0" x2="1" y2="1"><stop stop-color="#166534" stop-opacity=".14"/><stop offset="1" stop-color="#6366f1" stop-opacity=".06"/></linearGradient><filter id="sh" x="-25%" y="-25%" width="150%" height="150%"><feDropShadow dx="0" dy="12" stdDeviation="14" flood-color="#172554" flood-opacity=".12"/></filter><marker id="ar" viewBox="0 0 10 10" refX="8" refY="5" markerWidth="7" markerHeight="7" orient="auto-start-reverse"><path d="M0 0 10 5 0 10Z" fill="#166534"/></marker></defs><rect width="960" height="380" rx="34" fill="#f8faff"/><circle cx="890" cy="65" r="105" fill="#4ade80" opacity=".06"/><circle cx="65" cy="345" r="120" fill="#6366f1" opacity=".07"/><rect x="24" y="55" width="330" height="278" rx="22" fill="#fff" stroke="#d9deef" filter="url(#sh)"/><g opacity=".98" transform="translate(27 72) scale(.39)"><path d="M95 270h590M380 100v330" stroke="#cfd6e8" stroke-width="5"/><path d="M115 115 C240 180 290 360 380 270 S545 145 655 395" fill="none" stroke="url(#g)" stroke-width="10"/><circle cx="380" cy="270" r="20" fill="#fff" stroke="#166534" stroke-width="7"/><circle cx="145" cy="405" r="24" fill="url(#g)" filter="url(#sh)"/><text x="145" y="413" text-anchor="middle" direction="rtl" font-family="Tahoma,Arial,sans-serif" font-size="15" font-weight="900" fill="#fff">−</text><circle cx="275" cy="330" r="24" fill="url(#g)" filter="url(#sh)"/><text x="275" y="338" text-anchor="middle" direction="rtl" font-family="Tahoma,Arial,sans-serif" font-size="15" font-weight="900" fill="#fff">−</text><circle cx="505" cy="215" r="24" fill="url(#g)" filter="url(#sh)"/><text x="505" y="223" text-anchor="middle" direction="rtl" font-family="Tahoma,Arial,sans-serif" font-size="15" font-weight="900" fill="#fff">+</text><circle cx="635" cy="350" r="24" fill="url(#g)" filter="url(#sh)"/><text x="635" y="358" text-anchor="middle" direction="rtl" font-family="Tahoma,Arial,sans-serif" font-size="15" font-weight="900" fill="#fff">+</text><text x="380" y="235" text-anchor="middle" direction="rtl" font-family="Tahoma,Arial,sans-serif" font-size="20" font-weight="800" fill="#166534">صيغة تقنية = صفر</text><text x="535" y="440" text-anchor="middle" direction="rtl" font-family="Tahoma,Arial,sans-serif" font-size="19" font-weight="800" fill="#20243a">معدل العائد الداخلي</text></g><text x="189" y="356" text-anchor="middle" direction="rtl" font-family="Tahoma,Arial,sans-serif" font-size="15" font-weight="800" fill="#166534">نموذج حاسبة معدل العائد الدا…</text><text x="650" y="42" text-anchor="middle" direction="rtl" font-family="Tahoma,Arial,sans-serif" font-size="18" font-weight="800" fill="#166534">مسارات متوازية</text><circle cx="410" cy="92" r="17" fill="url(#g)"/><path d="M430 92H781" stroke="#166534" stroke-width="11" stroke-linecap="round"/><circle cx="781" cy="92" r="13" fill="#fff" stroke="#166534" stroke-width="5"/><text x="510" y="75" text-anchor="middle" direction="rtl" font-family="Tahoma,Arial,sans-serif" font-size="13" font-weight="700" fill="#166534">السيناريو الأسا…</text><text x="820" y="97" text-anchor="middle" direction="rtl" font-family="Tahoma,Arial,sans-serif" font-size="12" font-weight="700" fill="#596078">إشارات التدف…</text><circle cx="410" cy="160" r="17" fill="#166534"/><path d="M430 160H834" stroke="#166534" stroke-width="10" stroke-linecap="round"/><circle cx="834" cy="160" r="13" fill="#fff" stroke="#166534" stroke-width="5"/><text x="510" y="143" text-anchor="middle" direction="rtl" font-family="Tahoma,Arial,sans-serif" font-size="13" font-weight="700" fill="#166534">افتراض محافظ</text><text x="820" y="165" text-anchor="middle" direction="rtl" font-family="Tahoma,Arial,sans-serif" font-size="12" font-weight="700" fill="#596078">الفترات</text><circle cx="410" cy="228" r="17" fill="#166534"/><path d="M430 228H657" stroke="#166534" stroke-width="9" stroke-linecap="round"/><circle cx="657" cy="228" r="13" fill="#fff" stroke="#166534" stroke-width="5"/><text x="510" y="211" text-anchor="middle" direction="rtl" font-family="Tahoma,Arial,sans-serif" font-size="13" font-weight="700" fill="#166534">افتراض مرتفع</text><text x="820" y="233" text-anchor="middle" direction="rtl" font-family="Tahoma,Arial,sans-serif" font-size="12" font-weight="700" fill="#596078">تقارب الحل</text><circle cx="410" cy="296" r="17" fill="#166534"/><path d="M430 296H710" stroke="#6366f1" stroke-width="8" stroke-linecap="round"/><circle cx="710" cy="296" r="13" fill="#fff" stroke="#166534" stroke-width="5"/><text x="510" y="279" text-anchor="middle" direction="rtl" font-family="Tahoma,Arial,sans-serif" font-size="13" font-weight="700" fill="#166534">مرجع رسمي</text><text x="820" y="301" text-anchor="middle" direction="rtl" font-family="Tahoma,Arial,sans-serif" font-size="12" font-weight="700" fill="#596078">المقارنة مع …</text></svg>