<svg xmlns="http://www.w3.org/2000/svg" width="760" height="520" viewBox="0 0 760 520" role="img" aria-labelledby="t"><title id="t">حاسبة معدل العائد الداخلي IRR</title><defs><linearGradient id="g" x1="0" y1="0" x2="1" y2="1"><stop stop-color="#166534"/><stop offset="1" stop-color="#4ade80"/></linearGradient><linearGradient id="s" x1="0" y1="0" x2="1" y2="1"><stop stop-color="#166534" stop-opacity=".14"/><stop offset="1" stop-color="#6366f1" stop-opacity=".06"/></linearGradient><filter id="sh" x="-25%" y="-25%" width="150%" height="150%"><feDropShadow dx="0" dy="12" stdDeviation="14" flood-color="#172554" flood-opacity=".12"/></filter><marker id="ar" viewBox="0 0 10 10" refX="8" refY="5" markerWidth="7" markerHeight="7" orient="auto-start-reverse"><path d="M0 0 10 5 0 10Z" fill="#166534"/></marker></defs><rect width="760" height="520" rx="34" fill="#f8faff"/><circle cx="690" cy="65" r="105" fill="#4ade80" opacity=".06"/><circle cx="65" cy="485" r="120" fill="#6366f1" opacity=".07"/><text x="380" y="48" text-anchor="middle" direction="rtl" font-family="Tahoma,Arial,sans-serif" font-size="21" font-weight="900" fill="#166534">حاسبة معدل العائد الداخلي صيغة تقنية</text><path d="M95 270h590M380 100v330" stroke="#cfd6e8" stroke-width="5"/><path d="M115 115 C240 180 290 360 380 270 S545 145 655 395" fill="none" stroke="url(#g)" stroke-width="10"/><circle cx="380" cy="270" r="20" fill="#fff" stroke="#166534" stroke-width="7"/><circle cx="145" cy="405" r="24" fill="url(#g)" filter="url(#sh)"/><text x="145" y="413" text-anchor="middle" direction="rtl" font-family="Tahoma,Arial,sans-serif" font-size="15" font-weight="900" fill="#fff">−</text><circle cx="275" cy="330" r="24" fill="url(#g)" filter="url(#sh)"/><text x="275" y="338" text-anchor="middle" direction="rtl" font-family="Tahoma,Arial,sans-serif" font-size="15" font-weight="900" fill="#fff">−</text><circle cx="505" cy="215" r="24" fill="url(#g)" filter="url(#sh)"/><text x="505" y="223" text-anchor="middle" direction="rtl" font-family="Tahoma,Arial,sans-serif" font-size="15" font-weight="900" fill="#fff">+</text><circle cx="635" cy="350" r="24" fill="url(#g)" filter="url(#sh)"/><text x="635" y="358" text-anchor="middle" direction="rtl" font-family="Tahoma,Arial,sans-serif" font-size="15" font-weight="900" fill="#fff">+</text><text x="380" y="235" text-anchor="middle" direction="rtl" font-family="Tahoma,Arial,sans-serif" font-size="20" font-weight="800" fill="#166534">صيغة تقنية = صفر</text><text x="535" y="440" text-anchor="middle" direction="rtl" font-family="Tahoma,Arial,sans-serif" font-size="19" font-weight="800" fill="#20243a">معدل العائد الداخلي</text></svg>