<svg xmlns="http://www.w3.org/2000/svg" width="760" height="520" viewBox="0 0 760 520" role="img" aria-labelledby="t"><title id="t">حاسبة دفعات القرض</title><defs><linearGradient id="g" x1="0" y1="0" x2="1" y2="1"><stop stop-color="#b45309"/><stop offset="1" stop-color="#f59e0b"/></linearGradient><linearGradient id="s" x1="0" y1="0" x2="1" y2="1"><stop stop-color="#b45309" stop-opacity=".14"/><stop offset="1" stop-color="#2563eb" stop-opacity=".06"/></linearGradient><filter id="sh" x="-25%" y="-25%" width="150%" height="150%"><feDropShadow dx="0" dy="12" stdDeviation="14" flood-color="#172554" flood-opacity=".12"/></filter><marker id="ar" viewBox="0 0 10 10" refX="8" refY="5" markerWidth="7" markerHeight="7" orient="auto-start-reverse"><path d="M0 0 10 5 0 10Z" fill="#b45309"/></marker></defs><rect width="760" height="520" rx="34" fill="#f8faff"/><circle cx="690" cy="65" r="105" fill="#f59e0b" opacity=".06"/><circle cx="65" cy="485" r="120" fill="#2563eb" opacity=".07"/><text x="380" y="48" text-anchor="middle" direction="rtl" font-family="Tahoma,Arial,sans-serif" font-size="21" font-weight="900" fill="#b45309">حاسبة دفعات القرض</text><circle cx="135" cy="230" r="62" fill="url(#g)" filter="url(#sh)"/><text x="135" y="238" text-anchor="middle" direction="rtl" font-family="Tahoma,Arial,sans-serif" font-size="26.04" font-weight="900" fill="#fff">قرض</text><path d="M215 230 L345 230" fill="none" stroke="#b45309" stroke-width="5" stroke-linecap="round" marker-end="url(#ar)"/><rect x="390" y="238.5" width="70" height="161.5" rx="16" fill="#b45309" opacity="0.55"/><text x="425" y="432" text-anchor="middle" direction="rtl" font-family="Tahoma,Arial,sans-serif" font-size="14" font-weight="700" fill="#3f465e">1</text><rect x="466.6666666666667" y="267" width="70" height="133" rx="16" fill="#b45309" opacity="0.68"/><text x="501.6666666666667" y="432" text-anchor="middle" direction="rtl" font-family="Tahoma,Arial,sans-serif" font-size="14" font-weight="700" fill="#3f465e">2</text><rect x="543.3333333333334" y="295.5" width="70" height="104.5" rx="16" fill="#b45309" opacity="0.81"/><text x="578.3333333333334" y="432" text-anchor="middle" direction="rtl" font-family="Tahoma,Arial,sans-serif" font-size="14" font-weight="700" fill="#3f465e">3</text><rect x="620" y="320.2" width="70" height="79.8" rx="16" fill="url(#g)" opacity="0.9400000000000001"/><text x="655" y="432" text-anchor="middle" direction="rtl" font-family="Tahoma,Arial,sans-serif" font-size="14" font-weight="700" fill="#3f465e">4</text><text x="540" y="135" text-anchor="middle" direction="rtl" font-family="Tahoma,Arial,sans-serif" font-size="22" font-weight="800" fill="#b45309">أقساط دورية</text><text x="540" y="445" text-anchor="middle" direction="rtl" font-family="Tahoma,Arial,sans-serif" font-size="18" font-weight="800" fill="#596078">أصل + فائدة</text></svg>