<svg xmlns="http://www.w3.org/2000/svg" width="960" height="380" viewBox="0 0 960 380" role="img" aria-labelledby="t"><title id="t">جدول استهلاك القرض التفصيلي</title><defs><linearGradient id="g" x1="0" y1="0" x2="1" y2="1"><stop stop-color="#1d4ed8"/><stop offset="1" stop-color="#60a5fa"/></linearGradient><linearGradient id="s" x1="0" y1="0" x2="1" y2="1"><stop stop-color="#1d4ed8" stop-opacity=".14"/><stop offset="1" stop-color="#f97316" stop-opacity=".06"/></linearGradient><filter id="sh" x="-25%" y="-25%" width="150%" height="150%"><feDropShadow dx="0" dy="12" stdDeviation="14" flood-color="#172554" flood-opacity=".12"/></filter><marker id="ar" viewBox="0 0 10 10" refX="8" refY="5" markerWidth="7" markerHeight="7" orient="auto-start-reverse"><path d="M0 0 10 5 0 10Z" fill="#1d4ed8"/></marker></defs><rect width="960" height="380" rx="34" fill="#f8faff"/><circle cx="890" cy="65" r="105" fill="#60a5fa" opacity=".06"/><circle cx="65" cy="345" r="120" fill="#f97316" opacity=".07"/><rect x="24" y="55" width="330" height="278" rx="22" fill="#fff" stroke="#d9deef" filter="url(#sh)"/><g opacity=".98" transform="translate(27 72) scale(.39)"><rect x="80" y="95" width="600" height="330" rx="22" fill="#fff" stroke="#d9deef" filter="url(#sh)"/><path d="M105 150h550" stroke="#dce1ef" stroke-width="3"/><path d="M105 204h550" stroke="#dce1ef" stroke-width="3"/><path d="M105 258h550" stroke="#dce1ef" stroke-width="3"/><path d="M105 312h550" stroke="#dce1ef" stroke-width="3"/><path d="M105 366h550" stroke="#dce1ef" stroke-width="3"/><path d="M105 125v270" stroke="#dce1ef" stroke-width="3"/><path d="M250 125v270" stroke="#dce1ef" stroke-width="3"/><path d="M395 125v270" stroke="#dce1ef" stroke-width="3"/><path d="M540 125v270" stroke="#dce1ef" stroke-width="3"/><rect x="130" y="226" width="70" height="144" rx="16" fill="#1d4ed8" opacity="0.55"/><text x="165" y="402" text-anchor="middle" direction="rtl" font-family="Tahoma,Arial,sans-serif" font-size="14" font-weight="700" fill="#3f465e">فائدة</text><rect x="273.3333333333333" y="258.4" width="70" height="111.6" rx="16" fill="#1d4ed8" opacity="0.68"/><text x="308.3333333333333" y="402" text-anchor="middle" direction="rtl" font-family="Tahoma,Arial,sans-serif" font-size="14" font-weight="700" fill="#3f465e">أصل</text><rect x="416.66666666666663" y="289" width="70" height="81" rx="16" fill="#1d4ed8" opacity="0.81"/><text x="451.66666666666663" y="402" text-anchor="middle" direction="rtl" font-family="Tahoma,Arial,sans-serif" font-size="14" font-weight="700" fill="#3f465e">رصيد</text><rect x="560" y="319.6" width="70" height="50.4" rx="16" fill="url(#g)" opacity="0.9400000000000001"/><text x="595" y="402" text-anchor="middle" direction="rtl" font-family="Tahoma,Arial,sans-serif" font-size="14" font-weight="700" fill="#3f465e">دفعة</text></g><text x="189" y="356" text-anchor="middle" direction="rtl" font-family="Tahoma,Arial,sans-serif" font-size="15" font-weight="800" fill="#1d4ed8">نموذج جدول استهلاك القرض الت…</text><text x="650" y="42" text-anchor="middle" direction="rtl" font-family="Tahoma,Arial,sans-serif" font-size="18" font-weight="800" fill="#1d4ed8">مصفوفة المراجعة</text><rect x="390" y="66" width="520" height="280" rx="22" fill="#fff" stroke="#d9deef" filter="url(#sh)"/><path d="M410 112h480" stroke="#dce1ef" stroke-width="3"/><path d="M410 164h480" stroke="#dce1ef" stroke-width="3"/><path d="M410 216h480" stroke="#dce1ef" stroke-width="3"/><path d="M410 268h480" stroke="#dce1ef" stroke-width="3"/><path d="M410 320h480" stroke="#dce1ef" stroke-width="3"/><path d="M565 82v245M760 82v245" stroke="#dce1ef" stroke-width="3"/><text x="485" y="102" text-anchor="middle" direction="rtl" font-family="Tahoma,Arial,sans-serif" font-size="14" font-weight="800" fill="#1d4ed8">الحالة</text><text x="660" y="102" text-anchor="middle" direction="rtl" font-family="Tahoma,Arial,sans-serif" font-size="14" font-weight="800" fill="#1d4ed8">المتغير</text><text x="835" y="102" text-anchor="middle" direction="rtl" font-family="Tahoma,Arial,sans-serif" font-size="14" font-weight="800" fill="#1d4ed8">المراجعة</text><text x="485" y="145" text-anchor="middle" direction="rtl" font-family="Tahoma,Arial,sans-serif" font-size="13" font-weight="800" fill="#20243a">السيناريو الأس…</text><text x="660" y="145" text-anchor="middle" direction="rtl" font-family="Tahoma,Arial,sans-serif" font-size="12" font-weight="700" fill="#596078">رؤية أين تذهب ك…</text><text x="835" y="145" text-anchor="middle" direction="rtl" font-family="Tahoma,Arial,sans-serif" font-size="12" font-weight="700" fill="#1d4ed8">دورية الفائدة</text><text x="485" y="197" text-anchor="middle" direction="rtl" font-family="Tahoma,Arial,sans-serif" font-size="13" font-weight="800" fill="#20243a">افتراض محافظ</text><text x="660" y="197" text-anchor="middle" direction="rtl" font-family="Tahoma,Arial,sans-serif" font-size="12" font-weight="700" fill="#596078">خفض القيمة المت…</text><text x="835" y="197" text-anchor="middle" direction="rtl" font-family="Tahoma,Arial,sans-serif" font-size="12" font-weight="700" fill="#1d4ed8">تاريخ الدفعة</text><text x="485" y="249" text-anchor="middle" direction="rtl" font-family="Tahoma,Arial,sans-serif" font-size="13" font-weight="800" fill="#20243a">افتراض مرتفع</text><text x="660" y="249" text-anchor="middle" direction="rtl" font-family="Tahoma,Arial,sans-serif" font-size="12" font-weight="700" fill="#596078">اختبر الحد الأع…</text><text x="835" y="249" text-anchor="middle" direction="rtl" font-family="Tahoma,Arial,sans-serif" font-size="12" font-weight="700" fill="#1d4ed8">التقريب</text><text x="485" y="301" text-anchor="middle" direction="rtl" font-family="Tahoma,Arial,sans-serif" font-size="13" font-weight="800" fill="#20243a">مرجع رسمي</text><text x="660" y="301" text-anchor="middle" direction="rtl" font-family="Tahoma,Arial,sans-serif" font-size="12" font-weight="700" fill="#596078">طابق القيم مع ا…</text><text x="835" y="301" text-anchor="middle" direction="rtl" font-family="Tahoma,Arial,sans-serif" font-size="12" font-weight="700" fill="#1d4ed8">تطبيق الزيادة…</text></svg>