<svg xmlns="http://www.w3.org/2000/svg" width="760" height="520" viewBox="0 0 760 520" role="img" aria-labelledby="t"><title id="t">جدول استهلاك القرض التفصيلي</title><defs><linearGradient id="g" x1="0" y1="0" x2="1" y2="1"><stop stop-color="#1d4ed8"/><stop offset="1" stop-color="#60a5fa"/></linearGradient><linearGradient id="s" x1="0" y1="0" x2="1" y2="1"><stop stop-color="#1d4ed8" stop-opacity=".14"/><stop offset="1" stop-color="#f97316" stop-opacity=".06"/></linearGradient><filter id="sh" x="-25%" y="-25%" width="150%" height="150%"><feDropShadow dx="0" dy="12" stdDeviation="14" flood-color="#172554" flood-opacity=".12"/></filter><marker id="ar" viewBox="0 0 10 10" refX="8" refY="5" markerWidth="7" markerHeight="7" orient="auto-start-reverse"><path d="M0 0 10 5 0 10Z" fill="#1d4ed8"/></marker></defs><rect width="760" height="520" rx="34" fill="#f8faff"/><circle cx="690" cy="65" r="105" fill="#60a5fa" opacity=".06"/><circle cx="65" cy="485" r="120" fill="#f97316" opacity=".07"/><text x="380" y="48" text-anchor="middle" direction="rtl" font-family="Tahoma,Arial,sans-serif" font-size="21" font-weight="900" fill="#1d4ed8">جدول استهلاك القرض التفصيلي</text><rect x="80" y="95" width="600" height="330" rx="22" fill="#fff" stroke="#d9deef" filter="url(#sh)"/><path d="M105 150h550" stroke="#dce1ef" stroke-width="3"/><path d="M105 204h550" stroke="#dce1ef" stroke-width="3"/><path d="M105 258h550" stroke="#dce1ef" stroke-width="3"/><path d="M105 312h550" stroke="#dce1ef" stroke-width="3"/><path d="M105 366h550" stroke="#dce1ef" stroke-width="3"/><path d="M105 125v270" stroke="#dce1ef" stroke-width="3"/><path d="M250 125v270" stroke="#dce1ef" stroke-width="3"/><path d="M395 125v270" stroke="#dce1ef" stroke-width="3"/><path d="M540 125v270" stroke="#dce1ef" stroke-width="3"/><rect x="130" y="226" width="70" height="144" rx="16" fill="#1d4ed8" opacity="0.55"/><text x="165" y="402" text-anchor="middle" direction="rtl" font-family="Tahoma,Arial,sans-serif" font-size="14" font-weight="700" fill="#3f465e">فائدة</text><rect x="273.3333333333333" y="258.4" width="70" height="111.6" rx="16" fill="#1d4ed8" opacity="0.68"/><text x="308.3333333333333" y="402" text-anchor="middle" direction="rtl" font-family="Tahoma,Arial,sans-serif" font-size="14" font-weight="700" fill="#3f465e">أصل</text><rect x="416.66666666666663" y="289" width="70" height="81" rx="16" fill="#1d4ed8" opacity="0.81"/><text x="451.66666666666663" y="402" text-anchor="middle" direction="rtl" font-family="Tahoma,Arial,sans-serif" font-size="14" font-weight="700" fill="#3f465e">رصيد</text><rect x="560" y="319.6" width="70" height="50.4" rx="16" fill="url(#g)" opacity="0.9400000000000001"/><text x="595" y="402" text-anchor="middle" direction="rtl" font-family="Tahoma,Arial,sans-serif" font-size="14" font-weight="700" fill="#3f465e">دفعة</text></svg>