<svg xmlns="http://www.w3.org/2000/svg" width="960" height="360" viewBox="0 0 960 360" role="img" aria-labelledby="t"><title id="t">حاسبة اللوغاريتم</title><defs><linearGradient id="g" x1="0" y1="0" x2="1" y2="1"><stop stop-color="#166534"/><stop offset="1" stop-color="#4ade80"/></linearGradient><linearGradient id="s" x1="0" y1="0" x2="1" y2="1"><stop stop-color="#166534" stop-opacity=".14"/><stop offset="1" stop-color="#6366f1" stop-opacity=".06"/></linearGradient><filter id="sh" x="-25%" y="-25%" width="150%" height="150%"><feDropShadow dx="0" dy="12" stdDeviation="14" flood-color="#172554" flood-opacity=".12"/></filter><marker id="ar" viewBox="0 0 10 10" refX="8" refY="5" markerWidth="7" markerHeight="7" orient="auto-start-reverse"><path d="M0 0 10 5 0 10Z" fill="#166534"/></marker></defs><rect width="960" height="360" rx="34" fill="#f8faff"/><circle cx="890" cy="65" r="105" fill="#4ade80" opacity=".06"/><circle cx="65" cy="325" r="120" fill="#6366f1" opacity=".07"/><rect x="610" y="56" width="320" height="255" rx="22" fill="#fff" stroke="#d9deef" filter="url(#sh)"/><g opacity=".9" transform="translate(620 78) scale(.30)"><circle cx="135" cy="360" r="34" fill="#fff" stroke="#166534" stroke-width="6" filter="url(#sh)"/><circle cx="290" cy="290" r="41" fill="#fff" stroke="#166534" stroke-width="6" filter="url(#sh)"/><circle cx="445" cy="220" r="48" fill="#fff" stroke="#166534" stroke-width="6" filter="url(#sh)"/><circle cx="600" cy="150" r="55" fill="url(#g)" stroke="#166534" stroke-width="6" filter="url(#sh)"/><path d="M185 345 L225 325" fill="none" stroke="#166534" stroke-width="5" stroke-linecap="round" marker-end="url(#ar)"/><path d="M340 275 L380 255" fill="none" stroke="#166534" stroke-width="5" stroke-linecap="round" marker-end="url(#ar)"/><path d="M495 205 L535 185" fill="none" stroke="#166534" stroke-width="5" stroke-linecap="round" marker-end="url(#ar)"/><text x="135" y="369" text-anchor="middle" direction="rtl" font-family="Tahoma,Arial,sans-serif" font-size="18" font-weight="800" fill="#166534">1</text><text x="290" y="299" text-anchor="middle" direction="rtl" font-family="Tahoma,Arial,sans-serif" font-size="18" font-weight="800" fill="#166534">2</text><text x="445" y="229" text-anchor="middle" direction="rtl" font-family="Tahoma,Arial,sans-serif" font-size="18" font-weight="800" fill="#166534">4</text><text x="600" y="159" text-anchor="middle" direction="rtl" font-family="Tahoma,Arial,sans-serif" font-size="18" font-weight="800" fill="#fff">8</text><text x="380" y="440" text-anchor="middle" direction="rtl" font-family="Tahoma,Arial,sans-serif" font-size="21" font-weight="800" fill="#166534">كم مرة ضُرب الأساس 2؟</text><text x="380" y="95" text-anchor="middle" direction="rtl" font-family="Tahoma,Arial,sans-serif" font-size="28" font-weight="800" fill="#166534">صيغة تقنية₂(8) = 3</text></g><text x="770" y="338" text-anchor="middle" direction="rtl" font-family="Tahoma,Arial,sans-serif" font-size="14" font-weight="800" fill="#166534">افحص موضوع الحاسبة نفسه</text><text x="300" y="45" text-anchor="middle" direction="rtl" font-family="Tahoma,Arial,sans-serif" font-size="17" font-weight="800" fill="#166534">مثلث التحقق</text><path d="M300 78 75 320h450Z" fill="#fff" stroke="#166534" stroke-width="7" filter="url(#sh)"/><rect x="210" y="140" width="180" height="48" rx="16" fill="url(#s)"/><text x="300" y="170" text-anchor="middle" direction="rtl" font-family="Tahoma,Arial,sans-serif" font-size="13" font-weight="700" fill="#166534">نتيجة بعيدة</text><rect x="167.5" y="214" width="265" height="48" rx="16" fill="url(#s)"/><text x="300" y="244" text-anchor="middle" direction="rtl" font-family="Tahoma,Arial,sans-serif" font-size="13" font-weight="700" fill="#166534">نتيجتان مختلفتان</text><rect x="125" y="288" width="350" height="48" rx="16" fill="url(#g)"/><text x="300" y="318" text-anchor="middle" direction="rtl" font-family="Tahoma,Arial,sans-serif" font-size="13" font-weight="700" fill="#fff">افتراض مجهول</text></svg>