<svg xmlns="http://www.w3.org/2000/svg" width="760" height="520" viewBox="0 0 760 520" role="img" aria-labelledby="t"><title id="t">حاسبة صافي القيمة الحالية NPV</title><defs><linearGradient id="g" x1="0" y1="0" x2="1" y2="1"><stop stop-color="#0369a1"/><stop offset="1" stop-color="#38bdf8"/></linearGradient><linearGradient id="s" x1="0" y1="0" x2="1" y2="1"><stop stop-color="#0369a1" stop-opacity=".14"/><stop offset="1" stop-color="#f59e0b" stop-opacity=".06"/></linearGradient><filter id="sh" x="-25%" y="-25%" width="150%" height="150%"><feDropShadow dx="0" dy="12" stdDeviation="14" flood-color="#172554" flood-opacity=".12"/></filter><marker id="ar" viewBox="0 0 10 10" refX="8" refY="5" markerWidth="7" markerHeight="7" orient="auto-start-reverse"><path d="M0 0 10 5 0 10Z" fill="#0369a1"/></marker></defs><rect width="760" height="520" rx="34" fill="#f8faff"/><circle cx="690" cy="65" r="105" fill="#38bdf8" opacity=".06"/><circle cx="65" cy="485" r="120" fill="#f59e0b" opacity=".07"/><text x="380" y="48" text-anchor="middle" direction="rtl" font-family="Tahoma,Arial,sans-serif" font-size="21" font-weight="900" fill="#0369a1">حاسبة صافي القيمة الحالية صيغة تقنية</text><circle cx="120" cy="170" r="42" fill="url(#g)" filter="url(#sh)"/><text x="120" y="178" text-anchor="middle" direction="rtl" font-family="Tahoma,Arial,sans-serif" font-size="17.64" font-weight="900" fill="#fff">اليوم</text><circle cx="245" cy="208" r="42" fill="url(#g)" filter="url(#sh)"/><text x="245" y="216" text-anchor="middle" direction="rtl" font-family="Tahoma,Arial,sans-serif" font-size="17.64" font-weight="900" fill="#fff">س1</text><circle cx="370" cy="246" r="42" fill="url(#g)" filter="url(#sh)"/><text x="370" y="254" text-anchor="middle" direction="rtl" font-family="Tahoma,Arial,sans-serif" font-size="17.64" font-weight="900" fill="#fff">س2</text><circle cx="495" cy="284" r="42" fill="url(#g)" filter="url(#sh)"/><text x="495" y="292" text-anchor="middle" direction="rtl" font-family="Tahoma,Arial,sans-serif" font-size="17.64" font-weight="900" fill="#fff">س3</text><circle cx="620" cy="322" r="42" fill="url(#g)" filter="url(#sh)"/><text x="620" y="330" text-anchor="middle" direction="rtl" font-family="Tahoma,Arial,sans-serif" font-size="17.64" font-weight="900" fill="#fff">س4</text><path d="M165 185 L195 200" fill="none" stroke="#0369a1" stroke-width="5" stroke-linecap="round" marker-end="url(#ar)"/><path d="M290 223 L320 238" fill="none" stroke="#0369a1" stroke-width="5" stroke-linecap="round" marker-end="url(#ar)"/><path d="M415 261 L445 276" fill="none" stroke="#0369a1" stroke-width="5" stroke-linecap="round" marker-end="url(#ar)"/><path d="M540 299 L570 314" fill="none" stroke="#0369a1" stroke-width="5" stroke-linecap="round" marker-end="url(#ar)"/><text x="380" y="430" text-anchor="middle" direction="rtl" font-family="Tahoma,Arial,sans-serif" font-size="21" font-weight="800" fill="#0369a1">خصم كل تدفق إلى قيمة اليوم</text></svg>