<svg xmlns="http://www.w3.org/2000/svg" width="960" height="360" viewBox="0 0 960 360" role="img" aria-labelledby="t"><title id="t">فحص الأرقام الأولية</title><defs><linearGradient id="g" x1="0" y1="0" x2="1" y2="1"><stop stop-color="#0f766e"/><stop offset="1" stop-color="#10b981"/></linearGradient><linearGradient id="s" x1="0" y1="0" x2="1" y2="1"><stop stop-color="#0f766e" stop-opacity=".14"/><stop offset="1" stop-color="#f59e0b" stop-opacity=".06"/></linearGradient><filter id="sh" x="-25%" y="-25%" width="150%" height="150%"><feDropShadow dx="0" dy="12" stdDeviation="14" flood-color="#172554" flood-opacity=".12"/></filter><marker id="ar" viewBox="0 0 10 10" refX="8" refY="5" markerWidth="7" markerHeight="7" orient="auto-start-reverse"><path d="M0 0 10 5 0 10Z" fill="#0f766e"/></marker></defs><rect width="960" height="360" rx="34" fill="#f8faff"/><circle cx="890" cy="65" r="105" fill="#10b981" opacity=".06"/><circle cx="65" cy="325" r="120" fill="#f59e0b" opacity=".07"/><rect x="610" y="56" width="320" height="255" rx="22" fill="#fff" stroke="#d9deef" filter="url(#sh)"/><g opacity=".9" transform="translate(620 78) scale(.30)"><rect x="80" y="100" width="600" height="330" rx="22" fill="#fff" stroke="#d9deef" filter="url(#sh)"/><circle cx="135" cy="170" r="34" fill="url(#g)"/><text x="135" y="177" text-anchor="middle" direction="rtl" font-family="Tahoma,Arial,sans-serif" font-size="18" font-weight="800" fill="#fff">2</text><circle cx="230" cy="170" r="34" fill="url(#g)"/><text x="230" y="177" text-anchor="middle" direction="rtl" font-family="Tahoma,Arial,sans-serif" font-size="18" font-weight="800" fill="#fff">3</text><circle cx="325" cy="170" r="34" fill="#e5e9f3"/><text x="325" y="177" text-anchor="middle" direction="rtl" font-family="Tahoma,Arial,sans-serif" font-size="18" font-weight="800" fill="#596078">4</text><circle cx="420" cy="170" r="34" fill="url(#g)"/><text x="420" y="177" text-anchor="middle" direction="rtl" font-family="Tahoma,Arial,sans-serif" font-size="18" font-weight="800" fill="#fff">5</text><circle cx="515" cy="170" r="34" fill="#e5e9f3"/><text x="515" y="177" text-anchor="middle" direction="rtl" font-family="Tahoma,Arial,sans-serif" font-size="18" font-weight="800" fill="#596078">6</text><circle cx="610" cy="170" r="34" fill="url(#g)"/><text x="610" y="177" text-anchor="middle" direction="rtl" font-family="Tahoma,Arial,sans-serif" font-size="18" font-weight="800" fill="#fff">7</text><circle cx="135" cy="290" r="34" fill="#e5e9f3"/><text x="135" y="297" text-anchor="middle" direction="rtl" font-family="Tahoma,Arial,sans-serif" font-size="18" font-weight="800" fill="#596078">8</text><circle cx="230" cy="290" r="34" fill="#e5e9f3"/><text x="230" y="297" text-anchor="middle" direction="rtl" font-family="Tahoma,Arial,sans-serif" font-size="18" font-weight="800" fill="#596078">9</text><circle cx="325" cy="290" r="34" fill="#e5e9f3"/><text x="325" y="297" text-anchor="middle" direction="rtl" font-family="Tahoma,Arial,sans-serif" font-size="18" font-weight="800" fill="#596078">10</text><circle cx="420" cy="290" r="34" fill="url(#g)"/><text x="420" y="297" text-anchor="middle" direction="rtl" font-family="Tahoma,Arial,sans-serif" font-size="18" font-weight="800" fill="#fff">11</text><circle cx="515" cy="290" r="34" fill="#e5e9f3"/><text x="515" y="297" text-anchor="middle" direction="rtl" font-family="Tahoma,Arial,sans-serif" font-size="18" font-weight="800" fill="#596078">12</text><circle cx="610" cy="290" r="34" fill="url(#g)"/><text x="610" y="297" text-anchor="middle" direction="rtl" font-family="Tahoma,Arial,sans-serif" font-size="18" font-weight="800" fill="#fff">13</text><text x="380" y="410" text-anchor="middle" direction="rtl" font-family="Tahoma,Arial,sans-serif" font-size="19" font-weight="800" fill="#0f766e">الغربال يترك الأعداد الأولية</text></g><text x="770" y="338" text-anchor="middle" direction="rtl" font-family="Tahoma,Arial,sans-serif" font-size="14" font-weight="800" fill="#0f766e">افحص موضوع الحاسبة نفسه</text><rect x="60" y="42" width="280" height="70" rx="22" fill="#fff" stroke="#d9deef" filter="url(#sh)"/><text x="200" y="75" text-anchor="middle" direction="rtl" font-family="Tahoma,Arial,sans-serif" font-size="17" font-weight="800" fill="#0f766e">النتيجة غير متوقعة</text><text x="200" y="101" text-anchor="middle" direction="rtl" font-family="Tahoma,Arial,sans-serif" font-size="12" font-weight="700" fill="#596078">اعزل السبب قبل التعديل</text><path d="M340 127 L410 127" fill="none" stroke="#0f766e" stroke-width="5" stroke-linecap="round" marker-end="url(#ar)"/><rect x="60" y="145" width="460" height="52" rx="22" fill="#fff" stroke="#d9deef" filter="url(#sh)"/><text x="180" y="176" text-anchor="middle" direction="rtl" font-family="Tahoma,Arial,sans-serif" font-size="14" font-weight="800" fill="#0f766e">نتيجة بعيدة</text><text x="395" y="176" text-anchor="middle" direction="rtl" font-family="Tahoma,Arial,sans-serif" font-size="13" font-weight="700" fill="#596078">راجع الوحدة</text><path d="M340 195 L410 195" fill="none" stroke="#0f766e" stroke-width="5" stroke-linecap="round" marker-end="url(#ar)"/><rect x="60" y="213" width="460" height="52" rx="22" fill="#fff" stroke="#d9deef" filter="url(#sh)"/><text x="180" y="244" text-anchor="middle" direction="rtl" font-family="Tahoma,Arial,sans-serif" font-size="14" font-weight="800" fill="#0f766e">نتيجتان مختلفتان</text><text x="395" y="244" text-anchor="middle" direction="rtl" font-family="Tahoma,Arial,sans-serif" font-size="13" font-weight="700" fill="#596078">طابق المرجع</text><path d="M340 263 L410 263" fill="none" stroke="#0f766e" stroke-width="5" stroke-linecap="round" marker-end="url(#ar)"/><rect x="60" y="281" width="460" height="52" rx="22" fill="#fff" stroke="#d9deef" filter="url(#sh)"/><text x="180" y="312" text-anchor="middle" direction="rtl" font-family="Tahoma,Arial,sans-serif" font-size="14" font-weight="800" fill="#0f766e">افتراض مجهول</text><text x="395" y="312" text-anchor="middle" direction="rtl" font-family="Tahoma,Arial,sans-serif" font-size="13" font-weight="700" fill="#596078">اختبر قيمة</text></svg>