<svg xmlns="http://www.w3.org/2000/svg" width="960" height="360" viewBox="0 0 960 360" role="img" aria-labelledby="t"><title id="t">حاسبة هوامش الربح</title><defs><linearGradient id="g" x1="0" y1="0" x2="1" y2="1"><stop stop-color="#6d28d9"/><stop offset="1" stop-color="#c084fc"/></linearGradient><linearGradient id="s" x1="0" y1="0" x2="1" y2="1"><stop stop-color="#6d28d9" stop-opacity=".14"/><stop offset="1" stop-color="#22c55e" stop-opacity=".06"/></linearGradient><filter id="sh" x="-25%" y="-25%" width="150%" height="150%"><feDropShadow dx="0" dy="12" stdDeviation="14" flood-color="#172554" flood-opacity=".12"/></filter><marker id="ar" viewBox="0 0 10 10" refX="8" refY="5" markerWidth="7" markerHeight="7" orient="auto-start-reverse"><path d="M0 0 10 5 0 10Z" fill="#6d28d9"/></marker></defs><rect width="960" height="360" rx="34" fill="#f8faff"/><circle cx="890" cy="65" r="105" fill="#c084fc" opacity=".06"/><circle cx="65" cy="325" r="120" fill="#22c55e" opacity=".07"/><rect x="610" y="56" width="320" height="255" rx="22" fill="#fff" stroke="#d9deef" filter="url(#sh)"/><g opacity=".9" transform="translate(620 78) scale(.30)"><rect x="115" y="140" width="70" height="270" rx="16" fill="#6d28d9" opacity="0.55"/><text x="150" y="442" text-anchor="middle" direction="rtl" font-family="Tahoma,Arial,sans-serif" font-size="14" font-weight="700" fill="#3f465e">إيراد</text><rect x="265" y="215.6" width="70" height="194.4" rx="16" fill="#6d28d9" opacity="0.68"/><text x="300" y="442" text-anchor="middle" direction="rtl" font-family="Tahoma,Arial,sans-serif" font-size="14" font-weight="700" fill="#3f465e">إجمالي</text><rect x="415" y="280.4" width="70" height="129.6" rx="16" fill="#6d28d9" opacity="0.81"/><text x="450" y="442" text-anchor="middle" direction="rtl" font-family="Tahoma,Arial,sans-serif" font-size="14" font-weight="700" fill="#3f465e">تشغيلي</text><rect x="565" y="334.4" width="70" height="75.6" rx="16" fill="url(#g)" opacity="0.9400000000000001"/><text x="600" y="442" text-anchor="middle" direction="rtl" font-family="Tahoma,Arial,sans-serif" font-size="14" font-weight="700" fill="#3f465e">صافي</text><text x="380" y="105" text-anchor="middle" direction="rtl" font-family="Tahoma,Arial,sans-serif" font-size="20" font-weight="800" fill="#6d28d9">ما يتبقى بعد كل طبقة تكلفة</text></g><text x="770" y="338" text-anchor="middle" direction="rtl" font-family="Tahoma,Arial,sans-serif" font-size="14" font-weight="800" fill="#6d28d9">افحص موضوع الحاسبة نفسه</text><text x="300" y="45" text-anchor="middle" direction="rtl" font-family="Tahoma,Arial,sans-serif" font-size="17" font-weight="800" fill="#6d28d9">دوائر سبب ونتيجة</text><circle cx="300" cy="205" r="62" fill="url(#g)" filter="url(#sh)"/><text x="300" y="199" text-anchor="middle" direction="rtl" font-family="Tahoma,Arial,sans-serif" font-size="17" font-weight="800" fill="#fff">اختلاف</text><text x="300" y="226" text-anchor="middle" direction="rtl" font-family="Tahoma,Arial,sans-serif" font-size="14" font-weight="800" fill="#fff">النتيجة</text><path d="M300 205L139.78530029987883 142.5" stroke="#d6dceb" stroke-width="6"/><circle cx="139.78530029987883" cy="142.5" r="54" fill="#fff" stroke="#6d28d9" stroke-width="6"/><text x="139.78530029987883" y="147.5" text-anchor="middle" direction="rtl" font-family="Tahoma,Arial,sans-serif" font-size="12" font-weight="700" fill="#6d28d9">نتيجة بعيدة</text><path d="M300 205L485 205" stroke="#d6dceb" stroke-width="6"/><circle cx="485" cy="205" r="54" fill="#fff" stroke="#6d28d9" stroke-width="6"/><text x="485" y="210" text-anchor="middle" direction="rtl" font-family="Tahoma,Arial,sans-serif" font-size="12" font-weight="700" fill="#6d28d9">نتيجتان مختل…</text><path d="M300 205L139.78530029987883 267.5" stroke="#d6dceb" stroke-width="6"/><circle cx="139.78530029987883" cy="267.5" r="54" fill="#fff" stroke="#22c55e" stroke-width="6"/><text x="139.78530029987883" y="272.5" text-anchor="middle" direction="rtl" font-family="Tahoma,Arial,sans-serif" font-size="12" font-weight="700" fill="#6d28d9">افتراض مجهول</text></svg>