<svg xmlns="http://www.w3.org/2000/svg" width="960" height="380" viewBox="0 0 960 380" role="img" aria-labelledby="t"><title id="t">حاسبة هوامش الربح</title><defs><linearGradient id="g" x1="0" y1="0" x2="1" y2="1"><stop stop-color="#6d28d9"/><stop offset="1" stop-color="#c084fc"/></linearGradient><linearGradient id="s" x1="0" y1="0" x2="1" y2="1"><stop stop-color="#6d28d9" stop-opacity=".14"/><stop offset="1" stop-color="#22c55e" stop-opacity=".06"/></linearGradient><filter id="sh" x="-25%" y="-25%" width="150%" height="150%"><feDropShadow dx="0" dy="12" stdDeviation="14" flood-color="#172554" flood-opacity=".12"/></filter><marker id="ar" viewBox="0 0 10 10" refX="8" refY="5" markerWidth="7" markerHeight="7" orient="auto-start-reverse"><path d="M0 0 10 5 0 10Z" fill="#6d28d9"/></marker></defs><rect width="960" height="380" rx="34" fill="#f8faff"/><circle cx="890" cy="65" r="105" fill="#c084fc" opacity=".06"/><circle cx="65" cy="345" r="120" fill="#22c55e" opacity=".07"/><rect x="24" y="55" width="330" height="278" rx="22" fill="#fff" stroke="#d9deef" filter="url(#sh)"/><g opacity=".98" transform="translate(27 72) scale(.39)"><rect x="115" y="140" width="70" height="270" rx="16" fill="#6d28d9" opacity="0.55"/><text x="150" y="442" text-anchor="middle" direction="rtl" font-family="Tahoma,Arial,sans-serif" font-size="14" font-weight="700" fill="#3f465e">إيراد</text><rect x="265" y="215.6" width="70" height="194.4" rx="16" fill="#6d28d9" opacity="0.68"/><text x="300" y="442" text-anchor="middle" direction="rtl" font-family="Tahoma,Arial,sans-serif" font-size="14" font-weight="700" fill="#3f465e">إجمالي</text><rect x="415" y="280.4" width="70" height="129.6" rx="16" fill="#6d28d9" opacity="0.81"/><text x="450" y="442" text-anchor="middle" direction="rtl" font-family="Tahoma,Arial,sans-serif" font-size="14" font-weight="700" fill="#3f465e">تشغيلي</text><rect x="565" y="334.4" width="70" height="75.6" rx="16" fill="url(#g)" opacity="0.9400000000000001"/><text x="600" y="442" text-anchor="middle" direction="rtl" font-family="Tahoma,Arial,sans-serif" font-size="14" font-weight="700" fill="#3f465e">صافي</text><text x="380" y="105" text-anchor="middle" direction="rtl" font-family="Tahoma,Arial,sans-serif" font-size="20" font-weight="800" fill="#6d28d9">ما يتبقى بعد كل طبقة تكلفة</text></g><text x="189" y="356" text-anchor="middle" direction="rtl" font-family="Tahoma,Arial,sans-serif" font-size="15" font-weight="800" fill="#6d28d9">نموذج حاسبة هوامش الربح</text><text x="650" y="42" text-anchor="middle" direction="rtl" font-family="Tahoma,Arial,sans-serif" font-size="18" font-weight="800" fill="#6d28d9">مسارات متوازية</text><circle cx="410" cy="92" r="17" fill="url(#g)"/><path d="M430 92H653" stroke="#6d28d9" stroke-width="11" stroke-linecap="round"/><circle cx="653" cy="92" r="13" fill="#fff" stroke="#6d28d9" stroke-width="5"/><text x="510" y="75" text-anchor="middle" direction="rtl" font-family="Tahoma,Arial,sans-serif" font-size="13" font-weight="700" fill="#6d28d9">السيناريو الأسا…</text><text x="820" y="97" text-anchor="middle" direction="rtl" font-family="Tahoma,Arial,sans-serif" font-size="12" font-weight="700" fill="#596078">إيراد صافي</text><circle cx="410" cy="160" r="17" fill="#6d28d9"/><path d="M430 160H706" stroke="#6d28d9" stroke-width="10" stroke-linecap="round"/><circle cx="706" cy="160" r="13" fill="#fff" stroke="#6d28d9" stroke-width="5"/><text x="510" y="143" text-anchor="middle" direction="rtl" font-family="Tahoma,Arial,sans-serif" font-size="13" font-weight="700" fill="#6d28d9">افتراض محافظ</text><text x="820" y="165" text-anchor="middle" direction="rtl" font-family="Tahoma,Arial,sans-serif" font-size="12" font-weight="700" fill="#596078">تكلفة مباشرة</text><circle cx="410" cy="228" r="17" fill="#6d28d9"/><path d="M430 228H759" stroke="#6d28d9" stroke-width="9" stroke-linecap="round"/><circle cx="759" cy="228" r="13" fill="#fff" stroke="#6d28d9" stroke-width="5"/><text x="510" y="211" text-anchor="middle" direction="rtl" font-family="Tahoma,Arial,sans-serif" font-size="13" font-weight="700" fill="#6d28d9">افتراض مرتفع</text><text x="820" y="233" text-anchor="middle" direction="rtl" font-family="Tahoma,Arial,sans-serif" font-size="12" font-weight="700" fill="#596078">نوع الهامش</text><circle cx="410" cy="296" r="17" fill="#6d28d9"/><path d="M430 296H812" stroke="#22c55e" stroke-width="8" stroke-linecap="round"/><circle cx="812" cy="296" r="13" fill="#fff" stroke="#6d28d9" stroke-width="5"/><text x="510" y="279" text-anchor="middle" direction="rtl" font-family="Tahoma,Arial,sans-serif" font-size="13" font-weight="700" fill="#6d28d9">مرجع رسمي</text><text x="820" y="301" text-anchor="middle" direction="rtl" font-family="Tahoma,Arial,sans-serif" font-size="12" font-weight="700" fill="#596078">فترة موحدة</text></svg>