<svg xmlns="http://www.w3.org/2000/svg" width="960" height="380" viewBox="0 0 960 380" role="img" aria-labelledby="t"><title id="t">أداة نظرية فيثاغورس</title><defs><linearGradient id="g" x1="0" y1="0" x2="1" y2="1"><stop stop-color="#be123c"/><stop offset="1" stop-color="#fb7185"/></linearGradient><linearGradient id="s" x1="0" y1="0" x2="1" y2="1"><stop stop-color="#be123c" stop-opacity=".14"/><stop offset="1" stop-color="#6366f1" stop-opacity=".06"/></linearGradient><filter id="sh" x="-25%" y="-25%" width="150%" height="150%"><feDropShadow dx="0" dy="12" stdDeviation="14" flood-color="#172554" flood-opacity=".12"/></filter><marker id="ar" viewBox="0 0 10 10" refX="8" refY="5" markerWidth="7" markerHeight="7" orient="auto-start-reverse"><path d="M0 0 10 5 0 10Z" fill="#be123c"/></marker></defs><rect width="960" height="380" rx="34" fill="#f8faff"/><circle cx="890" cy="65" r="105" fill="#fb7185" opacity=".06"/><circle cx="65" cy="345" r="120" fill="#6366f1" opacity=".07"/><rect x="24" y="55" width="330" height="278" rx="22" fill="#fff" stroke="#d9deef" filter="url(#sh)"/><g opacity=".98" transform="translate(27 72) scale(.39)"><path d="M235 365h300L235 115Z" fill="#fff" stroke="#be123c" stroke-width="8" filter="url(#sh)"/><path d="M235 365v-60h60" fill="none" stroke="#6366f1" stroke-width="7"/><rect x="105" y="235" width="125" height="125" rx="15" fill="url(#s)" stroke="#fb7185" stroke-width="5"/><rect x="270" y="370" width="260" height="70" rx="15" fill="url(#s)" stroke="#fb7185" stroke-width="5"/><text x="170" y="305" text-anchor="middle" direction="rtl" font-family="Tahoma,Arial,sans-serif" font-size="25" font-weight="800" fill="#be123c">3²</text><text x="400" y="415" text-anchor="middle" direction="rtl" font-family="Tahoma,Arial,sans-serif" font-size="25" font-weight="800" fill="#be123c">4²</text><text x="430" y="220" text-anchor="middle" direction="rtl" font-family="Tahoma,Arial,sans-serif" font-size="27" font-weight="800" fill="#be123c">5²</text></g><text x="189" y="356" text-anchor="middle" direction="rtl" font-family="Tahoma,Arial,sans-serif" font-size="15" font-weight="800" fill="#be123c">نموذج أداة نظرية فيثاغورس</text><text x="650" y="42" text-anchor="middle" direction="rtl" font-family="Tahoma,Arial,sans-serif" font-size="18" font-weight="800" fill="#be123c">سُلّم الافتراضات</text><rect x="395" y="292" width="105" height="58" rx="17" fill="url(#s)" stroke="#be123c" stroke-width="3"/><text x="447" y="324" text-anchor="middle" direction="rtl" font-family="Tahoma,Arial,sans-serif" font-size="12" font-weight="700" fill="#be123c">أساسي</text><rect x="510" y="236" width="105" height="73" rx="17" fill="url(#s)" stroke="#be123c" stroke-width="3"/><text x="562" y="268" text-anchor="middle" direction="rtl" font-family="Tahoma,Arial,sans-serif" font-size="12" font-weight="700" fill="#be123c">محافظ</text><rect x="625" y="180" width="105" height="88" rx="17" fill="url(#s)" stroke="#be123c" stroke-width="3"/><text x="677" y="212" text-anchor="middle" direction="rtl" font-family="Tahoma,Arial,sans-serif" font-size="12" font-weight="700" fill="#be123c">مرتفع</text><rect x="740" y="124" width="105" height="103" rx="17" fill="url(#g)" stroke="#be123c" stroke-width="3"/><text x="792" y="156" text-anchor="middle" direction="rtl" font-family="Tahoma,Arial,sans-serif" font-size="12" font-weight="700" fill="#fff">مرجع رسمي</text><path d="M400 330 842 96" stroke="#6366f1" stroke-width="5" stroke-dasharray="11 9" marker-end="url(#ar)"/><text x="690" y="350" text-anchor="middle" direction="rtl" font-family="Tahoma,Arial,sans-serif" font-size="14" font-weight="800" fill="#be123c">اقرأ اتجاه التغيّر</text></svg>