<svg xmlns="http://www.w3.org/2000/svg" width="760" height="520" viewBox="0 0 760 520" role="img" aria-labelledby="t"><title id="t">حاسبة QRISK3</title><defs><linearGradient id="g" x1="0" y1="0" x2="1" y2="1"><stop stop-color="#166534"/><stop offset="1" stop-color="#4ade80"/></linearGradient><linearGradient id="s" x1="0" y1="0" x2="1" y2="1"><stop stop-color="#166534" stop-opacity=".14"/><stop offset="1" stop-color="#6366f1" stop-opacity=".06"/></linearGradient><filter id="sh" x="-25%" y="-25%" width="150%" height="150%"><feDropShadow dx="0" dy="12" stdDeviation="14" flood-color="#172554" flood-opacity=".12"/></filter><marker id="ar" viewBox="0 0 10 10" refX="8" refY="5" markerWidth="7" markerHeight="7" orient="auto-start-reverse"><path d="M0 0 10 5 0 10Z" fill="#166534"/></marker></defs><rect width="760" height="520" rx="34" fill="#f8faff"/><circle cx="690" cy="65" r="105" fill="#4ade80" opacity=".06"/><circle cx="65" cy="485" r="120" fill="#6366f1" opacity=".07"/><text x="380" y="48" text-anchor="middle" direction="rtl" font-family="Tahoma,Arial,sans-serif" font-size="21" font-weight="900" fill="#166534">حاسبة صيغة تقنية</text><rect x="85" y="100" width="250" height="330" rx="22" fill="#fff" stroke="#d9deef" filter="url(#sh)"/><circle cx="210" cy="175" r="45" fill="url(#g)"/><path d="M145 315c15-100 115-100 130 0" fill="url(#s)" stroke="#166534" stroke-width="7"/><text x="210" y="350" text-anchor="middle" direction="rtl" font-family="Tahoma,Arial,sans-serif" font-size="15" font-weight="800" fill="#596078">العمر</text><text x="210" y="385" text-anchor="middle" direction="rtl" font-family="Tahoma,Arial,sans-serif" font-size="15" font-weight="800" fill="#596078">ضغط</text><text x="210" y="420" text-anchor="middle" direction="rtl" font-family="Tahoma,Arial,sans-serif" font-size="15" font-weight="800" fill="#166534">أدوية</text><path d="M360 265 L455 265" fill="none" stroke="#166534" stroke-width="5" stroke-linecap="round" marker-end="url(#ar)"/><rect x="480" y="120" width="200" height="290" rx="22" fill="#fff" stroke="#d9deef" filter="url(#sh)"/><circle cx="525" cy="180" r="13" fill="#166534"/><path d="M550 180h85" stroke="#d7ddec" stroke-width="12" stroke-linecap="round"/><circle cx="525" cy="238" r="13" fill="#166534"/><path d="M550 238h85" stroke="#d7ddec" stroke-width="12" stroke-linecap="round"/><circle cx="525" cy="296" r="13" fill="#166534"/><path d="M550 296h85" stroke="#d7ddec" stroke-width="12" stroke-linecap="round"/><circle cx="525" cy="354" r="13" fill="#6366f1"/><path d="M550 354h85" stroke="#d7ddec" stroke-width="12" stroke-linecap="round"/><text x="580" y="390" text-anchor="middle" direction="rtl" font-family="Tahoma,Arial,sans-serif" font-size="17" font-weight="800" fill="#166534">ملف عوامل كامل</text></svg>