<svg xmlns="http://www.w3.org/2000/svg" width="760" height="520" viewBox="0 0 760 520" role="img" aria-labelledby="t"><title id="t">حاسبة الدرجة المطلوبة</title><defs><linearGradient id="g" x1="0" y1="0" x2="1" y2="1"><stop stop-color="#0369a1"/><stop offset="1" stop-color="#38bdf8"/></linearGradient><linearGradient id="s" x1="0" y1="0" x2="1" y2="1"><stop stop-color="#0369a1" stop-opacity=".14"/><stop offset="1" stop-color="#f59e0b" stop-opacity=".06"/></linearGradient><filter id="sh" x="-25%" y="-25%" width="150%" height="150%"><feDropShadow dx="0" dy="12" stdDeviation="14" flood-color="#172554" flood-opacity=".12"/></filter><marker id="ar" viewBox="0 0 10 10" refX="8" refY="5" markerWidth="7" markerHeight="7" orient="auto-start-reverse"><path d="M0 0 10 5 0 10Z" fill="#0369a1"/></marker></defs><rect width="760" height="520" rx="34" fill="#f8faff"/><circle cx="690" cy="65" r="105" fill="#38bdf8" opacity=".06"/><circle cx="65" cy="485" r="120" fill="#f59e0b" opacity=".07"/><text x="380" y="48" text-anchor="middle" direction="rtl" font-family="Tahoma,Arial,sans-serif" font-size="21" font-weight="900" fill="#0369a1">حاسبة الدرجة المطلوبة</text><rect x="180" y="235" width="70" height="170" rx="16" fill="#0369a1" opacity="0.55"/><text x="215" y="437" text-anchor="middle" direction="rtl" font-family="Tahoma,Arial,sans-serif" font-size="14" font-weight="700" fill="#3f465e">الحالي</text><rect x="470" y="200" width="70" height="205" rx="16" fill="url(#g)" opacity="0.68"/><text x="505" y="437" text-anchor="middle" direction="rtl" font-family="Tahoma,Arial,sans-serif" font-size="14" font-weight="700" fill="#3f465e">المطلوب</text><path d="M355 205 L470 205" fill="none" stroke="#0369a1" stroke-width="5" stroke-linecap="round" marker-end="url(#ar)"/><circle cx="600" cy="200" r="75" fill="#fff" stroke="#dce2f3" stroke-width="18"/><path d="M600 125a75 75 0 1 1-70 48" fill="none" stroke="url(#g)" stroke-width="18"/><circle cx="600" cy="200" r="14" fill="#0369a1"/><text x="380" y="110" text-anchor="middle" direction="rtl" font-family="Tahoma,Arial,sans-serif" font-size="22" font-weight="800" fill="#0369a1">ما الدرجة اللازمة للهدف؟</text><text x="600" y="310" text-anchor="middle" direction="rtl" font-family="Tahoma,Arial,sans-serif" font-size="18" font-weight="800" fill="#0369a1">الهدف</text></svg>