<svg xmlns="http://www.w3.org/2000/svg" width="960" height="380" viewBox="0 0 960 380" role="img" aria-labelledby="t"><title id="t">حاسبة التقاعد والادخار</title><defs><linearGradient id="g" x1="0" y1="0" x2="1" y2="1"><stop stop-color="#166534"/><stop offset="1" stop-color="#4ade80"/></linearGradient><linearGradient id="s" x1="0" y1="0" x2="1" y2="1"><stop stop-color="#166534" stop-opacity=".14"/><stop offset="1" stop-color="#6366f1" stop-opacity=".06"/></linearGradient><filter id="sh" x="-25%" y="-25%" width="150%" height="150%"><feDropShadow dx="0" dy="12" stdDeviation="14" flood-color="#172554" flood-opacity=".12"/></filter><marker id="ar" viewBox="0 0 10 10" refX="8" refY="5" markerWidth="7" markerHeight="7" orient="auto-start-reverse"><path d="M0 0 10 5 0 10Z" fill="#166534"/></marker></defs><rect width="960" height="380" rx="34" fill="#f8faff"/><circle cx="890" cy="65" r="105" fill="#4ade80" opacity=".06"/><circle cx="65" cy="345" r="120" fill="#6366f1" opacity=".07"/><rect x="24" y="55" width="330" height="278" rx="22" fill="#fff" stroke="#d9deef" filter="url(#sh)"/><g opacity=".98" transform="translate(27 72) scale(.39)"><path d="M100 400 C210 390 255 310 355 300 S520 210 650 115" fill="none" stroke="url(#g)" stroke-width="14" stroke-linecap="round"/><circle cx="100" cy="400" r="18" fill="#fff" stroke="#166534" stroke-width="6"/><circle cx="230" cy="350" r="22" fill="#fff" stroke="#166534" stroke-width="6"/><circle cx="355" cy="300" r="26" fill="#fff" stroke="#166534" stroke-width="6"/><circle cx="490" cy="235" r="30" fill="#fff" stroke="#166534" stroke-width="6"/><circle cx="650" cy="115" r="34" fill="#fff" stroke="#166534" stroke-width="6"/><text x="145" y="450" text-anchor="middle" direction="rtl" font-family="Tahoma,Arial,sans-serif" font-size="18" font-weight="800" fill="#20243a">اليوم</text><text x="610" y="80" text-anchor="middle" direction="rtl" font-family="Tahoma,Arial,sans-serif" font-size="18" font-weight="800" fill="#166534">التقاعد</text></g><text x="189" y="356" text-anchor="middle" direction="rtl" font-family="Tahoma,Arial,sans-serif" font-size="15" font-weight="800" fill="#166534">نموذج حاسبة التقاعد والادخار</text><text x="650" y="42" text-anchor="middle" direction="rtl" font-family="Tahoma,Arial,sans-serif" font-size="18" font-weight="800" fill="#166534">مسارات متوازية</text><circle cx="410" cy="92" r="17" fill="url(#g)"/><path d="M430 92H807" stroke="#166534" stroke-width="11" stroke-linecap="round"/><circle cx="807" cy="92" r="13" fill="#fff" stroke="#166534" stroke-width="5"/><text x="510" y="75" text-anchor="middle" direction="rtl" font-family="Tahoma,Arial,sans-serif" font-size="13" font-weight="700" fill="#166534">السيناريو الأسا…</text><text x="820" y="97" text-anchor="middle" direction="rtl" font-family="Tahoma,Arial,sans-serif" font-size="12" font-weight="700" fill="#596078">قيمة حقيقية</text><circle cx="410" cy="160" r="17" fill="#166534"/><path d="M430 160H630" stroke="#166534" stroke-width="10" stroke-linecap="round"/><circle cx="630" cy="160" r="13" fill="#fff" stroke="#166534" stroke-width="5"/><text x="510" y="143" text-anchor="middle" direction="rtl" font-family="Tahoma,Arial,sans-serif" font-size="13" font-weight="700" fill="#166534">افتراض محافظ</text><text x="820" y="165" text-anchor="middle" direction="rtl" font-family="Tahoma,Arial,sans-serif" font-size="12" font-weight="700" fill="#596078">مدة السحب</text><circle cx="410" cy="228" r="17" fill="#166534"/><path d="M430 228H683" stroke="#166534" stroke-width="9" stroke-linecap="round"/><circle cx="683" cy="228" r="13" fill="#fff" stroke="#166534" stroke-width="5"/><text x="510" y="211" text-anchor="middle" direction="rtl" font-family="Tahoma,Arial,sans-serif" font-size="13" font-weight="700" fill="#166534">افتراض مرتفع</text><text x="820" y="233" text-anchor="middle" direction="rtl" font-family="Tahoma,Arial,sans-serif" font-size="12" font-weight="700" fill="#596078">عائد محافظ</text><circle cx="410" cy="296" r="17" fill="#166534"/><path d="M430 296H736" stroke="#6366f1" stroke-width="8" stroke-linecap="round"/><circle cx="736" cy="296" r="13" fill="#fff" stroke="#166534" stroke-width="5"/><text x="510" y="279" text-anchor="middle" direction="rtl" font-family="Tahoma,Arial,sans-serif" font-size="13" font-weight="700" fill="#166534">مرجع رسمي</text><text x="820" y="301" text-anchor="middle" direction="rtl" font-family="Tahoma,Arial,sans-serif" font-size="12" font-weight="700" fill="#596078">مراجعة دورية</text></svg>