<svg xmlns="http://www.w3.org/2000/svg" width="760" height="520" viewBox="0 0 760 520" role="img" aria-labelledby="t"><title id="t">حاسبة التقاعد والادخار</title><defs><linearGradient id="g" x1="0" y1="0" x2="1" y2="1"><stop stop-color="#166534"/><stop offset="1" stop-color="#4ade80"/></linearGradient><linearGradient id="s" x1="0" y1="0" x2="1" y2="1"><stop stop-color="#166534" stop-opacity=".14"/><stop offset="1" stop-color="#6366f1" stop-opacity=".06"/></linearGradient><filter id="sh" x="-25%" y="-25%" width="150%" height="150%"><feDropShadow dx="0" dy="12" stdDeviation="14" flood-color="#172554" flood-opacity=".12"/></filter><marker id="ar" viewBox="0 0 10 10" refX="8" refY="5" markerWidth="7" markerHeight="7" orient="auto-start-reverse"><path d="M0 0 10 5 0 10Z" fill="#166534"/></marker></defs><rect width="760" height="520" rx="34" fill="#f8faff"/><circle cx="690" cy="65" r="105" fill="#4ade80" opacity=".06"/><circle cx="65" cy="485" r="120" fill="#6366f1" opacity=".07"/><text x="380" y="48" text-anchor="middle" direction="rtl" font-family="Tahoma,Arial,sans-serif" font-size="21" font-weight="900" fill="#166534">حاسبة التقاعد والادخار</text><path d="M100 400 C210 390 255 310 355 300 S520 210 650 115" fill="none" stroke="url(#g)" stroke-width="14" stroke-linecap="round"/><circle cx="100" cy="400" r="18" fill="#fff" stroke="#166534" stroke-width="6"/><circle cx="230" cy="350" r="22" fill="#fff" stroke="#166534" stroke-width="6"/><circle cx="355" cy="300" r="26" fill="#fff" stroke="#166534" stroke-width="6"/><circle cx="490" cy="235" r="30" fill="#fff" stroke="#166534" stroke-width="6"/><circle cx="650" cy="115" r="34" fill="#fff" stroke="#166534" stroke-width="6"/><text x="145" y="450" text-anchor="middle" direction="rtl" font-family="Tahoma,Arial,sans-serif" font-size="18" font-weight="800" fill="#20243a">اليوم</text><text x="610" y="80" text-anchor="middle" direction="rtl" font-family="Tahoma,Arial,sans-serif" font-size="18" font-weight="800" fill="#166534">التقاعد</text></svg>