<svg xmlns="http://www.w3.org/2000/svg" width="760" height="520" viewBox="0 0 760 520" role="img" aria-labelledby="t"><title id="t">حاسبة رينولدز</title><defs><linearGradient id="g" x1="0" y1="0" x2="1" y2="1"><stop stop-color="#2563eb"/><stop offset="1" stop-color="#06b6d4"/></linearGradient><linearGradient id="s" x1="0" y1="0" x2="1" y2="1"><stop stop-color="#2563eb" stop-opacity=".14"/><stop offset="1" stop-color="#f59e0b" stop-opacity=".06"/></linearGradient><filter id="sh" x="-25%" y="-25%" width="150%" height="150%"><feDropShadow dx="0" dy="12" stdDeviation="14" flood-color="#172554" flood-opacity=".12"/></filter><marker id="ar" viewBox="0 0 10 10" refX="8" refY="5" markerWidth="7" markerHeight="7" orient="auto-start-reverse"><path d="M0 0 10 5 0 10Z" fill="#2563eb"/></marker></defs><rect width="760" height="520" rx="34" fill="#f8faff"/><circle cx="690" cy="65" r="105" fill="#06b6d4" opacity=".06"/><circle cx="65" cy="485" r="120" fill="#f59e0b" opacity=".07"/><text x="380" y="48" text-anchor="middle" direction="rtl" font-family="Tahoma,Arial,sans-serif" font-size="21" font-weight="900" fill="#2563eb">حاسبة رينولدز</text><circle cx="250" cy="260" r="130" fill="#fff" stroke="#dce2f3" stroke-width="22" filter="url(#sh)"/><path d="M250 130a130 130 0 0 1 122 85" fill="none" stroke="url(#g)" stroke-width="22"/><text x="250" y="252" text-anchor="middle" direction="rtl" font-family="Tahoma,Arial,sans-serif" font-size="25" font-weight="800" fill="#2563eb">صيغة تقنية</text><text x="250" y="290" text-anchor="middle" direction="rtl" font-family="Tahoma,Arial,sans-serif" font-size="19" font-weight="800" fill="#20243a">+ التاريخ</text><rect x="465" y="125" width="190" height="75" rx="22" fill="#fff" stroke="#d9deef" filter="url(#sh)"/><text x="560" y="169" text-anchor="middle" direction="rtl" font-family="Tahoma,Arial,sans-serif" font-size="17" font-weight="800" fill="#596078">الضغط</text><rect x="465" y="230" width="190" height="75" rx="22" fill="#fff" stroke="#d9deef" filter="url(#sh)"/><text x="560" y="274" text-anchor="middle" direction="rtl" font-family="Tahoma,Arial,sans-serif" font-size="17" font-weight="800" fill="#596078">الدهون</text><rect x="465" y="335" width="190" height="75" rx="22" fill="#fff" stroke="#d9deef" filter="url(#sh)"/><text x="560" y="379" text-anchor="middle" direction="rtl" font-family="Tahoma,Arial,sans-serif" font-size="17" font-weight="800" fill="#2563eb">العائلة</text><path d="M390 260 L455 260" fill="none" stroke="#2563eb" stroke-width="5" stroke-linecap="round" marker-end="url(#ar)"/></svg>