<svg xmlns="http://www.w3.org/2000/svg" width="960" height="360" viewBox="0 0 960 360" role="img" aria-labelledby="t"><title id="t">حاسبة العائد ROI للقرض الشهري</title><defs><linearGradient id="g" x1="0" y1="0" x2="1" y2="1"><stop stop-color="#9333ea"/><stop offset="1" stop-color="#e879f9"/></linearGradient><linearGradient id="s" x1="0" y1="0" x2="1" y2="1"><stop stop-color="#9333ea" stop-opacity=".14"/><stop offset="1" stop-color="#0ea5e9" stop-opacity=".06"/></linearGradient><filter id="sh" x="-25%" y="-25%" width="150%" height="150%"><feDropShadow dx="0" dy="12" stdDeviation="14" flood-color="#172554" flood-opacity=".12"/></filter><marker id="ar" viewBox="0 0 10 10" refX="8" refY="5" markerWidth="7" markerHeight="7" orient="auto-start-reverse"><path d="M0 0 10 5 0 10Z" fill="#9333ea"/></marker></defs><rect width="960" height="360" rx="34" fill="#f8faff"/><circle cx="890" cy="65" r="105" fill="#e879f9" opacity=".06"/><circle cx="65" cy="325" r="120" fill="#0ea5e9" opacity=".07"/><rect x="610" y="56" width="320" height="255" rx="22" fill="#fff" stroke="#d9deef" filter="url(#sh)"/><g opacity=".9" transform="translate(620 78) scale(.30)"><path d="M380 125v250M210 165h340" stroke="#9333ea" stroke-width="12"/><path d="M210 165 125 325h170Z" fill="#fff" stroke="#e879f9" stroke-width="6" filter="url(#sh)"/><path d="M550 165 465 325h170Z" fill="#fff" stroke="#e879f9" stroke-width="6" filter="url(#sh)"/><circle cx="180" cy="270" r="24" fill="url(#g)" filter="url(#sh)"/><text x="180" y="278" text-anchor="middle" direction="rtl" font-family="Tahoma,Arial,sans-serif" font-size="15" font-weight="900" fill="#fff">ت</text><circle cx="235" cy="270" r="24" fill="url(#g)" filter="url(#sh)"/><text x="235" y="278" text-anchor="middle" direction="rtl" font-family="Tahoma,Arial,sans-serif" font-size="15" font-weight="900" fill="#fff">ت</text><circle cx="520" cy="270" r="24" fill="url(#g)" filter="url(#sh)"/><text x="520" y="278" text-anchor="middle" direction="rtl" font-family="Tahoma,Arial,sans-serif" font-size="15" font-weight="900" fill="#fff">ع</text><circle cx="575" cy="270" r="24" fill="url(#g)" filter="url(#sh)"/><text x="575" y="278" text-anchor="middle" direction="rtl" font-family="Tahoma,Arial,sans-serif" font-size="15" font-weight="900" fill="#fff">ع</text><text x="210" y="335" text-anchor="middle" direction="rtl" font-family="Tahoma,Arial,sans-serif" font-size="17" font-weight="800" fill="#20243a">التكلفة</text><text x="550" y="335" text-anchor="middle" direction="rtl" font-family="Tahoma,Arial,sans-serif" font-size="17" font-weight="800" fill="#9333ea">العائد</text><text x="380" y="425" text-anchor="middle" direction="rtl" font-family="Tahoma,Arial,sans-serif" font-size="20" font-weight="800" fill="#9333ea">صافي المنفعة ÷ التكلفة</text></g><text x="770" y="338" text-anchor="middle" direction="rtl" font-family="Tahoma,Arial,sans-serif" font-size="14" font-weight="800" fill="#9333ea">افحص موضوع الحاسبة نفسه</text><path d="M105 88V310M105 118H500M105 205H500M105 292H500" stroke="#d7ddec" stroke-width="6" stroke-linecap="round"/><circle cx="105" cy="118" r="22" fill="url(#g)"/><rect x="150" y="87" width="370" height="62" rx="22" fill="#fff" stroke="#d9deef" filter="url(#sh)"/><text x="270" y="124" text-anchor="middle" direction="rtl" font-family="Tahoma,Arial,sans-serif" font-size="14" font-weight="800" fill="#9333ea">نتيجة بعيدة</text><text x="435" y="124" text-anchor="middle" direction="rtl" font-family="Tahoma,Arial,sans-serif" font-size="12" font-weight="700" fill="#596078">المدخل</text><circle cx="105" cy="205" r="22" fill="#9333ea"/><rect x="150" y="174" width="370" height="62" rx="22" fill="#fff" stroke="#d9deef" filter="url(#sh)"/><text x="270" y="211" text-anchor="middle" direction="rtl" font-family="Tahoma,Arial,sans-serif" font-size="14" font-weight="800" fill="#9333ea">نتيجتان مختلفتان</text><text x="435" y="211" text-anchor="middle" direction="rtl" font-family="Tahoma,Arial,sans-serif" font-size="12" font-weight="700" fill="#596078">القاعدة</text><circle cx="105" cy="292" r="22" fill="#9333ea"/><rect x="150" y="261" width="370" height="62" rx="22" fill="#fff" stroke="#d9deef" filter="url(#sh)"/><text x="270" y="298" text-anchor="middle" direction="rtl" font-family="Tahoma,Arial,sans-serif" font-size="14" font-weight="800" fill="#9333ea">افتراض مجهول</text><text x="435" y="298" text-anchor="middle" direction="rtl" font-family="Tahoma,Arial,sans-serif" font-size="12" font-weight="700" fill="#596078">النطاق</text><text x="300" y="48" text-anchor="middle" direction="rtl" font-family="Tahoma,Arial,sans-serif" font-size="17" font-weight="800" fill="#9333ea">مسار تشخيص متسلسل</text></svg>