<svg xmlns="http://www.w3.org/2000/svg" width="960" height="380" viewBox="0 0 960 380" role="img" aria-labelledby="t"><title id="t">حاسبة الراتب الصافي والأجور</title><defs><linearGradient id="g" x1="0" y1="0" x2="1" y2="1"><stop stop-color="#0f766e"/><stop offset="1" stop-color="#2dd4bf"/></linearGradient><linearGradient id="s" x1="0" y1="0" x2="1" y2="1"><stop stop-color="#0f766e" stop-opacity=".14"/><stop offset="1" stop-color="#8b5cf6" stop-opacity=".06"/></linearGradient><filter id="sh" x="-25%" y="-25%" width="150%" height="150%"><feDropShadow dx="0" dy="12" stdDeviation="14" flood-color="#172554" flood-opacity=".12"/></filter><marker id="ar" viewBox="0 0 10 10" refX="8" refY="5" markerWidth="7" markerHeight="7" orient="auto-start-reverse"><path d="M0 0 10 5 0 10Z" fill="#0f766e"/></marker></defs><rect width="960" height="380" rx="34" fill="#f8faff"/><circle cx="890" cy="65" r="105" fill="#2dd4bf" opacity=".06"/><circle cx="65" cy="345" r="120" fill="#8b5cf6" opacity=".07"/><rect x="24" y="55" width="330" height="278" rx="22" fill="#fff" stroke="#d9deef" filter="url(#sh)"/><g opacity=".98" transform="translate(27 72) scale(.39)"><rect x="135" y="90" width="490" height="360" rx="22" fill="#fff" stroke="#d9deef" filter="url(#sh)"/><path d="M180 165h400M180 225h260M180 285h400" stroke="#dce1ef" stroke-width="12" stroke-linecap="round"/><circle cx="245" cy="355" r="32" fill="url(#g)" filter="url(#sh)"/><text x="245" y="363" text-anchor="middle" direction="rtl" font-family="Tahoma,Arial,sans-serif" font-size="15" font-weight="900" fill="#fff">إج</text><circle cx="380" cy="355" r="32" fill="url(#g)" filter="url(#sh)"/><text x="380" y="363" text-anchor="middle" direction="rtl" font-family="Tahoma,Arial,sans-serif" font-size="15" font-weight="900" fill="#fff">−</text><circle cx="520" cy="355" r="32" fill="url(#g)" filter="url(#sh)"/><text x="520" y="363" text-anchor="middle" direction="rtl" font-family="Tahoma,Arial,sans-serif" font-size="15" font-weight="900" fill="#fff">ص</text><path d="M282 355 L340 355" fill="none" stroke="#0f766e" stroke-width="5" stroke-linecap="round" marker-end="url(#ar)"/><path d="M418 355 L478 355" fill="none" stroke="#0f766e" stroke-width="5" stroke-linecap="round" marker-end="url(#ar)"/><text x="380" y="430" text-anchor="middle" direction="rtl" font-family="Tahoma,Arial,sans-serif" font-size="18" font-weight="800" fill="#0f766e">إجمالي − استقطاعات = صافي</text></g><text x="189" y="356" text-anchor="middle" direction="rtl" font-family="Tahoma,Arial,sans-serif" font-size="15" font-weight="800" fill="#0f766e">نموذج حاسبة الراتب الصافي وا…</text><text x="650" y="42" text-anchor="middle" direction="rtl" font-family="Tahoma,Arial,sans-serif" font-size="18" font-weight="800" fill="#0f766e">لوحة السيناريوهات</text><text x="445" y="93" text-anchor="middle" direction="rtl" font-family="Tahoma,Arial,sans-serif" font-size="14" font-weight="700" fill="#41485e">السيناريو الأسا…</text><rect x="565" y="72" width="319" height="31" rx="15" fill="url(#g)" opacity="0.92"/><text x="894" y="94" text-anchor="middle" direction="rtl" font-family="Tahoma,Arial,sans-serif" font-size="12" font-weight="700" fill="#0f766e">دورية الأجر</text><text x="445" y="162" text-anchor="middle" direction="rtl" font-family="Tahoma,Arial,sans-serif" font-size="14" font-weight="700" fill="#41485e">افتراض محافظ</text><rect x="565" y="141" width="380" height="31" rx="15" fill="#0f766e" opacity="0.8"/><text x="955" y="163" text-anchor="middle" direction="rtl" font-family="Tahoma,Arial,sans-serif" font-size="12" font-weight="700" fill="#0f766e">ساعات العمل</text><text x="445" y="231" text-anchor="middle" direction="rtl" font-family="Tahoma,Arial,sans-serif" font-size="14" font-weight="700" fill="#41485e">افتراض مرتفع</text><rect x="565" y="210" width="196" height="31" rx="15" fill="#0f766e" opacity="0.68"/><text x="771" y="232" text-anchor="middle" direction="rtl" font-family="Tahoma,Arial,sans-serif" font-size="12" font-weight="700" fill="#0f766e">بدلات خاضعة</text><text x="445" y="300" text-anchor="middle" direction="rtl" font-family="Tahoma,Arial,sans-serif" font-size="14" font-weight="700" fill="#41485e">مرجع رسمي</text><rect x="565" y="279" width="257" height="31" rx="15" fill="#8b5cf6" opacity="0.56"/><text x="832" y="301" text-anchor="middle" direction="rtl" font-family="Tahoma,Arial,sans-serif" font-size="12" font-weight="700" fill="#0f766e">استقطاعات مح…</text></svg>