<svg xmlns="http://www.w3.org/2000/svg" width="960" height="360" viewBox="0 0 960 360" role="img" aria-labelledby="t"><title id="t">حاسبة هدف الادخار</title><defs><linearGradient id="g" x1="0" y1="0" x2="1" y2="1"><stop stop-color="#9333ea"/><stop offset="1" stop-color="#e879f9"/></linearGradient><linearGradient id="s" x1="0" y1="0" x2="1" y2="1"><stop stop-color="#9333ea" stop-opacity=".14"/><stop offset="1" stop-color="#0ea5e9" stop-opacity=".06"/></linearGradient><filter id="sh" x="-25%" y="-25%" width="150%" height="150%"><feDropShadow dx="0" dy="12" stdDeviation="14" flood-color="#172554" flood-opacity=".12"/></filter><marker id="ar" viewBox="0 0 10 10" refX="8" refY="5" markerWidth="7" markerHeight="7" orient="auto-start-reverse"><path d="M0 0 10 5 0 10Z" fill="#9333ea"/></marker></defs><rect width="960" height="360" rx="34" fill="#f8faff"/><circle cx="890" cy="65" r="105" fill="#e879f9" opacity=".06"/><circle cx="65" cy="325" r="120" fill="#0ea5e9" opacity=".07"/><rect x="610" y="56" width="320" height="255" rx="22" fill="#fff" stroke="#d9deef" filter="url(#sh)"/><g opacity=".9" transform="translate(620 78) scale(.30)"><circle cx="535" cy="235" r="125" fill="#fff" stroke="#dce2f3" stroke-width="24" filter="url(#sh)"/><path d="M535 110a125 125 0 1 1-110 65" fill="none" stroke="url(#g)" stroke-width="24" stroke-linecap="round"/><text x="535" y="225" text-anchor="middle" direction="rtl" font-family="Tahoma,Arial,sans-serif" font-size="24" font-weight="800" fill="#9333ea">الهدف</text><text x="535" y="268" text-anchor="middle" direction="rtl" font-family="Tahoma,Arial,sans-serif" font-size="33" font-weight="900" fill="#9333ea">80%</text><circle cx="125" cy="365" r="28" fill="url(#g)" filter="url(#sh)"/><text x="125" y="373" text-anchor="middle" direction="rtl" font-family="Tahoma,Arial,sans-serif" font-size="15" font-weight="900" fill="#fff">+</text><circle cx="210" cy="320" r="28" fill="url(#g)" filter="url(#sh)"/><text x="210" y="328" text-anchor="middle" direction="rtl" font-family="Tahoma,Arial,sans-serif" font-size="15" font-weight="900" fill="#fff">+</text><circle cx="295" cy="275" r="28" fill="url(#g)" filter="url(#sh)"/><text x="295" y="283" text-anchor="middle" direction="rtl" font-family="Tahoma,Arial,sans-serif" font-size="15" font-weight="900" fill="#fff">+</text><circle cx="380" cy="230" r="28" fill="url(#g)" filter="url(#sh)"/><text x="380" y="238" text-anchor="middle" direction="rtl" font-family="Tahoma,Arial,sans-serif" font-size="15" font-weight="900" fill="#fff">+</text><path d="M345 235 L400 235" fill="none" stroke="#9333ea" stroke-width="5" stroke-linecap="round" marker-end="url(#ar)"/></g><text x="770" y="338" text-anchor="middle" direction="rtl" font-family="Tahoma,Arial,sans-serif" font-size="14" font-weight="800" fill="#9333ea">افحص موضوع الحاسبة نفسه</text><text x="300" y="45" text-anchor="middle" direction="rtl" font-family="Tahoma,Arial,sans-serif" font-size="17" font-weight="800" fill="#9333ea">دوائر سبب ونتيجة</text><circle cx="300" cy="205" r="62" fill="url(#g)" filter="url(#sh)"/><text x="300" y="199" text-anchor="middle" direction="rtl" font-family="Tahoma,Arial,sans-serif" font-size="17" font-weight="800" fill="#fff">اختلاف</text><text x="300" y="226" text-anchor="middle" direction="rtl" font-family="Tahoma,Arial,sans-serif" font-size="14" font-weight="800" fill="#fff">النتيجة</text><path d="M300 205L139.78530029987883 142.5" stroke="#d6dceb" stroke-width="6"/><circle cx="139.78530029987883" cy="142.5" r="54" fill="#fff" stroke="#9333ea" stroke-width="6"/><text x="139.78530029987883" y="147.5" text-anchor="middle" direction="rtl" font-family="Tahoma,Arial,sans-serif" font-size="12" font-weight="700" fill="#9333ea">نتيجة بعيدة</text><path d="M300 205L485 205" stroke="#d6dceb" stroke-width="6"/><circle cx="485" cy="205" r="54" fill="#fff" stroke="#9333ea" stroke-width="6"/><text x="485" y="210" text-anchor="middle" direction="rtl" font-family="Tahoma,Arial,sans-serif" font-size="12" font-weight="700" fill="#9333ea">نتيجتان مختل…</text><path d="M300 205L139.78530029987883 267.5" stroke="#d6dceb" stroke-width="6"/><circle cx="139.78530029987883" cy="267.5" r="54" fill="#fff" stroke="#0ea5e9" stroke-width="6"/><text x="139.78530029987883" y="272.5" text-anchor="middle" direction="rtl" font-family="Tahoma,Arial,sans-serif" font-size="12" font-weight="700" fill="#9333ea">افتراض مجهول</text></svg>