<svg xmlns="http://www.w3.org/2000/svg" width="760" height="520" viewBox="0 0 760 520" role="img" aria-labelledby="t"><title id="t">حاسبة هدف الادخار</title><defs><linearGradient id="g" x1="0" y1="0" x2="1" y2="1"><stop stop-color="#9333ea"/><stop offset="1" stop-color="#e879f9"/></linearGradient><linearGradient id="s" x1="0" y1="0" x2="1" y2="1"><stop stop-color="#9333ea" stop-opacity=".14"/><stop offset="1" stop-color="#0ea5e9" stop-opacity=".06"/></linearGradient><filter id="sh" x="-25%" y="-25%" width="150%" height="150%"><feDropShadow dx="0" dy="12" stdDeviation="14" flood-color="#172554" flood-opacity=".12"/></filter><marker id="ar" viewBox="0 0 10 10" refX="8" refY="5" markerWidth="7" markerHeight="7" orient="auto-start-reverse"><path d="M0 0 10 5 0 10Z" fill="#9333ea"/></marker></defs><rect width="760" height="520" rx="34" fill="#f8faff"/><circle cx="690" cy="65" r="105" fill="#e879f9" opacity=".06"/><circle cx="65" cy="485" r="120" fill="#0ea5e9" opacity=".07"/><text x="380" y="48" text-anchor="middle" direction="rtl" font-family="Tahoma,Arial,sans-serif" font-size="21" font-weight="900" fill="#9333ea">حاسبة هدف الادخار</text><circle cx="535" cy="235" r="125" fill="#fff" stroke="#dce2f3" stroke-width="24" filter="url(#sh)"/><path d="M535 110a125 125 0 1 1-110 65" fill="none" stroke="url(#g)" stroke-width="24" stroke-linecap="round"/><text x="535" y="225" text-anchor="middle" direction="rtl" font-family="Tahoma,Arial,sans-serif" font-size="24" font-weight="800" fill="#9333ea">الهدف</text><text x="535" y="268" text-anchor="middle" direction="rtl" font-family="Tahoma,Arial,sans-serif" font-size="33" font-weight="900" fill="#9333ea">80%</text><circle cx="125" cy="365" r="28" fill="url(#g)" filter="url(#sh)"/><text x="125" y="373" text-anchor="middle" direction="rtl" font-family="Tahoma,Arial,sans-serif" font-size="15" font-weight="900" fill="#fff">+</text><circle cx="210" cy="320" r="28" fill="url(#g)" filter="url(#sh)"/><text x="210" y="328" text-anchor="middle" direction="rtl" font-family="Tahoma,Arial,sans-serif" font-size="15" font-weight="900" fill="#fff">+</text><circle cx="295" cy="275" r="28" fill="url(#g)" filter="url(#sh)"/><text x="295" y="283" text-anchor="middle" direction="rtl" font-family="Tahoma,Arial,sans-serif" font-size="15" font-weight="900" fill="#fff">+</text><circle cx="380" cy="230" r="28" fill="url(#g)" filter="url(#sh)"/><text x="380" y="238" text-anchor="middle" direction="rtl" font-family="Tahoma,Arial,sans-serif" font-size="15" font-weight="900" fill="#fff">+</text><path d="M345 235 L400 235" fill="none" stroke="#9333ea" stroke-width="5" stroke-linecap="round" marker-end="url(#ar)"/></svg>