<svg xmlns="http://www.w3.org/2000/svg" width="760" height="520" viewBox="0 0 760 520" role="img" aria-labelledby="t"><title id="t">الآلة الحاسبة العلمية</title><defs><linearGradient id="g" x1="0" y1="0" x2="1" y2="1"><stop stop-color="#be123c"/><stop offset="1" stop-color="#fb7185"/></linearGradient><linearGradient id="s" x1="0" y1="0" x2="1" y2="1"><stop stop-color="#be123c" stop-opacity=".14"/><stop offset="1" stop-color="#6366f1" stop-opacity=".06"/></linearGradient><filter id="sh" x="-25%" y="-25%" width="150%" height="150%"><feDropShadow dx="0" dy="12" stdDeviation="14" flood-color="#172554" flood-opacity=".12"/></filter><marker id="ar" viewBox="0 0 10 10" refX="8" refY="5" markerWidth="7" markerHeight="7" orient="auto-start-reverse"><path d="M0 0 10 5 0 10Z" fill="#be123c"/></marker></defs><rect width="760" height="520" rx="34" fill="#f8faff"/><circle cx="690" cy="65" r="105" fill="#fb7185" opacity=".06"/><circle cx="65" cy="485" r="120" fill="#6366f1" opacity=".07"/><text x="380" y="48" text-anchor="middle" direction="rtl" font-family="Tahoma,Arial,sans-serif" font-size="21" font-weight="900" fill="#be123c">الآلة الحاسبة العلمية</text><rect x="75" y="85" width="610" height="365" rx="32" fill="#fff" stroke="#d8deef" filter="url(#sh)"/><rect x="110" y="120" width="540" height="75" rx="18" fill="#eef2ff"/><text x="380" y="170" text-anchor="middle" direction="rtl" font-family="Tahoma,Arial,sans-serif" font-size="24" font-weight="800" fill="#be123c">صيغة تقنية(30°) + √16 = 4.5</text><rect x="112" y="225" width="68" height="34" rx="10" fill="url(#g)"/><rect x="202" y="225" width="68" height="34" rx="10" fill="#e9edf7"/><rect x="292" y="225" width="68" height="34" rx="10" fill="#e9edf7"/><rect x="382" y="225" width="68" height="34" rx="10" fill="#e9edf7"/><rect x="472" y="225" width="68" height="34" rx="10" fill="url(#g)"/><rect x="562" y="225" width="68" height="34" rx="10" fill="#e9edf7"/><rect x="112" y="273" width="68" height="34" rx="10" fill="#e9edf7"/><rect x="202" y="273" width="68" height="34" rx="10" fill="#e9edf7"/><rect x="292" y="273" width="68" height="34" rx="10" fill="#e9edf7"/><rect x="382" y="273" width="68" height="34" rx="10" fill="url(#g)"/><rect x="472" y="273" width="68" height="34" rx="10" fill="#e9edf7"/><rect x="562" y="273" width="68" height="34" rx="10" fill="#e9edf7"/><rect x="112" y="321" width="68" height="34" rx="10" fill="#e9edf7"/><rect x="202" y="321" width="68" height="34" rx="10" fill="#e9edf7"/><rect x="292" y="321" width="68" height="34" rx="10" fill="url(#g)"/><rect x="382" y="321" width="68" height="34" rx="10" fill="#e9edf7"/><rect x="472" y="321" width="68" height="34" rx="10" fill="#e9edf7"/><rect x="562" y="321" width="68" height="34" rx="10" fill="#e9edf7"/><rect x="112" y="369" width="68" height="34" rx="10" fill="#e9edf7"/><rect x="202" y="369" width="68" height="34" rx="10" fill="url(#g)"/><rect x="292" y="369" width="68" height="34" rx="10" fill="#e9edf7"/><rect x="382" y="369" width="68" height="34" rx="10" fill="#e9edf7"/><rect x="472" y="369" width="68" height="34" rx="10" fill="#e9edf7"/><rect x="562" y="369" width="68" height="34" rx="10" fill="url(#g)"/><text x="380" y="470" text-anchor="middle" direction="rtl" font-family="Tahoma,Arial,sans-serif" font-size="18" font-weight="800" fill="#be123c">أقواس • دوال • درجات</text></svg>