<svg xmlns="http://www.w3.org/2000/svg" width="960" height="360" viewBox="0 0 960 360" role="img" aria-labelledby="t"><title id="t">الآلة الحاسبة العلمية</title><defs><linearGradient id="g" x1="0" y1="0" x2="1" y2="1"><stop stop-color="#be123c"/><stop offset="1" stop-color="#fb7185"/></linearGradient><linearGradient id="s" x1="0" y1="0" x2="1" y2="1"><stop stop-color="#be123c" stop-opacity=".14"/><stop offset="1" stop-color="#6366f1" stop-opacity=".06"/></linearGradient><filter id="sh" x="-25%" y="-25%" width="150%" height="150%"><feDropShadow dx="0" dy="12" stdDeviation="14" flood-color="#172554" flood-opacity=".12"/></filter><marker id="ar" viewBox="0 0 10 10" refX="8" refY="5" markerWidth="7" markerHeight="7" orient="auto-start-reverse"><path d="M0 0 10 5 0 10Z" fill="#be123c"/></marker></defs><rect width="960" height="360" rx="34" fill="#f8faff"/><circle cx="890" cy="65" r="105" fill="#fb7185" opacity=".06"/><circle cx="65" cy="325" r="120" fill="#6366f1" opacity=".07"/><rect x="610" y="56" width="320" height="255" rx="22" fill="#fff" stroke="#d9deef" filter="url(#sh)"/><g opacity=".9" transform="translate(620 78) scale(.30)"><rect x="75" y="85" width="610" height="365" rx="32" fill="#fff" stroke="#d8deef" filter="url(#sh)"/><rect x="110" y="120" width="540" height="75" rx="18" fill="#eef2ff"/><text x="380" y="170" text-anchor="middle" direction="rtl" font-family="Tahoma,Arial,sans-serif" font-size="24" font-weight="800" fill="#be123c">صيغة تقنية(30°) + √16 = 4.5</text><rect x="112" y="225" width="68" height="34" rx="10" fill="url(#g)"/><rect x="202" y="225" width="68" height="34" rx="10" fill="#e9edf7"/><rect x="292" y="225" width="68" height="34" rx="10" fill="#e9edf7"/><rect x="382" y="225" width="68" height="34" rx="10" fill="#e9edf7"/><rect x="472" y="225" width="68" height="34" rx="10" fill="url(#g)"/><rect x="562" y="225" width="68" height="34" rx="10" fill="#e9edf7"/><rect x="112" y="273" width="68" height="34" rx="10" fill="#e9edf7"/><rect x="202" y="273" width="68" height="34" rx="10" fill="#e9edf7"/><rect x="292" y="273" width="68" height="34" rx="10" fill="#e9edf7"/><rect x="382" y="273" width="68" height="34" rx="10" fill="url(#g)"/><rect x="472" y="273" width="68" height="34" rx="10" fill="#e9edf7"/><rect x="562" y="273" width="68" height="34" rx="10" fill="#e9edf7"/><rect x="112" y="321" width="68" height="34" rx="10" fill="#e9edf7"/><rect x="202" y="321" width="68" height="34" rx="10" fill="#e9edf7"/><rect x="292" y="321" width="68" height="34" rx="10" fill="url(#g)"/><rect x="382" y="321" width="68" height="34" rx="10" fill="#e9edf7"/><rect x="472" y="321" width="68" height="34" rx="10" fill="#e9edf7"/><rect x="562" y="321" width="68" height="34" rx="10" fill="#e9edf7"/><rect x="112" y="369" width="68" height="34" rx="10" fill="#e9edf7"/><rect x="202" y="369" width="68" height="34" rx="10" fill="url(#g)"/><rect x="292" y="369" width="68" height="34" rx="10" fill="#e9edf7"/><rect x="382" y="369" width="68" height="34" rx="10" fill="#e9edf7"/><rect x="472" y="369" width="68" height="34" rx="10" fill="#e9edf7"/><rect x="562" y="369" width="68" height="34" rx="10" fill="url(#g)"/><text x="380" y="470" text-anchor="middle" direction="rtl" font-family="Tahoma,Arial,sans-serif" font-size="18" font-weight="800" fill="#be123c">أقواس • دوال • درجات</text></g><text x="770" y="338" text-anchor="middle" direction="rtl" font-family="Tahoma,Arial,sans-serif" font-size="14" font-weight="800" fill="#be123c">افحص موضوع الحاسبة نفسه</text><text x="300" y="45" text-anchor="middle" direction="rtl" font-family="Tahoma,Arial,sans-serif" font-size="17" font-weight="800" fill="#be123c">دوائر سبب ونتيجة</text><circle cx="300" cy="205" r="62" fill="url(#g)" filter="url(#sh)"/><text x="300" y="199" text-anchor="middle" direction="rtl" font-family="Tahoma,Arial,sans-serif" font-size="17" font-weight="800" fill="#fff">اختلاف</text><text x="300" y="226" text-anchor="middle" direction="rtl" font-family="Tahoma,Arial,sans-serif" font-size="14" font-weight="800" fill="#fff">النتيجة</text><path d="M300 205L139.78530029987883 142.5" stroke="#d6dceb" stroke-width="6"/><circle cx="139.78530029987883" cy="142.5" r="54" fill="#fff" stroke="#be123c" stroke-width="6"/><text x="139.78530029987883" y="147.5" text-anchor="middle" direction="rtl" font-family="Tahoma,Arial,sans-serif" font-size="12" font-weight="700" fill="#be123c">نتيجة بعيدة</text><path d="M300 205L485 205" stroke="#d6dceb" stroke-width="6"/><circle cx="485" cy="205" r="54" fill="#fff" stroke="#be123c" stroke-width="6"/><text x="485" y="210" text-anchor="middle" direction="rtl" font-family="Tahoma,Arial,sans-serif" font-size="12" font-weight="700" fill="#be123c">نتيجتان مختل…</text><path d="M300 205L139.78530029987883 267.5" stroke="#d6dceb" stroke-width="6"/><circle cx="139.78530029987883" cy="267.5" r="54" fill="#fff" stroke="#6366f1" stroke-width="6"/><text x="139.78530029987883" y="272.5" text-anchor="middle" direction="rtl" font-family="Tahoma,Arial,sans-serif" font-size="12" font-weight="700" fill="#be123c">افتراض مجهول</text></svg>