<svg xmlns="http://www.w3.org/2000/svg" width="760" height="520" viewBox="0 0 760 520" role="img" aria-labelledby="t"><title id="t">حاسبة الجذر التربيعي</title><defs><linearGradient id="g" x1="0" y1="0" x2="1" y2="1"><stop stop-color="#334155"/><stop offset="1" stop-color="#64748b"/></linearGradient><linearGradient id="s" x1="0" y1="0" x2="1" y2="1"><stop stop-color="#334155" stop-opacity=".14"/><stop offset="1" stop-color="#22c55e" stop-opacity=".06"/></linearGradient><filter id="sh" x="-25%" y="-25%" width="150%" height="150%"><feDropShadow dx="0" dy="12" stdDeviation="14" flood-color="#172554" flood-opacity=".12"/></filter><marker id="ar" viewBox="0 0 10 10" refX="8" refY="5" markerWidth="7" markerHeight="7" orient="auto-start-reverse"><path d="M0 0 10 5 0 10Z" fill="#334155"/></marker></defs><rect width="760" height="520" rx="34" fill="#f8faff"/><circle cx="690" cy="65" r="105" fill="#64748b" opacity=".06"/><circle cx="65" cy="485" r="120" fill="#22c55e" opacity=".07"/><text x="380" y="48" text-anchor="middle" direction="rtl" font-family="Tahoma,Arial,sans-serif" font-size="21" font-weight="900" fill="#334155">حاسبة الجذر التربيعي</text><rect x="95" y="120" width="280" height="280" rx="24" fill="#fff" stroke="#334155" stroke-width="8" filter="url(#sh)"/><rect x="118" y="143" width="52" height="52" rx="10" fill="url(#g)"/><rect x="181" y="143" width="52" height="52" rx="10" fill="url(#s)"/><rect x="244" y="143" width="52" height="52" rx="10" fill="url(#g)"/><rect x="307" y="143" width="52" height="52" rx="10" fill="url(#s)"/><rect x="118" y="206" width="52" height="52" rx="10" fill="url(#s)"/><rect x="181" y="206" width="52" height="52" rx="10" fill="url(#g)"/><rect x="244" y="206" width="52" height="52" rx="10" fill="url(#s)"/><rect x="307" y="206" width="52" height="52" rx="10" fill="url(#g)"/><rect x="118" y="269" width="52" height="52" rx="10" fill="url(#g)"/><rect x="181" y="269" width="52" height="52" rx="10" fill="url(#s)"/><rect x="244" y="269" width="52" height="52" rx="10" fill="url(#g)"/><rect x="307" y="269" width="52" height="52" rx="10" fill="url(#s)"/><rect x="118" y="332" width="52" height="52" rx="10" fill="url(#s)"/><rect x="181" y="332" width="52" height="52" rx="10" fill="url(#g)"/><rect x="244" y="332" width="52" height="52" rx="10" fill="url(#s)"/><rect x="307" y="332" width="52" height="52" rx="10" fill="url(#g)"/><path d="M405 260 L500 260" fill="none" stroke="#334155" stroke-width="5" stroke-linecap="round" marker-end="url(#ar)"/><circle cx="590" cy="260" r="88" fill="url(#g)" filter="url(#sh)"/><text x="590" y="268" text-anchor="middle" direction="rtl" font-family="Tahoma,Arial,sans-serif" font-size="36.96" font-weight="900" fill="#fff">√16 = 4</text><text x="235" y="445" text-anchor="middle" direction="rtl" font-family="Tahoma,Arial,sans-serif" font-size="19" font-weight="800" fill="#334155">مساحة 16 وحدة</text></svg>