<svg xmlns="http://www.w3.org/2000/svg" width="960" height="380" viewBox="0 0 960 380" role="img" aria-labelledby="t"><title id="t">الحاسبة القياسية</title><defs><linearGradient id="g" x1="0" y1="0" x2="1" y2="1"><stop stop-color="#6d28d9"/><stop offset="1" stop-color="#c084fc"/></linearGradient><linearGradient id="s" x1="0" y1="0" x2="1" y2="1"><stop stop-color="#6d28d9" stop-opacity=".14"/><stop offset="1" stop-color="#22c55e" stop-opacity=".06"/></linearGradient><filter id="sh" x="-25%" y="-25%" width="150%" height="150%"><feDropShadow dx="0" dy="12" stdDeviation="14" flood-color="#172554" flood-opacity=".12"/></filter><marker id="ar" viewBox="0 0 10 10" refX="8" refY="5" markerWidth="7" markerHeight="7" orient="auto-start-reverse"><path d="M0 0 10 5 0 10Z" fill="#6d28d9"/></marker></defs><rect width="960" height="380" rx="34" fill="#f8faff"/><circle cx="890" cy="65" r="105" fill="#c084fc" opacity=".06"/><circle cx="65" cy="345" r="120" fill="#22c55e" opacity=".07"/><rect x="24" y="55" width="330" height="278" rx="22" fill="#fff" stroke="#d9deef" filter="url(#sh)"/><g opacity=".98" transform="translate(27 72) scale(.39)"><rect x="145" y="88" width="470" height="370" rx="34" fill="#fff" stroke="#d8deef" filter="url(#sh)"/><rect x="185" y="125" width="390" height="70" rx="16" fill="#eef2ff"/><text x="380" y="172" text-anchor="middle" direction="rtl" font-family="Tahoma,Arial,sans-serif" font-size="25" font-weight="800" fill="#6d28d9">20 + 5 × 3 = 35</text><rect x="188" y="222" width="76" height="36" rx="11" fill="#e9edf7"/><rect x="286" y="222" width="76" height="36" rx="11" fill="#e9edf7"/><rect x="384" y="222" width="76" height="36" rx="11" fill="#e9edf7"/><rect x="482" y="222" width="76" height="36" rx="11" fill="url(#g)"/><rect x="188" y="273" width="76" height="36" rx="11" fill="#e9edf7"/><rect x="286" y="273" width="76" height="36" rx="11" fill="#e9edf7"/><rect x="384" y="273" width="76" height="36" rx="11" fill="#e9edf7"/><rect x="482" y="273" width="76" height="36" rx="11" fill="url(#g)"/><rect x="188" y="324" width="76" height="36" rx="11" fill="#e9edf7"/><rect x="286" y="324" width="76" height="36" rx="11" fill="#e9edf7"/><rect x="384" y="324" width="76" height="36" rx="11" fill="#e9edf7"/><rect x="482" y="324" width="76" height="36" rx="11" fill="url(#g)"/><rect x="188" y="375" width="76" height="36" rx="11" fill="#e9edf7"/><rect x="286" y="375" width="76" height="36" rx="11" fill="#e9edf7"/><rect x="384" y="375" width="76" height="36" rx="11" fill="#e9edf7"/><rect x="482" y="375" width="76" height="36" rx="11" fill="url(#g)"/><text x="527" y="398" text-anchor="middle" direction="rtl" font-family="Tahoma,Arial,sans-serif" font-size="21" font-weight="800" fill="#fff">=</text><text x="380" y="482" text-anchor="middle" direction="rtl" font-family="Tahoma,Arial,sans-serif" font-size="18" font-weight="800" fill="#6d28d9">الأقواس تحدد الأولوية</text></g><text x="189" y="356" text-anchor="middle" direction="rtl" font-family="Tahoma,Arial,sans-serif" font-size="15" font-weight="800" fill="#6d28d9">نموذج الحاسبة القياسية</text><text x="650" y="42" text-anchor="middle" direction="rtl" font-family="Tahoma,Arial,sans-serif" font-size="18" font-weight="800" fill="#6d28d9">مسارات متوازية</text><circle cx="410" cy="92" r="17" fill="url(#g)"/><path d="M430 92H627" stroke="#6d28d9" stroke-width="11" stroke-linecap="round"/><circle cx="627" cy="92" r="13" fill="#fff" stroke="#6d28d9" stroke-width="5"/><text x="510" y="75" text-anchor="middle" direction="rtl" font-family="Tahoma,Arial,sans-serif" font-size="13" font-weight="700" fill="#6d28d9">السيناريو الأسا…</text><text x="820" y="97" text-anchor="middle" direction="rtl" font-family="Tahoma,Arial,sans-serif" font-size="12" font-weight="700" fill="#596078">ترتيب العملي…</text><circle cx="410" cy="160" r="17" fill="#6d28d9"/><path d="M430 160H680" stroke="#6d28d9" stroke-width="10" stroke-linecap="round"/><circle cx="680" cy="160" r="13" fill="#fff" stroke="#6d28d9" stroke-width="5"/><text x="510" y="143" text-anchor="middle" direction="rtl" font-family="Tahoma,Arial,sans-serif" font-size="13" font-weight="700" fill="#6d28d9">افتراض محافظ</text><text x="820" y="165" text-anchor="middle" direction="rtl" font-family="Tahoma,Arial,sans-serif" font-size="12" font-weight="700" fill="#596078">موضع الفاصلة</text><circle cx="410" cy="228" r="17" fill="#6d28d9"/><path d="M430 228H733" stroke="#6d28d9" stroke-width="9" stroke-linecap="round"/><circle cx="733" cy="228" r="13" fill="#fff" stroke="#6d28d9" stroke-width="5"/><text x="510" y="211" text-anchor="middle" direction="rtl" font-family="Tahoma,Arial,sans-serif" font-size="13" font-weight="700" fill="#6d28d9">افتراض مرتفع</text><text x="820" y="233" text-anchor="middle" direction="rtl" font-family="Tahoma,Arial,sans-serif" font-size="12" font-weight="700" fill="#596078">إشارة العدد</text><circle cx="410" cy="296" r="17" fill="#6d28d9"/><path d="M430 296H786" stroke="#22c55e" stroke-width="8" stroke-linecap="round"/><circle cx="786" cy="296" r="13" fill="#fff" stroke="#6d28d9" stroke-width="5"/><text x="510" y="279" text-anchor="middle" direction="rtl" font-family="Tahoma,Arial,sans-serif" font-size="13" font-weight="700" fill="#6d28d9">مرجع رسمي</text><text x="820" y="301" text-anchor="middle" direction="rtl" font-family="Tahoma,Arial,sans-serif" font-size="12" font-weight="700" fill="#596078">سلوك النسبة</text></svg>