<svg xmlns="http://www.w3.org/2000/svg" width="960" height="380" viewBox="0 0 960 380" role="img" aria-labelledby="t"><title id="t">حاسبة الانحراف المعياري</title><defs><linearGradient id="g" x1="0" y1="0" x2="1" y2="1"><stop stop-color="#0369a1"/><stop offset="1" stop-color="#38bdf8"/></linearGradient><linearGradient id="s" x1="0" y1="0" x2="1" y2="1"><stop stop-color="#0369a1" stop-opacity=".14"/><stop offset="1" stop-color="#f59e0b" stop-opacity=".06"/></linearGradient><filter id="sh" x="-25%" y="-25%" width="150%" height="150%"><feDropShadow dx="0" dy="12" stdDeviation="14" flood-color="#172554" flood-opacity=".12"/></filter><marker id="ar" viewBox="0 0 10 10" refX="8" refY="5" markerWidth="7" markerHeight="7" orient="auto-start-reverse"><path d="M0 0 10 5 0 10Z" fill="#0369a1"/></marker></defs><rect width="960" height="380" rx="34" fill="#f8faff"/><circle cx="890" cy="65" r="105" fill="#38bdf8" opacity=".06"/><circle cx="65" cy="345" r="120" fill="#f59e0b" opacity=".07"/><rect x="24" y="55" width="330" height="278" rx="22" fill="#fff" stroke="#d9deef" filter="url(#sh)"/><g opacity=".98" transform="translate(27 72) scale(.39)"><path d="M80 390H685" stroke="#cfd6e8" stroke-width="6"/><path d="M100 385 C235 380 235 135 380 135 S525 380 660 385" fill="none" stroke="url(#g)" stroke-width="12"/><path d="M180 365v35" stroke="#0369a1" stroke-width="5"/><path d="M280 365v35" stroke="#0369a1" stroke-width="5"/><path d="M380 365v35" stroke="#0369a1" stroke-width="5"/><path d="M480 365v35" stroke="#0369a1" stroke-width="5"/><path d="M580 365v35" stroke="#0369a1" stroke-width="5"/><path d="M280 160v210M480 160v210" stroke="#f59e0b" stroke-width="4" stroke-dasharray="10 9"/><text x="380" y="110" text-anchor="middle" direction="rtl" font-family="Tahoma,Arial,sans-serif" font-size="19" font-weight="800" fill="#0369a1">المتوسط</text><text x="280" y="145" text-anchor="middle" direction="rtl" font-family="Tahoma,Arial,sans-serif" font-size="16" font-weight="800" fill="#f59e0b">−1σ</text><text x="480" y="145" text-anchor="middle" direction="rtl" font-family="Tahoma,Arial,sans-serif" font-size="16" font-weight="800" fill="#f59e0b">+1σ</text><text x="380" y="450" text-anchor="middle" direction="rtl" font-family="Tahoma,Arial,sans-serif" font-size="19" font-weight="800" fill="#0369a1">مسافة القيم عن المركز</text></g><text x="189" y="356" text-anchor="middle" direction="rtl" font-family="Tahoma,Arial,sans-serif" font-size="15" font-weight="800" fill="#0369a1">نموذج حاسبة الانحراف المعيار…</text><text x="650" y="42" text-anchor="middle" direction="rtl" font-family="Tahoma,Arial,sans-serif" font-size="18" font-weight="800" fill="#0369a1">مصفوفة المراجعة</text><rect x="390" y="66" width="520" height="280" rx="22" fill="#fff" stroke="#d9deef" filter="url(#sh)"/><path d="M410 112h480" stroke="#dce1ef" stroke-width="3"/><path d="M410 164h480" stroke="#dce1ef" stroke-width="3"/><path d="M410 216h480" stroke="#dce1ef" stroke-width="3"/><path d="M410 268h480" stroke="#dce1ef" stroke-width="3"/><path d="M410 320h480" stroke="#dce1ef" stroke-width="3"/><path d="M565 82v245M760 82v245" stroke="#dce1ef" stroke-width="3"/><text x="485" y="102" text-anchor="middle" direction="rtl" font-family="Tahoma,Arial,sans-serif" font-size="14" font-weight="800" fill="#0369a1">الحالة</text><text x="660" y="102" text-anchor="middle" direction="rtl" font-family="Tahoma,Arial,sans-serif" font-size="14" font-weight="800" fill="#0369a1">المتغير</text><text x="835" y="102" text-anchor="middle" direction="rtl" font-family="Tahoma,Arial,sans-serif" font-size="14" font-weight="800" fill="#0369a1">المراجعة</text><text x="485" y="145" text-anchor="middle" direction="rtl" font-family="Tahoma,Arial,sans-serif" font-size="13" font-weight="800" fill="#20243a">السيناريو الأس…</text><text x="660" y="145" text-anchor="middle" direction="rtl" font-family="Tahoma,Arial,sans-serif" font-size="12" font-weight="700" fill="#596078">قياس مقدار ابتع…</text><text x="835" y="145" text-anchor="middle" direction="rtl" font-family="Tahoma,Arial,sans-serif" font-size="12" font-weight="700" fill="#0369a1">نوع البيانات</text><text x="485" y="197" text-anchor="middle" direction="rtl" font-family="Tahoma,Arial,sans-serif" font-size="13" font-weight="800" fill="#20243a">افتراض محافظ</text><text x="660" y="197" text-anchor="middle" direction="rtl" font-family="Tahoma,Arial,sans-serif" font-size="12" font-weight="700" fill="#596078">خفض القيمة المت…</text><text x="835" y="197" text-anchor="middle" direction="rtl" font-family="Tahoma,Arial,sans-serif" font-size="12" font-weight="700" fill="#0369a1">متوسط القائمة</text><text x="485" y="249" text-anchor="middle" direction="rtl" font-family="Tahoma,Arial,sans-serif" font-size="13" font-weight="800" fill="#20243a">افتراض مرتفع</text><text x="660" y="249" text-anchor="middle" direction="rtl" font-family="Tahoma,Arial,sans-serif" font-size="12" font-weight="700" fill="#596078">اختبر الحد الأع…</text><text x="835" y="249" text-anchor="middle" direction="rtl" font-family="Tahoma,Arial,sans-serif" font-size="12" font-weight="700" fill="#0369a1">مقام التباين</text><text x="485" y="301" text-anchor="middle" direction="rtl" font-family="Tahoma,Arial,sans-serif" font-size="13" font-weight="800" fill="#20243a">مرجع رسمي</text><text x="660" y="301" text-anchor="middle" direction="rtl" font-family="Tahoma,Arial,sans-serif" font-size="12" font-weight="700" fill="#596078">طابق القيم مع ا…</text><text x="835" y="301" text-anchor="middle" direction="rtl" font-family="Tahoma,Arial,sans-serif" font-size="12" font-weight="700" fill="#0369a1">وحدة الناتج</text></svg>