<svg xmlns="http://www.w3.org/2000/svg" width="760" height="520" viewBox="0 0 760 520" role="img" aria-labelledby="t"><title id="t">حاسبة الانحراف المعياري</title><defs><linearGradient id="g" x1="0" y1="0" x2="1" y2="1"><stop stop-color="#0369a1"/><stop offset="1" stop-color="#38bdf8"/></linearGradient><linearGradient id="s" x1="0" y1="0" x2="1" y2="1"><stop stop-color="#0369a1" stop-opacity=".14"/><stop offset="1" stop-color="#f59e0b" stop-opacity=".06"/></linearGradient><filter id="sh" x="-25%" y="-25%" width="150%" height="150%"><feDropShadow dx="0" dy="12" stdDeviation="14" flood-color="#172554" flood-opacity=".12"/></filter><marker id="ar" viewBox="0 0 10 10" refX="8" refY="5" markerWidth="7" markerHeight="7" orient="auto-start-reverse"><path d="M0 0 10 5 0 10Z" fill="#0369a1"/></marker></defs><rect width="760" height="520" rx="34" fill="#f8faff"/><circle cx="690" cy="65" r="105" fill="#38bdf8" opacity=".06"/><circle cx="65" cy="485" r="120" fill="#f59e0b" opacity=".07"/><text x="380" y="48" text-anchor="middle" direction="rtl" font-family="Tahoma,Arial,sans-serif" font-size="21" font-weight="900" fill="#0369a1">حاسبة الانحراف المعياري</text><path d="M80 390H685" stroke="#cfd6e8" stroke-width="6"/><path d="M100 385 C235 380 235 135 380 135 S525 380 660 385" fill="none" stroke="url(#g)" stroke-width="12"/><path d="M180 365v35" stroke="#0369a1" stroke-width="5"/><path d="M280 365v35" stroke="#0369a1" stroke-width="5"/><path d="M380 365v35" stroke="#0369a1" stroke-width="5"/><path d="M480 365v35" stroke="#0369a1" stroke-width="5"/><path d="M580 365v35" stroke="#0369a1" stroke-width="5"/><path d="M280 160v210M480 160v210" stroke="#f59e0b" stroke-width="4" stroke-dasharray="10 9"/><text x="380" y="110" text-anchor="middle" direction="rtl" font-family="Tahoma,Arial,sans-serif" font-size="19" font-weight="800" fill="#0369a1">المتوسط</text><text x="280" y="145" text-anchor="middle" direction="rtl" font-family="Tahoma,Arial,sans-serif" font-size="16" font-weight="800" fill="#f59e0b">−1σ</text><text x="480" y="145" text-anchor="middle" direction="rtl" font-family="Tahoma,Arial,sans-serif" font-size="16" font-weight="800" fill="#f59e0b">+1σ</text><text x="380" y="450" text-anchor="middle" direction="rtl" font-family="Tahoma,Arial,sans-serif" font-size="19" font-weight="800" fill="#0369a1">مسافة القيم عن المركز</text></svg>