<svg xmlns="http://www.w3.org/2000/svg" width="960" height="360" viewBox="0 0 960 360" role="img" aria-labelledby="t"><title id="t">الحاسبة القياسية</title><defs><linearGradient id="g" x1="0" y1="0" x2="1" y2="1"><stop stop-color="#6d28d9"/><stop offset="1" stop-color="#c084fc"/></linearGradient><linearGradient id="s" x1="0" y1="0" x2="1" y2="1"><stop stop-color="#6d28d9" stop-opacity=".14"/><stop offset="1" stop-color="#22c55e" stop-opacity=".06"/></linearGradient><filter id="sh" x="-25%" y="-25%" width="150%" height="150%"><feDropShadow dx="0" dy="12" stdDeviation="14" flood-color="#172554" flood-opacity=".12"/></filter><marker id="ar" viewBox="0 0 10 10" refX="8" refY="5" markerWidth="7" markerHeight="7" orient="auto-start-reverse"><path d="M0 0 10 5 0 10Z" fill="#6d28d9"/></marker></defs><rect width="960" height="360" rx="34" fill="#f8faff"/><circle cx="890" cy="65" r="105" fill="#c084fc" opacity=".06"/><circle cx="65" cy="325" r="120" fill="#22c55e" opacity=".07"/><rect x="610" y="56" width="320" height="255" rx="22" fill="#fff" stroke="#d9deef" filter="url(#sh)"/><g opacity=".9" transform="translate(620 78) scale(.30)"><rect x="145" y="88" width="470" height="370" rx="34" fill="#fff" stroke="#d8deef" filter="url(#sh)"/><rect x="185" y="125" width="390" height="70" rx="16" fill="#eef2ff"/><text x="380" y="172" text-anchor="middle" direction="rtl" font-family="Tahoma,Arial,sans-serif" font-size="25" font-weight="800" fill="#6d28d9">20 + 5 × 3 = 35</text><rect x="188" y="222" width="76" height="36" rx="11" fill="#e9edf7"/><rect x="286" y="222" width="76" height="36" rx="11" fill="#e9edf7"/><rect x="384" y="222" width="76" height="36" rx="11" fill="#e9edf7"/><rect x="482" y="222" width="76" height="36" rx="11" fill="url(#g)"/><rect x="188" y="273" width="76" height="36" rx="11" fill="#e9edf7"/><rect x="286" y="273" width="76" height="36" rx="11" fill="#e9edf7"/><rect x="384" y="273" width="76" height="36" rx="11" fill="#e9edf7"/><rect x="482" y="273" width="76" height="36" rx="11" fill="url(#g)"/><rect x="188" y="324" width="76" height="36" rx="11" fill="#e9edf7"/><rect x="286" y="324" width="76" height="36" rx="11" fill="#e9edf7"/><rect x="384" y="324" width="76" height="36" rx="11" fill="#e9edf7"/><rect x="482" y="324" width="76" height="36" rx="11" fill="url(#g)"/><rect x="188" y="375" width="76" height="36" rx="11" fill="#e9edf7"/><rect x="286" y="375" width="76" height="36" rx="11" fill="#e9edf7"/><rect x="384" y="375" width="76" height="36" rx="11" fill="#e9edf7"/><rect x="482" y="375" width="76" height="36" rx="11" fill="url(#g)"/><text x="527" y="398" text-anchor="middle" direction="rtl" font-family="Tahoma,Arial,sans-serif" font-size="21" font-weight="800" fill="#fff">=</text><text x="380" y="482" text-anchor="middle" direction="rtl" font-family="Tahoma,Arial,sans-serif" font-size="18" font-weight="800" fill="#6d28d9">الأقواس تحدد الأولوية</text></g><text x="770" y="338" text-anchor="middle" direction="rtl" font-family="Tahoma,Arial,sans-serif" font-size="14" font-weight="800" fill="#6d28d9">افحص موضوع الحاسبة نفسه</text><path d="M105 88V310M105 118H500M105 205H500M105 292H500" stroke="#d7ddec" stroke-width="6" stroke-linecap="round"/><circle cx="105" cy="118" r="22" fill="url(#g)"/><rect x="150" y="87" width="370" height="62" rx="22" fill="#fff" stroke="#d9deef" filter="url(#sh)"/><text x="270" y="124" text-anchor="middle" direction="rtl" font-family="Tahoma,Arial,sans-serif" font-size="14" font-weight="800" fill="#6d28d9">نتيجة بعيدة</text><text x="435" y="124" text-anchor="middle" direction="rtl" font-family="Tahoma,Arial,sans-serif" font-size="12" font-weight="700" fill="#596078">المدخل</text><circle cx="105" cy="205" r="22" fill="#6d28d9"/><rect x="150" y="174" width="370" height="62" rx="22" fill="#fff" stroke="#d9deef" filter="url(#sh)"/><text x="270" y="211" text-anchor="middle" direction="rtl" font-family="Tahoma,Arial,sans-serif" font-size="14" font-weight="800" fill="#6d28d9">نتيجتان مختلفتان</text><text x="435" y="211" text-anchor="middle" direction="rtl" font-family="Tahoma,Arial,sans-serif" font-size="12" font-weight="700" fill="#596078">القاعدة</text><circle cx="105" cy="292" r="22" fill="#6d28d9"/><rect x="150" y="261" width="370" height="62" rx="22" fill="#fff" stroke="#d9deef" filter="url(#sh)"/><text x="270" y="298" text-anchor="middle" direction="rtl" font-family="Tahoma,Arial,sans-serif" font-size="14" font-weight="800" fill="#6d28d9">افتراض مجهول</text><text x="435" y="298" text-anchor="middle" direction="rtl" font-family="Tahoma,Arial,sans-serif" font-size="12" font-weight="700" fill="#596078">النطاق</text><text x="300" y="48" text-anchor="middle" direction="rtl" font-family="Tahoma,Arial,sans-serif" font-size="17" font-weight="800" fill="#6d28d9">مسار تشخيص متسلسل</text></svg>