<svg xmlns="http://www.w3.org/2000/svg" width="760" height="520" viewBox="0 0 760 520" role="img" aria-labelledby="t"><title id="t">حاسبة TDEE للسعرات اليومية</title><defs><linearGradient id="g" x1="0" y1="0" x2="1" y2="1"><stop stop-color="#2563eb"/><stop offset="1" stop-color="#06b6d4"/></linearGradient><linearGradient id="s" x1="0" y1="0" x2="1" y2="1"><stop stop-color="#2563eb" stop-opacity=".14"/><stop offset="1" stop-color="#f59e0b" stop-opacity=".06"/></linearGradient><filter id="sh" x="-25%" y="-25%" width="150%" height="150%"><feDropShadow dx="0" dy="12" stdDeviation="14" flood-color="#172554" flood-opacity=".12"/></filter><marker id="ar" viewBox="0 0 10 10" refX="8" refY="5" markerWidth="7" markerHeight="7" orient="auto-start-reverse"><path d="M0 0 10 5 0 10Z" fill="#2563eb"/></marker></defs><rect width="760" height="520" rx="34" fill="#f8faff"/><circle cx="690" cy="65" r="105" fill="#06b6d4" opacity=".06"/><circle cx="65" cy="485" r="120" fill="#f59e0b" opacity=".07"/><text x="380" y="48" text-anchor="middle" direction="rtl" font-family="Tahoma,Arial,sans-serif" font-size="21" font-weight="900" fill="#2563eb">حاسبة صيغة تقنية للسعرات اليومية</text><circle cx="270" cy="260" r="150" fill="#fff" stroke="#dce2f3" stroke-width="24" filter="url(#sh)"/><path d="M270 110a150 150 0 0 1 145 112" fill="none" stroke="url(#g)" stroke-width="24"/><text x="270" y="250" text-anchor="middle" direction="rtl" font-family="Tahoma,Arial,sans-serif" font-size="31" font-weight="800" fill="#2563eb">صيغة تقنية</text><text x="270" y="290" text-anchor="middle" direction="rtl" font-family="Tahoma,Arial,sans-serif" font-size="21" font-weight="800" fill="#20243a">× النشاط</text><circle cx="505" cy="355" r="18" fill="#2563eb" opacity="0.45"/><circle cx="553" cy="290" r="23" fill="#2563eb" opacity="0.6"/><circle cx="601" cy="225" r="28" fill="#2563eb" opacity="0.75"/><circle cx="649" cy="160" r="33" fill="url(#g)" opacity="0.8999999999999999"/><text x="585" y="430" text-anchor="middle" direction="rtl" font-family="Tahoma,Arial,sans-serif" font-size="18" font-weight="800" fill="#2563eb">حركة اليوم ترفع الإنفاق</text></svg>