<svg xmlns="http://www.w3.org/2000/svg" width="960" height="380" viewBox="0 0 960 380" role="img" aria-labelledby="t"><title id="t">حاسبة TDEE للسعرات اليومية</title><defs><linearGradient id="g" x1="0" y1="0" x2="1" y2="1"><stop stop-color="#2563eb"/><stop offset="1" stop-color="#06b6d4"/></linearGradient><linearGradient id="s" x1="0" y1="0" x2="1" y2="1"><stop stop-color="#2563eb" stop-opacity=".14"/><stop offset="1" stop-color="#f59e0b" stop-opacity=".06"/></linearGradient><filter id="sh" x="-25%" y="-25%" width="150%" height="150%"><feDropShadow dx="0" dy="12" stdDeviation="14" flood-color="#172554" flood-opacity=".12"/></filter><marker id="ar" viewBox="0 0 10 10" refX="8" refY="5" markerWidth="7" markerHeight="7" orient="auto-start-reverse"><path d="M0 0 10 5 0 10Z" fill="#2563eb"/></marker></defs><rect width="960" height="380" rx="34" fill="#f8faff"/><circle cx="890" cy="65" r="105" fill="#06b6d4" opacity=".06"/><circle cx="65" cy="345" r="120" fill="#f59e0b" opacity=".07"/><rect x="24" y="55" width="330" height="278" rx="22" fill="#fff" stroke="#d9deef" filter="url(#sh)"/><g opacity=".98" transform="translate(27 72) scale(.39)"><circle cx="270" cy="260" r="150" fill="#fff" stroke="#dce2f3" stroke-width="24" filter="url(#sh)"/><path d="M270 110a150 150 0 0 1 145 112" fill="none" stroke="url(#g)" stroke-width="24"/><text x="270" y="250" text-anchor="middle" direction="rtl" font-family="Tahoma,Arial,sans-serif" font-size="31" font-weight="800" fill="#2563eb">صيغة تقنية</text><text x="270" y="290" text-anchor="middle" direction="rtl" font-family="Tahoma,Arial,sans-serif" font-size="21" font-weight="800" fill="#20243a">× النشاط</text><circle cx="505" cy="355" r="18" fill="#2563eb" opacity="0.45"/><circle cx="553" cy="290" r="23" fill="#2563eb" opacity="0.6"/><circle cx="601" cy="225" r="28" fill="#2563eb" opacity="0.75"/><circle cx="649" cy="160" r="33" fill="url(#g)" opacity="0.8999999999999999"/><text x="585" y="430" text-anchor="middle" direction="rtl" font-family="Tahoma,Arial,sans-serif" font-size="18" font-weight="800" fill="#2563eb">حركة اليوم ترفع الإنفاق</text></g><text x="189" y="356" text-anchor="middle" direction="rtl" font-family="Tahoma,Arial,sans-serif" font-size="15" font-weight="800" fill="#2563eb">نموذج حاسبة صيغة تقنية للسعرات الي…</text><text x="650" y="42" text-anchor="middle" direction="rtl" font-family="Tahoma,Arial,sans-serif" font-size="18" font-weight="800" fill="#2563eb">لوحة السيناريوهات</text><text x="445" y="93" text-anchor="middle" direction="rtl" font-family="Tahoma,Arial,sans-serif" font-size="14" font-weight="700" fill="#41485e">السيناريو الأسا…</text><rect x="565" y="72" width="305" height="31" rx="15" fill="url(#g)" opacity="0.92"/><text x="880" y="94" text-anchor="middle" direction="rtl" font-family="Tahoma,Arial,sans-serif" font-size="12" font-weight="700" fill="#2563eb">قيمة صيغة تقنية</text><text x="445" y="162" text-anchor="middle" direction="rtl" font-family="Tahoma,Arial,sans-serif" font-size="14" font-weight="700" fill="#41485e">افتراض محافظ</text><rect x="565" y="141" width="366" height="31" rx="15" fill="#2563eb" opacity="0.8"/><text x="941" y="163" text-anchor="middle" direction="rtl" font-family="Tahoma,Arial,sans-serif" font-size="12" font-weight="700" fill="#2563eb">معامل النشاط</text><text x="445" y="231" text-anchor="middle" direction="rtl" font-family="Tahoma,Arial,sans-serif" font-size="14" font-weight="700" fill="#41485e">افتراض مرتفع</text><rect x="565" y="210" width="182" height="31" rx="15" fill="#2563eb" opacity="0.68"/><text x="757" y="232" text-anchor="middle" direction="rtl" font-family="Tahoma,Arial,sans-serif" font-size="12" font-weight="700" fill="#2563eb">مدة المراقبة</text><text x="445" y="300" text-anchor="middle" direction="rtl" font-family="Tahoma,Arial,sans-serif" font-size="14" font-weight="700" fill="#41485e">مرجع رسمي</text><rect x="565" y="279" width="243" height="31" rx="15" fill="#f59e0b" opacity="0.56"/><text x="818" y="301" text-anchor="middle" direction="rtl" font-family="Tahoma,Arial,sans-serif" font-size="12" font-weight="700" fill="#2563eb">تغير الروتين</text></svg>