<svg xmlns="http://www.w3.org/2000/svg" width="960" height="360" viewBox="0 0 960 360" role="img" aria-labelledby="t"><title id="t">حاسبة الثلث الأخير من الليل</title><defs><linearGradient id="g" x1="0" y1="0" x2="1" y2="1"><stop stop-color="#6d28d9"/><stop offset="1" stop-color="#c084fc"/></linearGradient><linearGradient id="s" x1="0" y1="0" x2="1" y2="1"><stop stop-color="#6d28d9" stop-opacity=".14"/><stop offset="1" stop-color="#22c55e" stop-opacity=".06"/></linearGradient><filter id="sh" x="-25%" y="-25%" width="150%" height="150%"><feDropShadow dx="0" dy="12" stdDeviation="14" flood-color="#172554" flood-opacity=".12"/></filter><marker id="ar" viewBox="0 0 10 10" refX="8" refY="5" markerWidth="7" markerHeight="7" orient="auto-start-reverse"><path d="M0 0 10 5 0 10Z" fill="#6d28d9"/></marker></defs><rect width="960" height="360" rx="34" fill="#f8faff"/><circle cx="890" cy="65" r="105" fill="#c084fc" opacity=".06"/><circle cx="65" cy="325" r="120" fill="#22c55e" opacity=".07"/><rect x="610" y="56" width="320" height="255" rx="22" fill="#fff" stroke="#d9deef" filter="url(#sh)"/><g opacity=".9" transform="translate(620 78) scale(.30)"><path d="M90 330 Q380 55 670 330" fill="#172554" opacity=".08" stroke="#6d28d9" stroke-width="8"/><circle cx="540" cy="150" r="52" fill="#22c55e"/><path d="M540 98a52 52 0 0 0 0 104 42 52 0 0 1 0-104" fill="#f8faff"/><path d="M105 345h550" stroke="#d7ddec" stroke-width="12" stroke-linecap="round"/><circle cx="105" cy="345" r="18" fill="#fff" stroke="#6d28d9" stroke-width="5"/><circle cx="288" cy="345" r="18" fill="#fff" stroke="#6d28d9" stroke-width="5"/><circle cx="471" cy="345" r="18" fill="#fff" stroke="#6d28d9" stroke-width="5"/><circle cx="654" cy="345" r="18" fill="url(#g)" stroke="#6d28d9" stroke-width="5"/><text x="105" y="395" text-anchor="middle" direction="rtl" font-family="Tahoma,Arial,sans-serif" font-size="17" font-weight="800" fill="#6d28d9">المغرب</text><text x="288" y="395" text-anchor="middle" direction="rtl" font-family="Tahoma,Arial,sans-serif" font-size="17" font-weight="800" fill="#20243a">ثلث أول</text><text x="471" y="395" text-anchor="middle" direction="rtl" font-family="Tahoma,Arial,sans-serif" font-size="17" font-weight="800" fill="#20243a">ثلث ثانٍ</text><text x="654" y="395" text-anchor="middle" direction="rtl" font-family="Tahoma,Arial,sans-serif" font-size="17" font-weight="800" fill="#6d28d9">الفجر</text><text x="560" y="255" text-anchor="middle" direction="rtl" font-family="Tahoma,Arial,sans-serif" font-size="20" font-weight="800" fill="#6d28d9">الثلث الأخير</text></g><text x="770" y="338" text-anchor="middle" direction="rtl" font-family="Tahoma,Arial,sans-serif" font-size="14" font-weight="800" fill="#6d28d9">افحص موضوع الحاسبة نفسه</text><text x="300" y="45" text-anchor="middle" direction="rtl" font-family="Tahoma,Arial,sans-serif" font-size="17" font-weight="800" fill="#6d28d9">مثلث التحقق</text><path d="M300 78 75 320h450Z" fill="#fff" stroke="#6d28d9" stroke-width="7" filter="url(#sh)"/><rect x="210" y="140" width="180" height="48" rx="16" fill="url(#s)"/><text x="300" y="170" text-anchor="middle" direction="rtl" font-family="Tahoma,Arial,sans-serif" font-size="13" font-weight="700" fill="#6d28d9">نتيجة بعيدة</text><rect x="167.5" y="214" width="265" height="48" rx="16" fill="url(#s)"/><text x="300" y="244" text-anchor="middle" direction="rtl" font-family="Tahoma,Arial,sans-serif" font-size="13" font-weight="700" fill="#6d28d9">نتيجتان مختلفتان</text><rect x="125" y="288" width="350" height="48" rx="16" fill="url(#g)"/><text x="300" y="318" text-anchor="middle" direction="rtl" font-family="Tahoma,Arial,sans-serif" font-size="13" font-weight="700" fill="#fff">افتراض مجهول</text></svg>