<svg xmlns="http://www.w3.org/2000/svg" width="960" height="380" viewBox="0 0 960 380" role="img" aria-labelledby="t"><title id="t">حاسبة الثلث الأخير من الليل</title><defs><linearGradient id="g" x1="0" y1="0" x2="1" y2="1"><stop stop-color="#6d28d9"/><stop offset="1" stop-color="#c084fc"/></linearGradient><linearGradient id="s" x1="0" y1="0" x2="1" y2="1"><stop stop-color="#6d28d9" stop-opacity=".14"/><stop offset="1" stop-color="#22c55e" stop-opacity=".06"/></linearGradient><filter id="sh" x="-25%" y="-25%" width="150%" height="150%"><feDropShadow dx="0" dy="12" stdDeviation="14" flood-color="#172554" flood-opacity=".12"/></filter><marker id="ar" viewBox="0 0 10 10" refX="8" refY="5" markerWidth="7" markerHeight="7" orient="auto-start-reverse"><path d="M0 0 10 5 0 10Z" fill="#6d28d9"/></marker></defs><rect width="960" height="380" rx="34" fill="#f8faff"/><circle cx="890" cy="65" r="105" fill="#c084fc" opacity=".06"/><circle cx="65" cy="345" r="120" fill="#22c55e" opacity=".07"/><rect x="24" y="55" width="330" height="278" rx="22" fill="#fff" stroke="#d9deef" filter="url(#sh)"/><g opacity=".98" transform="translate(27 72) scale(.39)"><path d="M90 330 Q380 55 670 330" fill="#172554" opacity=".08" stroke="#6d28d9" stroke-width="8"/><circle cx="540" cy="150" r="52" fill="#22c55e"/><path d="M540 98a52 52 0 0 0 0 104 42 52 0 0 1 0-104" fill="#f8faff"/><path d="M105 345h550" stroke="#d7ddec" stroke-width="12" stroke-linecap="round"/><circle cx="105" cy="345" r="18" fill="#fff" stroke="#6d28d9" stroke-width="5"/><circle cx="288" cy="345" r="18" fill="#fff" stroke="#6d28d9" stroke-width="5"/><circle cx="471" cy="345" r="18" fill="#fff" stroke="#6d28d9" stroke-width="5"/><circle cx="654" cy="345" r="18" fill="url(#g)" stroke="#6d28d9" stroke-width="5"/><text x="105" y="395" text-anchor="middle" direction="rtl" font-family="Tahoma,Arial,sans-serif" font-size="17" font-weight="800" fill="#6d28d9">المغرب</text><text x="288" y="395" text-anchor="middle" direction="rtl" font-family="Tahoma,Arial,sans-serif" font-size="17" font-weight="800" fill="#20243a">ثلث أول</text><text x="471" y="395" text-anchor="middle" direction="rtl" font-family="Tahoma,Arial,sans-serif" font-size="17" font-weight="800" fill="#20243a">ثلث ثانٍ</text><text x="654" y="395" text-anchor="middle" direction="rtl" font-family="Tahoma,Arial,sans-serif" font-size="17" font-weight="800" fill="#6d28d9">الفجر</text><text x="560" y="255" text-anchor="middle" direction="rtl" font-family="Tahoma,Arial,sans-serif" font-size="20" font-weight="800" fill="#6d28d9">الثلث الأخير</text></g><text x="189" y="356" text-anchor="middle" direction="rtl" font-family="Tahoma,Arial,sans-serif" font-size="15" font-weight="800" fill="#6d28d9">نموذج حاسبة الثلث الأخير من …</text><text x="650" y="42" text-anchor="middle" direction="rtl" font-family="Tahoma,Arial,sans-serif" font-size="18" font-weight="800" fill="#6d28d9">مسارات متوازية</text><circle cx="410" cy="92" r="17" fill="url(#g)"/><path d="M430 92H779" stroke="#6d28d9" stroke-width="11" stroke-linecap="round"/><circle cx="779" cy="92" r="13" fill="#fff" stroke="#6d28d9" stroke-width="5"/><text x="510" y="75" text-anchor="middle" direction="rtl" font-family="Tahoma,Arial,sans-serif" font-size="13" font-weight="700" fill="#6d28d9">السيناريو الأسا…</text><text x="820" y="97" text-anchor="middle" direction="rtl" font-family="Tahoma,Arial,sans-serif" font-size="12" font-weight="700" fill="#596078">وقت المغرب</text><circle cx="410" cy="160" r="17" fill="#6d28d9"/><path d="M430 160H832" stroke="#6d28d9" stroke-width="10" stroke-linecap="round"/><circle cx="832" cy="160" r="13" fill="#fff" stroke="#6d28d9" stroke-width="5"/><text x="510" y="143" text-anchor="middle" direction="rtl" font-family="Tahoma,Arial,sans-serif" font-size="13" font-weight="700" fill="#6d28d9">افتراض محافظ</text><text x="820" y="165" text-anchor="middle" direction="rtl" font-family="Tahoma,Arial,sans-serif" font-size="12" font-weight="700" fill="#596078">وقت الفجر</text><circle cx="410" cy="228" r="17" fill="#6d28d9"/><path d="M430 228H655" stroke="#6d28d9" stroke-width="9" stroke-linecap="round"/><circle cx="655" cy="228" r="13" fill="#fff" stroke="#6d28d9" stroke-width="5"/><text x="510" y="211" text-anchor="middle" direction="rtl" font-family="Tahoma,Arial,sans-serif" font-size="13" font-weight="700" fill="#6d28d9">افتراض مرتفع</text><text x="820" y="233" text-anchor="middle" direction="rtl" font-family="Tahoma,Arial,sans-serif" font-size="12" font-weight="700" fill="#596078">عبور منتصف ا…</text><circle cx="410" cy="296" r="17" fill="#6d28d9"/><path d="M430 296H708" stroke="#22c55e" stroke-width="8" stroke-linecap="round"/><circle cx="708" cy="296" r="13" fill="#fff" stroke="#6d28d9" stroke-width="5"/><text x="510" y="279" text-anchor="middle" direction="rtl" font-family="Tahoma,Arial,sans-serif" font-size="13" font-weight="700" fill="#6d28d9">مرجع رسمي</text><text x="820" y="301" text-anchor="middle" direction="rtl" font-family="Tahoma,Arial,sans-serif" font-size="12" font-weight="700" fill="#596078">الموقع</text></svg>