<svg xmlns="http://www.w3.org/2000/svg" width="960" height="360" viewBox="0 0 960 360" role="img" aria-labelledby="t"><title id="t">محول المناطق الزمنية</title><defs><linearGradient id="g" x1="0" y1="0" x2="1" y2="1"><stop stop-color="#1d4ed8"/><stop offset="1" stop-color="#60a5fa"/></linearGradient><linearGradient id="s" x1="0" y1="0" x2="1" y2="1"><stop stop-color="#1d4ed8" stop-opacity=".14"/><stop offset="1" stop-color="#f97316" stop-opacity=".06"/></linearGradient><filter id="sh" x="-25%" y="-25%" width="150%" height="150%"><feDropShadow dx="0" dy="12" stdDeviation="14" flood-color="#172554" flood-opacity=".12"/></filter><marker id="ar" viewBox="0 0 10 10" refX="8" refY="5" markerWidth="7" markerHeight="7" orient="auto-start-reverse"><path d="M0 0 10 5 0 10Z" fill="#1d4ed8"/></marker></defs><rect width="960" height="360" rx="34" fill="#f8faff"/><circle cx="890" cy="65" r="105" fill="#60a5fa" opacity=".06"/><circle cx="65" cy="325" r="120" fill="#f97316" opacity=".07"/><rect x="610" y="56" width="320" height="255" rx="22" fill="#fff" stroke="#d9deef" filter="url(#sh)"/><g opacity=".9" transform="translate(620 78) scale(.30)"><circle cx="180" cy="240" r="78" fill="#fff" stroke="#1d4ed8" stroke-width="7" filter="url(#sh)"/><circle cx="180" cy="240" r="7" fill="#1d4ed8"/><path d="M180 240 l45 -45" stroke="#1d4ed8" stroke-width="8" stroke-linecap="round"/><text x="180" y="352" text-anchor="middle" direction="rtl" font-family="Tahoma,Arial,sans-serif" font-size="17" font-weight="800" fill="#20243a">طرابلس</text><circle cx="580" cy="240" r="78" fill="#fff" stroke="#1d4ed8" stroke-width="7" filter="url(#sh)"/><circle cx="580" cy="240" r="7" fill="#1d4ed8"/><path d="M580 240 l-38 -30" stroke="#1d4ed8" stroke-width="8" stroke-linecap="round"/><text x="580" y="352" text-anchor="middle" direction="rtl" font-family="Tahoma,Arial,sans-serif" font-size="17" font-weight="800" fill="#20243a">نيويورك</text><path d="M280 240 L475 240" fill="none" stroke="#1d4ed8" stroke-width="5" stroke-linecap="round" marker-end="url(#ar)"/><text x="380" y="390" text-anchor="middle" direction="rtl" font-family="Tahoma,Arial,sans-serif" font-size="19" font-weight="800" fill="#1d4ed8">لحظة واحدة — عرضان محليان</text></g><text x="770" y="338" text-anchor="middle" direction="rtl" font-family="Tahoma,Arial,sans-serif" font-size="14" font-weight="800" fill="#1d4ed8">افحص موضوع الحاسبة نفسه</text><text x="300" y="45" text-anchor="middle" direction="rtl" font-family="Tahoma,Arial,sans-serif" font-size="17" font-weight="800" fill="#1d4ed8">دوائر سبب ونتيجة</text><circle cx="300" cy="205" r="62" fill="url(#g)" filter="url(#sh)"/><text x="300" y="199" text-anchor="middle" direction="rtl" font-family="Tahoma,Arial,sans-serif" font-size="17" font-weight="800" fill="#fff">اختلاف</text><text x="300" y="226" text-anchor="middle" direction="rtl" font-family="Tahoma,Arial,sans-serif" font-size="14" font-weight="800" fill="#fff">النتيجة</text><path d="M300 205L139.78530029987883 142.5" stroke="#d6dceb" stroke-width="6"/><circle cx="139.78530029987883" cy="142.5" r="54" fill="#fff" stroke="#1d4ed8" stroke-width="6"/><text x="139.78530029987883" y="147.5" text-anchor="middle" direction="rtl" font-family="Tahoma,Arial,sans-serif" font-size="12" font-weight="700" fill="#1d4ed8">نتيجة بعيدة</text><path d="M300 205L485 205" stroke="#d6dceb" stroke-width="6"/><circle cx="485" cy="205" r="54" fill="#fff" stroke="#1d4ed8" stroke-width="6"/><text x="485" y="210" text-anchor="middle" direction="rtl" font-family="Tahoma,Arial,sans-serif" font-size="12" font-weight="700" fill="#1d4ed8">نتيجتان مختل…</text><path d="M300 205L139.78530029987883 267.5" stroke="#d6dceb" stroke-width="6"/><circle cx="139.78530029987883" cy="267.5" r="54" fill="#fff" stroke="#f97316" stroke-width="6"/><text x="139.78530029987883" y="272.5" text-anchor="middle" direction="rtl" font-family="Tahoma,Arial,sans-serif" font-size="12" font-weight="700" fill="#1d4ed8">افتراض مجهول</text></svg>