<svg xmlns="http://www.w3.org/2000/svg" width="760" height="520" viewBox="0 0 760 520" role="img" aria-labelledby="t"><title id="t">محول المناطق الزمنية</title><defs><linearGradient id="g" x1="0" y1="0" x2="1" y2="1"><stop stop-color="#1d4ed8"/><stop offset="1" stop-color="#60a5fa"/></linearGradient><linearGradient id="s" x1="0" y1="0" x2="1" y2="1"><stop stop-color="#1d4ed8" stop-opacity=".14"/><stop offset="1" stop-color="#f97316" stop-opacity=".06"/></linearGradient><filter id="sh" x="-25%" y="-25%" width="150%" height="150%"><feDropShadow dx="0" dy="12" stdDeviation="14" flood-color="#172554" flood-opacity=".12"/></filter><marker id="ar" viewBox="0 0 10 10" refX="8" refY="5" markerWidth="7" markerHeight="7" orient="auto-start-reverse"><path d="M0 0 10 5 0 10Z" fill="#1d4ed8"/></marker></defs><rect width="760" height="520" rx="34" fill="#f8faff"/><circle cx="690" cy="65" r="105" fill="#60a5fa" opacity=".06"/><circle cx="65" cy="485" r="120" fill="#f97316" opacity=".07"/><text x="380" y="48" text-anchor="middle" direction="rtl" font-family="Tahoma,Arial,sans-serif" font-size="21" font-weight="900" fill="#1d4ed8">محول المناطق الزمنية</text><circle cx="180" cy="240" r="78" fill="#fff" stroke="#1d4ed8" stroke-width="7" filter="url(#sh)"/><circle cx="180" cy="240" r="7" fill="#1d4ed8"/><path d="M180 240 l45 -45" stroke="#1d4ed8" stroke-width="8" stroke-linecap="round"/><text x="180" y="352" text-anchor="middle" direction="rtl" font-family="Tahoma,Arial,sans-serif" font-size="17" font-weight="800" fill="#20243a">طرابلس</text><circle cx="580" cy="240" r="78" fill="#fff" stroke="#1d4ed8" stroke-width="7" filter="url(#sh)"/><circle cx="580" cy="240" r="7" fill="#1d4ed8"/><path d="M580 240 l-38 -30" stroke="#1d4ed8" stroke-width="8" stroke-linecap="round"/><text x="580" y="352" text-anchor="middle" direction="rtl" font-family="Tahoma,Arial,sans-serif" font-size="17" font-weight="800" fill="#20243a">نيويورك</text><path d="M280 240 L475 240" fill="none" stroke="#1d4ed8" stroke-width="5" stroke-linecap="round" marker-end="url(#ar)"/><text x="380" y="390" text-anchor="middle" direction="rtl" font-family="Tahoma,Arial,sans-serif" font-size="19" font-weight="800" fill="#1d4ed8">لحظة واحدة — عرضان محليان</text></svg>