<svg xmlns="http://www.w3.org/2000/svg" width="960" height="360" viewBox="0 0 960 360" role="img" aria-labelledby="t"><title id="t">حاسبة ضريبة VAT</title><defs><linearGradient id="g" x1="0" y1="0" x2="1" y2="1"><stop stop-color="#2563eb"/><stop offset="1" stop-color="#06b6d4"/></linearGradient><linearGradient id="s" x1="0" y1="0" x2="1" y2="1"><stop stop-color="#2563eb" stop-opacity=".14"/><stop offset="1" stop-color="#f59e0b" stop-opacity=".06"/></linearGradient><filter id="sh" x="-25%" y="-25%" width="150%" height="150%"><feDropShadow dx="0" dy="12" stdDeviation="14" flood-color="#172554" flood-opacity=".12"/></filter><marker id="ar" viewBox="0 0 10 10" refX="8" refY="5" markerWidth="7" markerHeight="7" orient="auto-start-reverse"><path d="M0 0 10 5 0 10Z" fill="#2563eb"/></marker></defs><rect width="960" height="360" rx="34" fill="#f8faff"/><circle cx="890" cy="65" r="105" fill="#06b6d4" opacity=".06"/><circle cx="65" cy="325" r="120" fill="#f59e0b" opacity=".07"/><rect x="610" y="56" width="320" height="255" rx="22" fill="#fff" stroke="#d9deef" filter="url(#sh)"/><g opacity=".9" transform="translate(620 78) scale(.30)"><rect x="155" y="95" width="450" height="350" rx="22" fill="#fff" stroke="#d9deef" filter="url(#sh)"/><path d="M205 170h350M205 225h250M205 280h350" stroke="#d8deed" stroke-width="13" stroke-linecap="round"/><text x="245" y="342" text-anchor="middle" direction="rtl" font-family="Tahoma,Arial,sans-serif" font-size="19" font-weight="800" fill="#20243a">السعر</text><text x="380" y="342" text-anchor="middle" direction="rtl" font-family="Tahoma,Arial,sans-serif" font-size="19" font-weight="800" fill="#2563eb">الضريبة</text><text x="520" y="342" text-anchor="middle" direction="rtl" font-family="Tahoma,Arial,sans-serif" font-size="19" font-weight="800" fill="#20243a">الإجمالي</text><path d="M250 375 L350 375" fill="none" stroke="#2563eb" stroke-width="5" stroke-linecap="round" marker-end="url(#ar)"/><path d="M415 375 L505 375" fill="none" stroke="#2563eb" stroke-width="5" stroke-linecap="round" marker-end="url(#ar)"/><text x="380" y="440" text-anchor="middle" direction="rtl" font-family="Tahoma,Arial,sans-serif" font-size="20" font-weight="800" fill="#2563eb">استخراج أو إضافة صيغة تقنية</text></g><text x="770" y="338" text-anchor="middle" direction="rtl" font-family="Tahoma,Arial,sans-serif" font-size="14" font-weight="800" fill="#2563eb">افحص موضوع الحاسبة نفسه</text><text x="300" y="45" text-anchor="middle" direction="rtl" font-family="Tahoma,Arial,sans-serif" font-size="17" font-weight="800" fill="#2563eb">مثلث التحقق</text><path d="M300 78 75 320h450Z" fill="#fff" stroke="#2563eb" stroke-width="7" filter="url(#sh)"/><rect x="210" y="140" width="180" height="48" rx="16" fill="url(#s)"/><text x="300" y="170" text-anchor="middle" direction="rtl" font-family="Tahoma,Arial,sans-serif" font-size="13" font-weight="700" fill="#2563eb">نتيجة بعيدة</text><rect x="167.5" y="214" width="265" height="48" rx="16" fill="url(#s)"/><text x="300" y="244" text-anchor="middle" direction="rtl" font-family="Tahoma,Arial,sans-serif" font-size="13" font-weight="700" fill="#2563eb">نتيجتان مختلفتان</text><rect x="125" y="288" width="350" height="48" rx="16" fill="url(#g)"/><text x="300" y="318" text-anchor="middle" direction="rtl" font-family="Tahoma,Arial,sans-serif" font-size="13" font-weight="700" fill="#fff">افتراض مجهول</text></svg>