<svg xmlns="http://www.w3.org/2000/svg" width="760" height="520" viewBox="0 0 760 520" role="img" aria-labelledby="t"><title id="t">حاسبة احتياج الماء</title><defs><linearGradient id="g" x1="0" y1="0" x2="1" y2="1"><stop stop-color="#be123c"/><stop offset="1" stop-color="#fb7185"/></linearGradient><linearGradient id="s" x1="0" y1="0" x2="1" y2="1"><stop stop-color="#be123c" stop-opacity=".14"/><stop offset="1" stop-color="#6366f1" stop-opacity=".06"/></linearGradient><filter id="sh" x="-25%" y="-25%" width="150%" height="150%"><feDropShadow dx="0" dy="12" stdDeviation="14" flood-color="#172554" flood-opacity=".12"/></filter><marker id="ar" viewBox="0 0 10 10" refX="8" refY="5" markerWidth="7" markerHeight="7" orient="auto-start-reverse"><path d="M0 0 10 5 0 10Z" fill="#be123c"/></marker></defs><rect width="760" height="520" rx="34" fill="#f8faff"/><circle cx="690" cy="65" r="105" fill="#fb7185" opacity=".06"/><circle cx="65" cy="485" r="120" fill="#6366f1" opacity=".07"/><text x="380" y="48" text-anchor="middle" direction="rtl" font-family="Tahoma,Arial,sans-serif" font-size="21" font-weight="900" fill="#be123c">حاسبة احتياج الماء</text><path d="M130 145h240l-30 270H160Z" fill="#fff" stroke="#be123c" stroke-width="8" filter="url(#sh)"/><path d="M155 300h190l-13 105H168Z" fill="url(#g)" opacity=".82"/><circle cx="200" cy="255" r="9" fill="#fb7185" opacity=".7"/><circle cx="235" cy="237" r="11" fill="#fb7185" opacity=".7"/><circle cx="270" cy="219" r="13" fill="#fb7185" opacity=".7"/><circle cx="305" cy="201" r="15" fill="#fb7185" opacity=".7"/><path d="M400 270 L490 270" fill="none" stroke="#be123c" stroke-width="5" stroke-linecap="round" marker-end="url(#ar)"/><rect x="510" y="120" width="170" height="300" rx="22" fill="#fff" stroke="#d9deef" filter="url(#sh)"/><text x="595" y="180" text-anchor="middle" direction="rtl" font-family="Tahoma,Arial,sans-serif" font-size="18" font-weight="800" fill="#20243a">طعام</text><text x="595" y="240" text-anchor="middle" direction="rtl" font-family="Tahoma,Arial,sans-serif" font-size="18" font-weight="800" fill="#20243a">مشروبات</text><text x="595" y="300" text-anchor="middle" direction="rtl" font-family="Tahoma,Arial,sans-serif" font-size="18" font-weight="800" fill="#20243a">نشاط</text><text x="595" y="360" text-anchor="middle" direction="rtl" font-family="Tahoma,Arial,sans-serif" font-size="18" font-weight="800" fill="#be123c">طقس</text></svg>