<svg xmlns="http://www.w3.org/2000/svg" width="960" height="380" viewBox="0 0 960 380" role="img" aria-labelledby="t"><title id="t">حاسبة نسبة الخصر إلى الورك WHR</title><defs><linearGradient id="g" x1="0" y1="0" x2="1" y2="1"><stop stop-color="#b45309"/><stop offset="1" stop-color="#f59e0b"/></linearGradient><linearGradient id="s" x1="0" y1="0" x2="1" y2="1"><stop stop-color="#b45309" stop-opacity=".14"/><stop offset="1" stop-color="#2563eb" stop-opacity=".06"/></linearGradient><filter id="sh" x="-25%" y="-25%" width="150%" height="150%"><feDropShadow dx="0" dy="12" stdDeviation="14" flood-color="#172554" flood-opacity=".12"/></filter><marker id="ar" viewBox="0 0 10 10" refX="8" refY="5" markerWidth="7" markerHeight="7" orient="auto-start-reverse"><path d="M0 0 10 5 0 10Z" fill="#b45309"/></marker></defs><rect width="960" height="380" rx="34" fill="#f8faff"/><circle cx="890" cy="65" r="105" fill="#f59e0b" opacity=".06"/><circle cx="65" cy="345" r="120" fill="#2563eb" opacity=".07"/><rect x="24" y="55" width="330" height="278" rx="22" fill="#fff" stroke="#d9deef" filter="url(#sh)"/><g opacity=".98" transform="translate(27 72) scale(.39)"><path d="M235 115c55 0 55 75 0 75s-55-75 0-75m-75 300 30-190h90l30 190m-120-105-65 70m155-70 65 70" fill="none" stroke="#b45309" stroke-width="15" stroke-linecap="round"/><path d="M175 270h120M150 350h170" stroke="#2563eb" stroke-width="11" stroke-dasharray="12 8"/><text x="355" y="277" text-anchor="middle" direction="rtl" font-family="Tahoma,Arial,sans-serif" font-size="17" font-weight="800" fill="#b45309">الخصر</text><text x="380" y="357" text-anchor="middle" direction="rtl" font-family="Tahoma,Arial,sans-serif" font-size="17" font-weight="800" fill="#b45309">الورك</text><path d="M420 310 L500 310" fill="none" stroke="#b45309" stroke-width="5" stroke-linecap="round" marker-end="url(#ar)"/><circle cx="600" cy="310" r="72" fill="url(#g)" filter="url(#sh)"/><text x="600" y="318" text-anchor="middle" direction="rtl" font-family="Tahoma,Arial,sans-serif" font-size="30.24" font-weight="900" fill="#fff">خصر ÷ ورك</text></g><text x="189" y="356" text-anchor="middle" direction="rtl" font-family="Tahoma,Arial,sans-serif" font-size="15" font-weight="800" fill="#b45309">نموذج حاسبة نسبة الخصر إلى ا…</text><text x="650" y="42" text-anchor="middle" direction="rtl" font-family="Tahoma,Arial,sans-serif" font-size="18" font-weight="800" fill="#b45309">عدسة الحساسية</text><circle cx="650" cy="202" r="115" fill="#fff" stroke="#dce2f3" stroke-width="22"/><path d="M650 87a115 115 0 0 1 110 82" fill="none" stroke="url(#g)" stroke-width="22"/><circle cx="549.5908370715102" cy="101.59083707151025" r="23" fill="url(#g)"/><text x="549.5908370715102" y="70.59083707151025" text-anchor="middle" direction="rtl" font-family="Tahoma,Arial,sans-serif" font-size="13" font-weight="700" fill="#b45309">السيناريو الأ…</text><circle cx="750.4091629284898" cy="101.59083707151026" r="17" fill="#b45309"/><text x="750.4091629284898" y="70.59083707151026" text-anchor="middle" direction="rtl" font-family="Tahoma,Arial,sans-serif" font-size="13" font-weight="700" fill="#b45309">افتراض محافظ</text><circle cx="750.4091629284898" cy="302.40916292848976" r="17" fill="#b45309"/><text x="750.4091629284898" y="345.40916292848976" text-anchor="middle" direction="rtl" font-family="Tahoma,Arial,sans-serif" font-size="13" font-weight="700" fill="#b45309">افتراض مرتفع</text><circle cx="549.5908370715102" cy="302.40916292848976" r="17" fill="#b45309"/><text x="549.5908370715102" y="345.40916292848976" text-anchor="middle" direction="rtl" font-family="Tahoma,Arial,sans-serif" font-size="13" font-weight="700" fill="#b45309">مرجع رسمي</text><text x="650" y="198" text-anchor="middle" direction="rtl" font-family="Tahoma,Arial,sans-serif" font-size="16" font-weight="800" fill="#b45309">موضع الخصر</text><text x="650" y="225" text-anchor="middle" direction="rtl" font-family="Tahoma,Arial,sans-serif" font-size="13" font-weight="700" fill="#596078">غيّر عاملًا واحدًا</text></svg>