<svg xmlns="http://www.w3.org/2000/svg" width="960" height="360" viewBox="0 0 960 360" role="img" aria-labelledby="t"><title id="t">حاسبة نسبة الخصر إلى الورك WHR</title><defs><linearGradient id="g" x1="0" y1="0" x2="1" y2="1"><stop stop-color="#b45309"/><stop offset="1" stop-color="#f59e0b"/></linearGradient><linearGradient id="s" x1="0" y1="0" x2="1" y2="1"><stop stop-color="#b45309" stop-opacity=".14"/><stop offset="1" stop-color="#2563eb" stop-opacity=".06"/></linearGradient><filter id="sh" x="-25%" y="-25%" width="150%" height="150%"><feDropShadow dx="0" dy="12" stdDeviation="14" flood-color="#172554" flood-opacity=".12"/></filter><marker id="ar" viewBox="0 0 10 10" refX="8" refY="5" markerWidth="7" markerHeight="7" orient="auto-start-reverse"><path d="M0 0 10 5 0 10Z" fill="#b45309"/></marker></defs><rect width="960" height="360" rx="34" fill="#f8faff"/><circle cx="890" cy="65" r="105" fill="#f59e0b" opacity=".06"/><circle cx="65" cy="325" r="120" fill="#2563eb" opacity=".07"/><rect x="610" y="56" width="320" height="255" rx="22" fill="#fff" stroke="#d9deef" filter="url(#sh)"/><g opacity=".9" transform="translate(620 78) scale(.30)"><path d="M235 115c55 0 55 75 0 75s-55-75 0-75m-75 300 30-190h90l30 190m-120-105-65 70m155-70 65 70" fill="none" stroke="#b45309" stroke-width="15" stroke-linecap="round"/><path d="M175 270h120M150 350h170" stroke="#2563eb" stroke-width="11" stroke-dasharray="12 8"/><text x="355" y="277" text-anchor="middle" direction="rtl" font-family="Tahoma,Arial,sans-serif" font-size="17" font-weight="800" fill="#b45309">الخصر</text><text x="380" y="357" text-anchor="middle" direction="rtl" font-family="Tahoma,Arial,sans-serif" font-size="17" font-weight="800" fill="#b45309">الورك</text><path d="M420 310 L500 310" fill="none" stroke="#b45309" stroke-width="5" stroke-linecap="round" marker-end="url(#ar)"/><circle cx="600" cy="310" r="72" fill="url(#g)" filter="url(#sh)"/><text x="600" y="318" text-anchor="middle" direction="rtl" font-family="Tahoma,Arial,sans-serif" font-size="30.24" font-weight="900" fill="#fff">خصر ÷ ورك</text></g><text x="770" y="338" text-anchor="middle" direction="rtl" font-family="Tahoma,Arial,sans-serif" font-size="14" font-weight="800" fill="#b45309">افحص موضوع الحاسبة نفسه</text><text x="300" y="45" text-anchor="middle" direction="rtl" font-family="Tahoma,Arial,sans-serif" font-size="17" font-weight="800" fill="#b45309">مثلث التحقق</text><path d="M300 78 75 320h450Z" fill="#fff" stroke="#b45309" stroke-width="7" filter="url(#sh)"/><rect x="210" y="140" width="180" height="48" rx="16" fill="url(#s)"/><text x="300" y="170" text-anchor="middle" direction="rtl" font-family="Tahoma,Arial,sans-serif" font-size="13" font-weight="700" fill="#b45309">نتيجة بعيدة</text><rect x="167.5" y="214" width="265" height="48" rx="16" fill="url(#s)"/><text x="300" y="244" text-anchor="middle" direction="rtl" font-family="Tahoma,Arial,sans-serif" font-size="13" font-weight="700" fill="#b45309">نتيجتان مختلفتان</text><rect x="125" y="288" width="350" height="48" rx="16" fill="url(#g)"/><text x="300" y="318" text-anchor="middle" direction="rtl" font-family="Tahoma,Arial,sans-serif" font-size="13" font-weight="700" fill="#fff">افتراض مجهول</text><rect x="610" y="315" width="320" height="38" rx="22" fill="#fff7ed" stroke="#d9deef" filter="url(#sh)"/><text x="770" y="340" text-anchor="middle" direction="rtl" font-family="Tahoma,Arial,sans-serif" font-size="12" font-weight="800" fill="#9a3412">التفسير الفردي لمختص صحي</text></svg>