<svg xmlns="http://www.w3.org/2000/svg" width="960" height="360" viewBox="0 0 960 360" role="img" aria-labelledby="t"><title id="t">حاسبة نسبة الخصر إلى الطول WHtR</title><defs><linearGradient id="g" x1="0" y1="0" x2="1" y2="1"><stop stop-color="#334155"/><stop offset="1" stop-color="#64748b"/></linearGradient><linearGradient id="s" x1="0" y1="0" x2="1" y2="1"><stop stop-color="#334155" stop-opacity=".14"/><stop offset="1" stop-color="#22c55e" stop-opacity=".06"/></linearGradient><filter id="sh" x="-25%" y="-25%" width="150%" height="150%"><feDropShadow dx="0" dy="12" stdDeviation="14" flood-color="#172554" flood-opacity=".12"/></filter><marker id="ar" viewBox="0 0 10 10" refX="8" refY="5" markerWidth="7" markerHeight="7" orient="auto-start-reverse"><path d="M0 0 10 5 0 10Z" fill="#334155"/></marker></defs><rect width="960" height="360" rx="34" fill="#f8faff"/><circle cx="890" cy="65" r="105" fill="#64748b" opacity=".06"/><circle cx="65" cy="325" r="120" fill="#22c55e" opacity=".07"/><rect x="610" y="56" width="320" height="255" rx="22" fill="#fff" stroke="#d9deef" filter="url(#sh)"/><g opacity=".9" transform="translate(620 78) scale(.30)"><path d="M220 115c55 0 55 75 0 75s-55-75 0-75m-70 300 28-190h84l28 190m-110-105-65 70m149-70 65 70" fill="none" stroke="#334155" stroke-width="15" stroke-linecap="round"/><path d="M160 275h120" stroke="#22c55e" stroke-width="11" stroke-dasharray="12 8"/><path d="M350 125v290" stroke="#64748b" stroke-width="8"/><path d="m330 150 20-25 20 25m-40 240 20 25 20-25" fill="none" stroke="#64748b" stroke-width="7"/><path d="M405 275 L500 275" fill="none" stroke="#334155" stroke-width="5" stroke-linecap="round" marker-end="url(#ar)"/><circle cx="595" cy="275" r="76" fill="url(#g)" filter="url(#sh)"/><text x="595" y="283" text-anchor="middle" direction="rtl" font-family="Tahoma,Arial,sans-serif" font-size="31.919999999999998" font-weight="900" fill="#fff">خصر ÷ طول</text></g><text x="770" y="338" text-anchor="middle" direction="rtl" font-family="Tahoma,Arial,sans-serif" font-size="14" font-weight="800" fill="#334155">افحص موضوع الحاسبة نفسه</text><text x="300" y="45" text-anchor="middle" direction="rtl" font-family="Tahoma,Arial,sans-serif" font-size="17" font-weight="800" fill="#334155">بوابات التصحيح</text><rect x="55" y="105" width="145" height="150" rx="22" fill="#fff" stroke="#d9deef" filter="url(#sh)"/><text x="127" y="145" text-anchor="middle" direction="rtl" font-family="Tahoma,Arial,sans-serif" font-size="22" font-weight="800" fill="#334155">01</text><text x="127" y="184" text-anchor="middle" direction="rtl" font-family="Tahoma,Arial,sans-serif" font-size="13" font-weight="800" fill="#334155">نتيجة بعيدة</text><text x="127" y="226" text-anchor="middle" direction="rtl" font-family="Tahoma,Arial,sans-serif" font-size="13" font-weight="700" fill="#596078">قياس</text><path d="M205 180 L225 180" fill="none" stroke="#334155" stroke-width="5" stroke-linecap="round" marker-end="url(#ar)"/><rect x="230" y="105" width="145" height="150" rx="22" fill="#fff" stroke="#d9deef" filter="url(#sh)"/><text x="302" y="145" text-anchor="middle" direction="rtl" font-family="Tahoma,Arial,sans-serif" font-size="22" font-weight="800" fill="#334155">02</text><text x="302" y="184" text-anchor="middle" direction="rtl" font-family="Tahoma,Arial,sans-serif" font-size="13" font-weight="800" fill="#334155">نتيجتان مختلفت…</text><text x="302" y="226" text-anchor="middle" direction="rtl" font-family="Tahoma,Arial,sans-serif" font-size="13" font-weight="700" fill="#596078">صيغة</text><path d="M380 180 L400 180" fill="none" stroke="#334155" stroke-width="5" stroke-linecap="round" marker-end="url(#ar)"/><rect x="405" y="105" width="145" height="150" rx="22" fill="#fff" stroke="#d9deef" filter="url(#sh)"/><text x="477" y="145" text-anchor="middle" direction="rtl" font-family="Tahoma,Arial,sans-serif" font-size="22" font-weight="800" fill="#334155">03</text><text x="477" y="184" text-anchor="middle" direction="rtl" font-family="Tahoma,Arial,sans-serif" font-size="13" font-weight="800" fill="#334155">افتراض مجهول</text><text x="477" y="226" text-anchor="middle" direction="rtl" font-family="Tahoma,Arial,sans-serif" font-size="13" font-weight="700" fill="#596078">سياق</text><rect x="185" y="285" width="225" height="58" rx="22" fill="#fff" stroke="#d9deef" filter="url(#sh)"/><text x="297" y="320" text-anchor="middle" direction="rtl" font-family="Tahoma,Arial,sans-serif" font-size="14" font-weight="800" fill="#334155">أعد الحساب بعينة صغيرة</text><rect x="610" y="315" width="320" height="38" rx="22" fill="#fff7ed" stroke="#d9deef" filter="url(#sh)"/><text x="770" y="340" text-anchor="middle" direction="rtl" font-family="Tahoma,Arial,sans-serif" font-size="12" font-weight="800" fill="#9a3412">التفسير الفردي لمختص صحي</text></svg>