<svg xmlns="http://www.w3.org/2000/svg" width="960" height="380" viewBox="0 0 960 380" role="img" aria-labelledby="t"><title id="t">حاسبة نسبة الخصر إلى الطول WHtR</title><defs><linearGradient id="g" x1="0" y1="0" x2="1" y2="1"><stop stop-color="#334155"/><stop offset="1" stop-color="#64748b"/></linearGradient><linearGradient id="s" x1="0" y1="0" x2="1" y2="1"><stop stop-color="#334155" stop-opacity=".14"/><stop offset="1" stop-color="#22c55e" stop-opacity=".06"/></linearGradient><filter id="sh" x="-25%" y="-25%" width="150%" height="150%"><feDropShadow dx="0" dy="12" stdDeviation="14" flood-color="#172554" flood-opacity=".12"/></filter><marker id="ar" viewBox="0 0 10 10" refX="8" refY="5" markerWidth="7" markerHeight="7" orient="auto-start-reverse"><path d="M0 0 10 5 0 10Z" fill="#334155"/></marker></defs><rect width="960" height="380" rx="34" fill="#f8faff"/><circle cx="890" cy="65" r="105" fill="#64748b" opacity=".06"/><circle cx="65" cy="345" r="120" fill="#22c55e" opacity=".07"/><rect x="24" y="55" width="330" height="278" rx="22" fill="#fff" stroke="#d9deef" filter="url(#sh)"/><g opacity=".98" transform="translate(27 72) scale(.39)"><path d="M220 115c55 0 55 75 0 75s-55-75 0-75m-70 300 28-190h84l28 190m-110-105-65 70m149-70 65 70" fill="none" stroke="#334155" stroke-width="15" stroke-linecap="round"/><path d="M160 275h120" stroke="#22c55e" stroke-width="11" stroke-dasharray="12 8"/><path d="M350 125v290" stroke="#64748b" stroke-width="8"/><path d="m330 150 20-25 20 25m-40 240 20 25 20-25" fill="none" stroke="#64748b" stroke-width="7"/><path d="M405 275 L500 275" fill="none" stroke="#334155" stroke-width="5" stroke-linecap="round" marker-end="url(#ar)"/><circle cx="595" cy="275" r="76" fill="url(#g)" filter="url(#sh)"/><text x="595" y="283" text-anchor="middle" direction="rtl" font-family="Tahoma,Arial,sans-serif" font-size="31.919999999999998" font-weight="900" fill="#fff">خصر ÷ طول</text></g><text x="189" y="356" text-anchor="middle" direction="rtl" font-family="Tahoma,Arial,sans-serif" font-size="15" font-weight="800" fill="#334155">نموذج حاسبة نسبة الخصر إلى ا…</text><text x="650" y="42" text-anchor="middle" direction="rtl" font-family="Tahoma,Arial,sans-serif" font-size="18" font-weight="800" fill="#334155">ميزان القرار</text><path d="M650 105v205M475 145h350" stroke="#334155" stroke-width="10"/><path d="M475 145 405 285h140Z" fill="#fff" stroke="#64748b" stroke-width="5"/><path d="M825 145 755 285h140Z" fill="#fff" stroke="#64748b" stroke-width="5"/><text x="475" y="255" text-anchor="middle" direction="rtl" font-family="Tahoma,Arial,sans-serif" font-size="14" font-weight="800" fill="#334155">افتراض محافظ</text><text x="825" y="255" text-anchor="middle" direction="rtl" font-family="Tahoma,Arial,sans-serif" font-size="14" font-weight="800" fill="#334155">افتراض مرتفع</text><rect x="560" y="305" width="180" height="54" rx="22" fill="#fff" stroke="#d9deef" filter="url(#sh)"/><text x="650" y="338" text-anchor="middle" direction="rtl" font-family="Tahoma,Arial,sans-serif" font-size="14" font-weight="800" fill="#334155">وحدة القياس</text></svg>