<svg xmlns="http://www.w3.org/2000/svg" width="760" height="520" viewBox="0 0 760 520" role="img" aria-labelledby="t"><title id="t">حاسبة أيام العمل</title><defs><linearGradient id="g" x1="0" y1="0" x2="1" y2="1"><stop stop-color="#be123c"/><stop offset="1" stop-color="#fb7185"/></linearGradient><linearGradient id="s" x1="0" y1="0" x2="1" y2="1"><stop stop-color="#be123c" stop-opacity=".14"/><stop offset="1" stop-color="#6366f1" stop-opacity=".06"/></linearGradient><filter id="sh" x="-25%" y="-25%" width="150%" height="150%"><feDropShadow dx="0" dy="12" stdDeviation="14" flood-color="#172554" flood-opacity=".12"/></filter><marker id="ar" viewBox="0 0 10 10" refX="8" refY="5" markerWidth="7" markerHeight="7" orient="auto-start-reverse"><path d="M0 0 10 5 0 10Z" fill="#be123c"/></marker></defs><rect width="760" height="520" rx="34" fill="#f8faff"/><circle cx="690" cy="65" r="105" fill="#fb7185" opacity=".06"/><circle cx="65" cy="485" r="120" fill="#6366f1" opacity=".07"/><text x="380" y="48" text-anchor="middle" direction="rtl" font-family="Tahoma,Arial,sans-serif" font-size="21" font-weight="900" fill="#be123c">حاسبة أيام العمل</text><rect x="70" y="120" width="180" height="190" rx="22" fill="#fff" stroke="#d9deef" filter="url(#sh)"/><rect x="70" y="120" width="180" height="48" rx="22" fill="url(#g)"/><text x="160" y="153" text-anchor="middle" direction="rtl" font-family="Tahoma,Arial,sans-serif" font-size="16" font-weight="800" fill="#fff">تقويم العمل</text><text x="160" y="240" text-anchor="middle" direction="rtl" font-family="Tahoma,Arial,sans-serif" font-size="46" font-weight="900" fill="#be123c">22</text><path d="M100 270h120" stroke="#d7dced" stroke-width="8" stroke-linecap="round"/><g><rect x="330" y="170" width="40" height="40" rx="10" fill="url(#g)"/><rect x="382" y="170" width="40" height="40" rx="10" fill="url(#g)"/><rect x="434" y="170" width="40" height="40" rx="10" fill="url(#g)"/><rect x="486" y="170" width="40" height="40" rx="10" fill="url(#g)"/><rect x="538" y="170" width="40" height="40" rx="10" fill="url(#g)"/><rect x="590" y="170" width="40" height="40" rx="10" fill="#e7eaf2"/><rect x="642" y="170" width="40" height="40" rx="10" fill="#e7eaf2"/></g><text x="485" y="250" text-anchor="middle" direction="rtl" font-family="Tahoma,Arial,sans-serif" font-size="31" font-weight="800" fill="#be123c">5 أيام عمل</text><text x="485" y="292" text-anchor="middle" direction="rtl" font-family="Tahoma,Arial,sans-serif" font-size="18" font-weight="700" fill="#596078">+ عطلتان مستبعدتان</text><path d="M325 330 L640 330" fill="none" stroke="#be123c" stroke-width="5" stroke-linecap="round" marker-end="url(#ar)"/></svg>