<svg xmlns="http://www.w3.org/2000/svg" width="960" height="380" viewBox="0 0 960 380" role="img" aria-labelledby="t"><title id="t">حاسبة أيام العمل</title><defs><linearGradient id="g" x1="0" y1="0" x2="1" y2="1"><stop stop-color="#be123c"/><stop offset="1" stop-color="#fb7185"/></linearGradient><linearGradient id="s" x1="0" y1="0" x2="1" y2="1"><stop stop-color="#be123c" stop-opacity=".14"/><stop offset="1" stop-color="#6366f1" stop-opacity=".06"/></linearGradient><filter id="sh" x="-25%" y="-25%" width="150%" height="150%"><feDropShadow dx="0" dy="12" stdDeviation="14" flood-color="#172554" flood-opacity=".12"/></filter><marker id="ar" viewBox="0 0 10 10" refX="8" refY="5" markerWidth="7" markerHeight="7" orient="auto-start-reverse"><path d="M0 0 10 5 0 10Z" fill="#be123c"/></marker></defs><rect width="960" height="380" rx="34" fill="#f8faff"/><circle cx="890" cy="65" r="105" fill="#fb7185" opacity=".06"/><circle cx="65" cy="345" r="120" fill="#6366f1" opacity=".07"/><rect x="24" y="55" width="330" height="278" rx="22" fill="#fff" stroke="#d9deef" filter="url(#sh)"/><g opacity=".98" transform="translate(27 72) scale(.39)"><rect x="70" y="120" width="180" height="190" rx="22" fill="#fff" stroke="#d9deef" filter="url(#sh)"/><rect x="70" y="120" width="180" height="48" rx="22" fill="url(#g)"/><text x="160" y="153" text-anchor="middle" direction="rtl" font-family="Tahoma,Arial,sans-serif" font-size="16" font-weight="800" fill="#fff">تقويم العمل</text><text x="160" y="240" text-anchor="middle" direction="rtl" font-family="Tahoma,Arial,sans-serif" font-size="46" font-weight="900" fill="#be123c">22</text><path d="M100 270h120" stroke="#d7dced" stroke-width="8" stroke-linecap="round"/><g><rect x="330" y="170" width="40" height="40" rx="10" fill="url(#g)"/><rect x="382" y="170" width="40" height="40" rx="10" fill="url(#g)"/><rect x="434" y="170" width="40" height="40" rx="10" fill="url(#g)"/><rect x="486" y="170" width="40" height="40" rx="10" fill="url(#g)"/><rect x="538" y="170" width="40" height="40" rx="10" fill="url(#g)"/><rect x="590" y="170" width="40" height="40" rx="10" fill="#e7eaf2"/><rect x="642" y="170" width="40" height="40" rx="10" fill="#e7eaf2"/></g><text x="485" y="250" text-anchor="middle" direction="rtl" font-family="Tahoma,Arial,sans-serif" font-size="31" font-weight="800" fill="#be123c">5 أيام عمل</text><text x="485" y="292" text-anchor="middle" direction="rtl" font-family="Tahoma,Arial,sans-serif" font-size="18" font-weight="700" fill="#596078">+ عطلتان مستبعدتان</text><path d="M325 330 L640 330" fill="none" stroke="#be123c" stroke-width="5" stroke-linecap="round" marker-end="url(#ar)"/></g><text x="189" y="356" text-anchor="middle" direction="rtl" font-family="Tahoma,Arial,sans-serif" font-size="15" font-weight="800" fill="#be123c">نموذج حاسبة أيام العمل</text><text x="650" y="42" text-anchor="middle" direction="rtl" font-family="Tahoma,Arial,sans-serif" font-size="18" font-weight="800" fill="#be123c">سُلّم الافتراضات</text><rect x="395" y="292" width="105" height="58" rx="17" fill="url(#s)" stroke="#be123c" stroke-width="3"/><text x="447" y="324" text-anchor="middle" direction="rtl" font-family="Tahoma,Arial,sans-serif" font-size="12" font-weight="700" fill="#be123c">أساسي</text><rect x="510" y="236" width="105" height="73" rx="17" fill="url(#s)" stroke="#be123c" stroke-width="3"/><text x="562" y="268" text-anchor="middle" direction="rtl" font-family="Tahoma,Arial,sans-serif" font-size="12" font-weight="700" fill="#be123c">محافظ</text><rect x="625" y="180" width="105" height="88" rx="17" fill="url(#s)" stroke="#be123c" stroke-width="3"/><text x="677" y="212" text-anchor="middle" direction="rtl" font-family="Tahoma,Arial,sans-serif" font-size="12" font-weight="700" fill="#be123c">مرتفع</text><rect x="740" y="124" width="105" height="103" rx="17" fill="url(#g)" stroke="#be123c" stroke-width="3"/><text x="792" y="156" text-anchor="middle" direction="rtl" font-family="Tahoma,Arial,sans-serif" font-size="12" font-weight="700" fill="#fff">مرجع رسمي</text><path d="M400 330 842 96" stroke="#6366f1" stroke-width="5" stroke-dasharray="11 9" marker-end="url(#ar)"/><text x="690" y="350" text-anchor="middle" direction="rtl" font-family="Tahoma,Arial,sans-serif" font-size="14" font-weight="800" fill="#be123c">اقرأ اتجاه التغيّر</text></svg>