<svg xmlns="http://www.w3.org/2000/svg" width="760" height="520" viewBox="0 0 760 520" role="img" aria-labelledby="t"><title id="t">حاسبة زكاة الفطر</title><defs><linearGradient id="g" x1="0" y1="0" x2="1" y2="1"><stop stop-color="#b45309"/><stop offset="1" stop-color="#f59e0b"/></linearGradient><linearGradient id="s" x1="0" y1="0" x2="1" y2="1"><stop stop-color="#b45309" stop-opacity=".14"/><stop offset="1" stop-color="#2563eb" stop-opacity=".06"/></linearGradient><filter id="sh" x="-25%" y="-25%" width="150%" height="150%"><feDropShadow dx="0" dy="12" stdDeviation="14" flood-color="#172554" flood-opacity=".12"/></filter><marker id="ar" viewBox="0 0 10 10" refX="8" refY="5" markerWidth="7" markerHeight="7" orient="auto-start-reverse"><path d="M0 0 10 5 0 10Z" fill="#b45309"/></marker></defs><rect width="760" height="520" rx="34" fill="#f8faff"/><circle cx="690" cy="65" r="105" fill="#f59e0b" opacity=".06"/><circle cx="65" cy="485" r="120" fill="#2563eb" opacity=".07"/><text x="380" y="48" text-anchor="middle" direction="rtl" font-family="Tahoma,Arial,sans-serif" font-size="21" font-weight="900" fill="#b45309">حاسبة زكاة الفطر</text><path d="M100 225h270l-35 190H135Z" fill="#fff" stroke="#b45309" stroke-width="8" filter="url(#sh)"/><path d="M145 225c0-90 180-90 180 0" fill="none" stroke="#b45309" stroke-width="8"/><circle cx="170" cy="285" r="24" fill="#2563eb"/><circle cx="235" cy="285" r="24" fill="#2563eb"/><circle cx="300" cy="285" r="24" fill="#2563eb"/><circle cx="170" cy="355" r="24" fill="#2563eb"/><circle cx="235" cy="355" r="24" fill="url(#g)"/><path d="M405 300 L495 300" fill="none" stroke="#b45309" stroke-width="5" stroke-linecap="round" marker-end="url(#ar)"/><rect x="520" y="170" width="155" height="250" rx="22" fill="#fff" stroke="#d9deef" filter="url(#sh)"/><text x="598" y="225" text-anchor="middle" direction="rtl" font-family="Tahoma,Arial,sans-serif" font-size="17" font-weight="800" fill="#20243a">عدد الأسرة</text><text x="598" y="282" text-anchor="middle" direction="rtl" font-family="Tahoma,Arial,sans-serif" font-size="20" font-weight="800" fill="#b45309">× مقدار</text><text x="598" y="340" text-anchor="middle" direction="rtl" font-family="Tahoma,Arial,sans-serif" font-size="17" font-weight="800" fill="#20243a">السنة الحالية</text><text x="598" y="390" text-anchor="middle" direction="rtl" font-family="Tahoma,Arial,sans-serif" font-size="18" font-weight="800" fill="#b45309">= الإجمالي</text></svg>