<svg xmlns="http://www.w3.org/2000/svg" width="760" height="520" viewBox="0 0 760 520" role="img"><defs><linearGradient id="g" x1="0" y1="0" x2="1" y2="1"><stop stop-color="#d9467a"/><stop offset="1" stop-color="#fb7185"/></linearGradient><linearGradient id="soft" x1="0" y1="0" x2="1" y2="1"><stop stop-color="#6558e8" stop-opacity=".22"/><stop offset="1" stop-color="#d9467a" stop-opacity=".05"/></linearGradient><filter id="sh" x="-20%" y="-20%" width="140%" height="140%"><feDropShadow dx="0" dy="12" stdDeviation="13" flood-color="#302860" flood-opacity=".12"/></filter></defs><rect width="760" height="520" rx="34" fill="#f8f7ff"/><circle cx="90" cy="68" r="74" fill="#d9467a" opacity=".07"/><circle cx="690" cy="475" r="90" fill="#6558e8" opacity=".09"/><text x="380" y="58" text-anchor="middle" direction="rtl" font-family="Cairo,Tahoma,Arial,sans-serif" font-size="25" font-weight="900" fill="#282344">مولد نصوص بالذكاء الاصطناعي</text><rect x="55" y="135" width="310" height="270" rx="28" fill="#fff" stroke="#dcd8ed" stroke-width="2" filter="url(#sh)"/><text x="210" y="190" text-anchor="middle" direction="rtl" font-family="Cairo,Tahoma,Arial,sans-serif" font-size="20" font-weight="900" fill="#d9467a">الفكرة + النبرة</text><path d="M100 235h220" stroke="#d9d5e8" stroke-width="10" stroke-linecap="round"/><path d="M100 280h180" stroke="#e4e1ec" stroke-width="9" stroke-linecap="round"/><path d="M100 325h205" stroke="#dedbea" stroke-width="9" stroke-linecap="round"/><path d="M380 265h82m-28-28 31 28-31 28" fill="none" stroke="#d9467a" stroke-width="12" stroke-linecap="round" stroke-linejoin="round"/><rect x="525" y="145" width="190" height="250" rx="28" fill="#fff" stroke="#dcd8ed" stroke-width="2" filter="url(#sh)"/><text x="620" y="200" text-anchor="middle" direction="rtl" font-family="Cairo,Tahoma,Arial,sans-serif" font-size="20" font-weight="900" fill="#d9467a">3 مسودات</text><rect x="555" y="235" width="130" height="28" rx="11" fill="#d9467a" opacity=".35"/><rect x="555" y="283" width="130" height="28" rx="11" fill="#6558e8" opacity=".35"/><rect x="555" y="331" width="130" height="28" rx="11" fill="#d9467a" opacity=".35"/><circle cx="22" cy="495" r="3" fill="#d9467a" opacity=".45"/><circle cx="37" cy="495" r="3" fill="#d9467a" opacity=".45"/><circle cx="52" cy="495" r="3" fill="#d9467a" opacity=".45"/><circle cx="67" cy="495" r="3" fill="#d9467a" opacity=".45"/><circle cx="82" cy="495" r="3" fill="#d9467a" opacity=".45"/><circle cx="97" cy="495" r="3" fill="#d9467a" opacity=".45"/><circle cx="112" cy="495" r="3" fill="#d9467a" opacity=".45"/><circle cx="127" cy="495" r="3" fill="#d9467a" opacity=".45"/><circle cx="142" cy="495" r="3" fill="#d9467a" opacity=".45"/><circle cx="157" cy="495" r="3" fill="#d9467a" opacity=".45"/><circle cx="172" cy="495" r="3" fill="#d9467a" opacity=".45"/><circle cx="187" cy="495" r="3" fill="#d9467a" opacity=".45"/><circle cx="202" cy="495" r="3" fill="#d9467a" opacity=".45"/></svg>