<svg xmlns="http://www.w3.org/2000/svg" width="760" height="520" viewBox="0 0 760 520" role="img"><defs><linearGradient id="g" x1="0" y1="0" x2="1" y2="1"><stop stop-color="#2563eb"/><stop offset="1" stop-color="#60a5fa"/></linearGradient><linearGradient id="soft" x1="0" y1="0" x2="1" y2="1"><stop stop-color="#8b5cf6" stop-opacity=".22"/><stop offset="1" stop-color="#2563eb" stop-opacity=".05"/></linearGradient><filter id="sh" x="-20%" y="-20%" width="140%" height="140%"><feDropShadow dx="0" dy="12" stdDeviation="13" flood-color="#302860" flood-opacity=".12"/></filter></defs><rect width="760" height="520" rx="34" fill="#f8f7ff"/><circle cx="90" cy="68" r="74" fill="#2563eb" opacity=".07"/><circle cx="690" cy="475" r="90" fill="#8b5cf6" opacity=".09"/><text x="380" y="58" text-anchor="middle" direction="rtl" font-family="Cairo,Tahoma,Arial,sans-serif" font-size="25" font-weight="900" fill="#282344">لوحة مفاتيح الإيموجي</text><rect x="80" y="125" width="600" height="295" rx="30" fill="#fff" stroke="#dcd8ed" stroke-width="2" filter="url(#sh)"/><g transform="translate(135 190)"><circle r="38" fill="#2563eb" opacity=".16"/><text x="0" y="12" text-anchor="middle" direction="rtl" font-family="Cairo,Tahoma,Arial,sans-serif" font-size="31" font-weight="700" fill="#302b50">😀</text></g><g transform="translate(230 190)"><circle r="38" fill="#8b5cf6" opacity=".16"/><text x="0" y="12" text-anchor="middle" direction="rtl" font-family="Cairo,Tahoma,Arial,sans-serif" font-size="31" font-weight="700" fill="#302b50">✨</text></g><g transform="translate(325 190)"><circle r="38" fill="#60a5fa" opacity=".16"/><text x="0" y="12" text-anchor="middle" direction="rtl" font-family="Cairo,Tahoma,Arial,sans-serif" font-size="31" font-weight="700" fill="#302b50">❤️</text></g><g transform="translate(420 190)"><circle r="38" fill="#2563eb" opacity=".16"/><text x="0" y="12" text-anchor="middle" direction="rtl" font-family="Cairo,Tahoma,Arial,sans-serif" font-size="31" font-weight="700" fill="#302b50">🔥</text></g><g transform="translate(515 190)"><circle r="38" fill="#8b5cf6" opacity=".16"/><text x="0" y="12" text-anchor="middle" direction="rtl" font-family="Cairo,Tahoma,Arial,sans-serif" font-size="31" font-weight="700" fill="#302b50">👍</text></g><g transform="translate(610 190)"><circle r="38" fill="#60a5fa" opacity=".16"/><text x="0" y="12" text-anchor="middle" direction="rtl" font-family="Cairo,Tahoma,Arial,sans-serif" font-size="31" font-weight="700" fill="#302b50">🎉</text></g><g transform="translate(135 315)"><circle r="38" fill="#2563eb" opacity=".16"/><text x="0" y="12" text-anchor="middle" direction="rtl" font-family="Cairo,Tahoma,Arial,sans-serif" font-size="31" font-weight="700" fill="#302b50">📌</text></g><g transform="translate(230 315)"><circle r="38" fill="#8b5cf6" opacity=".16"/><text x="0" y="12" text-anchor="middle" direction="rtl" font-family="Cairo,Tahoma,Arial,sans-serif" font-size="31" font-weight="700" fill="#302b50">💡</text></g><g transform="translate(325 315)"><circle r="38" fill="#60a5fa" opacity=".16"/><text x="0" y="12" text-anchor="middle" direction="rtl" font-family="Cairo,Tahoma,Arial,sans-serif" font-size="31" font-weight="700" fill="#302b50">🌍</text></g><g transform="translate(420 315)"><circle r="38" fill="#2563eb" opacity=".16"/><text x="0" y="12" text-anchor="middle" direction="rtl" font-family="Cairo,Tahoma,Arial,sans-serif" font-size="31" font-weight="700" fill="#302b50">✅</text></g><g transform="translate(515 315)"><circle r="38" fill="#8b5cf6" opacity=".16"/><text x="0" y="12" text-anchor="middle" direction="rtl" font-family="Cairo,Tahoma,Arial,sans-serif" font-size="31" font-weight="700" fill="#302b50">📷</text></g><g transform="translate(610 315)"><circle r="38" fill="#60a5fa" opacity=".16"/><text x="0" y="12" text-anchor="middle" direction="rtl" font-family="Cairo,Tahoma,Arial,sans-serif" font-size="31" font-weight="700" fill="#302b50">🎵</text></g><circle cx="22" cy="495" r="3" fill="#2563eb" opacity=".45"/><circle cx="37" cy="495" r="3" fill="#2563eb" opacity=".45"/><circle cx="52" cy="495" r="3" fill="#2563eb" opacity=".45"/><circle cx="67" cy="495" r="3" fill="#2563eb" opacity=".45"/><circle cx="82" cy="495" r="3" fill="#2563eb" opacity=".45"/><circle cx="97" cy="495" r="3" fill="#2563eb" opacity=".45"/><circle cx="112" cy="495" r="3" fill="#2563eb" opacity=".45"/><circle cx="127" cy="495" r="3" fill="#2563eb" opacity=".45"/><circle cx="142" cy="495" r="3" fill="#2563eb" opacity=".45"/><circle cx="157" cy="495" r="3" fill="#2563eb" opacity=".45"/><circle cx="172" cy="495" r="3" fill="#2563eb" opacity=".45"/><circle cx="187" cy="495" r="3" fill="#2563eb" opacity=".45"/></svg>