<svg xmlns="http://www.w3.org/2000/svg" width="760" height="520" viewBox="0 0 760 520" role="img"><defs><linearGradient id="g" x1="0" y1="0" x2="1" y2="1"><stop stop-color="#ea580c"/><stop offset="1" stop-color="#f59e0b"/></linearGradient><linearGradient id="soft" x1="0" y1="0" x2="1" y2="1"><stop stop-color="#2563eb" stop-opacity=".22"/><stop offset="1" stop-color="#ea580c" stop-opacity=".05"/></linearGradient><filter id="sh" x="-20%" y="-20%" width="140%" height="140%"><feDropShadow dx="0" dy="12" stdDeviation="13" flood-color="#302860" flood-opacity=".12"/></filter></defs><rect width="760" height="520" rx="34" fill="#f8f7ff"/><circle cx="90" cy="68" r="74" fill="#ea580c" opacity=".07"/><circle cx="690" cy="475" r="90" fill="#2563eb" opacity=".09"/><text x="380" y="58" text-anchor="middle" direction="rtl" font-family="Cairo,Tahoma,Arial,sans-serif" font-size="25" font-weight="900" fill="#282344">تحميل ستوري انستقرام</text><rect x="80" y="125" width="210" height="295" rx="36" fill="#fff" stroke="#dcd8ed" stroke-width="2" filter="url(#sh)"/><circle cx="185" cy="195" r="42" fill="none" stroke="url(#g)" stroke-width="8"/><rect x="115" y="255" width="140" height="105" rx="18" fill="url(#soft)"/><text x="185" y="395" text-anchor="middle" direction="rtl" font-family="Cairo,Tahoma,Arial,sans-serif" font-size="16" font-weight="800" fill="#ea580c">قصة مؤقتة</text><path d="M330 270h82m-28-28 31 28-31 28" fill="none" stroke="#ea580c" stroke-width="12" stroke-linecap="round" stroke-linejoin="round"/><rect x="515" y="175" width="180" height="180" rx="28" fill="#fff" stroke="#dcd8ed" stroke-width="2" filter="url(#sh)"/><text x="605" y="230" text-anchor="middle" direction="rtl" font-family="Cairo,Tahoma,Arial,sans-serif" font-size="21" font-weight="900" fill="#ea580c">أرشيفك</text><path d="M560 270h90v55h-90Z" fill="#2563eb" opacity=".35"/><text x="605" y="309" text-anchor="middle" direction="rtl" font-family="Cairo,Tahoma,Arial,sans-serif" font-size="14" font-weight="800" fill="#ea580c">نسخة</text><circle cx="22" cy="495" r="3" fill="#ea580c" opacity=".45"/><circle cx="37" cy="495" r="3" fill="#ea580c" opacity=".45"/><circle cx="52" cy="495" r="3" fill="#ea580c" opacity=".45"/><circle cx="67" cy="495" r="3" fill="#ea580c" opacity=".45"/><circle cx="82" cy="495" r="3" fill="#ea580c" opacity=".45"/><circle cx="97" cy="495" r="3" fill="#ea580c" opacity=".45"/><circle cx="112" cy="495" r="3" fill="#ea580c" opacity=".45"/><circle cx="127" cy="495" r="3" fill="#ea580c" opacity=".45"/><circle cx="142" cy="495" r="3" fill="#ea580c" opacity=".45"/><circle cx="157" cy="495" r="3" fill="#ea580c" opacity=".45"/><circle cx="172" cy="495" r="3" fill="#ea580c" opacity=".45"/><circle cx="187" cy="495" r="3" fill="#ea580c" opacity=".45"/><circle cx="202" cy="495" r="3" fill="#ea580c" opacity=".45"/><circle cx="217" cy="495" r="3" fill="#ea580c" opacity=".45"/><circle cx="232" cy="495" r="3" fill="#ea580c" opacity=".45"/><circle cx="247" cy="495" r="3" fill="#ea580c" opacity=".45"/><circle cx="262" cy="495" r="3" fill="#ea580c" opacity=".45"/></svg>