<svg xmlns="http://www.w3.org/2000/svg" width="960" height="340" viewBox="0 0 960 340" role="img"><defs><linearGradient id="g" x1="0" y1="0" x2="1" y2="1"><stop stop-color="#4f46e5"/><stop offset="1" stop-color="#7c6cf2"/></linearGradient><linearGradient id="soft" x1="0" y1="0" x2="1" y2="1"><stop stop-color="#0f9f8f" stop-opacity=".22"/><stop offset="1" stop-color="#4f46e5" stop-opacity=".05"/></linearGradient><filter id="sh" x="-20%" y="-20%" width="140%" height="140%"><feDropShadow dx="0" dy="12" stdDeviation="13" flood-color="#302860" flood-opacity=".12"/></filter></defs><rect width="960" height="340" rx="34" fill="#f8f7ff"/><circle cx="90" cy="68" r="74" fill="#4f46e5" opacity=".07"/><circle cx="890" cy="295" r="90" fill="#0f9f8f" opacity=".09"/><g transform="translate(858 12)" opacity=".78"><rect x="-10" y="-8" width="92" height="66" rx="28" fill="#fff" stroke="url(#g)" stroke-width="2"/><rect x="0" y="48" width="4" height="10" rx="2" fill="url(#g)"/><rect x="7" y="39" width="4" height="19" rx="2" fill="url(#g)"/><rect x="14" y="30" width="4" height="28" rx="2" fill="url(#g)"/><rect x="21" y="21" width="4" height="37" rx="2" fill="url(#g)"/><rect x="28" y="48" width="4" height="10" rx="2" fill="url(#g)"/><rect x="35" y="39" width="4" height="19" rx="2" fill="url(#g)"/><rect x="42" y="30" width="4" height="28" rx="2" fill="url(#g)"/><rect x="49" y="21" width="4" height="37" rx="2" fill="url(#g)"/><rect x="56" y="48" width="4" height="10" rx="2" fill="url(#g)"/><rect x="0" y="33" width="4" height="19" rx="2" fill="url(#g)"/><rect x="7" y="24" width="4" height="28" rx="2" fill="url(#g)"/><rect x="14" y="15" width="4" height="37" rx="2" fill="url(#g)"/><rect x="21" y="42" width="4" height="10" rx="2" fill="url(#g)"/><rect x="28" y="33" width="4" height="19" rx="2" fill="url(#g)"/><circle cx="63" cy="10" r="9" fill="url(#g)"/></g><rect x="55" y="72" width="185" height="178" rx="33" fill="#fff" stroke="#ddd9ed" filter="url(#sh)"/><circle cx="147.5" cy="72" r="27" fill="url(#g)"/><text x="147.5" y="81" text-anchor="middle" direction="rtl" font-family="Cairo,Tahoma,Arial,sans-serif" font-size="21" font-weight="900" fill="#fff">1</text><text x="147.5" y="144" text-anchor="middle" direction="rtl" font-family="Cairo,Tahoma,Arial,sans-serif" font-size="19" font-weight="800" fill="#302b50">حدّد</text><text x="147.5" y="194" text-anchor="middle" direction="rtl" font-family="Cairo,Tahoma,Arial,sans-serif" font-size="14" font-weight="700" fill="#4f46e5">مصدر</text><rect x="275" y="96" width="185" height="178" rx="33" fill="#fff" stroke="#ddd9ed" filter="url(#sh)"/><circle cx="367.5" cy="96" r="27" fill="url(#g)"/><text x="367.5" y="105" text-anchor="middle" direction="rtl" font-family="Cairo,Tahoma,Arial,sans-serif" font-size="21" font-weight="900" fill="#fff">2</text><text x="367.5" y="168" text-anchor="middle" direction="rtl" font-family="Cairo,Tahoma,Arial,sans-serif" font-size="19" font-weight="800" fill="#302b50">اضبط</text><text x="367.5" y="218" text-anchor="middle" direction="rtl" font-family="Cairo,Tahoma,Arial,sans-serif" font-size="14" font-weight="700" fill="#4f46e5">إعداد</text><rect x="495" y="120" width="185" height="178" rx="33" fill="#fff" stroke="#ddd9ed" filter="url(#sh)"/><circle cx="587.5" cy="120" r="27" fill="url(#g)"/><text x="587.5" y="129" text-anchor="middle" direction="rtl" font-family="Cairo,Tahoma,Arial,sans-serif" font-size="21" font-weight="900" fill="#fff">3</text><text x="587.5" y="192" text-anchor="middle" direction="rtl" font-family="Cairo,Tahoma,Arial,sans-serif" font-size="19" font-weight="800" fill="#302b50">نفّذ</text><text x="587.5" y="242" text-anchor="middle" direction="rtl" font-family="Cairo,Tahoma,Arial,sans-serif" font-size="14" font-weight="700" fill="#4f46e5">معالجة</text><rect x="715" y="144" width="185" height="178" rx="33" fill="#fff" stroke="#ddd9ed" filter="url(#sh)"/><circle cx="807.5" cy="144" r="27" fill="url(#g)"/><text x="807.5" y="153" text-anchor="middle" direction="rtl" font-family="Cairo,Tahoma,Arial,sans-serif" font-size="21" font-weight="900" fill="#fff">4</text><text x="807.5" y="216" text-anchor="middle" direction="rtl" font-family="Cairo,Tahoma,Arial,sans-serif" font-size="19" font-weight="800" fill="#302b50">راجع</text><text x="807.5" y="266" text-anchor="middle" direction="rtl" font-family="Cairo,Tahoma,Arial,sans-serif" font-size="14" font-weight="700" fill="#4f46e5">اعتماد</text><path d="M65 300 Q480 329 895 300" fill="none" stroke="#0f9f8f" stroke-width="5" stroke-dasharray="10 10" opacity=".5"/></svg>