<svg xmlns="http://www.w3.org/2000/svg" width="960" height="360" viewBox="0 0 960 360" role="img"><defs><linearGradient id="g" x1="0" y1="0" x2="1" y2="1"><stop stop-color="#4f46e5"/><stop offset="1" stop-color="#7c6cf2"/></linearGradient><linearGradient id="soft" x1="0" y1="0" x2="1" y2="1"><stop stop-color="#0f9f8f" stop-opacity=".22"/><stop offset="1" stop-color="#4f46e5" stop-opacity=".05"/></linearGradient><filter id="sh" x="-20%" y="-20%" width="140%" height="140%"><feDropShadow dx="0" dy="12" stdDeviation="13" flood-color="#302860" flood-opacity=".12"/></filter></defs><rect width="960" height="360" rx="34" fill="#f8f7ff"/><circle cx="90" cy="68" r="74" fill="#4f46e5" opacity=".07"/><circle cx="890" cy="315" r="90" fill="#0f9f8f" opacity=".09"/><g transform="translate(858 12)" opacity=".78"><rect x="-10" y="-8" width="92" height="66" rx="28" fill="#fff" stroke="url(#g)" stroke-width="2"/><rect x="0" y="48" width="4" height="10" rx="2" fill="url(#g)"/><rect x="7" y="39" width="4" height="19" rx="2" fill="url(#g)"/><rect x="14" y="30" width="4" height="28" rx="2" fill="url(#g)"/><rect x="21" y="21" width="4" height="37" rx="2" fill="url(#g)"/><rect x="28" y="48" width="4" height="10" rx="2" fill="url(#g)"/><rect x="35" y="39" width="4" height="19" rx="2" fill="url(#g)"/><rect x="42" y="30" width="4" height="28" rx="2" fill="url(#g)"/><rect x="49" y="21" width="4" height="37" rx="2" fill="url(#g)"/><rect x="56" y="48" width="4" height="10" rx="2" fill="url(#g)"/><rect x="0" y="33" width="4" height="19" rx="2" fill="url(#g)"/><rect x="7" y="24" width="4" height="28" rx="2" fill="url(#g)"/><rect x="14" y="15" width="4" height="37" rx="2" fill="url(#g)"/><rect x="21" y="42" width="4" height="10" rx="2" fill="url(#g)"/><rect x="28" y="33" width="4" height="19" rx="2" fill="url(#g)"/><circle cx="63" cy="10" r="9" fill="url(#g)"/></g><path d="M120 180h720" stroke="#0f9f8f" stroke-width="7" stroke-dasharray="12 10"/><g transform="translate(65 70)"><circle cx="110" cy="110" r="80" fill="#fff" stroke="#4f46e5" stroke-width="5" filter="url(#sh)"/><text x="110" y="102" text-anchor="middle" direction="rtl" font-family="Cairo,Tahoma,Arial,sans-serif" font-size="16" font-weight="800" fill="#302b50">مدخل مرفوض</text><text x="110" y="135" text-anchor="middle" direction="rtl" font-family="Cairo,Tahoma,Arial,sans-serif" font-size="13" font-weight="700" fill="#4f46e5">الملف</text></g><g transform="translate(365 70)"><circle cx="110" cy="110" r="80" fill="#fff" stroke="#0f9f8f" stroke-width="5" filter="url(#sh)"/><text x="110" y="102" text-anchor="middle" direction="rtl" font-family="Cairo,Tahoma,Arial,sans-serif" font-size="16" font-weight="800" fill="#302b50">ناتج مختلف</text><text x="110" y="135" text-anchor="middle" direction="rtl" font-family="Cairo,Tahoma,Arial,sans-serif" font-size="13" font-weight="700" fill="#4f46e5">الخيار</text></g><g transform="translate(665 70)"><circle cx="110" cy="110" r="80" fill="#fff" stroke="#4f46e5" stroke-width="5" filter="url(#sh)"/><text x="110" y="102" text-anchor="middle" direction="rtl" font-family="Cairo,Tahoma,Arial,sans-serif" font-size="16" font-weight="800" fill="#302b50">اختلاف الأجهزة</text><text x="110" y="135" text-anchor="middle" direction="rtl" font-family="Cairo,Tahoma,Arial,sans-serif" font-size="13" font-weight="700" fill="#4f46e5">المراجعة</text></g></svg>