<svg xmlns="http://www.w3.org/2000/svg" width="760" height="520" viewBox="0 0 760 520" role="img"><defs><linearGradient id="g" x1="0" y1="0" x2="1" y2="1"><stop stop-color="#0f766e"/><stop offset="1" stop-color="#14b8a6"/></linearGradient><linearGradient id="soft" x1="0" y1="0" x2="1" y2="1"><stop stop-color="#f59e0b" stop-opacity=".22"/><stop offset="1" stop-color="#0f766e" stop-opacity=".05"/></linearGradient><filter id="sh" x="-20%" y="-20%" width="140%" height="140%"><feDropShadow dx="0" dy="12" stdDeviation="13" flood-color="#302860" flood-opacity=".12"/></filter></defs><rect width="760" height="520" rx="34" fill="#f8f7ff"/><circle cx="90" cy="68" r="74" fill="#0f766e" opacity=".07"/><circle cx="690" cy="475" r="90" fill="#f59e0b" opacity=".09"/><text x="380" y="58" text-anchor="middle" direction="rtl" font-family="Cairo,Tahoma,Arial,sans-serif" font-size="25" font-weight="900" fill="#282344">تحميل فيديوهات تيك توك</text><rect x="75" y="130" width="240" height="285" rx="34" fill="#fff" stroke="#dcd8ed" stroke-width="2" filter="url(#sh)"/><text x="195" y="200" text-anchor="middle" direction="rtl" font-family="Cairo,Tahoma,Arial,sans-serif" font-size="21" font-weight="900" fill="#0f766e">فيديو قصير</text><path d="M160 245h70v95h-70Z" fill="url(#g)" opacity=".75"/><path d="m180 268 35 22-35 22Z" fill="#fff"/><path d="M345 270h82m-28-28 31 28-31 28" fill="none" stroke="#0f766e" stroke-width="12" stroke-linecap="round" stroke-linejoin="round"/><rect x="510" y="180" width="190" height="175" rx="28" fill="#fff" stroke="#dcd8ed" stroke-width="2" filter="url(#sh)"/><text x="605" y="235" text-anchor="middle" direction="rtl" font-family="Cairo,Tahoma,Arial,sans-serif" font-size="17" font-weight="900" fill="#0f766e">نسخة مصرح بها</text><text x="605" y="285" text-anchor="middle" direction="rtl" font-family="Cairo,Tahoma,Arial,sans-serif" font-size="31" font-weight="900" fill="#f59e0b">MP4</text><circle cx="22" cy="495" r="3" fill="#0f766e" opacity=".45"/><circle cx="37" cy="495" r="3" fill="#0f766e" opacity=".45"/><circle cx="52" cy="495" r="3" fill="#0f766e" opacity=".45"/><circle cx="67" cy="495" r="3" fill="#0f766e" opacity=".45"/><circle cx="82" cy="495" r="3" fill="#0f766e" opacity=".45"/><circle cx="97" cy="495" r="3" fill="#0f766e" opacity=".45"/><circle cx="112" cy="495" r="3" fill="#0f766e" opacity=".45"/><circle cx="127" cy="495" r="3" fill="#0f766e" opacity=".45"/><circle cx="142" cy="495" r="3" fill="#0f766e" opacity=".45"/><circle cx="157" cy="495" r="3" fill="#0f766e" opacity=".45"/><circle cx="172" cy="495" r="3" fill="#0f766e" opacity=".45"/><circle cx="187" cy="495" r="3" fill="#0f766e" opacity=".45"/><circle cx="202" cy="495" r="3" fill="#0f766e" opacity=".45"/><circle cx="217" cy="495" r="3" fill="#0f766e" opacity=".45"/><circle cx="232" cy="495" r="3" fill="#0f766e" opacity=".45"/></svg>