<svg xmlns="http://www.w3.org/2000/svg" width="960" height="360" viewBox="0 0 960 360" role="img"><defs><linearGradient id="g" x1="0" y1="0" x2="1" y2="1"><stop stop-color="#0f766e"/><stop offset="1" stop-color="#14b8a6"/></linearGradient><linearGradient id="soft" x1="0" y1="0" x2="1" y2="1"><stop stop-color="#f59e0b" stop-opacity=".22"/><stop offset="1" stop-color="#0f766e" stop-opacity=".05"/></linearGradient><filter id="sh" x="-20%" y="-20%" width="140%" height="140%"><feDropShadow dx="0" dy="12" stdDeviation="13" flood-color="#302860" flood-opacity=".12"/></filter></defs><rect width="960" height="360" rx="34" fill="#f8f7ff"/><circle cx="90" cy="68" r="74" fill="#0f766e" opacity=".07"/><circle cx="890" cy="315" r="90" fill="#f59e0b" opacity=".09"/><g transform="translate(858 12)" opacity=".78"><rect x="-10" y="-8" width="92" height="66" rx="29" fill="#fff" stroke="url(#g)" stroke-width="2"/><rect x="0" y="48" width="4" height="10" rx="2" fill="url(#g)"/><rect x="7" y="39" width="4" height="19" rx="2" fill="url(#g)"/><rect x="14" y="30" width="4" height="28" rx="2" fill="url(#g)"/><rect x="21" y="21" width="4" height="37" rx="2" fill="url(#g)"/><rect x="28" y="48" width="4" height="10" rx="2" fill="url(#g)"/><rect x="35" y="39" width="4" height="19" rx="2" fill="url(#g)"/><rect x="42" y="30" width="4" height="28" rx="2" fill="url(#g)"/><rect x="49" y="21" width="4" height="37" rx="2" fill="url(#g)"/><rect x="56" y="48" width="4" height="10" rx="2" fill="url(#g)"/><rect x="0" y="33" width="4" height="19" rx="2" fill="url(#g)"/><rect x="7" y="24" width="4" height="28" rx="2" fill="url(#g)"/><rect x="14" y="15" width="4" height="37" rx="2" fill="url(#g)"/><rect x="21" y="42" width="4" height="10" rx="2" fill="url(#g)"/><rect x="28" y="33" width="4" height="19" rx="2" fill="url(#g)"/><rect x="35" y="24" width="4" height="28" rx="2" fill="url(#g)"/><circle cx="63" cy="10" r="10" fill="url(#g)"/></g><g transform="translate(55 65)"><path d="M0 20h240l30 80-30 80H0l30-80Z" fill="#fff" stroke="#0f766e" stroke-width="4" filter="url(#sh)"/><text x="135" y="94" text-anchor="middle" direction="rtl" font-family="Cairo,Tahoma,Arial,sans-serif" font-size="16" font-weight="800" fill="#302b50">مدخل مرفوض</text><text x="135" y="127" text-anchor="middle" direction="rtl" font-family="Cairo,Tahoma,Arial,sans-serif" font-size="13" font-weight="700" fill="#0f766e">سبب</text></g><g transform="translate(355 87)"><path d="M0 20h240l30 80-30 80H0l30-80Z" fill="#fff" stroke="#f59e0b" stroke-width="4" filter="url(#sh)"/><text x="135" y="94" text-anchor="middle" direction="rtl" font-family="Cairo,Tahoma,Arial,sans-serif" font-size="16" font-weight="800" fill="#302b50">ناتج مختلف</text><text x="135" y="127" text-anchor="middle" direction="rtl" font-family="Cairo,Tahoma,Arial,sans-serif" font-size="13" font-weight="700" fill="#0f766e">تحقق</text></g><g transform="translate(655 109)"><path d="M0 20h240l30 80-30 80H0l30-80Z" fill="#fff" stroke="#0f766e" stroke-width="4" filter="url(#sh)"/><text x="135" y="94" text-anchor="middle" direction="rtl" font-family="Cairo,Tahoma,Arial,sans-serif" font-size="16" font-weight="800" fill="#302b50">اختلاف الأجهزة</text><text x="135" y="127" text-anchor="middle" direction="rtl" font-family="Cairo,Tahoma,Arial,sans-serif" font-size="13" font-weight="700" fill="#0f766e">قرار</text></g></svg>