<svg xmlns="http://www.w3.org/2000/svg" width="760" height="520" viewBox="0 0 760 520" role="img"><defs><linearGradient id="g" x1="0" y1="0" x2="1" y2="1"><stop stop-color="#334155"/><stop offset="1" stop-color="#64748b"/></linearGradient><linearGradient id="soft" x1="0" y1="0" x2="1" y2="1"><stop stop-color="#6558e8" stop-opacity=".22"/><stop offset="1" stop-color="#334155" stop-opacity=".05"/></linearGradient><filter id="sh" x="-20%" y="-20%" width="140%" height="140%"><feDropShadow dx="0" dy="12" stdDeviation="13" flood-color="#302860" flood-opacity=".12"/></filter></defs><rect width="760" height="520" rx="34" fill="#f8f7ff"/><circle cx="90" cy="68" r="74" fill="#334155" opacity=".07"/><circle cx="690" cy="475" r="90" fill="#6558e8" opacity=".09"/><text x="380" y="58" text-anchor="middle" direction="rtl" font-family="Cairo,Tahoma,Arial,sans-serif" font-size="25" font-weight="900" fill="#282344">تحويل YouTube إلى MP3</text><rect x="60" y="155" width="250" height="220" rx="28" fill="#fff" stroke="#dcd8ed" stroke-width="2" filter="url(#sh)"/><rect x="95" y="195" width="180" height="120" rx="18" fill="url(#soft)"/><path d="m165 220 75 38-75 38Z" fill="#334155"/><path d="M350 265h82m-28-28 31 28-31 28" fill="none" stroke="#334155" stroke-width="12" stroke-linecap="round" stroke-linejoin="round"/><rect x="520" y="170" width="180" height="190" rx="30" fill="#fff" stroke="#dcd8ed" stroke-width="2" filter="url(#sh)"/><text x="610" y="225" text-anchor="middle" direction="rtl" font-family="Cairo,Tahoma,Arial,sans-serif" font-size="32" font-weight="900" fill="#334155">MP3</text><path d="M555 285q18-55 36 0t36 0 36 0" fill="none" stroke="#6558e8" stroke-width="9" stroke-linecap="round"/><text x="610" y="330" text-anchor="middle" direction="rtl" font-family="Cairo,Tahoma,Arial,sans-serif" font-size="15" font-weight="800" fill="#334155">مسار صوتي</text><circle cx="22" cy="495" r="3" fill="#334155" opacity=".45"/><circle cx="37" cy="495" r="3" fill="#334155" opacity=".45"/><circle cx="52" cy="495" r="3" fill="#334155" opacity=".45"/><circle cx="67" cy="495" r="3" fill="#334155" opacity=".45"/><circle cx="82" cy="495" r="3" fill="#334155" opacity=".45"/><circle cx="97" cy="495" r="3" fill="#334155" opacity=".45"/><circle cx="112" cy="495" r="3" fill="#334155" opacity=".45"/><circle cx="127" cy="495" r="3" fill="#334155" opacity=".45"/><circle cx="142" cy="495" r="3" fill="#334155" opacity=".45"/><circle cx="157" cy="495" r="3" fill="#334155" opacity=".45"/><circle cx="172" cy="495" r="3" fill="#334155" opacity=".45"/><circle cx="187" cy="495" r="3" fill="#334155" opacity=".45"/><circle cx="202" cy="495" r="3" fill="#334155" opacity=".45"/><circle cx="217" cy="495" r="3" fill="#334155" opacity=".45"/><circle cx="232" cy="495" r="3" fill="#334155" opacity=".45"/><circle cx="247" cy="495" r="3" fill="#334155" opacity=".45"/><circle cx="262" cy="495" r="3" fill="#334155" opacity=".45"/><circle cx="277" cy="495" r="3" fill="#334155" opacity=".45"/></svg>