<svg xmlns="http://www.w3.org/2000/svg" width="760" height="520" viewBox="0 0 760 520" role="img"><defs><linearGradient id="g" x1="0" y1="0" x2="1" y2="1"><stop stop-color="#0f8f83"/><stop offset="1" stop-color="#39c6b8"/></linearGradient><linearGradient id="soft" x1="0" y1="0" x2="1" y2="1"><stop stop-color="#6558e8" stop-opacity=".22"/><stop offset="1" stop-color="#0f8f83" stop-opacity=".05"/></linearGradient><filter id="sh" x="-20%" y="-20%" width="140%" height="140%"><feDropShadow dx="0" dy="12" stdDeviation="13" flood-color="#302860" flood-opacity=".12"/></filter></defs><rect width="760" height="520" rx="34" fill="#f8f7ff"/><circle cx="90" cy="68" r="74" fill="#0f8f83" opacity=".07"/><circle cx="690" cy="475" r="90" fill="#6558e8" opacity=".09"/><text x="380" y="58" text-anchor="middle" direction="rtl" font-family="Cairo,Tahoma,Arial,sans-serif" font-size="25" font-weight="900" fill="#282344">تحميل صورة غلاف يوتيوب</text><rect x="70" y="140" width="620" height="270" rx="30" fill="#fff" stroke="#dcd8ed" stroke-width="2" filter="url(#sh)"/><rect x="100" y="170" width="350" height="210" rx="22" fill="url(#soft)"/><path d="m230 225 110 55-110 55Z" fill="#0f8f83"/><rect x="485" y="175" width="175" height="165" rx="22" fill="#fff" stroke="#dcd8ed" stroke-width="2" filter="url(#sh)"/><text x="572" y="225" text-anchor="middle" direction="ltr" font-family="Cairo,Tahoma,Arial,sans-serif" font-size="18" font-weight="900" fill="#0f8f83">1280 × 720</text><text x="572" y="270" text-anchor="middle" direction="rtl" font-family="Cairo,Tahoma,Arial,sans-serif" font-size="16" font-weight="800" fill="#6558e8">صورة الغلاف</text><path d="M520 310h105" stroke="#ddd9e8" stroke-width="8" stroke-linecap="round"/><circle cx="22" cy="495" r="3" fill="#0f8f83" opacity=".45"/><circle cx="37" cy="495" r="3" fill="#0f8f83" opacity=".45"/><circle cx="52" cy="495" r="3" fill="#0f8f83" opacity=".45"/><circle cx="67" cy="495" r="3" fill="#0f8f83" opacity=".45"/><circle cx="82" cy="495" r="3" fill="#0f8f83" opacity=".45"/><circle cx="97" cy="495" r="3" fill="#0f8f83" opacity=".45"/><circle cx="112" cy="495" r="3" fill="#0f8f83" opacity=".45"/><circle cx="127" cy="495" r="3" fill="#0f8f83" opacity=".45"/><circle cx="142" cy="495" r="3" fill="#0f8f83" opacity=".45"/><circle cx="157" cy="495" r="3" fill="#0f8f83" opacity=".45"/><circle cx="172" cy="495" r="3" fill="#0f8f83" opacity=".45"/></svg>