<svg xmlns="http://www.w3.org/2000/svg" width="960" height="360" viewBox="0 0 960 360" role="img"><defs><linearGradient id="g" x1="0" y1="0" x2="1" y2="1"><stop stop-color="#334155"/><stop offset="1" stop-color="#64748b"/></linearGradient><linearGradient id="soft" x1="0" y1="0" x2="1" y2="1"><stop stop-color="#6558e8" stop-opacity=".22"/><stop offset="1" stop-color="#334155" stop-opacity=".05"/></linearGradient><filter id="sh" x="-20%" y="-20%" width="140%" height="140%"><feDropShadow dx="0" dy="12" stdDeviation="13" flood-color="#302860" flood-opacity=".12"/></filter></defs><rect width="960" height="360" rx="34" fill="#f8f7ff"/><circle cx="90" cy="68" r="74" fill="#334155" opacity=".07"/><circle cx="890" cy="315" r="90" fill="#6558e8" opacity=".09"/><g transform="translate(858 12)" opacity=".78"><rect x="-10" y="-8" width="92" height="66" rx="32" fill="#fff" stroke="url(#g)" stroke-width="2"/><rect x="0" y="48" width="4" height="10" rx="2" fill="url(#g)"/><rect x="7" y="39" width="4" height="19" rx="2" fill="url(#g)"/><rect x="14" y="30" width="4" height="28" rx="2" fill="url(#g)"/><rect x="21" y="21" width="4" height="37" rx="2" fill="url(#g)"/><rect x="28" y="48" width="4" height="10" rx="2" fill="url(#g)"/><rect x="35" y="39" width="4" height="19" rx="2" fill="url(#g)"/><rect x="42" y="30" width="4" height="28" rx="2" fill="url(#g)"/><rect x="49" y="21" width="4" height="37" rx="2" fill="url(#g)"/><rect x="56" y="48" width="4" height="10" rx="2" fill="url(#g)"/><rect x="0" y="33" width="4" height="19" rx="2" fill="url(#g)"/><rect x="7" y="24" width="4" height="28" rx="2" fill="url(#g)"/><rect x="14" y="15" width="4" height="37" rx="2" fill="url(#g)"/><rect x="21" y="42" width="4" height="10" rx="2" fill="url(#g)"/><rect x="28" y="33" width="4" height="19" rx="2" fill="url(#g)"/><rect x="35" y="24" width="4" height="28" rx="2" fill="url(#g)"/><rect x="42" y="15" width="4" height="37" rx="2" fill="url(#g)"/><rect x="49" y="42" width="4" height="10" rx="2" fill="url(#g)"/><rect x="56" y="33" width="4" height="19" rx="2" fill="url(#g)"/><circle cx="63" cy="10" r="5" fill="url(#g)"/></g><g transform="translate(70 65)"><circle cx="90" cy="90" r="72" fill="#fff" stroke="#334155" stroke-width="5" filter="url(#sh)"/><text x="90" y="82" text-anchor="middle" direction="rtl" font-family="Cairo,Tahoma,Arial,sans-serif" font-size="14" font-weight="800" fill="#302b50">إعداد سريع</text><text x="90" y="111" text-anchor="middle" direction="rtl" font-family="Cairo,Tahoma,Arial,sans-serif" font-size="10.5" font-weight="700" fill="#334155">راجع الوضوح والو…</text></g><g transform="translate(285 105)"><circle cx="90" cy="90" r="68" fill="#fff" stroke="#6558e8" stroke-width="5" filter="url(#sh)"/><text x="90" y="82" text-anchor="middle" direction="rtl" font-family="Cairo,Tahoma,Arial,sans-serif" font-size="14" font-weight="800" fill="#302b50">إعداد متوازن</text><text x="90" y="111" text-anchor="middle" direction="rtl" font-family="Cairo,Tahoma,Arial,sans-serif" font-size="10.5" font-weight="700" fill="#334155">وازن الحجم والدق…</text></g><g transform="translate(500 65)"><circle cx="90" cy="90" r="64" fill="#fff" stroke="#334155" stroke-width="5" filter="url(#sh)"/><text x="90" y="82" text-anchor="middle" direction="rtl" font-family="Cairo,Tahoma,Arial,sans-serif" font-size="14" font-weight="800" fill="#302b50">أعلى جودة</text><text x="90" y="111" text-anchor="middle" direction="rtl" font-family="Cairo,Tahoma,Arial,sans-serif" font-size="10.5" font-weight="700" fill="#334155">اختبر التوافق وح…</text></g><g transform="translate(715 105)"><circle cx="90" cy="90" r="60" fill="#fff" stroke="#6558e8" stroke-width="5" filter="url(#sh)"/><text x="90" y="82" text-anchor="middle" direction="rtl" font-family="Cairo,Tahoma,Arial,sans-serif" font-size="14" font-weight="800" fill="#302b50">بديل يدوي</text><text x="90" y="111" text-anchor="middle" direction="rtl" font-family="Cairo,Tahoma,Arial,sans-serif" font-size="10.5" font-weight="700" fill="#334155">يحافظ على التحكم…</text></g><path d="M95 300h770" stroke="#6558e8" stroke-width="6" stroke-linecap="round"/></svg>