<svg xmlns="http://www.w3.org/2000/svg" width="760" height="520" viewBox="0 0 760 520" role="img"><defs><linearGradient id="g" x1="0" y1="0" x2="1" y2="1"><stop stop-color="#0f766e"/><stop offset="1" stop-color="#14b8a6"/></linearGradient><linearGradient id="soft" x1="0" y1="0" x2="1" y2="1"><stop stop-color="#f59e0b" stop-opacity=".22"/><stop offset="1" stop-color="#0f766e" stop-opacity=".05"/></linearGradient><filter id="sh" x="-20%" y="-20%" width="140%" height="140%"><feDropShadow dx="0" dy="12" stdDeviation="13" flood-color="#302860" flood-opacity=".12"/></filter></defs><rect width="760" height="520" rx="34" fill="#f8f7ff"/><circle cx="90" cy="68" r="74" fill="#0f766e" opacity=".07"/><circle cx="690" cy="475" r="90" fill="#f59e0b" opacity=".09"/><text x="380" y="58" text-anchor="middle" direction="rtl" font-family="Cairo,Tahoma,Arial,sans-serif" font-size="25" font-weight="900" fill="#282344">فاحص ومستعرض محتويات الأ</text><g><rect x="72" y="145" width="235" height="255" rx="28" fill="#fff" stroke="#d9d5ec" stroke-width="3" filter="url(#sh)"/><path d="M184.8 159v227" stroke="#0f766e" stroke-width="11" stroke-dasharray="10 8"/><rect x="163.65" y="241.9" width="42.3" height="56.1" rx="8" fill="url(#g)"/><rect x="205.95" y="352" width="84.6" height="34" rx="12" fill="#fff" opacity=".96"/><text x="248.25" y="376" text-anchor="middle" direction="rtl" font-family="Cairo,Tahoma,Arial,sans-serif" font-size="14" font-weight="800" fill="#0f766e">الأرشيف</text></g><path d="M335 260h85m-30-30 34 30-34 30" fill="none" stroke="#0f766e" stroke-width="13" stroke-linecap="round" stroke-linejoin="round"/><g><path d="M470 180h92l25 28h118v145H470Z" fill="#fff" stroke="#d9d5ec" stroke-width="3" filter="url(#sh)"/><path d="M498 250h175M498 284h145" stroke="#f59e0b" stroke-width="12" stroke-linecap="round"/></g><circle cx="690" cy="85" r="34" fill="#0f766e" opacity=".09"/><circle cx="20" cy="495" r="3" fill="#0f766e" opacity=".45"/><circle cx="36" cy="495" r="3" fill="#0f766e" opacity=".45"/><circle cx="52" cy="495" r="3" fill="#0f766e" opacity=".45"/><circle cx="68" cy="495" r="3" fill="#0f766e" opacity=".45"/><circle cx="84" cy="495" r="3" fill="#0f766e" opacity=".45"/><circle cx="100" cy="495" r="3" fill="#0f766e" opacity=".45"/></svg>