<svg xmlns="http://www.w3.org/2000/svg" width="760" height="520" viewBox="0 0 760 520" role="img"><defs><linearGradient id="g" x1="0" y1="0" x2="1" y2="1"><stop stop-color="#6558e8"/><stop offset="1" stop-color="#9285ff"/></linearGradient><linearGradient id="soft" x1="0" y1="0" x2="1" y2="1"><stop stop-color="#10a7a0" stop-opacity=".22"/><stop offset="1" stop-color="#6558e8" stop-opacity=".05"/></linearGradient><filter id="sh" x="-20%" y="-20%" width="140%" height="140%"><feDropShadow dx="0" dy="12" stdDeviation="13" flood-color="#302860" flood-opacity=".12"/></filter></defs><rect width="760" height="520" rx="34" fill="#f8f7ff"/><circle cx="90" cy="68" r="74" fill="#6558e8" opacity=".07"/><circle cx="690" cy="475" r="90" fill="#10a7a0" opacity=".09"/><text x="380" y="58" text-anchor="middle" direction="rtl" font-family="Cairo,Tahoma,Arial,sans-serif" font-size="25" font-weight="900" fill="#282344">مستعرض الميتا وبيانات ال</text><g><rect x="71" y="135" width="220" height="270" rx="28" fill="#fff" stroke="#d9d5ec" stroke-width="3" filter="url(#sh)"/><path d="M176.6 149v242" stroke="#6558e8" stroke-width="11" stroke-dasharray="10 8"/><rect x="156.8" y="237.6" width="39.6" height="59.4" rx="8" fill="url(#g)"/><rect x="196.39999999999998" y="357" width="79.2" height="34" rx="12" fill="#fff" opacity=".96"/><text x="236" y="381" text-anchor="middle" direction="rtl" font-family="Cairo,Tahoma,Arial,sans-serif" font-size="14" font-weight="800" fill="#6558e8">بيانات الأرشيف</text></g><path d="M325 255h85m-30-30 34 30-34 30" fill="none" stroke="#6558e8" stroke-width="13" stroke-linecap="round" stroke-linejoin="round"/><g><rect x="454" y="125" width="245" height="235" rx="30" fill="#fff" stroke="#d9d5ec" filter="url(#sh)"/><path d="M489 300l43-62 38 35 42-82 52 109" fill="none" stroke="url(#g)" stroke-width="14" stroke-linejoin="round"/><circle cx="517" cy="187" r="24" fill="#10a7a0" opacity=".45"/><text x="576" y="340" text-anchor="middle" direction="rtl" font-family="Cairo,Tahoma,Arial,sans-serif" font-size="16" font-weight="800" fill="#6558e8">تقرير قابل للمراجعة</text></g><path d="M55 430h650" stroke="#10a7a0" stroke-width="5" stroke-dasharray="12 10" opacity=".35"/><circle cx="20" cy="495" r="3" fill="#6558e8" opacity=".45"/><circle cx="36" cy="495" r="3" fill="#6558e8" opacity=".45"/><circle cx="52" cy="495" r="3" fill="#6558e8" opacity=".45"/><circle cx="68" cy="495" r="3" fill="#6558e8" opacity=".45"/><circle cx="84" cy="495" r="3" fill="#6558e8" opacity=".45"/><circle cx="100" cy="495" r="3" fill="#6558e8" opacity=".45"/><circle cx="116" cy="495" r="3" fill="#6558e8" opacity=".45"/><circle cx="132" cy="495" r="3" fill="#6558e8" opacity=".45"/><circle cx="148" cy="495" r="3" fill="#6558e8" opacity=".45"/><circle cx="164" cy="495" r="3" fill="#6558e8" opacity=".45"/><circle cx="180" cy="495" r="3" fill="#6558e8" opacity=".45"/><circle cx="196" cy="495" r="3" fill="#6558e8" opacity=".45"/><circle cx="212" cy="495" r="3" fill="#6558e8" opacity=".45"/><circle cx="228" cy="495" r="3" fill="#6558e8" opacity=".45"/><circle cx="244" cy="495" r="3" fill="#6558e8" opacity=".45"/><circle cx="260" cy="495" r="3" fill="#6558e8" opacity=".45"/><circle cx="276" cy="495" r="3" fill="#6558e8" opacity=".45"/><circle cx="292" cy="495" r="3" fill="#6558e8" opacity=".45"/><circle cx="308" cy="495" r="3" fill="#6558e8" opacity=".45"/><circle cx="324" cy="495" r="3" fill="#6558e8" opacity=".45"/><circle cx="340" cy="495" r="3" fill="#6558e8" opacity=".45"/><circle cx="356" cy="495" r="3" fill="#6558e8" opacity=".45"/><circle cx="372" cy="495" r="3" fill="#6558e8" opacity=".45"/><circle cx="388" cy="495" r="3" fill="#6558e8" opacity=".45"/><circle cx="404" cy="495" r="3" fill="#6558e8" opacity=".45"/><circle cx="420" cy="495" r="3" fill="#6558e8" opacity=".45"/><circle cx="436" cy="495" r="3" fill="#6558e8" opacity=".45"/><circle cx="452" cy="495" r="3" fill="#6558e8" opacity=".45"/><circle cx="468" cy="495" r="3" fill="#6558e8" opacity=".45"/><circle cx="484" cy="495" r="3" fill="#6558e8" opacity=".45"/><circle cx="500" cy="495" r="3" fill="#6558e8" opacity=".45"/><circle cx="516" cy="495" r="3" fill="#6558e8" opacity=".45"/><circle cx="532" cy="495" r="3" fill="#6558e8" opacity=".45"/><circle cx="548" cy="495" r="3" fill="#6558e8" opacity=".45"/><circle cx="564" cy="495" r="3" fill="#6558e8" opacity=".45"/><circle cx="580" cy="495" r="3" fill="#6558e8" opacity=".45"/><circle cx="596" cy="495" r="3" fill="#6558e8" opacity=".45"/></svg>