<svg xmlns="http://www.w3.org/2000/svg" width="960" height="360" viewBox="0 0 960 360" role="img"><defs><linearGradient id="g" x1="0" y1="0" x2="1" y2="1"><stop stop-color="#ea580c"/><stop offset="1" stop-color="#f59e0b"/></linearGradient><linearGradient id="soft" x1="0" y1="0" x2="1" y2="1"><stop stop-color="#2563eb" stop-opacity=".22"/><stop offset="1" stop-color="#ea580c" stop-opacity=".05"/></linearGradient><filter id="sh" x="-20%" y="-20%" width="140%" height="140%"><feDropShadow dx="0" dy="12" stdDeviation="13" flood-color="#302860" flood-opacity=".12"/></filter></defs><rect width="960" height="360" rx="34" fill="#f8f7ff"/><circle cx="90" cy="68" r="74" fill="#ea580c" opacity=".07"/><circle cx="890" cy="315" r="90" fill="#2563eb" opacity=".09"/><g transform="translate(855 12)" opacity=".78"><path d="M-8 38h94" stroke="url(#g)" stroke-width="4"/><circle cx="0" cy="0" r="2.2" fill="url(#g)"/><circle cx="6" cy="0" r="2.2" fill="url(#g)"/><circle cx="12" cy="0" r="2.2" fill="url(#g)"/><circle cx="18" cy="0" r="2.2" fill="url(#g)"/><circle cx="24" cy="0" r="2.2" fill="url(#g)"/><circle cx="30" cy="0" r="2.2" fill="url(#g)"/><circle cx="36" cy="0" r="2.2" fill="url(#g)"/><circle cx="42" cy="0" r="2.2" fill="url(#g)"/><circle cx="48" cy="0" r="2.2" fill="url(#g)"/><circle cx="54" cy="0" r="2.2" fill="url(#g)"/><circle cx="60" cy="0" r="2.2" fill="url(#g)"/><circle cx="66" cy="0" r="2.2" fill="url(#g)"/><circle cx="72" cy="0" r="2.2" fill="url(#g)"/><circle cx="78" cy="0" r="2.2" fill="url(#g)"/><circle cx="0" cy="7" r="2.2" fill="url(#g)"/><circle cx="6" cy="7" r="2.2" fill="url(#g)"/><circle cx="12" cy="7" r="2.2" fill="url(#g)"/><circle cx="18" cy="7" r="2.2" fill="url(#g)"/><circle cx="24" cy="7" r="2.2" fill="url(#g)"/><circle cx="30" cy="7" r="2.2" fill="url(#g)"/><circle cx="36" cy="7" r="2.2" fill="url(#g)"/><circle cx="42" cy="7" r="2.2" fill="url(#g)"/><circle cx="48" cy="7" r="2.2" fill="url(#g)"/><circle cx="54" cy="7" r="2.2" fill="url(#g)"/><circle cx="60" cy="7" r="2.2" fill="url(#g)"/><circle cx="66" cy="7" r="2.2" fill="url(#g)"/><circle cx="72" cy="7" r="2.2" fill="url(#g)"/><circle cx="78" cy="7" r="2.2" fill="url(#g)"/><circle cx="0" cy="14" r="2.2" fill="url(#g)"/><circle cx="6" cy="14" r="2.2" fill="url(#g)"/><circle cx="12" cy="14" r="2.2" fill="url(#g)"/><circle cx="18" cy="14" r="2.2" fill="url(#g)"/><circle cx="24" cy="14" r="2.2" fill="url(#g)"/><circle cx="30" cy="14" r="2.2" fill="url(#g)"/><circle cx="36" cy="14" r="2.2" fill="url(#g)"/></g><g transform="translate(45 55)"><rect width="420" height="115" rx="24" fill="#fff" stroke="#ddd9ed" filter="url(#sh)"/><rect width="14" height="115" rx="7" fill="#ea580c"/><text x="210" y="42" text-anchor="middle" direction="rtl" font-family="Cairo,Tahoma,Arial,sans-serif" font-size="17" font-weight="800" fill="#302b50">المسار المباشر</text><text x="210" y="75" text-anchor="middle" direction="rtl" font-family="Cairo,Tahoma,Arial,sans-serif" font-size="14" font-weight="800" fill="#ea580c">معرفة ما أضيف أو حُذف أو تغير قبل اعتماد إصدار جديد</text><text x="210" y="101" text-anchor="middle" direction="rtl" font-family="Cairo,Tahoma,Arial,sans-serif" font-size="13" font-weight="700" fill="#625d72">اختيار معيار مقارنة يتجاوز التاريخ وحده</text></g><g transform="translate(490 55)"><rect width="420" height="115" rx="24" fill="#fff" stroke="#ddd9ed" filter="url(#sh)"/><rect width="14" height="115" rx="7" fill="#2563eb"/><text x="210" y="42" text-anchor="middle" direction="rtl" font-family="Cairo,Tahoma,Arial,sans-serif" font-size="17" font-weight="800" fill="#302b50">عينة صغيرة</text><text x="210" y="75" text-anchor="middle" direction="rtl" font-family="Cairo,Tahoma,Arial,sans-serif" font-size="14" font-weight="800" fill="#ea580c">ملف مجهول أو عملية جديدة</text><text x="210" y="101" text-anchor="middle" direction="rtl" font-family="Cairo,Tahoma,Arial,sans-serif" font-size="13" font-weight="700" fill="#625d72">الوقت والنتيجة</text></g><g transform="translate(45 195)"><rect width="420" height="115" rx="24" fill="#fff" stroke="#ddd9ed" filter="url(#sh)"/><rect width="14" height="115" rx="7" fill="#ea580c"/><text x="210" y="42" text-anchor="middle" direction="rtl" font-family="Cairo,Tahoma,Arial,sans-serif" font-size="17" font-weight="800" fill="#302b50">نسخة محافظة</text><text x="210" y="75" text-anchor="middle" direction="rtl" font-family="Cairo,Tahoma,Arial,sans-serif" font-size="14" font-weight="800" fill="#ea580c">محتوى حساس أو أرشيف مهم</text><text x="210" y="101" text-anchor="middle" direction="rtl" font-family="Cairo,Tahoma,Arial,sans-serif" font-size="13" font-weight="700" fill="#625d72">الأصل وسجل التغيير</text></g><g transform="translate(490 195)"><rect width="420" height="115" rx="24" fill="#fff" stroke="#ddd9ed" filter="url(#sh)"/><rect width="14" height="115" rx="7" fill="#2563eb"/><text x="210" y="42" text-anchor="middle" direction="rtl" font-family="Cairo,Tahoma,Arial,sans-serif" font-size="17" font-weight="800" fill="#302b50">بديل متوافق</text><text x="210" y="75" text-anchor="middle" direction="rtl" font-family="Cairo,Tahoma,Arial,sans-serif" font-size="14" font-weight="800" fill="#ea580c">عدم دعم الصيغة لدى المستلم</text><text x="210" y="101" text-anchor="middle" direction="rtl" font-family="Cairo,Tahoma,Arial,sans-serif" font-size="13" font-weight="700" fill="#625d72">الحجم والسمات</text></g></svg>