<svg xmlns="http://www.w3.org/2000/svg" width="960" height="360" viewBox="0 0 960 360" role="img"><defs><linearGradient id="g" x1="0" y1="0" x2="1" y2="1"><stop stop-color="#2563eb"/><stop offset="1" stop-color="#60a5fa"/></linearGradient><linearGradient id="soft" x1="0" y1="0" x2="1" y2="1"><stop stop-color="#8b5cf6" stop-opacity=".22"/><stop offset="1" stop-color="#2563eb" stop-opacity=".05"/></linearGradient><filter id="sh" x="-20%" y="-20%" width="140%" height="140%"><feDropShadow dx="0" dy="12" stdDeviation="13" flood-color="#302860" flood-opacity=".12"/></filter></defs><rect width="960" height="360" rx="34" fill="#f8f7ff"/><circle cx="90" cy="68" r="74" fill="#2563eb" opacity=".07"/><circle cx="890" cy="315" r="90" fill="#8b5cf6" opacity=".09"/><g transform="translate(855 12)" opacity=".78"><circle cx="38" cy="16" r="27" fill="#fff" stroke="url(#g)" stroke-width="2"/><circle cx="0" cy="0" r="2.2" fill="url(#g)"/><circle cx="6" cy="0" r="2.2" fill="url(#g)"/><circle cx="12" cy="0" r="2.2" fill="url(#g)"/><circle cx="18" cy="0" r="2.2" fill="url(#g)"/><circle cx="24" cy="0" r="2.2" fill="url(#g)"/><circle cx="30" cy="0" r="2.2" fill="url(#g)"/><circle cx="36" cy="0" r="2.2" fill="url(#g)"/><circle cx="42" cy="0" r="2.2" fill="url(#g)"/><circle cx="48" cy="0" r="2.2" fill="url(#g)"/><circle cx="54" cy="0" r="2.2" fill="url(#g)"/><circle cx="60" cy="0" r="2.2" fill="url(#g)"/><circle cx="66" cy="0" r="2.2" fill="url(#g)"/><circle cx="72" cy="0" r="2.2" fill="url(#g)"/><circle cx="78" cy="0" r="2.2" fill="url(#g)"/><circle cx="0" cy="7" r="2.2" fill="url(#g)"/><circle cx="6" cy="7" r="2.2" fill="url(#g)"/><circle cx="12" cy="7" r="2.2" fill="url(#g)"/><circle cx="18" cy="7" r="2.2" fill="url(#g)"/><circle cx="24" cy="7" r="2.2" fill="url(#g)"/><circle cx="30" cy="7" r="2.2" fill="url(#g)"/><circle cx="36" cy="7" r="2.2" fill="url(#g)"/><circle cx="42" cy="7" r="2.2" fill="url(#g)"/><circle cx="48" cy="7" r="2.2" fill="url(#g)"/><circle cx="54" cy="7" r="2.2" fill="url(#g)"/><circle cx="60" cy="7" r="2.2" fill="url(#g)"/><circle cx="66" cy="7" r="2.2" fill="url(#g)"/><circle cx="72" cy="7" r="2.2" fill="url(#g)"/><circle cx="78" cy="7" r="2.2" fill="url(#g)"/><circle cx="0" cy="14" r="2.2" fill="url(#g)"/><circle cx="6" cy="14" r="2.2" fill="url(#g)"/><circle cx="12" cy="14" r="2.2" fill="url(#g)"/><circle cx="18" cy="14" r="2.2" fill="url(#g)"/><circle cx="24" cy="14" r="2.2" fill="url(#g)"/><circle cx="30" cy="14" r="2.2" fill="url(#g)"/><circle cx="36" cy="14" r="2.2" fill="url(#g)"/><circle cx="42" cy="14" r="2.2" fill="url(#g)"/><circle cx="48" cy="14" r="2.2" fill="url(#g)"/><circle cx="54" cy="14" r="2.2" fill="url(#g)"/><circle cx="60" cy="14" r="2.2" fill="url(#g)"/></g><g transform="translate(70 65)"><circle cx="90" cy="90" r="72" fill="#fff" stroke="#2563eb" stroke-width="5" filter="url(#sh)"/><text x="90" y="82" text-anchor="middle" direction="rtl" font-family="Cairo,Tahoma,Arial,sans-serif" font-size="14" font-weight="800" fill="#302b50">المسار المباشر</text><text x="90" y="111" text-anchor="middle" direction="rtl" font-family="Cairo,Tahoma,Arial,sans-serif" font-size="10.5" font-weight="700" fill="#2563eb">خرائط المصدر وال…</text></g><g transform="translate(285 105)"><circle cx="90" cy="90" r="68" fill="#fff" stroke="#8b5cf6" stroke-width="5" filter="url(#sh)"/><text x="90" y="82" text-anchor="middle" direction="rtl" font-family="Cairo,Tahoma,Arial,sans-serif" font-size="14" font-weight="800" fill="#302b50">عينة صغيرة</text><text x="90" y="111" text-anchor="middle" direction="rtl" font-family="Cairo,Tahoma,Arial,sans-serif" font-size="10.5" font-weight="700" fill="#2563eb">الوقت والنتيجة</text></g><g transform="translate(500 65)"><circle cx="90" cy="90" r="64" fill="#fff" stroke="#2563eb" stroke-width="5" filter="url(#sh)"/><text x="90" y="82" text-anchor="middle" direction="rtl" font-family="Cairo,Tahoma,Arial,sans-serif" font-size="14" font-weight="800" fill="#302b50">نسخة محافظة</text><text x="90" y="111" text-anchor="middle" direction="rtl" font-family="Cairo,Tahoma,Arial,sans-serif" font-size="10.5" font-weight="700" fill="#2563eb">الأصل وسجل التغي…</text></g><g transform="translate(715 105)"><circle cx="90" cy="90" r="60" fill="#fff" stroke="#8b5cf6" stroke-width="5" filter="url(#sh)"/><text x="90" y="82" text-anchor="middle" direction="rtl" font-family="Cairo,Tahoma,Arial,sans-serif" font-size="14" font-weight="800" fill="#302b50">بديل متوافق</text><text x="90" y="111" text-anchor="middle" direction="rtl" font-family="Cairo,Tahoma,Arial,sans-serif" font-size="10.5" font-weight="700" fill="#2563eb">الحجم والسمات</text></g><path d="M95 300h770" stroke="#8b5cf6" stroke-width="6" stroke-linecap="round"/></svg>