<svg xmlns="http://www.w3.org/2000/svg" width="760" height="520" viewBox="0 0 760 520" role="img"><defs><linearGradient id="g" x1="0" y1="0" x2="1" y2="1"><stop stop-color="#4f46e5"/><stop offset="1" stop-color="#7c6cf2"/></linearGradient><linearGradient id="soft" x1="0" y1="0" x2="1" y2="1"><stop stop-color="#0f9f8f" stop-opacity=".22"/><stop offset="1" stop-color="#4f46e5" stop-opacity=".05"/></linearGradient><filter id="sh" x="-20%" y="-20%" width="140%" height="140%"><feDropShadow dx="0" dy="12" stdDeviation="13" flood-color="#302860" flood-opacity=".12"/></filter></defs><rect width="760" height="520" rx="34" fill="#f8f7ff"/><circle cx="90" cy="68" r="74" fill="#4f46e5" opacity=".07"/><circle cx="690" cy="475" r="90" fill="#0f9f8f" opacity=".09"/><text x="380" y="58" text-anchor="middle" direction="rtl" font-family="Cairo,Tahoma,Arial,sans-serif" font-size="25" font-weight="900" fill="#282344">فك ضغط ملفات GZ / GZIP أ</text><g><rect x="96" y="145" width="235" height="255" rx="28" fill="#fff" stroke="#d9d5ec" stroke-width="3" filter="url(#sh)"/><path d="M208.8 159v227" stroke="#4f46e5" stroke-width="11" stroke-dasharray="10 8"/><rect x="187.65" y="241.9" width="42.3" height="56.1" rx="8" fill="url(#g)"/><rect x="229.95" y="352" width="84.6" height="34" rx="12" fill="#fff" opacity=".96"/><text x="272.25" y="376" text-anchor="middle" direction="rtl" font-family="Cairo,Tahoma,Arial,sans-serif" font-size="14" font-weight="800" fill="#4f46e5">GZIP</text></g><path d="M335 260h85m-30-30 34 30-34 30" fill="none" stroke="#4f46e5" stroke-width="13" stroke-linecap="round" stroke-linejoin="round"/><g><path d="M446 180h92l25 28h118v145H446Z" fill="#fff" stroke="#d9d5ec" stroke-width="3" filter="url(#sh)"/><path d="M474 250h175M474 284h145" stroke="#0f9f8f" stroke-width="12" stroke-linecap="round"/></g><path d="M95 445h560" stroke="#4f46e5" stroke-width="5" stroke-linecap="round" opacity=".22"/><circle cx="20" cy="495" r="3" fill="#4f46e5" opacity=".45"/><circle cx="36" cy="495" r="3" fill="#4f46e5" opacity=".45"/><circle cx="52" cy="495" r="3" fill="#4f46e5" opacity=".45"/><circle cx="68" cy="495" r="3" fill="#4f46e5" opacity=".45"/><circle cx="84" cy="495" r="3" fill="#4f46e5" opacity=".45"/></svg>