<svg xmlns="http://www.w3.org/2000/svg" width="760" height="520" viewBox="0 0 760 520" role="img"><defs><linearGradient id="g" x1="0" y1="0" x2="1" y2="1"><stop stop-color="#ea580c"/><stop offset="1" stop-color="#f59e0b"/></linearGradient><linearGradient id="soft" x1="0" y1="0" x2="1" y2="1"><stop stop-color="#2563eb" stop-opacity=".22"/><stop offset="1" stop-color="#ea580c" stop-opacity=".05"/></linearGradient><filter id="sh" x="-20%" y="-20%" width="140%" height="140%"><feDropShadow dx="0" dy="12" stdDeviation="13" flood-color="#302860" flood-opacity=".12"/></filter></defs><rect width="760" height="520" rx="34" fill="#f8f7ff"/><circle cx="90" cy="68" r="74" fill="#ea580c" opacity=".07"/><circle cx="690" cy="475" r="90" fill="#2563eb" opacity=".09"/><text x="380" y="58" text-anchor="middle" direction="rtl" font-family="Cairo,Tahoma,Arial,sans-serif" font-size="25" font-weight="900" fill="#282344">محول SFX EXE إلى ZIP أون</text><g><rect x="70" y="130" width="220" height="270" rx="28" fill="#fff" stroke="#d9d5ec" stroke-width="3" filter="url(#sh)"/><path d="M175.6 144v242" stroke="#ea580c" stroke-width="11" stroke-dasharray="10 8"/><rect x="155.8" y="232.6" width="39.6" height="59.4" rx="8" fill="url(#g)"/><rect x="195.39999999999998" y="352" width="79.2" height="34" rx="12" fill="#fff" opacity=".96"/><text x="235" y="376" text-anchor="middle" direction="rtl" font-family="Cairo,Tahoma,Arial,sans-serif" font-size="14" font-weight="800" fill="#ea580c">SFX EXE إلى ZIP</text></g><path d="M330 265h85m-30-30 34 30-34 30" fill="none" stroke="#ea580c" stroke-width="13" stroke-linecap="round" stroke-linejoin="round"/><g><rect x="485" y="130" width="220" height="270" rx="28" fill="#fff" stroke="#d9d5ec" stroke-width="3" filter="url(#sh)"/><path d="M590.6 144v242" stroke="#ea580c" stroke-width="11" stroke-dasharray="10 8"/><rect x="570.8" y="232.6" width="39.6" height="59.4" rx="8" fill="url(#g)"/><rect x="610.4" y="352" width="79.2" height="34" rx="12" fill="#fff" opacity=".96"/><text x="650" y="376" text-anchor="middle" direction="rtl" font-family="Cairo,Tahoma,Arial,sans-serif" font-size="14" font-weight="800" fill="#ea580c">صيغة جديدة</text></g><circle cx="380" cy="420" r="26" fill="#2563eb" opacity=".25"/><circle cx="20" cy="495" r="3" fill="#ea580c" opacity=".45"/><circle cx="36" cy="495" r="3" fill="#ea580c" opacity=".45"/><circle cx="52" cy="495" r="3" fill="#ea580c" opacity=".45"/><circle cx="68" cy="495" r="3" fill="#ea580c" opacity=".45"/><circle cx="84" cy="495" r="3" fill="#ea580c" opacity=".45"/><circle cx="100" cy="495" r="3" fill="#ea580c" opacity=".45"/><circle cx="116" cy="495" r="3" fill="#ea580c" opacity=".45"/><circle cx="132" cy="495" r="3" fill="#ea580c" opacity=".45"/><circle cx="148" cy="495" r="3" fill="#ea580c" opacity=".45"/><circle cx="164" cy="495" r="3" fill="#ea580c" opacity=".45"/><circle cx="180" cy="495" r="3" fill="#ea580c" opacity=".45"/><circle cx="196" cy="495" r="3" fill="#ea580c" opacity=".45"/><circle cx="212" cy="495" r="3" fill="#ea580c" opacity=".45"/><circle cx="228" cy="495" r="3" fill="#ea580c" opacity=".45"/><circle cx="244" cy="495" r="3" fill="#ea580c" opacity=".45"/><circle cx="260" cy="495" r="3" fill="#ea580c" opacity=".45"/><circle cx="276" cy="495" r="3" fill="#ea580c" opacity=".45"/><circle cx="292" cy="495" r="3" fill="#ea580c" opacity=".45"/><circle cx="308" cy="495" r="3" fill="#ea580c" opacity=".45"/><circle cx="324" cy="495" r="3" fill="#ea580c" opacity=".45"/><circle cx="340" cy="495" r="3" fill="#ea580c" opacity=".45"/><circle cx="356" cy="495" r="3" fill="#ea580c" opacity=".45"/><circle cx="372" cy="495" r="3" fill="#ea580c" opacity=".45"/><circle cx="388" cy="495" r="3" fill="#ea580c" opacity=".45"/><circle cx="404" cy="495" r="3" fill="#ea580c" opacity=".45"/><circle cx="420" cy="495" r="3" fill="#ea580c" opacity=".45"/></svg>