<svg xmlns="http://www.w3.org/2000/svg" width="760" height="520" viewBox="0 0 760 520" role="img"><defs><linearGradient id="g" x1="0" y1="0" x2="1" y2="1"><stop stop-color="#ea580c"/><stop offset="1" stop-color="#f59e0b"/></linearGradient><linearGradient id="soft" x1="0" y1="0" x2="1" y2="1"><stop stop-color="#2563eb" stop-opacity=".22"/><stop offset="1" stop-color="#ea580c" stop-opacity=".05"/></linearGradient><filter id="sh" x="-20%" y="-20%" width="140%" height="140%"><feDropShadow dx="0" dy="12" stdDeviation="13" flood-color="#302860" flood-opacity=".12"/></filter></defs><rect width="760" height="520" rx="34" fill="#f8f7ff"/><circle cx="90" cy="68" r="74" fill="#ea580c" opacity=".07"/><circle cx="690" cy="475" r="90" fill="#2563eb" opacity=".09"/><text x="380" y="58" text-anchor="middle" direction="rtl" font-family="Cairo,Tahoma,Arial,sans-serif" font-size="25" font-weight="900" fill="#282344">منشئ ملفات TAR البرمجية </text><g><rect x="71" y="130" width="120" height="155" rx="18" fill="#fff" stroke="#d9d5ec" filter="url(#sh)"/><path d="M93 178h76M93 208h60M93 238h72" stroke="#d8d4e8" stroke-width="9" stroke-linecap="round"/><rect x="107" y="148" width="120" height="155" rx="18" fill="#fff" stroke="#d9d5ec" filter="url(#sh)"/><path d="M129 196h76M129 226h60M129 256h72" stroke="#d8d4e8" stroke-width="9" stroke-linecap="round"/><rect x="143" y="166" width="120" height="155" rx="18" fill="#fff" stroke="#d9d5ec" filter="url(#sh)"/><path d="M165 214h76M165 244h60M165 274h72" stroke="#d8d4e8" stroke-width="9" stroke-linecap="round"/></g><path d="M330 270h85m-30-30 34 30-34 30" fill="none" stroke="#ea580c" stroke-width="13" stroke-linecap="round" stroke-linejoin="round"/><g><rect x="479" y="115" width="220" height="290" rx="28" fill="#fff" stroke="#d9d5ec" stroke-width="3" filter="url(#sh)"/><path d="M584.6 129v262" stroke="#ea580c" stroke-width="11" stroke-dasharray="10 8"/><rect x="564.8" y="225.2" width="39.6" height="63.8" rx="8" fill="url(#g)"/><rect x="604.4" y="357" width="79.2" height="34" rx="12" fill="#fff" opacity=".96"/><text x="644" y="381" text-anchor="middle" direction="rtl" font-family="Cairo,Tahoma,Arial,sans-serif" font-size="14" font-weight="800" fill="#ea580c">TAR</text></g><path d="M95 445h560" stroke="#ea580c" stroke-width="5" stroke-linecap="round" opacity=".22"/><circle cx="20" cy="495" r="3" fill="#ea580c" opacity=".45"/><circle cx="36" cy="495" r="3" fill="#ea580c" opacity=".45"/><circle cx="52" cy="495" r="3" fill="#ea580c" opacity=".45"/><circle cx="68" cy="495" r="3" fill="#ea580c" opacity=".45"/><circle cx="84" cy="495" r="3" fill="#ea580c" opacity=".45"/><circle cx="100" cy="495" r="3" fill="#ea580c" opacity=".45"/><circle cx="116" cy="495" r="3" fill="#ea580c" opacity=".45"/><circle cx="132" cy="495" r="3" fill="#ea580c" opacity=".45"/><circle cx="148" cy="495" r="3" fill="#ea580c" opacity=".45"/><circle cx="164" cy="495" r="3" fill="#ea580c" opacity=".45"/><circle cx="180" cy="495" r="3" fill="#ea580c" opacity=".45"/><circle cx="196" cy="495" r="3" fill="#ea580c" opacity=".45"/><circle cx="212" cy="495" r="3" fill="#ea580c" opacity=".45"/><circle cx="228" cy="495" r="3" fill="#ea580c" opacity=".45"/><circle cx="244" cy="495" r="3" fill="#ea580c" opacity=".45"/><circle cx="260" cy="495" r="3" fill="#ea580c" opacity=".45"/><circle cx="276" cy="495" r="3" fill="#ea580c" opacity=".45"/></svg>