<svg xmlns="http://www.w3.org/2000/svg" width="960" height="340" viewBox="0 0 960 340" role="img"><defs><linearGradient id="g" x1="0" y1="0" x2="1" y2="1"><stop stop-color="#d9467a"/><stop offset="1" stop-color="#fb7185"/></linearGradient><linearGradient id="soft" x1="0" y1="0" x2="1" y2="1"><stop stop-color="#6558e8" stop-opacity=".22"/><stop offset="1" stop-color="#d9467a" stop-opacity=".05"/></linearGradient><filter id="sh" x="-20%" y="-20%" width="140%" height="140%"><feDropShadow dx="0" dy="12" stdDeviation="13" flood-color="#302860" flood-opacity=".12"/></filter></defs><rect width="960" height="340" rx="34" fill="#f8f7ff"/><circle cx="90" cy="68" r="74" fill="#d9467a" opacity=".07"/><circle cx="890" cy="295" r="90" fill="#6558e8" opacity=".09"/><g transform="translate(855 12)" opacity=".78"><rect x="-8" y="-8" width="94" height="48" rx="12" fill="#fff" stroke="url(#g)" stroke-width="2"/><circle cx="0" cy="0" r="2.2" fill="url(#g)"/><circle cx="6" cy="0" r="2.2" fill="url(#g)"/><circle cx="12" cy="0" r="2.2" fill="url(#g)"/><circle cx="18" cy="0" r="2.2" fill="url(#g)"/><circle cx="24" cy="0" r="2.2" fill="url(#g)"/><circle cx="30" cy="0" r="2.2" fill="url(#g)"/><circle cx="36" cy="0" r="2.2" fill="url(#g)"/><circle cx="42" cy="0" r="2.2" fill="url(#g)"/><circle cx="48" cy="0" r="2.2" fill="url(#g)"/><circle cx="54" cy="0" r="2.2" fill="url(#g)"/><circle cx="60" cy="0" r="2.2" fill="url(#g)"/><circle cx="66" cy="0" r="2.2" fill="url(#g)"/><circle cx="72" cy="0" r="2.2" fill="url(#g)"/><circle cx="78" cy="0" r="2.2" fill="url(#g)"/><circle cx="0" cy="7" r="2.2" fill="url(#g)"/><circle cx="6" cy="7" r="2.2" fill="url(#g)"/><circle cx="12" cy="7" r="2.2" fill="url(#g)"/><circle cx="18" cy="7" r="2.2" fill="url(#g)"/><circle cx="24" cy="7" r="2.2" fill="url(#g)"/><circle cx="30" cy="7" r="2.2" fill="url(#g)"/><circle cx="36" cy="7" r="2.2" fill="url(#g)"/><circle cx="42" cy="7" r="2.2" fill="url(#g)"/></g><rect x="45" y="95" width="195" height="170" rx="41" fill="#fff" stroke="#ddd9ed" filter="url(#sh)"/><circle cx="142.5" cy="95" r="27" fill="url(#g)"/><text x="142.5" y="104" text-anchor="middle" direction="rtl" font-family="Cairo,Tahoma,Arial,sans-serif" font-size="21" font-weight="900" fill="#fff">1</text><text x="142.5" y="167" text-anchor="middle" direction="rtl" font-family="Cairo,Tahoma,Arial,sans-serif" font-size="19" font-weight="800" fill="#302b50">افحص</text><text x="142.5" y="217" text-anchor="middle" direction="rtl" font-family="Cairo,Tahoma,Arial,sans-serif" font-size="14" font-weight="700" fill="#d9467a">مصدر</text><rect x="270" y="117" width="195" height="170" rx="41" fill="#fff" stroke="#ddd9ed" filter="url(#sh)"/><circle cx="367.5" cy="117" r="27" fill="url(#g)"/><text x="367.5" y="126" text-anchor="middle" direction="rtl" font-family="Cairo,Tahoma,Arial,sans-serif" font-size="21" font-weight="900" fill="#fff">2</text><text x="367.5" y="189" text-anchor="middle" direction="rtl" font-family="Cairo,Tahoma,Arial,sans-serif" font-size="19" font-weight="800" fill="#302b50">اضبط</text><text x="367.5" y="239" text-anchor="middle" direction="rtl" font-family="Cairo,Tahoma,Arial,sans-serif" font-size="14" font-weight="700" fill="#d9467a">إعداد</text><rect x="495" y="95" width="195" height="170" rx="41" fill="#fff" stroke="#ddd9ed" filter="url(#sh)"/><circle cx="592.5" cy="95" r="27" fill="url(#g)"/><text x="592.5" y="104" text-anchor="middle" direction="rtl" font-family="Cairo,Tahoma,Arial,sans-serif" font-size="21" font-weight="900" fill="#fff">3</text><text x="592.5" y="167" text-anchor="middle" direction="rtl" font-family="Cairo,Tahoma,Arial,sans-serif" font-size="19" font-weight="800" fill="#302b50">نفّذ</text><text x="592.5" y="217" text-anchor="middle" direction="rtl" font-family="Cairo,Tahoma,Arial,sans-serif" font-size="14" font-weight="700" fill="#d9467a">معالجة</text><rect x="720" y="117" width="195" height="170" rx="41" fill="#fff" stroke="#ddd9ed" filter="url(#sh)"/><circle cx="817.5" cy="117" r="27" fill="url(#g)"/><text x="817.5" y="126" text-anchor="middle" direction="rtl" font-family="Cairo,Tahoma,Arial,sans-serif" font-size="21" font-weight="900" fill="#fff">4</text><text x="817.5" y="189" text-anchor="middle" direction="rtl" font-family="Cairo,Tahoma,Arial,sans-serif" font-size="19" font-weight="800" fill="#302b50">راجع</text><text x="817.5" y="239" text-anchor="middle" direction="rtl" font-family="Cairo,Tahoma,Arial,sans-serif" font-size="14" font-weight="700" fill="#d9467a">اعتماد</text><path d="M65 300 Q480 353 895 300" fill="none" stroke="#6558e8" stroke-width="5" stroke-dasharray="10 10" opacity=".5"/></svg>