<svg xmlns="http://www.w3.org/2000/svg" width="960" height="360" viewBox="0 0 960 360" role="img"><defs><linearGradient id="g" x1="0" y1="0" x2="1" y2="1"><stop stop-color="#6558e8"/><stop offset="1" stop-color="#9285ff"/></linearGradient><linearGradient id="soft" x1="0" y1="0" x2="1" y2="1"><stop stop-color="#10a7a0" stop-opacity=".22"/><stop offset="1" stop-color="#6558e8" stop-opacity=".05"/></linearGradient><filter id="sh" x="-20%" y="-20%" width="140%" height="140%"><feDropShadow dx="0" dy="12" stdDeviation="13" flood-color="#302860" flood-opacity=".12"/></filter></defs><rect width="960" height="360" rx="34" fill="#f8f7ff"/><circle cx="90" cy="68" r="74" fill="#6558e8" opacity=".07"/><circle cx="890" cy="315" r="90" fill="#10a7a0" opacity=".09"/><g transform="translate(855 12)" opacity=".78"><rect x="-8" y="-8" width="94" height="48" rx="12" fill="#fff" stroke="url(#g)" stroke-width="2"/><circle cx="0" cy="0" r="2.2" fill="url(#g)"/><circle cx="6" cy="0" r="2.2" fill="url(#g)"/><circle cx="12" cy="0" r="2.2" fill="url(#g)"/><circle cx="18" cy="0" r="2.2" fill="url(#g)"/><circle cx="24" cy="0" r="2.2" fill="url(#g)"/><circle cx="30" cy="0" r="2.2" fill="url(#g)"/><circle cx="36" cy="0" r="2.2" fill="url(#g)"/><circle cx="42" cy="0" r="2.2" fill="url(#g)"/><circle cx="48" cy="0" r="2.2" fill="url(#g)"/><circle cx="54" cy="0" r="2.2" fill="url(#g)"/><circle cx="60" cy="0" r="2.2" fill="url(#g)"/><circle cx="66" cy="0" r="2.2" fill="url(#g)"/><circle cx="72" cy="0" r="2.2" fill="url(#g)"/><circle cx="78" cy="0" r="2.2" fill="url(#g)"/><circle cx="0" cy="7" r="2.2" fill="url(#g)"/><circle cx="6" cy="7" r="2.2" fill="url(#g)"/><circle cx="12" cy="7" r="2.2" fill="url(#g)"/><circle cx="18" cy="7" r="2.2" fill="url(#g)"/><circle cx="24" cy="7" r="2.2" fill="url(#g)"/></g><g transform="translate(50 90) rotate(-3 135 90)"><rect width="270" height="185" rx="40" fill="#fff" stroke="#ddd9ed" filter="url(#sh)"/><path d="M35 45h200" stroke="#10a7a0" stroke-width="8" stroke-linecap="round" opacity=".35"/><text x="135" y="86" text-anchor="middle" direction="rtl" font-family="Cairo,Tahoma,Arial,sans-serif" font-size="17" font-weight="800" fill="#302b50">صيغة غير معروفة</text><text x="135" y="132" text-anchor="middle" direction="rtl" font-family="Cairo,Tahoma,Arial,sans-serif" font-size="14" font-weight="700" fill="#6558e8">افحص المصدر</text><circle cx="135" cy="168" r="8" fill="#6558e8"/></g><g transform="translate(350 90) rotate(2 135 90)"><rect width="270" height="185" rx="40" fill="#fff" stroke="#ddd9ed" filter="url(#sh)"/><path d="M35 45h200" stroke="#10a7a0" stroke-width="8" stroke-linecap="round" opacity=".35"/><text x="135" y="86" text-anchor="middle" direction="rtl" font-family="Cairo,Tahoma,Arial,sans-serif" font-size="17" font-weight="800" fill="#302b50">ناتج ناقص</text><text x="135" y="132" text-anchor="middle" direction="rtl" font-family="Cairo,Tahoma,Arial,sans-serif" font-size="14" font-weight="700" fill="#6558e8">راجع الإعداد</text><circle cx="135" cy="168" r="8" fill="#6558e8"/></g><g transform="translate(650 90) rotate(-2 135 90)"><rect width="270" height="185" rx="40" fill="#fff" stroke="#ddd9ed" filter="url(#sh)"/><path d="M35 45h200" stroke="#10a7a0" stroke-width="8" stroke-linecap="round" opacity=".35"/><text x="135" y="86" text-anchor="middle" direction="rtl" font-family="Cairo,Tahoma,Arial,sans-serif" font-size="17" font-weight="800" fill="#302b50">أسماء تالفة</text><text x="135" y="132" text-anchor="middle" direction="rtl" font-family="Cairo,Tahoma,Arial,sans-serif" font-size="14" font-weight="700" fill="#6558e8">اختبر الناتج</text><circle cx="135" cy="168" r="8" fill="#6558e8"/></g></svg>