<svg xmlns="http://www.w3.org/2000/svg" width="960" height="360" viewBox="0 0 960 360" role="img"><defs><linearGradient id="g" x1="0" y1="0" x2="1" y2="1"><stop stop-color="#d9467a"/><stop offset="1" stop-color="#fb7185"/></linearGradient><linearGradient id="soft" x1="0" y1="0" x2="1" y2="1"><stop stop-color="#6558e8" stop-opacity=".22"/><stop offset="1" stop-color="#d9467a" stop-opacity=".05"/></linearGradient><filter id="sh" x="-20%" y="-20%" width="140%" height="140%"><feDropShadow dx="0" dy="12" stdDeviation="13" flood-color="#302860" flood-opacity=".12"/></filter></defs><rect width="960" height="360" rx="34" fill="#f8f7ff"/><circle cx="90" cy="68" r="74" fill="#d9467a" opacity=".07"/><circle cx="890" cy="315" r="90" fill="#6558e8" opacity=".09"/><g transform="translate(855 12)" opacity=".78"><rect x="-8" y="-8" width="94" height="48" rx="12" fill="#fff" stroke="url(#g)" stroke-width="2"/><circle cx="0" cy="0" r="2.2" fill="url(#g)"/><circle cx="6" cy="0" r="2.2" fill="url(#g)"/><circle cx="12" cy="0" r="2.2" fill="url(#g)"/><circle cx="18" cy="0" r="2.2" fill="url(#g)"/><circle cx="24" cy="0" r="2.2" fill="url(#g)"/><circle cx="30" cy="0" r="2.2" fill="url(#g)"/><circle cx="36" cy="0" r="2.2" fill="url(#g)"/><circle cx="42" cy="0" r="2.2" fill="url(#g)"/><circle cx="48" cy="0" r="2.2" fill="url(#g)"/><circle cx="54" cy="0" r="2.2" fill="url(#g)"/><circle cx="60" cy="0" r="2.2" fill="url(#g)"/><circle cx="66" cy="0" r="2.2" fill="url(#g)"/><circle cx="72" cy="0" r="2.2" fill="url(#g)"/><circle cx="78" cy="0" r="2.2" fill="url(#g)"/><circle cx="0" cy="7" r="2.2" fill="url(#g)"/><circle cx="6" cy="7" r="2.2" fill="url(#g)"/><circle cx="12" cy="7" r="2.2" fill="url(#g)"/><circle cx="18" cy="7" r="2.2" fill="url(#g)"/><circle cx="24" cy="7" r="2.2" fill="url(#g)"/><circle cx="30" cy="7" r="2.2" fill="url(#g)"/><circle cx="36" cy="7" r="2.2" fill="url(#g)"/><circle cx="42" cy="7" r="2.2" fill="url(#g)"/><circle cx="48" cy="7" r="2.2" fill="url(#g)"/><circle cx="54" cy="7" r="2.2" fill="url(#g)"/><circle cx="60" cy="7" r="2.2" fill="url(#g)"/><circle cx="66" cy="7" r="2.2" fill="url(#g)"/><circle cx="72" cy="7" r="2.2" fill="url(#g)"/><circle cx="78" cy="7" r="2.2" fill="url(#g)"/><circle cx="0" cy="14" r="2.2" fill="url(#g)"/><circle cx="6" cy="14" r="2.2" fill="url(#g)"/><circle cx="12" cy="14" r="2.2" fill="url(#g)"/></g><rect x="65" y="50" width="830" height="58" rx="18" fill="#fff" stroke="#ddd9ed"/><circle cx="103" cy="79" r="19" fill="url(#g)"/><text x="103" y="86" text-anchor="middle" direction="rtl" font-family="Cairo,Tahoma,Arial,sans-serif" font-size="16" font-weight="900" fill="#fff">1</text><text x="270" y="87" text-anchor="middle" direction="rtl" font-family="Cairo,Tahoma,Arial,sans-serif" font-size="16" font-weight="800" fill="#302b50">المسار المباشر</text><text x="520" y="87" text-anchor="middle" direction="rtl" font-family="Cairo,Tahoma,Arial,sans-serif" font-size="15" font-weight="800" fill="#d9467a">التأكد من أن الأرشيف قابل للقراءة قبل حذفه من المصدر أو إرساله</text><text x="760" y="87" text-anchor="middle" direction="rtl" font-family="Cairo,Tahoma,Arial,sans-serif" font-size="14" font-weight="700" fill="#615c71">فحص البيانات كلها لا القائمة فقط</text><rect x="83" y="122" width="794" height="58" rx="18" fill="#fff" stroke="#ddd9ed"/><circle cx="121" cy="151" r="19" fill="url(#g)"/><text x="121" y="158" text-anchor="middle" direction="rtl" font-family="Cairo,Tahoma,Arial,sans-serif" font-size="16" font-weight="900" fill="#fff">2</text><text x="270" y="159" text-anchor="middle" direction="rtl" font-family="Cairo,Tahoma,Arial,sans-serif" font-size="16" font-weight="800" fill="#302b50">عينة صغيرة</text><text x="520" y="159" text-anchor="middle" direction="rtl" font-family="Cairo,Tahoma,Arial,sans-serif" font-size="15" font-weight="800" fill="#d9467a">ملف مجهول أو عملية جديدة</text><text x="750" y="159" text-anchor="middle" direction="rtl" font-family="Cairo,Tahoma,Arial,sans-serif" font-size="14" font-weight="700" fill="#615c71">الوقت والنتيجة</text><rect x="101" y="194" width="758" height="58" rx="18" fill="#fff" stroke="#ddd9ed"/><circle cx="139" cy="223" r="19" fill="url(#g)"/><text x="139" y="230" text-anchor="middle" direction="rtl" font-family="Cairo,Tahoma,Arial,sans-serif" font-size="16" font-weight="900" fill="#fff">3</text><text x="270" y="231" text-anchor="middle" direction="rtl" font-family="Cairo,Tahoma,Arial,sans-serif" font-size="16" font-weight="800" fill="#302b50">نسخة محافظة</text><text x="520" y="231" text-anchor="middle" direction="rtl" font-family="Cairo,Tahoma,Arial,sans-serif" font-size="15" font-weight="800" fill="#d9467a">محتوى حساس أو أرشيف مهم</text><text x="740" y="231" text-anchor="middle" direction="rtl" font-family="Cairo,Tahoma,Arial,sans-serif" font-size="14" font-weight="700" fill="#615c71">الأصل وسجل التغيير</text><rect x="119" y="266" width="722" height="58" rx="18" fill="#fff" stroke="#ddd9ed"/><circle cx="157" cy="295" r="19" fill="url(#g)"/><text x="157" y="302" text-anchor="middle" direction="rtl" font-family="Cairo,Tahoma,Arial,sans-serif" font-size="16" font-weight="900" fill="#fff">4</text><text x="270" y="303" text-anchor="middle" direction="rtl" font-family="Cairo,Tahoma,Arial,sans-serif" font-size="16" font-weight="800" fill="#302b50">بديل متوافق</text><text x="520" y="303" text-anchor="middle" direction="rtl" font-family="Cairo,Tahoma,Arial,sans-serif" font-size="15" font-weight="800" fill="#d9467a">عدم دعم الصيغة لدى المستلم</text><text x="730" y="303" text-anchor="middle" direction="rtl" font-family="Cairo,Tahoma,Arial,sans-serif" font-size="14" font-weight="700" fill="#615c71">الحجم والسمات</text></svg>