<svg xmlns="http://www.w3.org/2000/svg" width="760" height="520" viewBox="0 0 760 520" role="img" aria-labelledby="title desc">
<title id="title">معلومات المتصفح</title><desc id="desc">لوحة عربية توضّح بيانات المتصفح والشاشة واللغة وحدود الخصوصية.</desc>
<defs><linearGradient id="brand" x1="0" y1="0" x2="1" y2="1"><stop stop-color="#6558e8"/><stop offset="1" stop-color="#4035b8"/></linearGradient><filter id="shadow" x="-20%" y="-20%" width="140%" height="150%"><feDropShadow dx="0" dy="10" stdDeviation="12" flood-color="#38306f" flood-opacity=".12"/></filter></defs>
<style>
  .t{font-family:'Cairo',Tahoma,Arial,sans-serif}
  .h{font-size:25px;font-weight:900;fill:#282541}
  .m{font-size:17px;font-weight:800;fill:#403a67}
  .s{font-size:13px;font-weight:700;fill:#6d6881}
  .w{fill:#fff}.line{stroke:#d9d4f3;stroke-width:2}.dash{stroke:#b8b0ec;stroke-width:2;stroke-dasharray:7 7}
</style><rect width="760" height="520" rx="34" fill="#f7f5ff"/><circle cx="73" cy="73" r="48" fill="#ece8ff"/><circle cx="706" cy="445" r="66" fill="#eeeaff"/><path d="M37 427C146 347 209 468 317 411S512 331 716 378" fill="none" stroke="#e2ddfb" stroke-width="22" stroke-linecap="round"/>
<rect x="82" y="72" width="596" height="376" rx="28" class="w line" filter="url(#shadow)"/><rect x="82" y="72" width="596" height="54" rx="28" fill="#6558e8"/><circle cx="118" cy="99" r="7" fill="#ffd2d2"/><circle cx="141" cy="99" r="7" fill="#ffe29b"/><circle cx="164" cy="99" r="7" fill="#b9f0d6"/><text x="630" y="106" text-anchor="end" class="t w" font-size="16" font-weight="900">هوية الجلسة التقنية</text>
<rect x="112" y="154" width="242" height="118" rx="20" fill="#f1efff"/><text x="330" y="183" text-anchor="end" class="t m">المتصفح والمنصة</text><text x="330" y="215" text-anchor="end" class="t s">Chrome • Windows</text><text x="330" y="244" text-anchor="end" class="t s">لغة الواجهة: العربية</text>
<rect x="382" y="154" width="266" height="118" rx="20" fill="#eef8ff"/><rect x="410" y="181" width="96" height="61" rx="10" fill="#fff" stroke="#81bce8" stroke-width="3"/><path d="M426 253h64M458 243v10" stroke="#81bce8" stroke-width="4" stroke-linecap="round"/><text x="622" y="192" text-anchor="end" class="t m">الشاشة</text><text x="622" y="229" text-anchor="end" class="t s">1440 × 900</text>
<rect x="112" y="300" width="536" height="112" rx="21" fill="#fffaf0" stroke="#f1d29a"/><path d="M150 344c0-21 34-21 34 0v20h-34Z" fill="#f0aa3c"/><path d="M157 344v-8a10 10 0 0 1 20 0v8" fill="none" stroke="#8b5c17" stroke-width="3"/><text x="620" y="337" text-anchor="end" class="t m">خصوصية قبل التتبّع</text><text x="620" y="371" text-anchor="end" class="t s">استخدم البيانات للتوافق، لا لبصمة خفية</text></svg>