<svg xmlns="http://www.w3.org/2000/svg" width="760" height="520" viewBox="0 0 760 520" role="img" aria-labelledby="title desc">
<title id="title">تنسيق الأكواد</title><desc id="desc">مقارنة بصرية عربية بين كود مضغوط وكود منسق مع مسافات بادئة واضحة.</desc>
<defs><linearGradient id="brand" x1="0" y1="0" x2="1" y2="1"><stop stop-color="#6558e8"/><stop offset="1" stop-color="#4035b8"/></linearGradient><filter id="shadow" x="-20%" y="-20%" width="140%" height="150%"><feDropShadow dx="0" dy="10" stdDeviation="12" flood-color="#38306f" flood-opacity=".12"/></filter></defs>
<style>
  .t{font-family:'Cairo',Tahoma,Arial,sans-serif}
  .h{font-size:25px;font-weight:900;fill:#282541}
  .m{font-size:17px;font-weight:800;fill:#403a67}
  .s{font-size:13px;font-weight:700;fill:#6d6881}
  .w{fill:#fff}.line{stroke:#d9d4f3;stroke-width:2}.dash{stroke:#b8b0ec;stroke-width:2;stroke-dasharray:7 7}
</style><rect width="760" height="520" rx="34" fill="#f7f5ff"/><circle cx="73" cy="73" r="48" fill="#ece8ff"/><circle cx="706" cy="445" r="66" fill="#eeeaff"/><path d="M37 427C146 347 209 468 317 411S512 331 716 378" fill="none" stroke="#e2ddfb" stroke-width="22" stroke-linecap="round"/>
<text x="380" y="74" text-anchor="middle" class="t h">من كتلة مربكة إلى بنية مقروءة</text><rect x="62" y="110" width="286" height="332" rx="25" fill="#242238" filter="url(#shadow)"/><rect x="412" y="110" width="286" height="332" rx="25" fill="#242238" filter="url(#shadow)"/><text x="319" y="145" text-anchor="end" class="t w" font-size="15" font-weight="800">قبل التنسيق</text><text x="669" y="145" text-anchor="end" class="t w" font-size="15" font-weight="800">بعد التنسيق</text>
<g stroke-linecap="round" stroke-width="10"><path d="M94 181h214M94 213h164M94 245h232M94 277h188M94 309h220M94 341h141" stroke="#a29bcf"/><path d="M444 181h210M468 219h164M492 257h146M468 295h184M492 333h126M468 371h168" stroke="#76ddbd"/></g><path d="M380 221v112" stroke="#6558e8" stroke-width="5" stroke-linecap="round"/><path d="m365 314 15 19 15-19" fill="none" stroke="#6558e8" stroke-width="5" stroke-linecap="round" stroke-linejoin="round"/><rect x="151" y="389" width="110" height="30" rx="15" fill="#3b3856"/><text x="206" y="410" text-anchor="middle" class="t w" font-size="12">سطر واحد</text><rect x="500" y="389" width="110" height="30" rx="15" fill="#225b4d"/><text x="555" y="410" text-anchor="middle" class="t w" font-size="12">بنية واضحة</text></svg>