<svg xmlns="http://www.w3.org/2000/svg" width="760" height="520" viewBox="0 0 760 520" role="img" aria-labelledby="title desc">
<title id="title">محول الألوان</title><desc id="desc">مخطط عربي يربط قيمة لونية واحدة بين HEX وRGB وHSL مع معاينة ثابتة.</desc>
<defs><linearGradient id="brand" x1="0" y1="0" x2="1" y2="1"><stop stop-color="#6558e8"/><stop offset="1" stop-color="#4035b8"/></linearGradient><filter id="shadow" x="-20%" y="-20%" width="140%" height="150%"><feDropShadow dx="0" dy="10" stdDeviation="12" flood-color="#38306f" flood-opacity=".12"/></filter></defs>
<style>
  .t{font-family:'Cairo',Tahoma,Arial,sans-serif}
  .h{font-size:25px;font-weight:900;fill:#282541}
  .m{font-size:17px;font-weight:800;fill:#403a67}
  .s{font-size:13px;font-weight:700;fill:#6d6881}
  .w{fill:#fff}.line{stroke:#d9d4f3;stroke-width:2}.dash{stroke:#b8b0ec;stroke-width:2;stroke-dasharray:7 7}
</style><rect width="760" height="520" rx="34" fill="#f7f5ff"/><circle cx="73" cy="73" r="48" fill="#ece8ff"/><circle cx="706" cy="445" r="66" fill="#eeeaff"/><path d="M37 427C146 347 209 468 317 411S512 331 716 378" fill="none" stroke="#e2ddfb" stroke-width="22" stroke-linecap="round"/>
<text x="380" y="70" text-anchor="middle" class="t h">لون واحد بثلاث قراءات</text><circle cx="380" cy="254" r="104" fill="#6b5ce7" filter="url(#shadow)"/><circle cx="380" cy="254" r="73" fill="#fff" opacity=".95"/><text x="380" y="246" text-anchor="middle" class="t m">المعاينة</text><text x="380" y="279" text-anchor="middle" class="t s">بنفس اللون</text>
<path d="M291 201 210 157M469 201l81-44M380 358v58" class="dash" fill="none"/><rect x="72" y="103" width="190" height="94" rx="22" class="w line"/><text x="238" y="137" text-anchor="end" class="t m">HEX</text><text x="238" y="169" text-anchor="end" font-family="Consolas,monospace" font-size="18" fill="#6558e8">#6B5CE7</text><rect x="498" y="103" width="190" height="94" rx="22" class="w line"/><text x="664" y="137" text-anchor="end" class="t m">RGB</text><text x="664" y="169" text-anchor="end" font-family="Consolas,monospace" font-size="17" fill="#6558e8">107, 92, 231</text><rect x="282" y="405" width="196" height="78" rx="22" class="w line"/><text x="454" y="437" text-anchor="end" class="t m">HSL</text><text x="454" y="466" text-anchor="end" font-family="Consolas,monospace" font-size="16" fill="#6558e8">247°, 75%, 63%</text></svg>