<svg xmlns="http://www.w3.org/2000/svg" width="760" height="520" viewBox="0 0 760 520" role="img" aria-labelledby="title desc">
<title id="title">أداة اختيار الألوان</title><desc id="desc">قطّارة عربية تلتقط عينة من لوحة ألوان وتعرض قيمة HEX مع فحص التباين.</desc>
<defs><linearGradient id="brand" x1="0" y1="0" x2="1" y2="1"><stop stop-color="#6558e8"/><stop offset="1" stop-color="#4035b8"/></linearGradient><filter id="shadow" x="-20%" y="-20%" width="140%" height="150%"><feDropShadow dx="0" dy="10" stdDeviation="12" flood-color="#38306f" flood-opacity=".12"/></filter></defs>
<style>
  .t{font-family:'Cairo',Tahoma,Arial,sans-serif}
  .h{font-size:25px;font-weight:900;fill:#282541}
  .m{font-size:17px;font-weight:800;fill:#403a67}
  .s{font-size:13px;font-weight:700;fill:#6d6881}
  .w{fill:#fff}.line{stroke:#d9d4f3;stroke-width:2}.dash{stroke:#b8b0ec;stroke-width:2;stroke-dasharray:7 7}
</style><rect width="760" height="520" rx="34" fill="#f7f5ff"/><circle cx="73" cy="73" r="48" fill="#ece8ff"/><circle cx="706" cy="445" r="66" fill="#eeeaff"/><path d="M37 427C146 347 209 468 317 411S512 331 716 378" fill="none" stroke="#e2ddfb" stroke-width="22" stroke-linecap="round"/>
<text x="380" y="69" text-anchor="middle" class="t h">التقط اللون ثم اختبره</text><rect x="72" y="106" width="390" height="330" rx="28" class="w line" filter="url(#shadow)"/><g><rect x="101" y="144" width="92" height="64" rx="15" fill="#6558e8"/><rect x="213" y="144" width="92" height="64" rx="15" fill="#39a9db"/><rect x="325" y="144" width="92" height="64" rx="15" fill="#23b58f"/><rect x="101" y="228" width="92" height="64" rx="15" fill="#f4bb44"/><rect x="213" y="228" width="92" height="64" rx="15" fill="#ef6c73"/><rect x="325" y="228" width="92" height="64" rx="15" fill="#9a62d3"/><rect x="101" y="312" width="92" height="64" rx="15" fill="#334155"/><rect x="213" y="312" width="92" height="64" rx="15" fill="#f4f1ff"/><rect x="325" y="312" width="92" height="64" rx="15" fill="#ff9364"/></g><path d="m385 118 63 63-26 26-17-17-92 92-29 7 7-29 92-92-17-17Z" fill="url(#brand)" stroke="#4035b8" stroke-width="3"/><circle cx="300" cy="289" r="17" fill="none" stroke="#fff" stroke-width="5"/>
<rect x="495" y="128" width="193" height="272" rx="26" class="w line"/><circle cx="592" cy="196" r="50" fill="#6558e8"/><text x="592" y="279" text-anchor="middle" class="t m">#6558E8</text><rect x="526" y="305" width="132" height="40" rx="12" fill="#282541"/><text x="592" y="331" text-anchor="middle" class="t w" font-size="14" font-weight="800">تباين مناسب ✓</text><text x="592" y="374" text-anchor="middle" class="t s">راجع النص الصغير</text></svg>