<svg xmlns="http://www.w3.org/2000/svg" width="960" height="340" viewBox="0 0 960 340" role="img"><defs><linearGradient id="g" x1="0" y1="0" x2="1" y2="1"><stop stop-color="#766aec"/><stop offset="1" stop-color="#5145c9"/></linearGradient></defs><rect width="960" height="340" rx="32" fill="#f5f3ff"/><circle cx="90" cy="55" r="48" fill="#ebe7ff"/><circle cx="890" cy="310" r="62" fill="#ebe7ff"/><rect x="45" y="90" width="195" height="180" rx="28" fill="#fff" stroke="#ddd9f8"/><circle cx="143" cy="90" r="28" fill="url(#g)"/><text x="143" y="99" text-anchor="middle" direction="rtl" font-family="Tahoma,Arial,sans-serif" font-size="22" font-weight="900" fill="#fff">1</text><text x="143" y="168" text-anchor="middle" direction="rtl" font-family="Tahoma,Arial,sans-serif" font-size="18" font-weight="800" fill="#302b50">اختر</text><text x="143" y="218" text-anchor="middle" direction="rtl" font-family="Tahoma,Arial,sans-serif" font-size="14" font-weight="700" fill="#6558e8">ابدأ</text><rect x="270" y="90" width="195" height="180" rx="28" fill="#fff" stroke="#ddd9f8"/><circle cx="368" cy="90" r="28" fill="url(#g)"/><text x="368" y="99" text-anchor="middle" direction="rtl" font-family="Tahoma,Arial,sans-serif" font-size="22" font-weight="900" fill="#fff">2</text><text x="368" y="168" text-anchor="middle" direction="rtl" font-family="Tahoma,Arial,sans-serif" font-size="18" font-weight="800" fill="#302b50">حوّل</text><text x="368" y="218" text-anchor="middle" direction="rtl" font-family="Tahoma,Arial,sans-serif" font-size="14" font-weight="700" fill="#6558e8">عالِج</text><rect x="495" y="90" width="195" height="180" rx="28" fill="#fff" stroke="#ddd9f8"/><circle cx="593" cy="90" r="28" fill="url(#g)"/><text x="593" y="99" text-anchor="middle" direction="rtl" font-family="Tahoma,Arial,sans-serif" font-size="22" font-weight="900" fill="#fff">3</text><text x="593" y="168" text-anchor="middle" direction="rtl" font-family="Tahoma,Arial,sans-serif" font-size="18" font-weight="800" fill="#302b50">قارن</text><text x="593" y="218" text-anchor="middle" direction="rtl" font-family="Tahoma,Arial,sans-serif" font-size="14" font-weight="700" fill="#6558e8">راجع</text><rect x="720" y="90" width="195" height="180" rx="28" fill="#fff" stroke="#ddd9f8"/><circle cx="818" cy="90" r="28" fill="url(#g)"/><text x="818" y="99" text-anchor="middle" direction="rtl" font-family="Tahoma,Arial,sans-serif" font-size="22" font-weight="900" fill="#fff">4</text><text x="818" y="168" text-anchor="middle" direction="rtl" font-family="Tahoma,Arial,sans-serif" font-size="18" font-weight="800" fill="#302b50">وثّق</text><text x="818" y="218" text-anchor="middle" direction="rtl" font-family="Tahoma,Arial,sans-serif" font-size="14" font-weight="700" fill="#6558e8">استخدم</text></svg>