<svg xmlns="http://www.w3.org/2000/svg" width="760" height="520" viewBox="0 0 760 520" role="img" aria-labelledby="title desc">
<title id="title">استخراج ألوان الصور</title><desc id="desc">صورة توضيحية عربية تربط نقاط عينة داخل صورة بلوحة ألوان مستخرجة.</desc>
<defs><linearGradient id="brand" x1="0" y1="0" x2="1" y2="1"><stop stop-color="#6558e8"/><stop offset="1" stop-color="#4035b8"/></linearGradient><filter id="shadow" x="-20%" y="-20%" width="140%" height="150%"><feDropShadow dx="0" dy="10" stdDeviation="12" flood-color="#38306f" flood-opacity=".12"/></filter></defs>
<style>
  .t{font-family:'Cairo',Tahoma,Arial,sans-serif}
  .h{font-size:25px;font-weight:900;fill:#282541}
  .m{font-size:17px;font-weight:800;fill:#403a67}
  .s{font-size:13px;font-weight:700;fill:#6d6881}
  .w{fill:#fff}.line{stroke:#d9d4f3;stroke-width:2}.dash{stroke:#b8b0ec;stroke-width:2;stroke-dasharray:7 7}
</style><rect width="760" height="520" rx="34" fill="#f7f5ff"/><circle cx="73" cy="73" r="48" fill="#ece8ff"/><circle cx="706" cy="445" r="66" fill="#eeeaff"/><path d="M37 427C146 347 209 468 317 411S512 331 716 378" fill="none" stroke="#e2ddfb" stroke-width="22" stroke-linecap="round"/>
<text x="380" y="66" text-anchor="middle" class="t h">من المشهد إلى لوحة متناسقة</text><rect x="66" y="104" width="435" height="290" rx="29" fill="#dff4ff" filter="url(#shadow)"/><circle cx="397" cy="173" r="45" fill="#ffd262"/><path d="M66 327 184 202l86 89 64-73 167 176H66Z" fill="#5f83cf"/><path d="M66 350 202 253l81 66 70-59 148 134H66Z" fill="#3d9f82"/><circle cx="198" cy="243" r="13" fill="#fff" stroke="#6558e8" stroke-width="6"/><circle cx="390" cy="173" r="13" fill="#fff" stroke="#6558e8" stroke-width="6"/><circle cx="344" cy="310" r="13" fill="#fff" stroke="#6558e8" stroke-width="6"/>
<path d="M211 243h318M403 173h126M357 310h172" class="dash" fill="none"/><rect x="527" y="118" width="166" height="282" rx="27" class="w line"/><text x="610" y="154" text-anchor="middle" class="t m">الألوان المهيمنة</text><g><rect x="553" y="181" width="114" height="42" rx="13" fill="#ffd262"/><rect x="553" y="239" width="114" height="42" rx="13" fill="#5f83cf"/><rect x="553" y="297" width="114" height="42" rx="13" fill="#3d9f82"/></g><text x="610" y="373" text-anchor="middle" class="t s">عينة قابلة للمراجعة</text></svg>