<svg xmlns="http://www.w3.org/2000/svg" width="760" height="520" viewBox="0 0 760 520" role="img" aria-labelledby="title desc">
<title id="title">فاحص عنوان IP</title><desc id="desc">لوحة عربية توضّح العنوان العام ونوعه والموقع التقريبي مع تنبيه خصوصية.</desc>
<defs><linearGradient id="brand" x1="0" y1="0" x2="1" y2="1"><stop stop-color="#6558e8"/><stop offset="1" stop-color="#4035b8"/></linearGradient><filter id="shadow" x="-20%" y="-20%" width="140%" height="150%"><feDropShadow dx="0" dy="10" stdDeviation="12" flood-color="#38306f" flood-opacity=".12"/></filter></defs>
<style>
  .t{font-family:'Cairo',Tahoma,Arial,sans-serif}
  .h{font-size:25px;font-weight:900;fill:#282541}
  .m{font-size:17px;font-weight:800;fill:#403a67}
  .s{font-size:13px;font-weight:700;fill:#6d6881}
  .w{fill:#fff}.line{stroke:#d9d4f3;stroke-width:2}.dash{stroke:#b8b0ec;stroke-width:2;stroke-dasharray:7 7}
</style><rect width="760" height="520" rx="34" fill="#f7f5ff"/><circle cx="73" cy="73" r="48" fill="#ece8ff"/><circle cx="706" cy="445" r="66" fill="#eeeaff"/><path d="M37 427C146 347 209 468 317 411S512 331 716 378" fill="none" stroke="#e2ddfb" stroke-width="22" stroke-linecap="round"/>
<text x="380" y="67" text-anchor="middle" class="t h">عنوان اتصال، لا عنوان منزل</text><circle cx="250" cy="258" r="145" fill="#edf7ff" stroke="#acd2eb" stroke-width="3" filter="url(#shadow)"/><ellipse cx="250" cy="258" rx="62" ry="145" fill="none" stroke="#81b9dd" stroke-width="3"/><path d="M108 258h284M131 197h238M131 319h238" fill="none" stroke="#81b9dd" stroke-width="3"/><path d="M250 113c-55 48-55 242 0 290M250 113c55 48 55 242 0 290" fill="none" stroke="#81b9dd" stroke-width="3"/><path d="M224 239c0-42 52-62 82-33 29 29 10 82-32 82l-24 43-24-43a48 48 0 0 1-2-49Z" fill="#6558e8"/><circle cx="274" cy="240" r="16" fill="#fff"/>
<rect x="431" y="126" width="267" height="276" rx="27" class="w line"/><text x="668" y="163" text-anchor="end" class="t m">العنوان العام</text><rect x="461" y="182" width="207" height="47" rx="14" fill="#f0edff"/><text x="565" y="213" text-anchor="middle" font-family="Consolas,monospace" font-size="17" fill="#4035b8">203.0.113.24</text><text x="668" y="269" text-anchor="end" class="t s">النوع: IPv4</text><text x="668" y="302" text-anchor="end" class="t s">الموقع: تقريبي</text><rect x="460" y="329" width="208" height="47" rx="14" fill="#fff5df" stroke="#f0cc84"/><text x="564" y="359" text-anchor="middle" class="t s">لا تستخدمه لتحديد شخص</text></svg>