<svg xmlns="http://www.w3.org/2000/svg" width="760" height="520" viewBox="0 0 760 520" role="img" aria-labelledby="title desc">
<title id="title">مولد Meta Tags</title><desc id="desc">معاينة عربية لعنوان ووصف نتيجة البحث وبطاقة المشاركة بعد توليد وسوم الميتا.</desc>
<defs><linearGradient id="brand" x1="0" y1="0" x2="1" y2="1"><stop stop-color="#6558e8"/><stop offset="1" stop-color="#4035b8"/></linearGradient><filter id="shadow" x="-20%" y="-20%" width="140%" height="150%"><feDropShadow dx="0" dy="10" stdDeviation="12" flood-color="#38306f" flood-opacity=".12"/></filter></defs>
<style>
  .t{font-family:'Cairo',Tahoma,Arial,sans-serif}
  .h{font-size:25px;font-weight:900;fill:#282541}
  .m{font-size:17px;font-weight:800;fill:#403a67}
  .s{font-size:13px;font-weight:700;fill:#6d6881}
  .w{fill:#fff}.line{stroke:#d9d4f3;stroke-width:2}.dash{stroke:#b8b0ec;stroke-width:2;stroke-dasharray:7 7}
</style><rect width="760" height="520" rx="34" fill="#f7f5ff"/><circle cx="73" cy="73" r="48" fill="#ece8ff"/><circle cx="706" cy="445" r="66" fill="#eeeaff"/><path d="M37 427C146 347 209 468 317 411S512 331 716 378" fill="none" stroke="#e2ddfb" stroke-width="22" stroke-linecap="round"/>
<text x="380" y="64" text-anchor="middle" class="t h">اكتب الوسم وشاهد ظهوره</text><rect x="56" y="102" width="414" height="338" rx="28" class="w line" filter="url(#shadow)"/><text x="434" y="137" text-anchor="end" class="t m">معاينة نتيجة البحث</text><text x="92" y="177" text-anchor="start" font-family="Arial,sans-serif" font-size="13" fill="#24833d">toolrar.com › knowledge</text><text x="92" y="211" text-anchor="start" class="t" font-size="22" font-weight="900" fill="#1a4fb0">عنوان واضح يجذب النقر الصحيح</text><text x="92" y="245" text-anchor="start" class="t s">وصف كامل يشرح الفائدة من دون قطع أو حشو...</text><path d="M91 282h337M91 318h290M91 354h314" stroke="#dad7e9" stroke-width="13" stroke-linecap="round"/>
<rect x="500" y="122" width="204" height="280" rx="25" fill="#27243d"/><text x="676" y="158" text-anchor="end" class="t w" font-size="16" font-weight="900">داخل &lt;head&gt;</text><text x="526" y="202" font-family="Consolas,monospace" font-size="13" fill="#9ee6c8">&lt;title&gt;</text><text x="526" y="234" font-family="Consolas,monospace" font-size="13" fill="#d7d2ff">meta description</text><text x="526" y="266" font-family="Consolas,monospace" font-size="13" fill="#ffd38a">canonical</text><text x="526" y="298" font-family="Consolas,monospace" font-size="13" fill="#9fcfff">og:title</text><rect x="526" y="333" width="152" height="42" rx="13" fill="#6558e8"/><text x="602" y="360" text-anchor="middle" class="t w" font-size="13" font-weight="800">متطابق مع الصفحة ✓</text></svg>