<svg xmlns="http://www.w3.org/2000/svg" width="760" height="520" viewBox="0 0 760 520" role="img" aria-labelledby="title desc">
<title id="title">فاحص حجم الصفحة</title><desc id="desc">مخطط شلال عربي يوزع حجم الصفحة بين الصور والبرمجيات والخطوط ويبرز أكبر مورد.</desc>
<defs><linearGradient id="brand" x1="0" y1="0" x2="1" y2="1"><stop stop-color="#6558e8"/><stop offset="1" stop-color="#4035b8"/></linearGradient><filter id="shadow" x="-20%" y="-20%" width="140%" height="150%"><feDropShadow dx="0" dy="10" stdDeviation="12" flood-color="#38306f" flood-opacity=".12"/></filter></defs>
<style>
  .t{font-family:'Cairo',Tahoma,Arial,sans-serif}
  .h{font-size:25px;font-weight:900;fill:#282541}
  .m{font-size:17px;font-weight:800;fill:#403a67}
  .s{font-size:13px;font-weight:700;fill:#6d6881}
  .w{fill:#fff}.line{stroke:#d9d4f3;stroke-width:2}.dash{stroke:#b8b0ec;stroke-width:2;stroke-dasharray:7 7}
</style><rect width="760" height="520" rx="34" fill="#f7f5ff"/><circle cx="73" cy="73" r="48" fill="#ece8ff"/><circle cx="706" cy="445" r="66" fill="#eeeaff"/><path d="M37 427C146 347 209 468 317 411S512 331 716 378" fill="none" stroke="#e2ddfb" stroke-width="22" stroke-linecap="round"/>
<text x="380" y="64" text-anchor="middle" class="t h">أين يذهب وزن الصفحة؟</text><rect x="55" y="103" width="472" height="342" rx="28" class="w line" filter="url(#shadow)"/><text x="490" y="139" text-anchor="end" class="t m">شلال الموارد</text><g class="t s"><text x="92" y="186">HTML</text><text x="92" y="237">CSS</text><text x="92" y="288">JavaScript</text><text x="92" y="339">الصور</text><text x="92" y="390">الخطوط</text></g><g><rect x="180" y="166" width="72" height="24" rx="8" fill="#92d4b6"/><rect x="180" y="217" width="111" height="24" rx="8" fill="#8fc4ea"/><rect x="180" y="268" width="167" height="24" rx="8" fill="#a99bea"/><rect x="180" y="319" width="294" height="24" rx="8" fill="#ef887f"/><rect x="180" y="370" width="91" height="24" rx="8" fill="#f1c26c"/></g><path d="M180 415h310" stroke="#d9d5ec" stroke-width="2"/><text x="490" y="430" text-anchor="end" class="t s">الحجم النسبي</text>
<rect x="555" y="128" width="151" height="260" rx="28" fill="#282541"/><circle cx="630" cy="220" r="53" fill="none" stroke="#46415d" stroke-width="15"/><path d="M596 260a53 53 0 0 1 66-79" fill="none" stroke="#f1a04f" stroke-width="15" stroke-linecap="round"/><text x="630" y="227" text-anchor="middle" class="t w" font-size="21" font-weight="900">2.4 MB</text><text x="630" y="306" text-anchor="middle" class="t w" font-size="15" font-weight="800">ابدأ بالصور</text><text x="630" y="340" text-anchor="middle" class="t" font-size="12" fill="#c8c4d6">أكبر فرصة للتحسين</text></svg>