<svg xmlns="http://www.w3.org/2000/svg" width="760" height="520" viewBox="0 0 760 520" role="img" aria-labelledby="title desc">
<title id="title">اختبار قوة كلمة المرور</title><desc id="desc">مقياس عربي يشرح أثر الطول والتفرّد والتسريبات بدل الاكتفاء بلون واحد.</desc>
<defs><linearGradient id="brand" x1="0" y1="0" x2="1" y2="1"><stop stop-color="#6558e8"/><stop offset="1" stop-color="#4035b8"/></linearGradient><filter id="shadow" x="-20%" y="-20%" width="140%" height="150%"><feDropShadow dx="0" dy="10" stdDeviation="12" flood-color="#38306f" flood-opacity=".12"/></filter></defs>
<style>
  .t{font-family:'Cairo',Tahoma,Arial,sans-serif}
  .h{font-size:25px;font-weight:900;fill:#282541}
  .m{font-size:17px;font-weight:800;fill:#403a67}
  .s{font-size:13px;font-weight:700;fill:#6d6881}
  .w{fill:#fff}.line{stroke:#d9d4f3;stroke-width:2}.dash{stroke:#b8b0ec;stroke-width:2;stroke-dasharray:7 7}
</style><rect width="760" height="520" rx="34" fill="#f7f5ff"/><circle cx="73" cy="73" r="48" fill="#ece8ff"/><circle cx="706" cy="445" r="66" fill="#eeeaff"/><path d="M37 427C146 347 209 468 317 411S512 331 716 378" fill="none" stroke="#e2ddfb" stroke-width="22" stroke-linecap="round"/>
<text x="380" y="64" text-anchor="middle" class="t h">القوة ليست لونًا واحدًا</text><rect x="69" y="105" width="622" height="334" rx="30" class="w line" filter="url(#shadow)"/><text x="650" y="147" text-anchor="end" class="t m">تقدير مقاومة التخمين</text><rect x="108" y="177" width="514" height="28" rx="14" fill="#ebe8f5"/><rect x="108" y="177" width="365" height="28" rx="14" fill="url(#brand)"/><circle cx="473" cy="191" r="18" fill="#fff" stroke="#6558e8" stroke-width="6"/><text x="650" y="198" text-anchor="end" class="t s">جيدة</text>
<g><rect x="106" y="239" width="166" height="137" rx="21" fill="#eff9f5"/><rect x="297" y="239" width="166" height="137" rx="21" fill="#f4f2ff"/><rect x="488" y="239" width="166" height="137" rx="21" fill="#fff7e8"/></g><text x="189" y="278" text-anchor="middle" class="t m">الطول</text><text x="189" y="320" text-anchor="middle" class="t" font-size="30" font-weight="900" fill="#248466">16+</text><text x="380" y="278" text-anchor="middle" class="t m">التفرّد</text><path d="M340 320h80" stroke="#6558e8" stroke-width="11" stroke-linecap="round"/><path d="m397 300 23 20-23 20" fill="none" stroke="#6558e8" stroke-width="5"/><text x="571" y="278" text-anchor="middle" class="t m">التسريبات</text><path d="M550 307h42v42h-42Z" fill="none" stroke="#d08a2e" stroke-width="4"/><path d="m546 353 50-50" stroke="#d08a2e" stroke-width="5"/><text x="380" y="410" text-anchor="middle" class="t s">لا تُعد استخدام السر نفسه في حسابين</text></svg>