<svg xmlns="http://www.w3.org/2000/svg" width="760" height="520" viewBox="0 0 760 520" role="img" aria-labelledby="title desc">
<title id="title">مولد كلمات المرور</title><desc id="desc">واجهة عربية تولّد عبارة عشوائية طويلة من إعدادات واضحة مع حفظها في مدير كلمات المرور.</desc>
<defs><linearGradient id="brand" x1="0" y1="0" x2="1" y2="1"><stop stop-color="#6558e8"/><stop offset="1" stop-color="#4035b8"/></linearGradient><filter id="shadow" x="-20%" y="-20%" width="140%" height="150%"><feDropShadow dx="0" dy="10" stdDeviation="12" flood-color="#38306f" flood-opacity=".12"/></filter></defs>
<style>
  .t{font-family:'Cairo',Tahoma,Arial,sans-serif}
  .h{font-size:25px;font-weight:900;fill:#282541}
  .m{font-size:17px;font-weight:800;fill:#403a67}
  .s{font-size:13px;font-weight:700;fill:#6d6881}
  .w{fill:#fff}.line{stroke:#d9d4f3;stroke-width:2}.dash{stroke:#b8b0ec;stroke-width:2;stroke-dasharray:7 7}
</style><rect width="760" height="520" rx="34" fill="#f7f5ff"/><circle cx="73" cy="73" r="48" fill="#ece8ff"/><circle cx="706" cy="445" r="66" fill="#eeeaff"/><path d="M37 427C146 347 209 468 317 411S512 331 716 378" fill="none" stroke="#e2ddfb" stroke-width="22" stroke-linecap="round"/>
<text x="380" y="64" text-anchor="middle" class="t h">عشوائية قوية بإعدادات مفهومة</text><rect x="64" y="101" width="632" height="344" rx="30" class="w line" filter="url(#shadow)"/><rect x="94" y="135" width="572" height="72" rx="19" fill="#26233c"/><text x="124" y="180" text-anchor="start" font-family="Consolas,monospace" font-size="19" fill="#fff">v7!Qm2#Lx9@Rp4$K</text><rect x="585" y="151" width="58" height="41" rx="12" fill="#6558e8"/><path d="M605 163h21v18h-21Z M599 169h6v18h21v-6" fill="none" stroke="#fff" stroke-width="2"/>
<text x="644" y="247" text-anchor="end" class="t m">الطول</text><rect x="172" y="230" width="382" height="12" rx="6" fill="#e5e1f7"/><rect x="172" y="230" width="286" height="12" rx="6" fill="url(#brand)"/><circle cx="458" cy="236" r="13" fill="#6558e8"/><text x="124" y="246" class="t s">16 محرفًا</text><g class="t s"><text x="616" y="294" text-anchor="end">حروف كبيرة وصغيرة</text><text x="616" y="335" text-anchor="end">أرقام ورموز</text><text x="616" y="376" text-anchor="end">تجنّب النمط المتوقع</text></g><g fill="#6558e8"><rect x="118" y="274" width="42" height="23" rx="12"/><circle cx="148" cy="285.5" r="9" fill="#fff"/><rect x="118" y="315" width="42" height="23" rx="12"/><circle cx="148" cy="326.5" r="9" fill="#fff"/><rect x="118" y="356" width="42" height="23" rx="12"/><circle cx="148" cy="367.5" r="9" fill="#fff"/></g><rect x="242" y="395" width="276" height="32" rx="16" fill="#eef9f4"/><text x="380" y="417" text-anchor="middle" class="t" font-size="12" font-weight="800" fill="#24785b">احفظها في مدير كلمات المرور</text></svg>