<svg xmlns="http://www.w3.org/2000/svg" width="760" height="520" viewBox="0 0 760 520" role="img" aria-labelledby="title desc">
<title id="title">تشفير الروابط وفكها</title><desc id="desc">مخطط عربي ثنائي الاتجاه بين رابط مقروء وصيغة URL Encoding مع تنبيه أن الترميز ليس تشفيرًا أمنيًا.</desc>
<defs><linearGradient id="brand" x1="0" y1="0" x2="1" y2="1"><stop stop-color="#6558e8"/><stop offset="1" stop-color="#4035b8"/></linearGradient><filter id="shadow" x="-20%" y="-20%" width="140%" height="150%"><feDropShadow dx="0" dy="10" stdDeviation="12" flood-color="#38306f" flood-opacity=".12"/></filter></defs>
<style>
  .t{font-family:'Cairo',Tahoma,Arial,sans-serif}
  .h{font-size:25px;font-weight:900;fill:#282541}
  .m{font-size:17px;font-weight:800;fill:#403a67}
  .s{font-size:13px;font-weight:700;fill:#6d6881}
  .w{fill:#fff}.line{stroke:#d9d4f3;stroke-width:2}.dash{stroke:#b8b0ec;stroke-width:2;stroke-dasharray:7 7}
</style><rect width="760" height="520" rx="34" fill="#f7f5ff"/><circle cx="73" cy="73" r="48" fill="#ece8ff"/><circle cx="706" cy="445" r="66" fill="#eeeaff"/><path d="M37 427C146 347 209 468 317 411S512 331 716 378" fill="none" stroke="#e2ddfb" stroke-width="22" stroke-linecap="round"/>
<text x="380" y="64" text-anchor="middle" class="t h">ترميز قابل للعكس، لا قفل أمني</text><rect x="56" y="119" width="278" height="226" rx="27" class="w line" filter="url(#shadow)"/><text x="306" y="157" text-anchor="end" class="t m">الرابط المقروء</text><rect x="84" y="184" width="222" height="91" rx="17" fill="#f2f0ff"/><text x="195" y="219" text-anchor="middle" class="t s">بحث؟كلمة=أدوات</text><text x="195" y="252" text-anchor="middle" font-family="Consolas,monospace" font-size="13" fill="#6558e8">/search?q=...</text>
<rect x="426" y="119" width="278" height="226" rx="27" class="w line" filter="url(#shadow)"/><text x="676" y="157" text-anchor="end" class="t m">URL Encoding</text><rect x="454" y="184" width="222" height="91" rx="17" fill="#27243d"/><text x="565" y="224" text-anchor="middle" font-family="Consolas,monospace" font-size="13" fill="#b9f0dc">%D8%A3%D8%AF</text><text x="565" y="251" text-anchor="middle" font-family="Consolas,monospace" font-size="13" fill="#ffd59a">%88%D8%A7%D8%AA</text>
<path d="M350 206h61M396 192l15 14-15 14M411 259h-61M365 245l-15 14 15 14" fill="none" stroke="#6558e8" stroke-width="5" stroke-linecap="round" stroke-linejoin="round"/><rect x="180" y="382" width="400" height="51" rx="18" fill="#fff5df" stroke="#f0cc84"/><text x="380" y="415" text-anchor="middle" class="t s">الترميز يصلح النقل؛ لا يخفي البيانات الحساسة</text></svg>