<svg xmlns="http://www.w3.org/2000/svg" width="760" height="520" viewBox="0 0 760 520" role="img" aria-labelledby="title desc">
<title id="title">إنشاء رابط واتساب</title><desc id="desc">واجهة عربية تحول رقمًا دوليًا ورسالة اختيارية إلى رابط واتساب قابل للاختبار.</desc>
<defs><linearGradient id="brand" x1="0" y1="0" x2="1" y2="1"><stop stop-color="#6558e8"/><stop offset="1" stop-color="#4035b8"/></linearGradient><filter id="shadow" x="-20%" y="-20%" width="140%" height="150%"><feDropShadow dx="0" dy="10" stdDeviation="12" flood-color="#38306f" flood-opacity=".12"/></filter></defs>
<style>
  .t{font-family:'Cairo',Tahoma,Arial,sans-serif}
  .h{font-size:25px;font-weight:900;fill:#282541}
  .m{font-size:17px;font-weight:800;fill:#403a67}
  .s{font-size:13px;font-weight:700;fill:#6d6881}
  .w{fill:#fff}.line{stroke:#d9d4f3;stroke-width:2}.dash{stroke:#b8b0ec;stroke-width:2;stroke-dasharray:7 7}
</style><rect width="760" height="520" rx="34" fill="#f7f5ff"/><circle cx="73" cy="73" r="48" fill="#ece8ff"/><circle cx="706" cy="445" r="66" fill="#eeeaff"/><path d="M37 427C146 347 209 468 317 411S512 331 716 378" fill="none" stroke="#e2ddfb" stroke-width="22" stroke-linecap="round"/>
<text x="380" y="64" text-anchor="middle" class="t h">من رقم صحيح إلى محادثة جاهزة</text><rect x="75" y="103" width="272" height="348" rx="38" fill="#252338" filter="url(#shadow)"/><rect x="94" y="129" width="234" height="292" rx="27" fill="#f7fffb"/><circle cx="211" cy="194" r="47" fill="#28b678"/><path d="M188 191c8 22 25 34 49 39l9-14-17-9-8 9c-11-5-18-12-23-23l9-8-8-17-11 7Z" fill="#fff"/><text x="211" y="270" text-anchor="middle" class="t m">+218 91 234 5678</text><rect x="121" y="299" width="180" height="64" rx="17" fill="#eaf8f1"/><text x="211" y="326" text-anchor="middle" class="t s">مرحبًا، أريد الاستفسار</text><text x="211" y="348" text-anchor="middle" class="t s">عن الخدمة.</text>
<path d="M368 258h67" stroke="#6558e8" stroke-width="6" stroke-linecap="round"/><path d="m418 239 20 19-20 19" fill="none" stroke="#6558e8" stroke-width="6"/><rect x="450" y="131" width="246" height="238" rx="28" class="w line"/><text x="668" y="172" text-anchor="end" class="t m">الرابط الناتج</text><rect x="477" y="197" width="192" height="76" rx="17" fill="#27243d"/><text x="573" y="229" text-anchor="middle" font-family="Consolas,monospace" font-size="15" fill="#a9efd2">wa.me/218...</text><text x="573" y="254" text-anchor="middle" font-family="Consolas,monospace" font-size="12" fill="#d8d4f2">?text=%D9...</text><rect x="497" y="300" width="152" height="43" rx="14" fill="#28b678"/><text x="573" y="328" text-anchor="middle" class="t w" font-size="13" font-weight="900">اختبر قبل النشر</text><text x="573" y="407" text-anchor="middle" class="t s">رمز الدولة دون صفر البداية</text></svg>