<svg xmlns="http://www.w3.org/2000/svg" width="760" height="520" viewBox="0 0 760 520" role="img"><defs><linearGradient id="g" x1="0" y1="0" x2="1" y2="1"><stop stop-color="#d9467a"/><stop offset="1" stop-color="#fb7185"/></linearGradient><linearGradient id="soft" x1="0" y1="0" x2="1" y2="1"><stop stop-color="#6558e8" stop-opacity=".22"/><stop offset="1" stop-color="#d9467a" stop-opacity=".05"/></linearGradient><filter id="sh" x="-20%" y="-20%" width="140%" height="140%"><feDropShadow dx="0" dy="12" stdDeviation="13" flood-color="#302860" flood-opacity=".12"/></filter></defs><rect width="760" height="520" rx="34" fill="#f8f7ff"/><circle cx="90" cy="68" r="74" fill="#d9467a" opacity=".07"/><circle cx="690" cy="475" r="90" fill="#6558e8" opacity=".09"/><text x="380" y="58" text-anchor="middle" direction="rtl" font-family="Cairo,Tahoma,Arial,sans-serif" font-size="25" font-weight="900" fill="#282344">فحص الباك لينك المجاني </text><g transform="translate(380 265)"><path d="M0 0L-230 -85" stroke="#d9467a" stroke-width="5" opacity=".45"/><circle cx="-230" cy="-85" r="32" fill="#fff" stroke="#d9467a" stroke-width="5" filter="url(#sh)"/><path d="M0 0L-235 95" stroke="#6558e8" stroke-width="5" opacity=".45"/><circle cx="-235" cy="95" r="37" fill="#fff" stroke="#6558e8" stroke-width="5" filter="url(#sh)"/><path d="M0 0L230 -95" stroke="#d9467a" stroke-width="5" opacity=".45"/><circle cx="230" cy="-95" r="42" fill="#fff" stroke="#d9467a" stroke-width="5" filter="url(#sh)"/><path d="M0 0L235 85" stroke="#6558e8" stroke-width="5" opacity=".45"/><circle cx="235" cy="85" r="32" fill="#fff" stroke="#6558e8" stroke-width="5" filter="url(#sh)"/><path d="M0 0L0 -150" stroke="#d9467a" stroke-width="5" opacity=".45"/><circle cx="0" cy="-150" r="37" fill="#fff" stroke="#d9467a" stroke-width="5" filter="url(#sh)"/><circle r="78" fill="url(#g)" filter="url(#sh)"/><text x="0" y="8" text-anchor="middle" direction="rtl" font-family="Cairo,Tahoma,Arial,sans-serif" font-size="23" font-weight="900" fill="#fff">صفحتك</text></g><circle cx="22" cy="495" r="3" fill="#d9467a" opacity=".45"/><circle cx="37" cy="495" r="3" fill="#d9467a" opacity=".45"/><circle cx="52" cy="495" r="3" fill="#d9467a" opacity=".45"/><circle cx="67" cy="495" r="3" fill="#d9467a" opacity=".45"/></svg>