<svg xmlns="http://www.w3.org/2000/svg" width="960" height="360" viewBox="0 0 960 360" role="img"><defs><linearGradient id="g" x1="0" y1="0" x2="1" y2="1"><stop stop-color="#d9467a"/><stop offset="1" stop-color="#fb7185"/></linearGradient><linearGradient id="soft" x1="0" y1="0" x2="1" y2="1"><stop stop-color="#6558e8" stop-opacity=".22"/><stop offset="1" stop-color="#d9467a" stop-opacity=".05"/></linearGradient><filter id="sh" x="-20%" y="-20%" width="140%" height="140%"><feDropShadow dx="0" dy="12" stdDeviation="13" flood-color="#302860" flood-opacity=".12"/></filter></defs><rect width="960" height="360" rx="34" fill="#f8f7ff"/><circle cx="90" cy="68" r="74" fill="#d9467a" opacity=".07"/><circle cx="890" cy="315" r="90" fill="#6558e8" opacity=".09"/><g transform="translate(850 10)" opacity=".78"><rect x="-10" y="-6" width="100" height="70" rx="18" fill="#fff" stroke="url(#g)" stroke-width="2"/><rect x="0" y="46" width="5" height="12" rx="2.5" fill="url(#g)"/><rect x="8" y="36" width="5" height="22" rx="2.5" fill="url(#g)"/><rect x="16" y="26" width="5" height="32" rx="2.5" fill="url(#g)"/><rect x="24" y="16" width="5" height="42" rx="2.5" fill="url(#g)"/><g transform="translate(5 6)"><circle cx="0" cy="0" r="2.2" fill="url(#g)"/><circle cx="7" cy="0" r="2.2" fill="url(#g)"/><circle cx="14" cy="0" r="2.2" fill="url(#g)"/><circle cx="21" cy="0" r="2.2" fill="url(#g)"/></g></g><rect x="65" y="50" width="830" height="58" rx="18" fill="#fff" stroke="#ddd9ed"/><circle cx="103" cy="79" r="19" fill="url(#g)"/><text x="103" y="86" text-anchor="middle" direction="rtl" font-family="Cairo,Tahoma,Arial,sans-serif" font-size="16" font-weight="900" fill="#fff">1</text><text x="270" y="87" text-anchor="middle" direction="rtl" font-family="Cairo,Tahoma,Arial,sans-serif" font-size="16" font-weight="800" fill="#302b50">قراءة سريعة</text><text x="520" y="87" text-anchor="middle" direction="rtl" font-family="Cairo,Tahoma,Arial,sans-serif" font-size="15" font-weight="800" fill="#d9467a">فرز الصفحات واكتشاف إشارة أولية</text><text x="760" y="87" text-anchor="middle" direction="rtl" font-family="Cairo,Tahoma,Arial,sans-serif" font-size="14" font-weight="700" fill="#615c71">لا تكفي للنشر أو الحذف وحدها</text><rect x="83" y="122" width="794" height="58" rx="18" fill="#fff" stroke="#ddd9ed"/><circle cx="121" cy="151" r="19" fill="url(#g)"/><text x="121" y="158" text-anchor="middle" direction="rtl" font-family="Cairo,Tahoma,Arial,sans-serif" font-size="16" font-weight="900" fill="#fff">2</text><text x="270" y="159" text-anchor="middle" direction="rtl" font-family="Cairo,Tahoma,Arial,sans-serif" font-size="16" font-weight="800" fill="#302b50">فحص تقني</text><text x="520" y="159" text-anchor="middle" direction="rtl" font-family="Cairo,Tahoma,Arial,sans-serif" font-size="15" font-weight="800" fill="#d9467a">التحقق من الكود والاستجابة والزحف</text><text x="750" y="159" text-anchor="middle" direction="rtl" font-family="Cairo,Tahoma,Arial,sans-serif" font-size="14" font-weight="700" fill="#615c71">اربطه بالصفحة النهائية لا المصدر فقط</text><rect x="101" y="194" width="758" height="58" rx="18" fill="#fff" stroke="#ddd9ed"/><circle cx="139" cy="223" r="19" fill="url(#g)"/><text x="139" y="230" text-anchor="middle" direction="rtl" font-family="Cairo,Tahoma,Arial,sans-serif" font-size="16" font-weight="900" fill="#fff">3</text><text x="270" y="231" text-anchor="middle" direction="rtl" font-family="Cairo,Tahoma,Arial,sans-serif" font-size="16" font-weight="800" fill="#302b50">مراجعة تحريرية</text><text x="520" y="231" text-anchor="middle" direction="rtl" font-family="Cairo,Tahoma,Arial,sans-serif" font-size="15" font-weight="800" fill="#d9467a">تقييم النية والوضوح ووعد العنوان</text><text x="740" y="231" text-anchor="middle" direction="rtl" font-family="Cairo,Tahoma,Arial,sans-serif" font-size="14" font-weight="700" fill="#615c71">تحتاج معرفة حقيقية بالجمهور</text><rect x="119" y="266" width="722" height="58" rx="18" fill="#fff" stroke="#ddd9ed"/><circle cx="157" cy="295" r="19" fill="url(#g)"/><text x="157" y="302" text-anchor="middle" direction="rtl" font-family="Cairo,Tahoma,Arial,sans-serif" font-size="16" font-weight="900" fill="#fff">4</text><text x="270" y="303" text-anchor="middle" direction="rtl" font-family="Cairo,Tahoma,Arial,sans-serif" font-size="16" font-weight="800" fill="#302b50">قياس بعد التعديل</text><text x="520" y="303" text-anchor="middle" direction="rtl" font-family="Cairo,Tahoma,Arial,sans-serif" font-size="15" font-weight="800" fill="#d9467a">إثبات أن التغيير حسّن الحالة</text><text x="730" y="303" text-anchor="middle" direction="rtl" font-family="Cairo,Tahoma,Arial,sans-serif" font-size="14" font-weight="700" fill="#615c71">استخدم الفترة والعينة نفسيهما</text></svg>