<svg xmlns="http://www.w3.org/2000/svg" width="960" height="340" viewBox="0 0 960 340" role="img"><defs><linearGradient id="g" x1="0" y1="0" x2="1" y2="1"><stop stop-color="#ea580c"/><stop offset="1" stop-color="#f59e0b"/></linearGradient><linearGradient id="soft" x1="0" y1="0" x2="1" y2="1"><stop stop-color="#2563eb" stop-opacity=".22"/><stop offset="1" stop-color="#ea580c" stop-opacity=".05"/></linearGradient><filter id="sh" x="-20%" y="-20%" width="140%" height="140%"><feDropShadow dx="0" dy="12" stdDeviation="13" flood-color="#302860" flood-opacity=".12"/></filter></defs><rect width="960" height="340" rx="34" fill="#f8f7ff"/><circle cx="90" cy="68" r="74" fill="#ea580c" opacity=".07"/><circle cx="890" cy="295" r="90" fill="#2563eb" opacity=".09"/><g transform="translate(850 10)" opacity=".78"><rect x="-10" y="-6" width="100" height="70" rx="19" fill="#fff" stroke="url(#g)" stroke-width="2"/><rect x="0" y="46" width="5" height="12" rx="2.5" fill="url(#g)"/><rect x="8" y="36" width="5" height="22" rx="2.5" fill="url(#g)"/><rect x="16" y="26" width="5" height="32" rx="2.5" fill="url(#g)"/><rect x="24" y="16" width="5" height="42" rx="2.5" fill="url(#g)"/><rect x="32" y="46" width="5" height="12" rx="2.5" fill="url(#g)"/><rect x="40" y="36" width="5" height="22" rx="2.5" fill="url(#g)"/><rect x="48" y="26" width="5" height="32" rx="2.5" fill="url(#g)"/><rect x="56" y="16" width="5" height="42" rx="2.5" fill="url(#g)"/><g transform="translate(5 6)"><circle cx="0" cy="0" r="2.2" fill="url(#g)"/><circle cx="7" cy="0" r="2.2" fill="url(#g)"/><circle cx="14" cy="0" r="2.2" fill="url(#g)"/><circle cx="21" cy="0" r="2.2" fill="url(#g)"/><circle cx="28" cy="0" r="2.2" fill="url(#g)"/><circle cx="35" cy="0" r="2.2" fill="url(#g)"/><circle cx="42" cy="0" r="2.2" fill="url(#g)"/><circle cx="49" cy="0" r="2.2" fill="url(#g)"/><circle cx="56" cy="0" r="2.2" fill="url(#g)"/><circle cx="0" cy="8" r="2.2" fill="url(#g)"/><circle cx="7" cy="8" r="2.2" fill="url(#g)"/><circle cx="14" cy="8" r="2.2" fill="url(#g)"/><circle cx="21" cy="8" r="2.2" fill="url(#g)"/><circle cx="28" cy="8" r="2.2" fill="url(#g)"/><circle cx="35" cy="8" r="2.2" fill="url(#g)"/><circle cx="42" cy="8" r="2.2" fill="url(#g)"/><circle cx="49" cy="8" r="2.2" fill="url(#g)"/></g></g><rect x="55" y="72" width="185" height="178" rx="36" fill="#fff" stroke="#ddd9ed" filter="url(#sh)"/><circle cx="147.5" cy="72" r="27" fill="url(#g)"/><text x="147.5" y="81" text-anchor="middle" direction="rtl" font-family="Cairo,Tahoma,Arial,sans-serif" font-size="21" font-weight="900" fill="#fff">1</text><text x="147.5" y="144" text-anchor="middle" direction="rtl" font-family="Cairo,Tahoma,Arial,sans-serif" font-size="19" font-weight="800" fill="#302b50">حدّد</text><text x="147.5" y="194" text-anchor="middle" direction="rtl" font-family="Cairo,Tahoma,Arial,sans-serif" font-size="14" font-weight="700" fill="#ea580c">مصدر</text><rect x="275" y="96" width="185" height="178" rx="36" fill="#fff" stroke="#ddd9ed" filter="url(#sh)"/><circle cx="367.5" cy="96" r="27" fill="url(#g)"/><text x="367.5" y="105" text-anchor="middle" direction="rtl" font-family="Cairo,Tahoma,Arial,sans-serif" font-size="21" font-weight="900" fill="#fff">2</text><text x="367.5" y="168" text-anchor="middle" direction="rtl" font-family="Cairo,Tahoma,Arial,sans-serif" font-size="19" font-weight="800" fill="#302b50">اجمع</text><text x="367.5" y="218" text-anchor="middle" direction="rtl" font-family="Cairo,Tahoma,Arial,sans-serif" font-size="14" font-weight="700" fill="#ea580c">إعداد</text><rect x="495" y="120" width="185" height="178" rx="36" fill="#fff" stroke="#ddd9ed" filter="url(#sh)"/><circle cx="587.5" cy="120" r="27" fill="url(#g)"/><text x="587.5" y="129" text-anchor="middle" direction="rtl" font-family="Cairo,Tahoma,Arial,sans-serif" font-size="21" font-weight="900" fill="#fff">3</text><text x="587.5" y="192" text-anchor="middle" direction="rtl" font-family="Cairo,Tahoma,Arial,sans-serif" font-size="19" font-weight="800" fill="#302b50">راجع</text><text x="587.5" y="242" text-anchor="middle" direction="rtl" font-family="Cairo,Tahoma,Arial,sans-serif" font-size="14" font-weight="700" fill="#ea580c">معالجة</text><rect x="715" y="144" width="185" height="178" rx="36" fill="#fff" stroke="#ddd9ed" filter="url(#sh)"/><circle cx="807.5" cy="144" r="27" fill="url(#g)"/><text x="807.5" y="153" text-anchor="middle" direction="rtl" font-family="Cairo,Tahoma,Arial,sans-serif" font-size="21" font-weight="900" fill="#fff">4</text><text x="807.5" y="216" text-anchor="middle" direction="rtl" font-family="Cairo,Tahoma,Arial,sans-serif" font-size="19" font-weight="800" fill="#302b50">اختبر</text><text x="807.5" y="266" text-anchor="middle" direction="rtl" font-family="Cairo,Tahoma,Arial,sans-serif" font-size="14" font-weight="700" fill="#ea580c">اعتماد</text><path d="M65 300 Q480 338 895 300" fill="none" stroke="#2563eb" stroke-width="5" stroke-dasharray="10 10" opacity=".5"/></svg>