<svg xmlns="http://www.w3.org/2000/svg" width="760" height="520" viewBox="0 0 760 520" role="img"><defs><linearGradient id="g" x1="0" y1="0" x2="1" y2="1"><stop stop-color="#0f8f83"/><stop offset="1" stop-color="#39c6b8"/></linearGradient><linearGradient id="soft" x1="0" y1="0" x2="1" y2="1"><stop stop-color="#6558e8" stop-opacity=".22"/><stop offset="1" stop-color="#0f8f83" stop-opacity=".05"/></linearGradient><filter id="sh" x="-20%" y="-20%" width="140%" height="140%"><feDropShadow dx="0" dy="12" stdDeviation="13" flood-color="#302860" flood-opacity=".12"/></filter></defs><rect width="760" height="520" rx="34" fill="#f8f7ff"/><circle cx="90" cy="68" r="74" fill="#0f8f83" opacity=".07"/><circle cx="690" cy="475" r="90" fill="#6558e8" opacity=".09"/><text x="380" y="58" text-anchor="middle" direction="rtl" font-family="Cairo,Tahoma,Arial,sans-serif" font-size="25" font-weight="900" fill="#282344">فحص الدومين والبيج أثورتي </text><g transform="translate(110 150)"><rect x="0" y="0" width="250" height="235" rx="35" fill="#fff" stroke="#dcd8ed" stroke-width="2" filter="url(#sh)"/><path d="M55 145a72 72 0 1 1 140 0" fill="none" stroke="#e6e3f1" stroke-width="20" stroke-linecap="round"/><path d="M55 145a72 72 0 0 1 112-61" fill="none" stroke="url(#g)" stroke-width="20" stroke-linecap="round"/><text x="125" y="145" text-anchor="middle" direction="rtl" font-family="Cairo,Tahoma,Arial,sans-serif" font-size="34" font-weight="900" fill="#0f8f83">DA</text><text x="125" y="205" text-anchor="middle" direction="rtl" font-family="Cairo,Tahoma,Arial,sans-serif" font-size="17" font-weight="800" fill="#504b68">قوة النطاق</text></g><g transform="translate(440 150)"><rect x="0" y="0" width="250" height="235" rx="35" fill="#fff" stroke="#dcd8ed" stroke-width="2" filter="url(#sh)"/><path d="M55 145a72 72 0 1 1 140 0" fill="none" stroke="#e6e3f1" stroke-width="20" stroke-linecap="round"/><path d="M55 145a72 72 0 0 1 132-45" fill="none" stroke="url(#g)" stroke-width="20" stroke-linecap="round"/><text x="125" y="145" text-anchor="middle" direction="rtl" font-family="Cairo,Tahoma,Arial,sans-serif" font-size="34" font-weight="900" fill="#0f8f83">PA</text><text x="125" y="205" text-anchor="middle" direction="rtl" font-family="Cairo,Tahoma,Arial,sans-serif" font-size="17" font-weight="800" fill="#504b68">قوة الصفحة</text></g><circle cx="22" cy="495" r="3" fill="#0f8f83" opacity=".45"/><circle cx="37" cy="495" r="3" fill="#0f8f83" opacity=".45"/></svg>