<svg xmlns="http://www.w3.org/2000/svg" width="760" height="520" viewBox="0 0 760 520" role="img"><defs><linearGradient id="g" x1="0" y1="0" x2="1" y2="1"><stop stop-color="#ea580c"/><stop offset="1" stop-color="#f59e0b"/></linearGradient><linearGradient id="soft" x1="0" y1="0" x2="1" y2="1"><stop stop-color="#2563eb" stop-opacity=".22"/><stop offset="1" stop-color="#ea580c" stop-opacity=".05"/></linearGradient><filter id="sh" x="-20%" y="-20%" width="140%" height="140%"><feDropShadow dx="0" dy="12" stdDeviation="13" flood-color="#302860" flood-opacity=".12"/></filter></defs><rect width="760" height="520" rx="34" fill="#f8f7ff"/><circle cx="90" cy="68" r="74" fill="#ea580c" opacity=".07"/><circle cx="690" cy="475" r="90" fill="#2563eb" opacity=".09"/><text x="380" y="58" text-anchor="middle" direction="rtl" font-family="Cairo,Tahoma,Arial,sans-serif" font-size="25" font-weight="900" fill="#282344">فحص كثافة الكلمات المفتاحية </text><rect x="75" y="115" width="610" height="300" rx="28" fill="#fff" stroke="#dcd8ed" stroke-width="2" filter="url(#sh)"/><rect x="110" y="155" width="55" height="20" rx="10" fill="#ea580c" opacity=".85"/><rect x="194" y="155" width="73" height="20" rx="10" fill="#dedbea" opacity="1"/><rect x="278" y="155" width="55" height="20" rx="10" fill="#dedbea" opacity="1"/><rect x="362" y="155" width="73" height="20" rx="10" fill="#dedbea" opacity="1"/><rect x="446" y="155" width="55" height="20" rx="10" fill="#dedbea" opacity="1"/><rect x="530" y="155" width="73" height="20" rx="10" fill="#ea580c" opacity=".85"/><rect x="110" y="200" width="55" height="20" rx="10" fill="#dedbea" opacity="1"/><rect x="194" y="200" width="73" height="20" rx="10" fill="#dedbea" opacity="1"/><rect x="278" y="200" width="55" height="20" rx="10" fill="#dedbea" opacity="1"/><rect x="362" y="200" width="73" height="20" rx="10" fill="#dedbea" opacity="1"/><rect x="446" y="200" width="55" height="20" rx="10" fill="#ea580c" opacity=".85"/><rect x="530" y="200" width="73" height="20" rx="10" fill="#dedbea" opacity="1"/><rect x="110" y="245" width="55" height="20" rx="10" fill="#dedbea" opacity="1"/><rect x="194" y="245" width="73" height="20" rx="10" fill="#dedbea" opacity="1"/><rect x="278" y="245" width="55" height="20" rx="10" fill="#dedbea" opacity="1"/><rect x="362" y="245" width="73" height="20" rx="10" fill="#ea580c" opacity=".85"/><rect x="446" y="245" width="55" height="20" rx="10" fill="#dedbea" opacity="1"/><rect x="530" y="245" width="73" height="20" rx="10" fill="#dedbea" opacity="1"/><rect x="110" y="290" width="55" height="20" rx="10" fill="#dedbea" opacity="1"/><rect x="194" y="290" width="73" height="20" rx="10" fill="#dedbea" opacity="1"/><rect x="278" y="290" width="55" height="20" rx="10" fill="#ea580c" opacity=".85"/><rect x="362" y="290" width="73" height="20" rx="10" fill="#dedbea" opacity="1"/><rect x="446" y="290" width="55" height="20" rx="10" fill="#dedbea" opacity="1"/><rect x="530" y="290" width="73" height="20" rx="10" fill="#dedbea" opacity="1"/><rect x="110" y="335" width="55" height="20" rx="10" fill="#dedbea" opacity="1"/><rect x="194" y="335" width="73" height="20" rx="10" fill="#ea580c" opacity=".85"/><rect x="278" y="335" width="55" height="20" rx="10" fill="#dedbea" opacity="1"/><rect x="362" y="335" width="73" height="20" rx="10" fill="#dedbea" opacity="1"/><rect x="446" y="335" width="55" height="20" rx="10" fill="#dedbea" opacity="1"/><rect x="530" y="335" width="73" height="20" rx="10" fill="#dedbea" opacity="1"/><rect x="110" y="375" width="190" height="14" rx="7" fill="#2563eb" opacity=".55"/><text x="585" y="389" text-anchor="middle" direction="rtl" font-family="Cairo,Tahoma,Arial,sans-serif" font-size="15" font-weight="800" fill="#ea580c">توزيع طبيعي</text><circle cx="22" cy="495" r="3" fill="#ea580c" opacity=".45"/><circle cx="37" cy="495" r="3" fill="#ea580c" opacity=".45"/><circle cx="52" cy="495" r="3" fill="#ea580c" opacity=".45"/><circle cx="67" cy="495" r="3" fill="#ea580c" opacity=".45"/><circle cx="82" cy="495" r="3" fill="#ea580c" opacity=".45"/><circle cx="97" cy="495" r="3" fill="#ea580c" opacity=".45"/><circle cx="112" cy="495" r="3" fill="#ea580c" opacity=".45"/><circle cx="127" cy="495" r="3" fill="#ea580c" opacity=".45"/></svg>