<svg xmlns="http://www.w3.org/2000/svg" width="960" height="340" viewBox="0 0 960 340" role="img"><defs><linearGradient id="g" x1="0" y1="0" x2="1" y2="1"><stop stop-color="#7c3aed"/><stop offset="1" stop-color="#a78bfa"/></linearGradient><linearGradient id="soft" x1="0" y1="0" x2="1" y2="1"><stop stop-color="#ec4899" stop-opacity=".22"/><stop offset="1" stop-color="#7c3aed" stop-opacity=".05"/></linearGradient><filter id="sh" x="-20%" y="-20%" width="140%" height="140%"><feDropShadow dx="0" dy="12" stdDeviation="13" flood-color="#302860" flood-opacity=".12"/></filter></defs><rect width="960" height="340" rx="34" fill="#f8f7ff"/><circle cx="90" cy="68" r="74" fill="#7c3aed" opacity=".07"/><circle cx="890" cy="295" r="90" fill="#ec4899" opacity=".09"/><g transform="translate(850 10)" opacity=".78"><rect x="-10" y="-6" width="100" height="70" rx="21" fill="#fff" stroke="url(#g)" stroke-width="2"/><rect x="0" y="46" width="5" height="12" rx="2.5" fill="url(#g)"/><rect x="8" y="36" width="5" height="22" rx="2.5" fill="url(#g)"/><rect x="16" y="26" width="5" height="32" rx="2.5" fill="url(#g)"/><rect x="24" y="16" width="5" height="42" rx="2.5" fill="url(#g)"/><rect x="32" y="46" width="5" height="12" rx="2.5" fill="url(#g)"/><rect x="40" y="36" width="5" height="22" rx="2.5" fill="url(#g)"/><rect x="48" y="26" width="5" height="32" rx="2.5" fill="url(#g)"/><g transform="translate(5 6)"><circle cx="0" cy="0" r="2.2" fill="url(#g)"/><circle cx="7" cy="0" r="2.2" fill="url(#g)"/><circle cx="14" cy="0" r="2.2" fill="url(#g)"/><circle cx="21" cy="0" r="2.2" fill="url(#g)"/><circle cx="28" cy="0" r="2.2" fill="url(#g)"/><circle cx="35" cy="0" r="2.2" fill="url(#g)"/><circle cx="42" cy="0" r="2.2" fill="url(#g)"/></g></g><rect x="45" y="95" width="195" height="170" rx="26" fill="#fff" stroke="#ddd9ed" filter="url(#sh)"/><circle cx="142.5" cy="95" r="27" fill="url(#g)"/><text x="142.5" y="104" text-anchor="middle" direction="rtl" font-family="Cairo,Tahoma,Arial,sans-serif" font-size="21" font-weight="900" fill="#fff">1</text><text x="142.5" y="167" text-anchor="middle" direction="rtl" font-family="Cairo,Tahoma,Arial,sans-serif" font-size="19" font-weight="800" fill="#302b50">حدّد</text><text x="142.5" y="217" text-anchor="middle" direction="rtl" font-family="Cairo,Tahoma,Arial,sans-serif" font-size="14" font-weight="700" fill="#7c3aed">مصدر</text><rect x="270" y="117" width="195" height="170" rx="26" fill="#fff" stroke="#ddd9ed" filter="url(#sh)"/><circle cx="367.5" cy="117" r="27" fill="url(#g)"/><text x="367.5" y="126" text-anchor="middle" direction="rtl" font-family="Cairo,Tahoma,Arial,sans-serif" font-size="21" font-weight="900" fill="#fff">2</text><text x="367.5" y="189" text-anchor="middle" direction="rtl" font-family="Cairo,Tahoma,Arial,sans-serif" font-size="19" font-weight="800" fill="#302b50">اجمع</text><text x="367.5" y="239" text-anchor="middle" direction="rtl" font-family="Cairo,Tahoma,Arial,sans-serif" font-size="14" font-weight="700" fill="#7c3aed">إعداد</text><rect x="495" y="95" width="195" height="170" rx="26" fill="#fff" stroke="#ddd9ed" filter="url(#sh)"/><circle cx="592.5" cy="95" r="27" fill="url(#g)"/><text x="592.5" y="104" text-anchor="middle" direction="rtl" font-family="Cairo,Tahoma,Arial,sans-serif" font-size="21" font-weight="900" fill="#fff">3</text><text x="592.5" y="167" text-anchor="middle" direction="rtl" font-family="Cairo,Tahoma,Arial,sans-serif" font-size="19" font-weight="800" fill="#302b50">راجع</text><text x="592.5" y="217" text-anchor="middle" direction="rtl" font-family="Cairo,Tahoma,Arial,sans-serif" font-size="14" font-weight="700" fill="#7c3aed">معالجة</text><rect x="720" y="117" width="195" height="170" rx="26" fill="#fff" stroke="#ddd9ed" filter="url(#sh)"/><circle cx="817.5" cy="117" r="27" fill="url(#g)"/><text x="817.5" y="126" text-anchor="middle" direction="rtl" font-family="Cairo,Tahoma,Arial,sans-serif" font-size="21" font-weight="900" fill="#fff">4</text><text x="817.5" y="189" text-anchor="middle" direction="rtl" font-family="Cairo,Tahoma,Arial,sans-serif" font-size="19" font-weight="800" fill="#302b50">اختبر</text><text x="817.5" y="239" text-anchor="middle" direction="rtl" font-family="Cairo,Tahoma,Arial,sans-serif" font-size="14" font-weight="700" fill="#7c3aed">اعتماد</text><path d="M65 300 Q480 308 895 300" fill="none" stroke="#ec4899" stroke-width="5" stroke-dasharray="10 10" opacity=".5"/></svg>