<svg xmlns="http://www.w3.org/2000/svg" width="760" height="520" viewBox="0 0 760 520" role="img"><defs><linearGradient id="g" x1="0" y1="0" x2="1" y2="1"><stop stop-color="#0f766e"/><stop offset="1" stop-color="#14b8a6"/></linearGradient><linearGradient id="soft" x1="0" y1="0" x2="1" y2="1"><stop stop-color="#f59e0b" stop-opacity=".22"/><stop offset="1" stop-color="#0f766e" stop-opacity=".05"/></linearGradient><filter id="sh" x="-20%" y="-20%" width="140%" height="140%"><feDropShadow dx="0" dy="12" stdDeviation="13" flood-color="#302860" flood-opacity=".12"/></filter></defs><rect width="760" height="520" rx="34" fill="#f8f7ff"/><circle cx="90" cy="68" r="74" fill="#0f766e" opacity=".07"/><circle cx="690" cy="475" r="90" fill="#f59e0b" opacity=".09"/><text x="380" y="58" text-anchor="middle" direction="rtl" font-family="Cairo,Tahoma,Arial,sans-serif" font-size="25" font-weight="900" fill="#282344">البحث عن الكلمات المفتاحية </text><g transform="translate(380 265)"><circle r="76" fill="url(#g)" filter="url(#sh)"/><text x="0" y="8" text-anchor="middle" direction="rtl" font-family="Cairo,Tahoma,Arial,sans-serif" font-size="22" font-weight="900" fill="#fff">نية البحث</text><path d="M0 0L-210 -90" stroke="#f59e0b" stroke-width="4" opacity=".4"/><rect x="-267" y="-116" width="114" height="52" rx="20" fill="#fff" stroke="#f59e0b" stroke-width="4" filter="url(#sh)"/><text x="-210" y="-83" text-anchor="middle" direction="rtl" font-family="Cairo,Tahoma,Arial,sans-serif" font-size="16" font-weight="800" fill="#0f766e">تعلم</text><path d="M0 0L-220 105" stroke="#f59e0b" stroke-width="4" opacity=".4"/><rect x="-277" y="79" width="114" height="52" rx="20" fill="#fff" stroke="#0f766e" stroke-width="4" filter="url(#sh)"/><text x="-220" y="112" text-anchor="middle" direction="rtl" font-family="Cairo,Tahoma,Arial,sans-serif" font-size="16" font-weight="800" fill="#0f766e">مقارنة</text><path d="M0 0L215 -105" stroke="#f59e0b" stroke-width="4" opacity=".4"/><rect x="158" y="-131" width="114" height="52" rx="20" fill="#fff" stroke="#f59e0b" stroke-width="4" filter="url(#sh)"/><text x="215" y="-98" text-anchor="middle" direction="rtl" font-family="Cairo,Tahoma,Arial,sans-serif" font-size="16" font-weight="800" fill="#0f766e">شراء</text><path d="M0 0L225 90" stroke="#f59e0b" stroke-width="4" opacity=".4"/><rect x="168" y="64" width="114" height="52" rx="20" fill="#fff" stroke="#0f766e" stroke-width="4" filter="url(#sh)"/><text x="225" y="97" text-anchor="middle" direction="rtl" font-family="Cairo,Tahoma,Arial,sans-serif" font-size="16" font-weight="800" fill="#0f766e">أداة</text><path d="M0 0L0 -165" stroke="#f59e0b" stroke-width="4" opacity=".4"/><rect x="-57" y="-191" width="114" height="52" rx="20" fill="#fff" stroke="#f59e0b" stroke-width="4" filter="url(#sh)"/><text x="0" y="-158" text-anchor="middle" direction="rtl" font-family="Cairo,Tahoma,Arial,sans-serif" font-size="16" font-weight="800" fill="#0f766e">حل مشكلة</text></g><circle cx="22" cy="495" r="3" fill="#0f766e" opacity=".45"/><circle cx="37" cy="495" r="3" fill="#0f766e" opacity=".45"/><circle cx="52" cy="495" r="3" fill="#0f766e" opacity=".45"/><circle cx="67" cy="495" r="3" fill="#0f766e" opacity=".45"/><circle cx="82" cy="495" r="3" fill="#0f766e" opacity=".45"/><circle cx="97" cy="495" r="3" fill="#0f766e" opacity=".45"/></svg>