<svg xmlns="http://www.w3.org/2000/svg" width="760" height="520" viewBox="0 0 760 520" role="img"><defs><linearGradient id="g" x1="0" y1="0" x2="1" y2="1"><stop stop-color="#7c3aed"/><stop offset="1" stop-color="#a78bfa"/></linearGradient><linearGradient id="soft" x1="0" y1="0" x2="1" y2="1"><stop stop-color="#ec4899" stop-opacity=".22"/><stop offset="1" stop-color="#7c3aed" stop-opacity=".05"/></linearGradient><filter id="sh" x="-20%" y="-20%" width="140%" height="140%"><feDropShadow dx="0" dy="12" stdDeviation="13" flood-color="#302860" flood-opacity=".12"/></filter></defs><rect width="760" height="520" rx="34" fill="#f8f7ff"/><circle cx="90" cy="68" r="74" fill="#7c3aed" opacity=".07"/><circle cx="690" cy="475" r="90" fill="#ec4899" opacity=".09"/><text x="380" y="58" text-anchor="middle" direction="rtl" font-family="Cairo,Tahoma,Arial,sans-serif" font-size="25" font-weight="900" fill="#282344">أداة التجسس على الكلمات المفتاحية </text><g transform="translate(275 270)"><path d="M0-150 143-46 88 121-88 121-143-46Z" fill="#fff" stroke="#d9d5e8" stroke-width="4"/><path d="M0-108 96-31 66 84-61 80-101-33Z" fill="#7c3aed" opacity=".18" stroke="#7c3aed" stroke-width="5"/><path d="M0 0L0 -150" stroke="#ddd9eb" stroke-width="3"/><path d="M0 0L143 -46" stroke="#ddd9eb" stroke-width="3"/><path d="M0 0L88 121" stroke="#ddd9eb" stroke-width="3"/><path d="M0 0L-88 121" stroke="#ddd9eb" stroke-width="3"/><path d="M0 0L-143 -46" stroke="#ddd9eb" stroke-width="3"/></g><rect x="500" y="145" width="190" height="245" rx="28" fill="#fff" stroke="#dcd8ed" stroke-width="2" filter="url(#sh)"/><text x="595" y="200" text-anchor="middle" direction="rtl" font-family="Cairo,Tahoma,Arial,sans-serif" font-size="20" font-weight="900" fill="#7c3aed">فجوات واضحة</text><rect x="535" y="235" width="110" height="18" rx="9" fill="#7c3aed" opacity=".65"/><rect x="535" y="281" width="72" height="18" rx="9" fill="#ec4899" opacity=".65"/><rect x="535" y="327" width="130" height="18" rx="9" fill="#7c3aed" opacity=".65"/><circle cx="22" cy="495" r="3" fill="#7c3aed" opacity=".45"/><circle cx="37" cy="495" r="3" fill="#7c3aed" opacity=".45"/><circle cx="52" cy="495" r="3" fill="#7c3aed" opacity=".45"/><circle cx="67" cy="495" r="3" fill="#7c3aed" opacity=".45"/><circle cx="82" cy="495" r="3" fill="#7c3aed" opacity=".45"/><circle cx="97" cy="495" r="3" fill="#7c3aed" opacity=".45"/><circle cx="112" cy="495" r="3" fill="#7c3aed" opacity=".45"/></svg>