<svg xmlns="http://www.w3.org/2000/svg" width="760" height="520" viewBox="0 0 760 520" role="img"><defs><linearGradient id="g" x1="0" y1="0" x2="1" y2="1"><stop stop-color="#2563eb"/><stop offset="1" stop-color="#60a5fa"/></linearGradient><linearGradient id="soft" x1="0" y1="0" x2="1" y2="1"><stop stop-color="#8b5cf6" stop-opacity=".22"/><stop offset="1" stop-color="#2563eb" stop-opacity=".05"/></linearGradient><filter id="sh" x="-20%" y="-20%" width="140%" height="140%"><feDropShadow dx="0" dy="12" stdDeviation="13" flood-color="#302860" flood-opacity=".12"/></filter></defs><rect width="760" height="520" rx="34" fill="#f8f7ff"/><circle cx="90" cy="68" r="74" fill="#2563eb" opacity=".07"/><circle cx="690" cy="475" r="90" fill="#8b5cf6" opacity=".09"/><text x="380" y="58" text-anchor="middle" direction="rtl" font-family="Cairo,Tahoma,Arial,sans-serif" font-size="25" font-weight="900" fill="#282344">تحليل روابط الموقع </text><g transform="translate(380 260)"><rect x="-90" y="-58" width="180" height="116" rx="30" fill="url(#g)" filter="url(#sh)"/><text x="0" y="8" text-anchor="middle" direction="rtl" font-family="Cairo,Tahoma,Arial,sans-serif" font-size="20" font-weight="900" fill="#fff">صفحة مركزية</text><path d="M-90 -35L-240 -105" stroke="#2563eb" stroke-width="6" marker-end="url(#none)"/><rect x="-302" y="-136" width="124" height="62" rx="22" fill="#fff" stroke="#2563eb" stroke-width="4"/><text x="-240" y="-98" text-anchor="middle" direction="rtl" font-family="Cairo,Tahoma,Arial,sans-serif" font-size="16" font-weight="800" fill="#2563eb">داخلي</text><path d="M-90 35L-245 105" stroke="#8b5cf6" stroke-width="6" marker-end="url(#none)"/><rect x="-307" y="74" width="124" height="62" rx="22" fill="#fff" stroke="#8b5cf6" stroke-width="4"/><text x="-245" y="112" text-anchor="middle" direction="rtl" font-family="Cairo,Tahoma,Arial,sans-serif" font-size="16" font-weight="800" fill="#2563eb">تنقل</text><path d="M90 -35L240 -105" stroke="#2563eb" stroke-width="6" marker-end="url(#none)"/><rect x="178" y="-136" width="124" height="62" rx="22" fill="#fff" stroke="#2563eb" stroke-width="4"/><text x="240" y="-98" text-anchor="middle" direction="rtl" font-family="Cairo,Tahoma,Arial,sans-serif" font-size="16" font-weight="800" fill="#2563eb">خارجي</text><path d="M90 35L245 105" stroke="#8b5cf6" stroke-width="6" marker-end="url(#none)"/><rect x="183" y="74" width="124" height="62" rx="22" fill="#fff" stroke="#8b5cf6" stroke-width="4"/><text x="245" y="112" text-anchor="middle" direction="rtl" font-family="Cairo,Tahoma,Arial,sans-serif" font-size="16" font-weight="800" fill="#2563eb">مرجع</text></g><circle cx="22" cy="495" r="3" fill="#2563eb" opacity=".45"/><circle cx="37" cy="495" r="3" fill="#2563eb" opacity=".45"/><circle cx="52" cy="495" r="3" fill="#2563eb" opacity=".45"/><circle cx="67" cy="495" r="3" fill="#2563eb" opacity=".45"/><circle cx="82" cy="495" r="3" fill="#2563eb" opacity=".45"/><circle cx="97" cy="495" r="3" fill="#2563eb" opacity=".45"/><circle cx="112" cy="495" r="3" fill="#2563eb" opacity=".45"/><circle cx="127" cy="495" r="3" fill="#2563eb" opacity=".45"/><circle cx="142" cy="495" r="3" fill="#2563eb" opacity=".45"/><circle cx="157" cy="495" r="3" fill="#2563eb" opacity=".45"/><circle cx="172" cy="495" r="3" fill="#2563eb" opacity=".45"/><circle cx="187" cy="495" r="3" fill="#2563eb" opacity=".45"/></svg>