<svg xmlns="http://www.w3.org/2000/svg" width="760" height="520" viewBox="0 0 760 520" role="img"><defs><linearGradient id="g" x1="0" y1="0" x2="1" y2="1"><stop stop-color="#334155"/><stop offset="1" stop-color="#64748b"/></linearGradient><linearGradient id="soft" x1="0" y1="0" x2="1" y2="1"><stop stop-color="#6558e8" stop-opacity=".22"/><stop offset="1" stop-color="#334155" stop-opacity=".05"/></linearGradient><filter id="sh" x="-20%" y="-20%" width="140%" height="140%"><feDropShadow dx="0" dy="12" stdDeviation="13" flood-color="#302860" flood-opacity=".12"/></filter></defs><rect width="760" height="520" rx="34" fill="#f8f7ff"/><circle cx="90" cy="68" r="74" fill="#334155" opacity=".07"/><circle cx="690" cy="475" r="90" fill="#6558e8" opacity=".09"/><text x="380" y="58" text-anchor="middle" direction="rtl" font-family="Cairo,Tahoma,Arial,sans-serif" font-size="25" font-weight="900" fill="#282344">مولد الميتا تاج </text><rect x="70" y="120" width="620" height="285" rx="28" fill="#fff" stroke="#dcd8ed" stroke-width="2" filter="url(#sh)"/><text x="380" y="175" text-anchor="middle" direction="rtl" font-family="Cairo,Tahoma,Arial,sans-serif" font-size="15" font-weight="700" fill="#16814b">toolrar.com › seo</text><text x="380" y="225" text-anchor="middle" direction="rtl" font-family="Cairo,Tahoma,Arial,sans-serif" font-size="26" font-weight="900" fill="#3158a8">عنوان واضح يطابق نية الباحث</text><text x="380" y="273" text-anchor="middle" direction="rtl" font-family="Cairo,Tahoma,Arial,sans-serif" font-size="17" font-weight="600" fill="#5f5b71">وصف صادق يلخص الفائدة ويقود إلى الصفحة المناسبة</text><path d="M145 315h465" stroke="#ddd9e8" stroke-width="9" stroke-linecap="round"/><path d="M190 350h380" stroke="#e4e1ec" stroke-width="9" stroke-linecap="round"/><circle cx="620" cy="170" r="29" fill="#6558e8" opacity=".35"/><circle cx="22" cy="495" r="3" fill="#334155" opacity=".45"/><circle cx="37" cy="495" r="3" fill="#334155" opacity=".45"/><circle cx="52" cy="495" r="3" fill="#334155" opacity=".45"/><circle cx="67" cy="495" r="3" fill="#334155" opacity=".45"/><circle cx="82" cy="495" r="3" fill="#334155" opacity=".45"/><circle cx="97" cy="495" r="3" fill="#334155" opacity=".45"/><circle cx="112" cy="495" r="3" fill="#334155" opacity=".45"/><circle cx="127" cy="495" r="3" fill="#334155" opacity=".45"/><circle cx="142" cy="495" r="3" fill="#334155" opacity=".45"/></svg>