<svg xmlns="http://www.w3.org/2000/svg" width="760" height="520" viewBox="0 0 760 520" role="img"><defs><linearGradient id="g" x1="0" y1="0" x2="1" y2="1"><stop stop-color="#7c3aed"/><stop offset="1" stop-color="#a78bfa"/></linearGradient><linearGradient id="soft" x1="0" y1="0" x2="1" y2="1"><stop stop-color="#ec4899" stop-opacity=".22"/><stop offset="1" stop-color="#7c3aed" stop-opacity=".05"/></linearGradient><filter id="sh" x="-20%" y="-20%" width="140%" height="140%"><feDropShadow dx="0" dy="12" stdDeviation="13" flood-color="#302860" flood-opacity=".12"/></filter></defs><rect width="760" height="520" rx="34" fill="#f8f7ff"/><circle cx="90" cy="68" r="74" fill="#7c3aed" opacity=".07"/><circle cx="690" cy="475" r="90" fill="#ec4899" opacity=".09"/><text x="380" y="58" text-anchor="middle" direction="rtl" font-family="Cairo,Tahoma,Arial,sans-serif" font-size="25" font-weight="900" fill="#282344">فحص سرعة الموقع </text><rect x="60" y="130" width="640" height="270" rx="30" fill="#fff" stroke="#dcd8ed" stroke-width="2" filter="url(#sh)"/><path d="M145 300a105 105 0 1 1 190 5" fill="none" stroke="#e4e1ee" stroke-width="24" stroke-linecap="round"/><path d="M145 300a105 105 0 0 1 154-119" fill="none" stroke="url(#g)" stroke-width="24" stroke-linecap="round"/><path d="M240 275l55-70" stroke="#7c3aed" stroke-width="13" stroke-linecap="round"/><text x="240" y="350" text-anchor="middle" direction="rtl" font-family="Cairo,Tahoma,Arial,sans-serif" font-size="18" font-weight="900" fill="#7c3aed">أداء الجوال</text><g transform="translate(430 190)"><rect width="210" height="42" rx="14" fill="#7c3aed" opacity=".16"/><text x="105" y="27" text-anchor="middle" direction="rtl" font-family="Cairo,Tahoma,Arial,sans-serif" font-size="15" font-weight="900" fill="#7c3aed">LCP: الظهور</text></g><g transform="translate(430 250)"><rect width="210" height="42" rx="14" fill="#ec4899" opacity=".16"/><text x="105" y="27" text-anchor="middle" direction="rtl" font-family="Cairo,Tahoma,Arial,sans-serif" font-size="15" font-weight="900" fill="#ec4899">INP: الاستجابة</text></g><g transform="translate(430 310)"><rect width="210" height="42" rx="14" fill="#a78bfa" opacity=".16"/><text x="105" y="27" text-anchor="middle" direction="rtl" font-family="Cairo,Tahoma,Arial,sans-serif" font-size="15" font-weight="900" fill="#a78bfa">CLS: الثبات</text></g><circle cx="22" cy="495" r="3" fill="#7c3aed" opacity=".45"/><circle cx="37" cy="495" r="3" fill="#7c3aed" opacity=".45"/><circle cx="52" cy="495" r="3" fill="#7c3aed" opacity=".45"/><circle cx="67" cy="495" r="3" fill="#7c3aed" opacity=".45"/><circle cx="82" cy="495" r="3" fill="#7c3aed" opacity=".45"/><circle cx="97" cy="495" r="3" fill="#7c3aed" opacity=".45"/><circle cx="112" cy="495" r="3" fill="#7c3aed" opacity=".45"/><circle cx="127" cy="495" r="3" fill="#7c3aed" opacity=".45"/><circle cx="142" cy="495" r="3" fill="#7c3aed" opacity=".45"/><circle cx="157" cy="495" r="3" fill="#7c3aed" opacity=".45"/><circle cx="172" cy="495" r="3" fill="#7c3aed" opacity=".45"/><circle cx="187" cy="495" r="3" fill="#7c3aed" opacity=".45"/><circle cx="202" cy="495" r="3" fill="#7c3aed" opacity=".45"/><circle cx="217" cy="495" r="3" fill="#7c3aed" opacity=".45"/><circle cx="232" cy="495" r="3" fill="#7c3aed" opacity=".45"/><circle cx="247" cy="495" r="3" fill="#7c3aed" opacity=".45"/></svg>