<svg xmlns="http://www.w3.org/2000/svg" width="960" height="360" viewBox="0 0 960 360" role="img"><defs><linearGradient id="g" x1="0" y1="0" x2="1" y2="1"><stop stop-color="#7c3aed"/><stop offset="1" stop-color="#a78bfa"/></linearGradient><linearGradient id="soft" x1="0" y1="0" x2="1" y2="1"><stop stop-color="#ec4899" stop-opacity=".22"/><stop offset="1" stop-color="#7c3aed" stop-opacity=".05"/></linearGradient><filter id="sh" x="-20%" y="-20%" width="140%" height="140%"><feDropShadow dx="0" dy="12" stdDeviation="13" flood-color="#302860" flood-opacity=".12"/></filter></defs><rect width="960" height="360" rx="34" fill="#f8f7ff"/><circle cx="90" cy="68" r="74" fill="#7c3aed" opacity=".07"/><circle cx="890" cy="315" r="90" fill="#ec4899" opacity=".09"/><g transform="translate(850 10)" opacity=".78"><rect x="-10" y="-6" width="100" height="70" rx="18" fill="#fff" stroke="url(#g)" stroke-width="2"/><rect x="0" y="46" width="5" height="12" rx="2.5" fill="url(#g)"/><rect x="8" y="36" width="5" height="22" rx="2.5" fill="url(#g)"/><rect x="16" y="26" width="5" height="32" rx="2.5" fill="url(#g)"/><rect x="24" y="16" width="5" height="42" rx="2.5" fill="url(#g)"/><rect x="32" y="46" width="5" height="12" rx="2.5" fill="url(#g)"/><rect x="40" y="36" width="5" height="22" rx="2.5" fill="url(#g)"/><rect x="48" y="26" width="5" height="32" rx="2.5" fill="url(#g)"/><rect x="56" y="16" width="5" height="42" rx="2.5" fill="url(#g)"/><g transform="translate(5 6)"><circle cx="0" cy="0" r="2.2" fill="url(#g)"/><circle cx="7" cy="0" r="2.2" fill="url(#g)"/><circle cx="14" cy="0" r="2.2" fill="url(#g)"/><circle cx="21" cy="0" r="2.2" fill="url(#g)"/><circle cx="28" cy="0" r="2.2" fill="url(#g)"/><circle cx="35" cy="0" r="2.2" fill="url(#g)"/><circle cx="42" cy="0" r="2.2" fill="url(#g)"/><circle cx="49" cy="0" r="2.2" fill="url(#g)"/><circle cx="56" cy="0" r="2.2" fill="url(#g)"/><circle cx="0" cy="8" r="2.2" fill="url(#g)"/><circle cx="7" cy="8" r="2.2" fill="url(#g)"/><circle cx="14" cy="8" r="2.2" fill="url(#g)"/><circle cx="21" cy="8" r="2.2" fill="url(#g)"/><circle cx="28" cy="8" r="2.2" fill="url(#g)"/><circle cx="35" cy="8" r="2.2" fill="url(#g)"/><circle cx="42" cy="8" r="2.2" fill="url(#g)"/></g></g><g transform="translate(50 90) rotate(-2 135 90)"><rect width="270" height="185" rx="37" fill="#fff" stroke="#ddd9ed" filter="url(#sh)"/><path d="M35 45h200" stroke="#ec4899" stroke-width="8" stroke-linecap="round" opacity=".35"/><text x="135" y="86" text-anchor="middle" direction="rtl" font-family="Cairo,Tahoma,Arial,sans-serif" font-size="17" font-weight="800" fill="#302b50">نتيجتان مختلفتان</text><text x="135" y="132" text-anchor="middle" direction="rtl" font-family="Cairo,Tahoma,Arial,sans-serif" font-size="14" font-weight="700" fill="#7c3aed">افحص المصدر</text><circle cx="135" cy="168" r="8" fill="#7c3aed"/></g><g transform="translate(350 90) rotate(3 135 90)"><rect width="270" height="185" rx="37" fill="#fff" stroke="#ddd9ed" filter="url(#sh)"/><path d="M35 45h200" stroke="#ec4899" stroke-width="8" stroke-linecap="round" opacity=".35"/><text x="135" y="86" text-anchor="middle" direction="rtl" font-family="Cairo,Tahoma,Arial,sans-serif" font-size="17" font-weight="800" fill="#302b50">درجة بلا زيارات</text><text x="135" y="132" text-anchor="middle" direction="rtl" font-family="Cairo,Tahoma,Arial,sans-serif" font-size="14" font-weight="700" fill="#7c3aed">راجع الإعداد</text><circle cx="135" cy="168" r="8" fill="#7c3aed"/></g><g transform="translate(650 90) rotate(-1 135 90)"><rect width="270" height="185" rx="37" fill="#fff" stroke="#ddd9ed" filter="url(#sh)"/><path d="M35 45h200" stroke="#ec4899" stroke-width="8" stroke-linecap="round" opacity=".35"/><text x="135" y="86" text-anchor="middle" direction="rtl" font-family="Cairo,Tahoma,Arial,sans-serif" font-size="17" font-weight="800" fill="#302b50">رقم متقلب</text><text x="135" y="132" text-anchor="middle" direction="rtl" font-family="Cairo,Tahoma,Arial,sans-serif" font-size="14" font-weight="700" fill="#7c3aed">اختبر الناتج</text><circle cx="135" cy="168" r="8" fill="#7c3aed"/></g></svg>