<svg xmlns="http://www.w3.org/2000/svg" width="760" height="520" viewBox="0 0 760 520" role="img"><defs><linearGradient id="g" x1="0" y1="0" x2="1" y2="1"><stop stop-color="#0f8f83"/><stop offset="1" stop-color="#39c6b8"/></linearGradient><linearGradient id="soft" x1="0" y1="0" x2="1" y2="1"><stop stop-color="#6558e8" stop-opacity=".22"/><stop offset="1" stop-color="#0f8f83" stop-opacity=".05"/></linearGradient><filter id="sh" x="-20%" y="-20%" width="140%" height="140%"><feDropShadow dx="0" dy="12" stdDeviation="13" flood-color="#302860" flood-opacity=".12"/></filter></defs><rect width="760" height="520" rx="34" fill="#f8f7ff"/><circle cx="90" cy="68" r="74" fill="#0f8f83" opacity=".07"/><circle cx="690" cy="475" r="90" fill="#6558e8" opacity=".09"/><text x="380" y="58" text-anchor="middle" direction="rtl" font-family="Cairo,Tahoma,Arial,sans-serif" font-size="25" font-weight="900" fill="#282344">فحص حجم الصفحة </text><rect x="65" y="115" width="630" height="300" rx="28" fill="#fff" stroke="#dcd8ed" stroke-width="2" filter="url(#sh)"/><g transform="translate(105 160)"><text x="0" y="6" text-anchor="start" direction="rtl" font-family="Cairo,Tahoma,Arial,sans-serif" font-size="14" font-weight="800" fill="#514c68">HTML</text><rect x="80" y="-12" width="140" height="25" rx="9" fill="#0f8f83" opacity="0.62"/></g><g transform="translate(105 210)"><text x="0" y="6" text-anchor="start" direction="rtl" font-family="Cairo,Tahoma,Arial,sans-serif" font-size="14" font-weight="800" fill="#514c68">CSS</text><rect x="80" y="-12" width="95" height="25" rx="9" fill="#6558e8" opacity="0.72"/></g><g transform="translate(105 260)"><text x="0" y="6" text-anchor="start" direction="rtl" font-family="Cairo,Tahoma,Arial,sans-serif" font-size="14" font-weight="800" fill="#514c68">JS</text><rect x="80" y="-12" width="285" height="25" rx="9" fill="#39c6b8" opacity="0.52"/></g><g transform="translate(105 310)"><text x="0" y="6" text-anchor="start" direction="rtl" font-family="Cairo,Tahoma,Arial,sans-serif" font-size="14" font-weight="800" fill="#514c68">صور</text><rect x="80" y="-12" width="390" height="25" rx="9" fill="#0f8f83" opacity="0.45"/></g><g transform="translate(105 360)"><text x="0" y="6" text-anchor="start" direction="rtl" font-family="Cairo,Tahoma,Arial,sans-serif" font-size="14" font-weight="800" fill="#514c68">خطوط</text><rect x="80" y="-12" width="125" height="25" rx="9" fill="#6558e8" opacity="0.62"/></g><text x="610" y="385" text-anchor="middle" direction="rtl" font-family="Cairo,Tahoma,Arial,sans-serif" font-size="14" font-weight="800" fill="#0f8f83">الحجم المنقول</text><circle cx="22" cy="495" r="3" fill="#0f8f83" opacity=".45"/><circle cx="37" cy="495" r="3" fill="#0f8f83" opacity=".45"/><circle cx="52" cy="495" r="3" fill="#0f8f83" opacity=".45"/><circle cx="67" cy="495" r="3" fill="#0f8f83" opacity=".45"/><circle cx="82" cy="495" r="3" fill="#0f8f83" opacity=".45"/><circle cx="97" cy="495" r="3" fill="#0f8f83" opacity=".45"/><circle cx="112" cy="495" r="3" fill="#0f8f83" opacity=".45"/><circle cx="127" cy="495" r="3" fill="#0f8f83" opacity=".45"/><circle cx="142" cy="495" r="3" fill="#0f8f83" opacity=".45"/><circle cx="157" cy="495" r="3" fill="#0f8f83" opacity=".45"/><circle cx="172" cy="495" r="3" fill="#0f8f83" opacity=".45"/></svg>