<svg xmlns="http://www.w3.org/2000/svg" width="760" height="520" viewBox="0 0 760 520" role="img"><defs><linearGradient id="g" x1="0" y1="0" x2="1" y2="1"><stop stop-color="#6558e8"/><stop offset="1" stop-color="#9285ff"/></linearGradient><linearGradient id="soft" x1="0" y1="0" x2="1" y2="1"><stop stop-color="#10a7a0" stop-opacity=".22"/><stop offset="1" stop-color="#6558e8" stop-opacity=".05"/></linearGradient><filter id="sh" x="-20%" y="-20%" width="140%" height="140%"><feDropShadow dx="0" dy="12" stdDeviation="13" flood-color="#302860" flood-opacity=".12"/></filter></defs><rect width="760" height="520" rx="34" fill="#f8f7ff"/><circle cx="90" cy="68" r="74" fill="#6558e8" opacity=".07"/><circle cx="690" cy="475" r="90" fill="#10a7a0" opacity=".09"/><text x="380" y="58" text-anchor="middle" direction="rtl" font-family="Cairo,Tahoma,Arial,sans-serif" font-size="25" font-weight="900" fill="#282344">فحص السيو الشامل مجانا</text><rect x="70" y="125" width="610" height="285" rx="30" fill="#fff" stroke="#dcd8ed" stroke-width="2" filter="url(#sh)"/><path d="M115 175h185" stroke="#6558e8" stroke-width="13" stroke-linecap="round"/><g transform="translate(115 225)"><circle r="16" fill="#10a7a0"/><path d="M34 0h340" stroke="#d7d3e8" stroke-width="11" stroke-linecap="round"/><rect x="400" y="-11" width="78" height="22" rx="11" fill="#10a7a0" opacity=".75"/></g><g transform="translate(115 279)"><circle r="16" fill="#6558e8"/><path d="M34 0h340" stroke="#d7d3e8" stroke-width="11" stroke-linecap="round"/><rect x="400" y="-11" width="116" height="22" rx="11" fill="#6558e8" opacity=".75"/></g><g transform="translate(115 333)"><circle r="16" fill="#9285ff"/><path d="M34 0h340" stroke="#d7d3e8" stroke-width="11" stroke-linecap="round"/><rect x="400" y="-11" width="52" height="22" rx="11" fill="#9285ff" opacity=".75"/></g><g transform="translate(610 170) scale(.55)"><circle cx="0" cy="0" r="48" fill="none" stroke="url(#g)" stroke-width="15"/><path d="M34 34l55 55" stroke="#6558e8" stroke-width="17" stroke-linecap="round"/></g><circle cx="22" cy="495" r="3" fill="#6558e8" opacity=".45"/></svg>