<svg xmlns="http://www.w3.org/2000/svg" width="760" height="520" viewBox="0 0 760 520" role="img"><defs><linearGradient id="g" x1="0" y1="0" x2="1" y2="1"><stop stop-color="#4f46e5"/><stop offset="1" stop-color="#7c6cf2"/></linearGradient><linearGradient id="soft" x1="0" y1="0" x2="1" y2="1"><stop stop-color="#0f9f8f" stop-opacity=".22"/><stop offset="1" stop-color="#4f46e5" stop-opacity=".05"/></linearGradient><filter id="sh" x="-20%" y="-20%" width="140%" height="140%"><feDropShadow dx="0" dy="12" stdDeviation="13" flood-color="#302860" flood-opacity=".12"/></filter></defs><rect width="760" height="520" rx="34" fill="#f8f7ff"/><circle cx="90" cy="68" r="74" fill="#4f46e5" opacity=".07"/><circle cx="690" cy="475" r="90" fill="#0f9f8f" opacity=".09"/><text x="380" y="58" text-anchor="middle" direction="rtl" font-family="Cairo,Tahoma,Arial,sans-serif" font-size="25" font-weight="900" fill="#282344">اختصار الروابط </text><rect x="55" y="145" width="285" height="225" rx="28" fill="#fff" stroke="#dcd8ed" stroke-width="2" filter="url(#sh)"/><text x="198" y="205" text-anchor="middle" direction="rtl" font-family="Cairo,Tahoma,Arial,sans-serif" font-size="18" font-weight="900" fill="#4f46e5">رابط طويل + معاملات</text><path d="M95 250h205" stroke="#ddd9e8" stroke-width="10" stroke-linecap="round"/><path d="M95 292h150" stroke="#ddd9e8" stroke-width="10" stroke-linecap="round"/><path d="M365 260h70m-28-28 31 28-31 28" fill="none" stroke="#4f46e5" stroke-width="12" stroke-linecap="round" stroke-linejoin="round"/><rect x="505" y="175" width="205" height="165" rx="35" fill="#fff" stroke="#dcd8ed" stroke-width="2" filter="url(#sh)"/><text x="608" y="250" text-anchor="middle" direction="rtl" font-family="Cairo,Tahoma,Arial,sans-serif" font-size="25" font-weight="900" fill="#4f46e5">رابط قصير</text><text x="608" y="292" text-anchor="middle" direction="rtl" font-family="Cairo,Tahoma,Arial,sans-serif" font-size="15" font-weight="700" fill="#0f9f8f">يوجه للوجهة</text><circle cx="22" cy="495" r="3" fill="#4f46e5" opacity=".45"/><circle cx="37" cy="495" r="3" fill="#4f46e5" opacity=".45"/><circle cx="52" cy="495" r="3" fill="#4f46e5" opacity=".45"/><circle cx="67" cy="495" r="3" fill="#4f46e5" opacity=".45"/><circle cx="82" cy="495" r="3" fill="#4f46e5" opacity=".45"/><circle cx="97" cy="495" r="3" fill="#4f46e5" opacity=".45"/><circle cx="112" cy="495" r="3" fill="#4f46e5" opacity=".45"/><circle cx="127" cy="495" r="3" fill="#4f46e5" opacity=".45"/><circle cx="142" cy="495" r="3" fill="#4f46e5" opacity=".45"/><circle cx="157" cy="495" r="3" fill="#4f46e5" opacity=".45"/><circle cx="172" cy="495" r="3" fill="#4f46e5" opacity=".45"/><circle cx="187" cy="495" r="3" fill="#4f46e5" opacity=".45"/><circle cx="202" cy="495" r="3" fill="#4f46e5" opacity=".45"/><circle cx="217" cy="495" r="3" fill="#4f46e5" opacity=".45"/></svg>