<svg xmlns="http://www.w3.org/2000/svg" width="760" height="520" viewBox="0 0 760 520" role="img"><defs><linearGradient id="g" x1="0" y1="0" x2="1" y2="1"><stop stop-color="#2563eb"/><stop offset="1" stop-color="#60a5fa"/></linearGradient><linearGradient id="soft" x1="0" y1="0" x2="1" y2="1"><stop stop-color="#8b5cf6" stop-opacity=".22"/><stop offset="1" stop-color="#2563eb" stop-opacity=".05"/></linearGradient><filter id="sh" x="-20%" y="-20%" width="140%" height="140%"><feDropShadow dx="0" dy="12" stdDeviation="13" flood-color="#302860" flood-opacity=".12"/></filter></defs><rect width="760" height="520" rx="34" fill="#f8f7ff"/><circle cx="90" cy="68" r="74" fill="#2563eb" opacity=".07"/><circle cx="690" cy="475" r="90" fill="#8b5cf6" opacity=".09"/><text x="380" y="58" text-anchor="middle" direction="rtl" font-family="Cairo,Tahoma,Arial,sans-serif" font-size="25" font-weight="900" fill="#282344">فحص السبام سكور </text><path d="M230 115 370 165v95c0 88-57 137-140 164-83-27-140-76-140-164v-95Z" fill="url(#g)" filter="url(#sh)"/><text x="230" y="260" text-anchor="middle" direction="rtl" font-family="Cairo,Tahoma,Arial,sans-serif" font-size="22" font-weight="900" fill="#fff">درجة مخاطر</text><text x="230" y="312" text-anchor="middle" direction="rtl" font-family="Cairo,Tahoma,Arial,sans-serif" font-size="17" font-weight="700" fill="#fff">تحتاج مراجعة</text><rect x="455" y="145" width="230" height="235" rx="30" fill="#fff" stroke="#dcd8ed" stroke-width="2" filter="url(#sh)"/><g transform="translate(492 200)"><circle r="13" fill="#8b5cf6"/><path d="M30 0h130" stroke="#d7d3e8" stroke-width="10" stroke-linecap="round"/></g><g transform="translate(492 258)"><circle r="13" fill="#f59e0b"/><path d="M30 0h130" stroke="#d7d3e8" stroke-width="10" stroke-linecap="round"/></g><g transform="translate(492 316)"><circle r="13" fill="#2563eb"/><path d="M30 0h130" stroke="#d7d3e8" stroke-width="10" stroke-linecap="round"/></g><circle cx="22" cy="495" r="3" fill="#2563eb" opacity=".45"/><circle cx="37" cy="495" r="3" fill="#2563eb" opacity=".45"/><circle cx="52" cy="495" r="3" fill="#2563eb" opacity=".45"/></svg>