<svg xmlns="http://www.w3.org/2000/svg" width="760" height="520" viewBox="0 0 760 520" role="img"><defs><linearGradient id="g" x1="0" y1="0" x2="1" y2="1"><stop stop-color="#d9467a"/><stop offset="1" stop-color="#fb7185"/></linearGradient><linearGradient id="soft" x1="0" y1="0" x2="1" y2="1"><stop stop-color="#6558e8" stop-opacity=".22"/><stop offset="1" stop-color="#d9467a" stop-opacity=".05"/></linearGradient><filter id="sh" x="-20%" y="-20%" width="140%" height="140%"><feDropShadow dx="0" dy="12" stdDeviation="13" flood-color="#302860" flood-opacity=".12"/></filter></defs><rect width="760" height="520" rx="34" fill="#f8f7ff"/><circle cx="90" cy="68" r="74" fill="#d9467a" opacity=".07"/><circle cx="690" cy="475" r="90" fill="#6558e8" opacity=".09"/><text x="380" y="58" text-anchor="middle" direction="rtl" font-family="Cairo,Tahoma,Arial,sans-serif" font-size="25" font-weight="900" fill="#282344">فحص حالة الموقع </text><rect x="80" y="135" width="210" height="240" rx="28" fill="#fff" stroke="#dcd8ed" stroke-width="2" filter="url(#sh)"/><rect x="115" y="180" width="140" height="34" rx="11" fill="#d9467a" opacity=".62"/><rect x="115" y="238" width="140" height="34" rx="11" fill="#6558e8" opacity=".62"/><rect x="115" y="296" width="140" height="34" rx="11" fill="#d9467a" opacity=".62"/><path d="M330 270h70l35-70 48 140 45-90h150" fill="none" stroke="url(#g)" stroke-width="11" stroke-linecap="round" stroke-linejoin="round"/><circle cx="650" cy="270" r="24" fill="#6558e8"/><text x="185" y="350" text-anchor="middle" direction="rtl" font-family="Cairo,Tahoma,Arial,sans-serif" font-size="16" font-weight="800" fill="#d9467a">الخادم</text><circle cx="22" cy="495" r="3" fill="#d9467a" opacity=".45"/><circle cx="37" cy="495" r="3" fill="#d9467a" opacity=".45"/><circle cx="52" cy="495" r="3" fill="#d9467a" opacity=".45"/><circle cx="67" cy="495" r="3" fill="#d9467a" opacity=".45"/><circle cx="82" cy="495" r="3" fill="#d9467a" opacity=".45"/><circle cx="97" cy="495" r="3" fill="#d9467a" opacity=".45"/><circle cx="112" cy="495" r="3" fill="#d9467a" opacity=".45"/><circle cx="127" cy="495" r="3" fill="#d9467a" opacity=".45"/><circle cx="142" cy="495" r="3" fill="#d9467a" opacity=".45"/><circle cx="157" cy="495" r="3" fill="#d9467a" opacity=".45"/><circle cx="172" cy="495" r="3" fill="#d9467a" opacity=".45"/><circle cx="187" cy="495" r="3" fill="#d9467a" opacity=".45"/><circle cx="202" cy="495" r="3" fill="#d9467a" opacity=".45"/></svg>