<svg xmlns="http://www.w3.org/2000/svg" width="760" height="520" viewBox="0 0 760 520" role="img"><defs><linearGradient id="g" x1="0" y1="0" x2="1" y2="1"><stop stop-color="#4f46e5"/><stop offset="1" stop-color="#7c6cf2"/></linearGradient><linearGradient id="soft" x1="0" y1="0" x2="1" y2="1"><stop stop-color="#0f9f8f" stop-opacity=".22"/><stop offset="1" stop-color="#4f46e5" stop-opacity=".05"/></linearGradient><filter id="sh" x="-20%" y="-20%" width="140%" height="140%"><feDropShadow dx="0" dy="12" stdDeviation="13" flood-color="#302860" flood-opacity=".12"/></filter></defs><rect width="760" height="520" rx="34" fill="#f8f7ff"/><circle cx="90" cy="68" r="74" fill="#4f46e5" opacity=".07"/><circle cx="690" cy="475" r="90" fill="#0f9f8f" opacity=".09"/><text x="380" y="58" text-anchor="middle" direction="rtl" font-family="Cairo,Tahoma,Arial,sans-serif" font-size="25" font-weight="900" fill="#282344">فحص عدد الزيارات وزوار الموقع </text><rect x="65" y="115" width="630" height="300" rx="30" fill="#fff" stroke="#dcd8ed" stroke-width="2" filter="url(#sh)"/><path d="M105 352 205 303l82 24 96-105 88 42 94-94" fill="none" stroke="url(#g)" stroke-width="13" stroke-linecap="round" stroke-linejoin="round"/><circle cx="105" cy="352" r="11" fill="#4f46e5"/><circle cx="205" cy="303" r="11" fill="#0f9f8f"/><circle cx="287" cy="327" r="11" fill="#4f46e5"/><circle cx="483" cy="222" r="11" fill="#0f9f8f"/><circle cx="571" cy="264" r="11" fill="#4f46e5"/><circle cx="665" cy="170" r="11" fill="#0f9f8f"/><text x="180" y="165" text-anchor="middle" direction="rtl" font-family="Cairo,Tahoma,Arial,sans-serif" font-size="20" font-weight="900" fill="#4f46e5">اتجاه الزيارات</text><circle cx="22" cy="495" r="3" fill="#4f46e5" opacity=".45"/><circle cx="37" cy="495" r="3" fill="#4f46e5" opacity=".45"/><circle cx="52" cy="495" r="3" fill="#4f46e5" opacity=".45"/><circle cx="67" cy="495" r="3" fill="#4f46e5" opacity=".45"/><circle cx="82" cy="495" r="3" fill="#4f46e5" opacity=".45"/></svg>