<svg xmlns="http://www.w3.org/2000/svg" width="960" height="360" viewBox="0 0 960 360" role="img"><defs><linearGradient id="g" x1="0" y1="0" x2="1" y2="1"><stop stop-color="#0f766e"/><stop offset="1" stop-color="#14b8a6"/></linearGradient><linearGradient id="soft" x1="0" y1="0" x2="1" y2="1"><stop stop-color="#f59e0b" stop-opacity=".22"/><stop offset="1" stop-color="#0f766e" stop-opacity=".05"/></linearGradient><filter id="sh" x="-20%" y="-20%" width="140%" height="140%"><feDropShadow dx="0" dy="12" stdDeviation="13" flood-color="#302860" flood-opacity=".12"/></filter></defs><rect width="960" height="360" rx="34" fill="#f8f7ff"/><circle cx="90" cy="68" r="74" fill="#0f766e" opacity=".07"/><circle cx="890" cy="315" r="90" fill="#f59e0b" opacity=".09"/><g transform="translate(850 10)" opacity=".78"><rect x="-10" y="-6" width="100" height="70" rx="17" fill="#fff" stroke="url(#g)" stroke-width="2"/><rect x="0" y="46" width="5" height="12" rx="2.5" fill="url(#g)"/><rect x="8" y="36" width="5" height="22" rx="2.5" fill="url(#g)"/><rect x="16" y="26" width="5" height="32" rx="2.5" fill="url(#g)"/><rect x="24" y="16" width="5" height="42" rx="2.5" fill="url(#g)"/><rect x="32" y="46" width="5" height="12" rx="2.5" fill="url(#g)"/><rect x="40" y="36" width="5" height="22" rx="2.5" fill="url(#g)"/><rect x="48" y="26" width="5" height="32" rx="2.5" fill="url(#g)"/><rect x="56" y="16" width="5" height="42" rx="2.5" fill="url(#g)"/><g transform="translate(5 6)"><circle cx="0" cy="0" r="2.2" fill="url(#g)"/><circle cx="7" cy="0" r="2.2" fill="url(#g)"/><circle cx="14" cy="0" r="2.2" fill="url(#g)"/><circle cx="21" cy="0" r="2.2" fill="url(#g)"/><circle cx="28" cy="0" r="2.2" fill="url(#g)"/><circle cx="35" cy="0" r="2.2" fill="url(#g)"/><circle cx="42" cy="0" r="2.2" fill="url(#g)"/><circle cx="49" cy="0" r="2.2" fill="url(#g)"/><circle cx="56" cy="0" r="2.2" fill="url(#g)"/><circle cx="0" cy="8" r="2.2" fill="url(#g)"/><circle cx="7" cy="8" r="2.2" fill="url(#g)"/><circle cx="14" cy="8" r="2.2" fill="url(#g)"/><circle cx="21" cy="8" r="2.2" fill="url(#g)"/><circle cx="28" cy="8" r="2.2" fill="url(#g)"/><circle cx="35" cy="8" r="2.2" fill="url(#g)"/></g></g><g transform="translate(55 65)"><path d="M0 20h240l30 80-30 80H0l30-80Z" fill="#fff" stroke="#0f766e" stroke-width="4" filter="url(#sh)"/><text x="135" y="94" text-anchor="middle" direction="rtl" font-family="Cairo,Tahoma,Arial,sans-serif" font-size="16" font-weight="800" fill="#302b50">نتيجتان مختلفتان</text><text x="135" y="127" text-anchor="middle" direction="rtl" font-family="Cairo,Tahoma,Arial,sans-serif" font-size="13" font-weight="700" fill="#0f766e">سبب</text></g><g transform="translate(355 87)"><path d="M0 20h240l30 80-30 80H0l30-80Z" fill="#fff" stroke="#f59e0b" stroke-width="4" filter="url(#sh)"/><text x="135" y="94" text-anchor="middle" direction="rtl" font-family="Cairo,Tahoma,Arial,sans-serif" font-size="16" font-weight="800" fill="#302b50">درجة بلا زيارات</text><text x="135" y="127" text-anchor="middle" direction="rtl" font-family="Cairo,Tahoma,Arial,sans-serif" font-size="13" font-weight="700" fill="#0f766e">تحقق</text></g><g transform="translate(655 109)"><path d="M0 20h240l30 80-30 80H0l30-80Z" fill="#fff" stroke="#0f766e" stroke-width="4" filter="url(#sh)"/><text x="135" y="94" text-anchor="middle" direction="rtl" font-family="Cairo,Tahoma,Arial,sans-serif" font-size="16" font-weight="800" fill="#302b50">رقم متقلب</text><text x="135" y="127" text-anchor="middle" direction="rtl" font-family="Cairo,Tahoma,Arial,sans-serif" font-size="13" font-weight="700" fill="#0f766e">قرار</text></g></svg>