<svg xmlns="http://www.w3.org/2000/svg" width="760" height="520" viewBox="0 0 760 520" role="img"><defs><linearGradient id="g" x1="0" y1="0" x2="1" y2="1"><stop stop-color="#0f766e"/><stop offset="1" stop-color="#14b8a6"/></linearGradient><linearGradient id="soft" x1="0" y1="0" x2="1" y2="1"><stop stop-color="#f59e0b" stop-opacity=".22"/><stop offset="1" stop-color="#0f766e" stop-opacity=".05"/></linearGradient><filter id="sh" x="-20%" y="-20%" width="140%" height="140%"><feDropShadow dx="0" dy="12" stdDeviation="13" flood-color="#302860" flood-opacity=".12"/></filter></defs><rect width="760" height="520" rx="34" fill="#f8f7ff"/><circle cx="90" cy="68" r="74" fill="#0f766e" opacity=".07"/><circle cx="690" cy="475" r="90" fill="#f59e0b" opacity=".09"/><text x="380" y="58" text-anchor="middle" direction="rtl" font-family="Cairo,Tahoma,Arial,sans-serif" font-size="25" font-weight="900" fill="#282344">مولد خريطة الموقع </text><g transform="translate(380 135)"><rect x="-90" width="180" height="64" rx="22" fill="url(#g)"/><text x="0" y="41" text-anchor="middle" direction="rtl" font-family="Cairo,Tahoma,Arial,sans-serif" font-size="18" font-weight="900" fill="#fff">الرابط الرئيسي</text><path d="M0 64v55M-220 119h440M-220 119v45M0 119v45M220 119v45" fill="none" stroke="#0f766e" stroke-width="6"/><rect x="-298" y="164" width="156" height="64" rx="20" fill="#fff" stroke="#0f766e" stroke-width="4" filter="url(#sh)"/><text x="-220" y="204" text-anchor="middle" direction="rtl" font-family="Cairo,Tahoma,Arial,sans-serif" font-size="16" font-weight="800" fill="#0f766e">أدلة</text><path d="M-220 228v40M-265 268h90M-265 268v28M-175 268v28" stroke="#cfcbe2" stroke-width="4"/><circle cx="-265" cy="306" r="14" fill="#f59e0b" opacity=".55"/><circle cx="-175" cy="306" r="14" fill="#0f766e" opacity=".55"/><rect x="-78" y="164" width="156" height="64" rx="20" fill="#fff" stroke="#f59e0b" stroke-width="4" filter="url(#sh)"/><text x="0" y="204" text-anchor="middle" direction="rtl" font-family="Cairo,Tahoma,Arial,sans-serif" font-size="16" font-weight="800" fill="#0f766e">أدوات</text><path d="M0 228v40M-45 268h90M-45 268v28M45 268v28" stroke="#cfcbe2" stroke-width="4"/><circle cx="-45" cy="306" r="14" fill="#f59e0b" opacity=".55"/><circle cx="45" cy="306" r="14" fill="#0f766e" opacity=".55"/><rect x="142" y="164" width="156" height="64" rx="20" fill="#fff" stroke="#0f766e" stroke-width="4" filter="url(#sh)"/><text x="220" y="204" text-anchor="middle" direction="rtl" font-family="Cairo,Tahoma,Arial,sans-serif" font-size="16" font-weight="800" fill="#0f766e">تصنيفات</text><path d="M220 228v40M175 268h90M175 268v28M265 268v28" stroke="#cfcbe2" stroke-width="4"/><circle cx="175" cy="306" r="14" fill="#f59e0b" opacity=".55"/><circle cx="265" cy="306" r="14" fill="#0f766e" opacity=".55"/></g><circle cx="22" cy="495" r="3" fill="#0f766e" opacity=".45"/><circle cx="37" cy="495" r="3" fill="#0f766e" opacity=".45"/><circle cx="52" cy="495" r="3" fill="#0f766e" opacity=".45"/><circle cx="67" cy="495" r="3" fill="#0f766e" opacity=".45"/><circle cx="82" cy="495" r="3" fill="#0f766e" opacity=".45"/><circle cx="97" cy="495" r="3" fill="#0f766e" opacity=".45"/><circle cx="112" cy="495" r="3" fill="#0f766e" opacity=".45"/><circle cx="127" cy="495" r="3" fill="#0f766e" opacity=".45"/><circle cx="142" cy="495" r="3" fill="#0f766e" opacity=".45"/><circle cx="157" cy="495" r="3" fill="#0f766e" opacity=".45"/><circle cx="172" cy="495" r="3" fill="#0f766e" opacity=".45"/><circle cx="187" cy="495" r="3" fill="#0f766e" opacity=".45"/><circle cx="202" cy="495" r="3" fill="#0f766e" opacity=".45"/><circle cx="217" cy="495" r="3" fill="#0f766e" opacity=".45"/><circle cx="232" cy="495" r="3" fill="#0f766e" opacity=".45"/></svg>