<svg xmlns="http://www.w3.org/2000/svg" width="960" height="340" viewBox="0 0 960 340" role="img"><defs><linearGradient id="g" x1="0" y1="0" x2="1" y2="1"><stop stop-color="#0f766e"/><stop offset="1" stop-color="#14b8a6"/></linearGradient><linearGradient id="soft" x1="0" y1="0" x2="1" y2="1"><stop stop-color="#f59e0b" stop-opacity=".22"/><stop offset="1" stop-color="#0f766e" stop-opacity=".05"/></linearGradient><filter id="sh" x="-20%" y="-20%" width="140%" height="140%"><feDropShadow dx="0" dy="12" stdDeviation="13" flood-color="#302860" flood-opacity=".12"/></filter></defs><rect width="960" height="340" rx="34" fill="#f8f7ff"/><circle cx="90" cy="68" r="74" fill="#0f766e" opacity=".07"/><circle cx="890" cy="295" r="90" fill="#f59e0b" opacity=".09"/><g transform="translate(850 10)" opacity=".78"><rect x="-10" y="-6" width="100" height="70" rx="17" fill="#fff" stroke="url(#g)" stroke-width="2"/><rect x="0" y="46" width="5" height="12" rx="2.5" fill="url(#g)"/><rect x="8" y="36" width="5" height="22" rx="2.5" fill="url(#g)"/><rect x="16" y="26" width="5" height="32" rx="2.5" fill="url(#g)"/><rect x="24" y="16" width="5" height="42" rx="2.5" fill="url(#g)"/><rect x="32" y="46" width="5" height="12" rx="2.5" fill="url(#g)"/><rect x="40" y="36" width="5" height="22" rx="2.5" fill="url(#g)"/><rect x="48" y="26" width="5" height="32" rx="2.5" fill="url(#g)"/><rect x="56" y="16" width="5" height="42" rx="2.5" fill="url(#g)"/><g transform="translate(5 6)"><circle cx="0" cy="0" r="2.2" fill="url(#g)"/><circle cx="7" cy="0" r="2.2" fill="url(#g)"/><circle cx="14" cy="0" r="2.2" fill="url(#g)"/><circle cx="21" cy="0" r="2.2" fill="url(#g)"/><circle cx="28" cy="0" r="2.2" fill="url(#g)"/><circle cx="35" cy="0" r="2.2" fill="url(#g)"/><circle cx="42" cy="0" r="2.2" fill="url(#g)"/><circle cx="49" cy="0" r="2.2" fill="url(#g)"/><circle cx="56" cy="0" r="2.2" fill="url(#g)"/><circle cx="0" cy="8" r="2.2" fill="url(#g)"/><circle cx="7" cy="8" r="2.2" fill="url(#g)"/><circle cx="14" cy="8" r="2.2" fill="url(#g)"/><circle cx="21" cy="8" r="2.2" fill="url(#g)"/><circle cx="28" cy="8" r="2.2" fill="url(#g)"/><circle cx="35" cy="8" r="2.2" fill="url(#g)"/></g></g><rect x="40" y="100" width="200" height="165" rx="34" fill="#fff" stroke="#ddd9ed" filter="url(#sh)"/><circle cx="140" cy="100" r="27" fill="url(#g)"/><text x="140" y="109" text-anchor="middle" direction="rtl" font-family="Cairo,Tahoma,Arial,sans-serif" font-size="21" font-weight="900" fill="#fff">1</text><text x="140" y="172" text-anchor="middle" direction="rtl" font-family="Cairo,Tahoma,Arial,sans-serif" font-size="19" font-weight="800" fill="#302b50">حدّد</text><text x="140" y="222" text-anchor="middle" direction="rtl" font-family="Cairo,Tahoma,Arial,sans-serif" font-size="14" font-weight="700" fill="#0f766e">مصدر</text><rect x="270" y="125" width="200" height="165" rx="34" fill="#fff" stroke="#ddd9ed" filter="url(#sh)"/><circle cx="370" cy="125" r="27" fill="url(#g)"/><text x="370" y="134" text-anchor="middle" direction="rtl" font-family="Cairo,Tahoma,Arial,sans-serif" font-size="21" font-weight="900" fill="#fff">2</text><text x="370" y="197" text-anchor="middle" direction="rtl" font-family="Cairo,Tahoma,Arial,sans-serif" font-size="19" font-weight="800" fill="#302b50">اجمع</text><text x="370" y="247" text-anchor="middle" direction="rtl" font-family="Cairo,Tahoma,Arial,sans-serif" font-size="14" font-weight="700" fill="#0f766e">إعداد</text><rect x="500" y="125" width="200" height="165" rx="34" fill="#fff" stroke="#ddd9ed" filter="url(#sh)"/><circle cx="600" cy="125" r="27" fill="url(#g)"/><text x="600" y="134" text-anchor="middle" direction="rtl" font-family="Cairo,Tahoma,Arial,sans-serif" font-size="21" font-weight="900" fill="#fff">3</text><text x="600" y="197" text-anchor="middle" direction="rtl" font-family="Cairo,Tahoma,Arial,sans-serif" font-size="19" font-weight="800" fill="#302b50">راجع</text><text x="600" y="247" text-anchor="middle" direction="rtl" font-family="Cairo,Tahoma,Arial,sans-serif" font-size="14" font-weight="700" fill="#0f766e">معالجة</text><rect x="730" y="100" width="200" height="165" rx="34" fill="#fff" stroke="#ddd9ed" filter="url(#sh)"/><circle cx="830" cy="100" r="27" fill="url(#g)"/><text x="830" y="109" text-anchor="middle" direction="rtl" font-family="Cairo,Tahoma,Arial,sans-serif" font-size="21" font-weight="900" fill="#fff">4</text><text x="830" y="172" text-anchor="middle" direction="rtl" font-family="Cairo,Tahoma,Arial,sans-serif" font-size="19" font-weight="800" fill="#302b50">اختبر</text><text x="830" y="222" text-anchor="middle" direction="rtl" font-family="Cairo,Tahoma,Arial,sans-serif" font-size="14" font-weight="700" fill="#0f766e">اعتماد</text><path d="M65 300 Q480 332 895 300" fill="none" stroke="#f59e0b" stroke-width="5" stroke-dasharray="10 10" opacity=".5"/></svg>