<svg width="760" height="520" xmlns="http://www.w3.org/2000/svg" viewBox="0 0 760 520" role="img" aria-labelledby="t"><title id="t">لوحة فحص التشابه النصي</title><defs><linearGradient id="g" x1="0" y1="0" x2="1" y2="1"><stop stop-color="#faf9ff"/><stop offset="1" stop-color="#e7e2ff"/></linearGradient><filter id="s"><feDropShadow dy="15" stdDeviation="15" flood-color="#4c41a7" flood-opacity=".16"/></filter></defs><rect x="55" y="42" width="650" height="436" rx="54" fill="url(#g)" stroke="#cfc9ff" stroke-width="2"/><g filter="url(#s)"><rect x="150" y="92" width="360" height="338" rx="30" fill="#fff"/><rect x="190" y="135" width="220" height="18" rx="9" fill="#d7d2f5"/><rect x="190" y="176" width="270" height="14" rx="7" fill="#eeeaff"/><rect x="190" y="211" width="245" height="14" rx="7" fill="#eeeaff"/><rect x="190" y="246" width="280" height="14" rx="7" fill="#ffe8ba"/><rect x="190" y="281" width="230" height="14" rx="7" fill="#eeeaff"/><rect x="190" y="316" width="265" height="14" rx="7" fill="#ffd9df"/><rect x="190" y="351" width="170" height="14" rx="7" fill="#eeeaff"/><rect x="438" y="156" width="190" height="206" rx="30" fill="#6658e8"/><circle cx="533" cy="238" r="54" fill="none" stroke="#958bf3" stroke-width="15"/><path d="M533 184a54 54 0 0 1 39 91" fill="none" stroke="#fff" stroke-width="15" stroke-linecap="round"/><text x="533" y="249" fill="#fff" font-family="Tahoma,Arial,sans-serif" direction="rtl" font-size="32" font-weight="700" text-anchor="middle">12%</text><text x="533" y="321" fill="#e9e6ff" font-family="Tahoma,Arial,sans-serif" direction="rtl" font-size="14" font-weight="700" text-anchor="middle">تشابه محتمل</text></g></svg>
