<svg width="960" height="340" xmlns="http://www.w3.org/2000/svg" viewBox="0 0 960 340" role="img" aria-labelledby="t"><title id="t">خطوات فحص الانتحال</title><rect width="960" height="340" rx="34" fill="#f7f5ff"/><g fill="none" stroke="#c9c3f2" stroke-width="5"><path d="M235 170h75M455 170h75M675 170h75"/><path d="m295 156 15 14-15 14m220-28 15 14-15 14m220-28 15 14-15 14"/></g><g font-family="Tahoma,Arial,sans-serif" direction="rtl" text-anchor="middle"><g><rect x="70" y="100" width="165" height="140" rx="25" fill="#fff" stroke="#ded9f6"/><text x="152" y="157" fill="#6559df" font-size="27" font-weight="700">01</text><text x="152" y="201" fill="#3a345c" font-size="16" font-weight="700">عينة</text></g><g><rect x="310" y="100" width="145" height="140" rx="25" fill="#6658e8"/><text x="382" y="157" fill="#fff" font-size="27" font-weight="700">02</text><text x="382" y="201" fill="#fff" font-size="16" font-weight="700">حلّل</text></g><g><rect x="530" y="100" width="145" height="140" rx="25" fill="#fff" stroke="#ded9f6"/><text x="602" y="157" fill="#6559df" font-size="27" font-weight="700">03</text><text x="602" y="201" fill="#3a345c" font-size="16" font-weight="700">تحقّق</text></g><g><rect x="750" y="100" width="140" height="140" rx="25" fill="#fff" stroke="#ded9f6"/><text x="820" y="157" fill="#6559df" font-size="27" font-weight="700">04</text><text x="820" y="201" fill="#3a345c" font-size="16" font-weight="700">عدّل</text></g></g></svg>
