<svg width="760" height="520" xmlns="http://www.w3.org/2000/svg" viewBox="0 0 760 520" role="img" aria-labelledby="t"><title id="t">تحويل النص إلى موجة صوتية</title><defs><linearGradient id="g" x1="0" y1="0" x2="1" y2="1"><stop stop-color="#faf9ff"/><stop offset="1" stop-color="#e6e1ff"/></linearGradient><filter id="s"><feDropShadow dy="16" stdDeviation="15" flood-color="#4d42aa" flood-opacity=".16"/></filter></defs><rect x="55" y="42" width="650" height="436" rx="54" fill="url(#g)" stroke="#cfc9ff" stroke-width="2"/><g filter="url(#s)"><rect x="120" y="126" width="270" height="270" rx="34" fill="#fff"/><rect x="160" y="171" width="190" height="18" rx="9" fill="#cfc9f2"/><rect x="160" y="215" width="156" height="14" rx="7" fill="#eeeaff"/><rect x="160" y="249" width="190" height="14" rx="7" fill="#eeeaff"/><rect x="160" y="283" width="130" height="14" rx="7" fill="#eeeaff"/><rect x="160" y="331" width="86" height="30" rx="15" fill="#6658e8"/><path d="M390 260h55" stroke="#9a90ed" stroke-width="8" stroke-linecap="round"/><path d="m427 241 20 19-20 19" fill="none" stroke="#9a90ed" stroke-width="8"/><rect x="445" y="126" width="190" height="270" rx="42" fill="#6658e8"/><path d="M485 260h28l34-45v90l-34-45h-28Z" fill="#fff"/><path d="M565 226c16 10 24 21 24 34s-8 24-24 34M587 202c28 18 42 37 42 58s-14 40-42 58" fill="none" stroke="#c8c2ff" stroke-width="9" stroke-linecap="round"/></g></svg>
