<svg width="960" height="360" xmlns="http://www.w3.org/2000/svg" viewBox="0 0 960 360" role="img" aria-labelledby="t"><title id="t">الصوت الآلي مقارنة بالصوت البشري</title><rect width="960" height="360" rx="36" fill="#f7f5ff"/><g font-family="Tahoma,Arial,sans-serif" direction="rtl" text-anchor="middle"><rect x="90" y="58" width="340" height="244" rx="34" fill="#6658e8"/><text x="260" y="113" fill="#e9e6ff" font-size="17">صوت آلي</text><path d="M165 190h28l34-44v88l-34-44h-28Z" fill="#fff"/><path d="M247 160c18 12 27 22 27 30s-9 18-27 30M277 138c30 20 45 37 45 52s-15 32-45 52" fill="none" stroke="#c8c2ff" stroke-width="8" stroke-linecap="round"/><text x="260" y="271" fill="#fff" font-size="15" font-weight="700">سريع ومتسق</text><rect x="530" y="58" width="340" height="244" rx="34" fill="#fff" stroke="#dcd7f5"/><text x="700" y="113" fill="#6c648b" font-size="17">صوت بشري</text><circle cx="700" cy="184" r="48" fill="#eeeaff"/><path d="M680 176c0-20 40-20 40 0v18c0 20-40 20-40 0Zm20 38v26m-28 0h56" fill="none" stroke="#6658e8" stroke-width="8" stroke-linecap="round"/><text x="700" y="271" fill="#3b355a" font-size="15" font-weight="700">تعبير وسياق</text></g></svg>
