<svg xmlns="http://www.w3.org/2000/svg" width="760" height="520" viewBox="0 0 760 520" role="img" aria-labelledby="title desc">
  <title id="title">مثال بصري لتحويل حالة الأحرف</title>
  <desc id="desc">بطاقات توضح انتقال النص من الحروف الصغيرة إلى الكبيرة وحالة العنوان</desc>
  <defs>
    <linearGradient id="bg" x1="0" y1="0" x2="1" y2="1"><stop stop-color="#f6f4ff"/><stop offset="1" stop-color="#e9e5ff"/></linearGradient>
    <filter id="shadow" x="-20%" y="-20%" width="140%" height="140%"><feDropShadow dx="0" dy="16" stdDeviation="18" flood-color="#4238a7" flood-opacity=".14"/></filter>
  </defs>
  <rect x="8" y="8" width="744" height="504" rx="70" fill="url(#bg)" stroke="#d9d4ff" stroke-width="2"/>
  <circle cx="653" cy="92" r="42" fill="#fff" opacity=".65"/><circle cx="92" cy="426" r="54" fill="#fff" opacity=".7"/>
  <g filter="url(#shadow)">
    <rect x="82" y="82" width="250" height="142" rx="30" fill="#fff" stroke="#dedafd" stroke-width="2"/>
    <rect x="428" y="296" width="250" height="142" rx="30" fill="#fff" stroke="#dedafd" stroke-width="2"/>
    <rect x="256" y="189" width="250" height="142" rx="34" fill="#6558e8"/>
  </g>
  <text x="207" y="142" text-anchor="middle" direction="rtl" font-family="Tahoma,Arial,sans-serif" font-size="22" fill="#77728c">حروف صغيرة</text>
  <text x="207" y="185" text-anchor="middle" font-family="Arial,sans-serif" font-size="35" font-weight="700" fill="#26233f">hello world</text>
  <text x="381" y="248" text-anchor="middle" direction="rtl" font-family="Tahoma,Arial,sans-serif" font-size="22" fill="#dcd8ff">حروف كبيرة</text>
  <text x="381" y="293" text-anchor="middle" font-family="Arial,sans-serif" font-size="35" font-weight="700" fill="#fff">HELLO WORLD</text>
  <text x="553" y="356" text-anchor="middle" direction="rtl" font-family="Tahoma,Arial,sans-serif" font-size="22" fill="#77728c">حالة العنوان</text>
  <text x="553" y="400" text-anchor="middle" font-family="Arial,sans-serif" font-size="35" font-weight="700" fill="#26233f">Hello World</text>
  <path d="M330 152c72-29 128-11 163 40" fill="none" stroke="#a99fff" stroke-width="8" stroke-linecap="round"/>
  <path d="m476 177 19 17-25 7" fill="none" stroke="#a99fff" stroke-width="8" stroke-linecap="round" stroke-linejoin="round"/>
  <path d="M444 337c-70 28-123 8-157-41" fill="none" stroke="#a99fff" stroke-width="8" stroke-linecap="round"/>
  <path d="m302 311-18-17 24-7" fill="none" stroke="#a99fff" stroke-width="8" stroke-linecap="round" stroke-linejoin="round"/>
</svg>
