<svg xmlns="http://www.w3.org/2000/svg" width="960" height="340" viewBox="0 0 960 340" role="img" aria-labelledby="title desc">
  <title id="title">أربع خطوات لاستخدام محول حالة الأحرف</title>
  <desc id="desc">مسار بصري يبدأ بلصق النص ثم اختيار الحالة والمراجعة وأخيرًا النسخ والاستخدام</desc>
  <defs>
    <linearGradient id="bg" x1="0" y1="0" x2="1" y2="1"><stop stop-color="#faf9ff"/><stop offset="1" stop-color="#efedff"/></linearGradient>
    <linearGradient id="brand" x1="0" y1="0" x2="1" y2="1"><stop stop-color="#786cf0"/><stop offset="1" stop-color="#5548cf"/></linearGradient>
    <filter id="shadow" x="-20%" y="-30%" width="140%" height="170%"><feDropShadow dx="0" dy="12" stdDeviation="13" flood-color="#5145bc" flood-opacity=".13"/></filter>
  </defs>
  <rect x="8" y="8" width="944" height="324" rx="42" fill="url(#bg)" stroke="#dedafd" stroke-width="2"/>
  <path d="M150 170h660" fill="none" stroke="#c9c3fa" stroke-width="8" stroke-linecap="round" stroke-dasharray="2 18"/>
  <g font-family="Cairo,Arial,sans-serif" text-anchor="middle" filter="url(#shadow)">
    <g transform="translate(50 101)"><rect width="200" height="138" rx="28" fill="#fff" stroke="#ddd9f8"/><circle cx="100" cy="0" r="28" fill="url(#brand)"/><text x="100" y="8" font-size="24" font-weight="800" fill="#fff">1</text><path d="M74 54h52v39H74zM84 46h32" fill="none" stroke="#6558e8" stroke-width="4" stroke-linecap="round" stroke-linejoin="round"/><text x="100" y="118" font-size="15" font-weight="800" fill="#302b50">ألصق النص</text></g>
    <g transform="translate(270 101)"><rect width="200" height="138" rx="28" fill="#fff" stroke="#ddd9f8"/><circle cx="100" cy="0" r="28" fill="url(#brand)"/><text x="100" y="8" font-size="24" font-weight="800" fill="#fff">2</text><text x="100" y="76" font-family="Arial,sans-serif" font-size="30" font-weight="800" fill="#6558e8">Aa</text><text x="100" y="118" font-size="15" font-weight="800" fill="#302b50">اختر الحالة</text></g>
    <g transform="translate(490 101)"><rect width="200" height="138" rx="28" fill="#fff" stroke="#ddd9f8"/><circle cx="100" cy="0" r="28" fill="url(#brand)"/><text x="100" y="8" font-size="24" font-weight="800" fill="#fff">3</text><path d="M71 72l18 18 40-45" fill="none" stroke="#6558e8" stroke-width="7" stroke-linecap="round" stroke-linejoin="round"/><text x="100" y="118" font-size="15" font-weight="800" fill="#302b50">راجع النتيجة</text></g>
    <g transform="translate(710 101)"><rect width="200" height="138" rx="28" fill="#fff" stroke="#ddd9f8"/><circle cx="100" cy="0" r="28" fill="url(#brand)"/><text x="100" y="8" font-size="24" font-weight="800" fill="#fff">4</text><path d="M73 51h41v41H73zM84 41h41v41" fill="none" stroke="#6558e8" stroke-width="4" stroke-linecap="round" stroke-linejoin="round"/><text x="100" y="118" font-size="15" font-weight="800" fill="#302b50">انسخ واستخدم</text></g>
  </g>
</svg>
