<svg width="760" height="520" xmlns="http://www.w3.org/2000/svg" viewBox="0 0 760 520" role="img" aria-labelledby="t d"><title id="t">لوحة إحصاءات النص</title><desc id="d">بطاقة تعرض الكلمات والأحرف ووقت القراءة</desc><defs><linearGradient id="g" x1="0" y1="0" x2="1" y2="1"><stop stop-color="#f8f7ff"/><stop offset="1" stop-color="#e8e4ff"/></linearGradient><filter id="s"><feDropShadow dx="0" dy="16" stdDeviation="16" flood-color="#5146b7" flood-opacity=".14"/></filter></defs><rect x="55" y="42" width="650" height="436" rx="54" fill="url(#g)" stroke="#cfc9ff" stroke-width="2"/><circle cx="650" cy="98" r="34" fill="#fff" opacity=".75"/><circle cx="110" cy="424" r="46" fill="#fff" opacity=".7"/><g filter="url(#s)"><rect x="133" y="116" width="494" height="288" rx="30" fill="#fff"/><rect x="163" y="146" width="434" height="46" rx="15" fill="#f4f2ff"/><circle cx="568" cy="169" r="7" fill="#6a5bea"/><rect x="185" y="163" width="230" height="12" rx="6" fill="#cdc7f7"/><g font-family="Tahoma,Arial,sans-serif" direction="rtl" text-anchor="middle"><rect x="164" y="222" width="132" height="116" rx="22" fill="#6658e8"/><text x="230" y="266" fill="#e8e5ff" font-size="15">الكلمات</text><text x="230" y="311" fill="#fff" font-size="38" font-weight="700">642</text><rect x="314" y="222" width="132" height="116" rx="22" fill="#f3f1ff" stroke="#ddd8ff"/><text x="380" y="266" fill="#6e6692" font-size="15">الأحرف</text><text x="380" y="311" fill="#332d59" font-size="34" font-weight="700">3,890</text><rect x="464" y="222" width="132" height="116" rx="22" fill="#f3f1ff" stroke="#ddd8ff"/><text x="530" y="266" fill="#6e6692" font-size="15">وقت القراءة</text><text x="530" y="311" fill="#332d59" font-size="34" font-weight="700">4:12</text></g><rect x="164" y="359" width="432" height="18" rx="9" fill="#eeeaff"/><rect x="164" y="359" width="286" height="18" rx="9" fill="#8d81f4"/></g></svg>
