<svg xmlns="http://www.w3.org/2000/svg" width="960" height="360" viewBox="0 0 960 360" role="img"><defs><linearGradient id="main" x1="0" y1="0" x2="1" y2="1"><stop stop-color="#059669"/><stop offset="1" stop-color="#34d399"/></linearGradient><linearGradient id="soft" x1="0" y1="0" x2="1" y2="1"><stop stop-color="#6366f1" stop-opacity=".18"/><stop offset="1" stop-color="#059669" stop-opacity=".04"/></linearGradient><pattern id="check" width="22" height="22" patternUnits="userSpaceOnUse"><rect width="11" height="11" fill="#ebe9f7"/><rect x="11" y="11" width="11" height="11" fill="#ebe9f7"/><rect x="11" width="11" height="11" fill="#fff"/><rect y="11" width="11" height="11" fill="#fff"/></pattern><filter id="shadow" x="-20%" y="-20%" width="140%" height="140%"><feDropShadow dx="0" dy="12" stdDeviation="14" flood-color="#302860" flood-opacity=".12"/></filter></defs><rect width="960" height="360" rx="34" fill="#f8f7ff"/><path d="M0 270 Q220 210 430 280 T960 245 V360 H0Z" fill="url(#soft)"/><g transform="rotate(-3 190 190)"><rect x="55" y="95" width="270" height="175" rx="23" fill="#fff" stroke="#ddd9ed" filter="url(#shadow)"/><path d="M93 130h194" stroke="#6366f1" stroke-width="8" stroke-linecap="round" opacity=".45"/><text x="190" y="178" text-anchor="middle" direction="rtl" font-family="Tahoma,Arial,sans-serif" font-size="17" font-weight="800" fill="#302b50">شعر مقطوع</text><text x="190" y="225" text-anchor="middle" direction="rtl" font-family="Tahoma,Arial,sans-serif" font-size="14" font-weight="700" fill="#059669">افحص المصدر</text></g><g transform="rotate(2 490 190)"><rect x="355" y="95" width="270" height="175" rx="23" fill="#fff" stroke="#ddd9ed" filter="url(#shadow)"/><path d="M393 130h194" stroke="#6366f1" stroke-width="8" stroke-linecap="round" opacity=".45"/><text x="490" y="178" text-anchor="middle" direction="rtl" font-family="Tahoma,Arial,sans-serif" font-size="17" font-weight="800" fill="#302b50">هالة</text><text x="490" y="225" text-anchor="middle" direction="rtl" font-family="Tahoma,Arial,sans-serif" font-size="14" font-weight="700" fill="#059669">عدّل الإعداد</text></g><g transform="rotate(-2 790 190)"><rect x="655" y="95" width="270" height="175" rx="23" fill="#fff" stroke="#ddd9ed" filter="url(#shadow)"/><path d="M693 130h194" stroke="#6366f1" stroke-width="8" stroke-linecap="round" opacity=".45"/><text x="790" y="178" text-anchor="middle" direction="rtl" font-family="Tahoma,Arial,sans-serif" font-size="17" font-weight="800" fill="#302b50">ظل مفقود</text><text x="790" y="225" text-anchor="middle" direction="rtl" font-family="Tahoma,Arial,sans-serif" font-size="14" font-weight="700" fill="#059669">اختبر النتيجة</text></g></svg>