<svg xmlns="http://www.w3.org/2000/svg" width="960" height="340" viewBox="0 0 960 340" role="img"><defs><linearGradient id="main" x1="0" y1="0" x2="1" y2="1"><stop stop-color="#059669"/><stop offset="1" stop-color="#34d399"/></linearGradient><linearGradient id="soft" x1="0" y1="0" x2="1" y2="1"><stop stop-color="#6366f1" stop-opacity=".18"/><stop offset="1" stop-color="#059669" stop-opacity=".04"/></linearGradient><pattern id="check" width="22" height="22" patternUnits="userSpaceOnUse"><rect width="11" height="11" fill="#ebe9f7"/><rect x="11" y="11" width="11" height="11" fill="#ebe9f7"/><rect x="11" width="11" height="11" fill="#fff"/><rect y="11" width="11" height="11" fill="#fff"/></pattern><filter id="shadow" x="-20%" y="-20%" width="140%" height="140%"><feDropShadow dx="0" dy="12" stdDeviation="14" flood-color="#302860" flood-opacity=".12"/></filter></defs><rect width="960" height="340" rx="34" fill="#f8f7ff"/><path d="M0 250 Q220 190 430 260 T960 225 V340 H0Z" fill="url(#soft)"/><rect x="45" y="95" width="195" height="175" rx="20" fill="#fff" stroke="#ddd9ed" filter="url(#shadow)"/><circle cx="142.5" cy="95" r="27" fill="url(#main)"/><text x="142.5" y="104" text-anchor="middle" direction="rtl" font-family="Tahoma,Arial,sans-serif" font-size="21" font-weight="900" fill="#fff">1</text><text x="142.5" y="173" text-anchor="middle" direction="rtl" font-family="Tahoma,Arial,sans-serif" font-size="17" font-weight="800" fill="#302b50">اختر</text><text x="142.5" y="220" text-anchor="middle" direction="rtl" font-family="Tahoma,Arial,sans-serif" font-size="14" font-weight="700" fill="#059669">ابدأ</text><rect x="270" y="113" width="195" height="175" rx="20" fill="#fff" stroke="#ddd9ed" filter="url(#shadow)"/><circle cx="367.5" cy="113" r="27" fill="url(#main)"/><text x="367.5" y="122" text-anchor="middle" direction="rtl" font-family="Tahoma,Arial,sans-serif" font-size="21" font-weight="900" fill="#fff">2</text><text x="367.5" y="191" text-anchor="middle" direction="rtl" font-family="Tahoma,Arial,sans-serif" font-size="17" font-weight="800" fill="#302b50">اعزل</text><text x="367.5" y="238" text-anchor="middle" direction="rtl" font-family="Tahoma,Arial,sans-serif" font-size="14" font-weight="700" fill="#059669">اضبط</text><rect x="495" y="95" width="195" height="175" rx="20" fill="#fff" stroke="#ddd9ed" filter="url(#shadow)"/><circle cx="592.5" cy="95" r="27" fill="url(#main)"/><text x="592.5" y="104" text-anchor="middle" direction="rtl" font-family="Tahoma,Arial,sans-serif" font-size="21" font-weight="900" fill="#fff">3</text><text x="592.5" y="173" text-anchor="middle" direction="rtl" font-family="Tahoma,Arial,sans-serif" font-size="17" font-weight="800" fill="#302b50">راجع</text><text x="592.5" y="220" text-anchor="middle" direction="rtl" font-family="Tahoma,Arial,sans-serif" font-size="14" font-weight="700" fill="#059669">راجع</text><rect x="720" y="113" width="195" height="175" rx="20" fill="#fff" stroke="#ddd9ed" filter="url(#shadow)"/><circle cx="817.5" cy="113" r="27" fill="url(#main)"/><text x="817.5" y="122" text-anchor="middle" direction="rtl" font-family="Tahoma,Arial,sans-serif" font-size="21" font-weight="900" fill="#fff">4</text><text x="817.5" y="191" text-anchor="middle" direction="rtl" font-family="Tahoma,Arial,sans-serif" font-size="17" font-weight="800" fill="#302b50">اختبر</text><text x="817.5" y="238" text-anchor="middle" direction="rtl" font-family="Tahoma,Arial,sans-serif" font-size="14" font-weight="700" fill="#059669">اعتمد</text><path d="M60 300 Q480 285 900 300" fill="none" stroke="#6366f1" stroke-width="5" stroke-dasharray="10 10" opacity=".55"/></svg>