<svg xmlns="http://www.w3.org/2000/svg" width="760" height="520" viewBox="0 0 760 520" role="img"><defs><linearGradient id="main" x1="0" y1="0" x2="1" y2="1"><stop stop-color="#059669"/><stop offset="1" stop-color="#34d399"/></linearGradient><linearGradient id="soft" x1="0" y1="0" x2="1" y2="1"><stop stop-color="#6366f1" stop-opacity=".18"/><stop offset="1" stop-color="#059669" stop-opacity=".04"/></linearGradient><pattern id="check" width="22" height="22" patternUnits="userSpaceOnUse"><rect width="11" height="11" fill="#ebe9f7"/><rect x="11" y="11" width="11" height="11" fill="#ebe9f7"/><rect x="11" width="11" height="11" fill="#fff"/><rect y="11" width="11" height="11" fill="#fff"/></pattern><filter id="shadow" x="-20%" y="-20%" width="140%" height="140%"><feDropShadow dx="0" dy="12" stdDeviation="14" flood-color="#302860" flood-opacity=".12"/></filter></defs><rect width="760" height="520" rx="34" fill="#f8f7ff"/><path d="M0 430 Q220 370 430 440 T760 405 V520 H0Z" fill="url(#soft)"/><text x="380" y="64" text-anchor="middle" direction="rtl" font-family="Tahoma,Arial,sans-serif" font-size="23" font-weight="800" fill="#302b50">موضوع واضح فوق شفافية نظيفة</text><rect x="75" y="110" width="610" height="320" rx="30" fill="url(#check)" stroke="#d8d4e8" filter="url(#shadow)"/><path d="M358 160c52 0 78 38 78 82 0 29-12 55-33 70 55 18 92 55 103 118H210c11-63 48-100 103-118-21-15-33-41-33-70 0-44 26-82 78-82Z" fill="url(#main)"/><path d="M358 145c62 0 94 44 94 97 0 27-8 51-24 70 55 24 94 64 106 118" fill="none" stroke="#6366f1" stroke-width="8" stroke-dasharray="11 10"/><circle cx="590" cy="190" r="46" fill="#fff" stroke="#059669" stroke-width="5"/><path d="m570 190 14 14 28-34" fill="none" stroke="#059669" stroke-width="8" stroke-linecap="round"/><text x="590" y="260" text-anchor="middle" direction="rtl" font-family="Tahoma,Arial,sans-serif" font-size="17" font-weight="800" fill="#059669">ناعمة</text></svg>