<svg xmlns="http://www.w3.org/2000/svg" width="760" height="520" viewBox="0 0 760 520" role="img"><defs><linearGradient id="main" x1="0" y1="0" x2="1" y2="1"><stop stop-color="#f59e0b"/><stop offset="1" stop-color="#f97316"/></linearGradient><linearGradient id="soft" x1="0" y1="0" x2="1" y2="1"><stop stop-color="#6366f1" stop-opacity=".18"/><stop offset="1" stop-color="#f59e0b" stop-opacity=".04"/></linearGradient><pattern id="check" width="22" height="22" patternUnits="userSpaceOnUse"><rect width="11" height="11" fill="#ebe9f7"/><rect x="11" y="11" width="11" height="11" fill="#ebe9f7"/><rect x="11" width="11" height="11" fill="#fff"/><rect y="11" width="11" height="11" fill="#fff"/></pattern><filter id="shadow" x="-20%" y="-20%" width="140%" height="140%"><feDropShadow dx="0" dy="12" stdDeviation="14" flood-color="#302860" flood-opacity=".12"/></filter></defs><rect width="760" height="520" rx="34" fill="#f8f7ff"/><path d="M0 430 Q220 370 430 440 T760 405 V520 H0Z" fill="url(#soft)"/><text x="380" y="64" text-anchor="middle" direction="rtl" font-family="Tahoma,Arial,sans-serif" font-size="23" font-weight="800" fill="#302b50">ميزان واضح بين الجودة والحجم</text><circle cx="250" cy="275" r="145" fill="#fff" stroke="#dedaf0" stroke-width="28" filter="url(#shadow)"/><path d="M135 360a145 145 0 0 1 223-182" fill="none" stroke="url(#main)" stroke-width="28" stroke-linecap="round"/><path d="M250 275l92-70" stroke="#f59e0b" stroke-width="12" stroke-linecap="round"/><circle cx="250" cy="275" r="20" fill="#f59e0b"/><text x="250" y="333" text-anchor="middle" direction="rtl" font-family="Tahoma,Arial,sans-serif" font-size="22" font-weight="800" fill="#f59e0b">أخف</text><rect x="465" y="145" width="220" height="95" rx="24" fill="#fff" stroke="#ddd9ed"/><rect x="490" y="175" width="165" height="18" rx="9" fill="#dedaf0"/><rect x="490" y="175" width="118" height="18" rx="9" fill="url(#main)"/><rect x="465" y="270" width="220" height="95" rx="24" fill="#fff" stroke="#ddd9ed"/><text x="575" y="326" text-anchor="middle" direction="rtl" font-family="Tahoma,Arial,sans-serif" font-size="21" font-weight="800" fill="#f59e0b">مقبولة</text></svg>