<svg xmlns="http://www.w3.org/2000/svg" width="760" height="520" viewBox="0 0 760 520" role="img"><defs><linearGradient id="main" x1="0" y1="0" x2="1" y2="1"><stop stop-color="#8b5cf6"/><stop offset="1" stop-color="#d946ef"/></linearGradient><linearGradient id="soft" x1="0" y1="0" x2="1" y2="1"><stop stop-color="#f97316" stop-opacity=".18"/><stop offset="1" stop-color="#8b5cf6" stop-opacity=".04"/></linearGradient><pattern id="check" width="22" height="22" patternUnits="userSpaceOnUse"><rect width="11" height="11" fill="#ebe9f7"/><rect x="11" y="11" width="11" height="11" fill="#ebe9f7"/><rect x="11" width="11" height="11" fill="#fff"/><rect y="11" width="11" height="11" fill="#fff"/></pattern><filter id="shadow" x="-20%" y="-20%" width="140%" height="140%"><feDropShadow dx="0" dy="12" stdDeviation="14" flood-color="#302860" flood-opacity=".12"/></filter></defs><rect width="760" height="520" rx="34" fill="#f8f7ff"/><path d="M0 430 Q220 370 430 440 T760 405 V520 H0Z" fill="url(#soft)"/><text x="380" y="64" text-anchor="middle" direction="rtl" font-family="Tahoma,Arial,sans-serif" font-size="23" font-weight="800" fill="#302b50">إطار دقيق يحافظ على نقطة التركيز</text><rect x="115" y="105" width="530" height="330" rx="28" fill="url(#soft)" stroke="#dad6ed" filter="url(#shadow)"/><circle cx="360" cy="250" r="78" fill="#f97316" opacity=".45"/><path d="M145 390l125-130 85 72 75-91 180 149" fill="none" stroke="#8b5cf6" stroke-width="15"/><rect x="210" y="150" width="330" height="235" fill="none" stroke="#8b5cf6" stroke-width="6" stroke-dasharray="13 10"/><path d="M190 150h55m-35-20v55m350-35h-55m35-20v55M190 385h55m-35 20v-55m350 35h-55m35 20v-55" stroke="#d946ef" stroke-width="8" stroke-linecap="round"/><text x="375" y="420" text-anchor="middle" direction="rtl" font-family="Tahoma,Arial,sans-serif" font-size="18" font-weight="800" fill="#8b5cf6">محفوظ</text></svg>