<svg xmlns="http://www.w3.org/2000/svg" width="760" height="520" viewBox="0 0 760 520" role="img"><defs><linearGradient id="main" x1="0" y1="0" x2="1" y2="1"><stop stop-color="#0f766e"/><stop offset="1" stop-color="#14b8a6"/></linearGradient><linearGradient id="soft" x1="0" y1="0" x2="1" y2="1"><stop stop-color="#f59e0b" stop-opacity=".18"/><stop offset="1" stop-color="#0f766e" stop-opacity=".04"/></linearGradient><pattern id="check" width="22" height="22" patternUnits="userSpaceOnUse"><rect width="11" height="11" fill="#ebe9f7"/><rect x="11" y="11" width="11" height="11" fill="#ebe9f7"/><rect x="11" width="11" height="11" fill="#fff"/><rect y="11" width="11" height="11" fill="#fff"/></pattern><filter id="shadow" x="-20%" y="-20%" width="140%" height="140%"><feDropShadow dx="0" dy="12" stdDeviation="14" flood-color="#302860" flood-opacity=".12"/></filter></defs><rect width="760" height="520" rx="34" fill="#f8f7ff"/><path d="M0 430 Q220 370 430 440 T760 405 V520 H0Z" fill="url(#soft)"/><text x="380" y="64" text-anchor="middle" direction="rtl" font-family="Tahoma,Arial,sans-serif" font-size="23" font-weight="800" fill="#302b50">بطاقة كاميرا تكشف الحقول الحساسة</text><path d="M95 190h75l25-42h155l28 42h52a30 30 0 0 1 30 30v155a30 30 0 0 1-30 30H95a30 30 0 0 1-30-30V220a30 30 0 0 1 30-30Z" fill="#fff" stroke="#d8d4e8" filter="url(#shadow)"/><circle cx="265" cy="292" r="78" fill="url(#main)" opacity=".9"/><circle cx="265" cy="292" r="46" fill="#fff" opacity=".25"/><circle cx="405" cy="230" r="15" fill="#f59e0b"/><rect x="505" y="115" width="205" height="300" rx="26" fill="#fff" stroke="#d8d4e8" filter="url(#shadow)"/><path d="M535 175h145M535 225h110M535 275h145M535 325h90" stroke="#d8d4e8" stroke-width="15" stroke-linecap="round"/><circle cx="540" cy="365" r="12" fill="#0f766e"/><text x="607" y="390" text-anchor="middle" direction="rtl" font-family="Tahoma,Arial,sans-serif" font-size="17" font-weight="800" fill="#0f766e">محمي</text></svg>