<svg xmlns="http://www.w3.org/2000/svg" width="760" height="520" viewBox="0 0 760 520" role="img"><defs><linearGradient id="main" x1="0" y1="0" x2="1" y2="1"><stop stop-color="#4f46e5"/><stop offset="1" stop-color="#818cf8"/></linearGradient><linearGradient id="soft" x1="0" y1="0" x2="1" y2="1"><stop stop-color="#06b6d4" stop-opacity=".18"/><stop offset="1" stop-color="#4f46e5" stop-opacity=".04"/></linearGradient><pattern id="check" width="22" height="22" patternUnits="userSpaceOnUse"><rect width="11" height="11" fill="#ebe9f7"/><rect x="11" y="11" width="11" height="11" fill="#ebe9f7"/><rect x="11" width="11" height="11" fill="#fff"/><rect y="11" width="11" height="11" fill="#fff"/></pattern><filter id="shadow" x="-20%" y="-20%" width="140%" height="140%"><feDropShadow dx="0" dy="12" stdDeviation="14" flood-color="#302860" flood-opacity=".12"/></filter></defs><rect width="760" height="520" rx="34" fill="#f8f7ff"/><path d="M0 430 Q220 370 430 440 T760 405 V520 H0Z" fill="url(#soft)"/><text x="380" y="64" text-anchor="middle" direction="rtl" font-family="Tahoma,Arial,sans-serif" font-size="23" font-weight="800" fill="#302b50">أيقونة واحدة بأحجام استعمال مختلفة</text><rect x="70" y="118" width="620" height="300" rx="30" fill="#fff" stroke="#d8d4e8" filter="url(#shadow)"/><rect x="70" y="118" width="620" height="55" rx="30" fill="#eeecf7"/><circle cx="110" cy="146" r="9" fill="#fb7185"/><circle cx="140" cy="146" r="9" fill="#fbbf24"/><circle cx="170" cy="146" r="9" fill="#34d399"/><g fill="url(#main)"><rect x="115" y="210" width="54" height="54" rx="15"/><rect x="210" y="200" width="78" height="78" rx="22"/><rect x="330" y="185" width="110" height="110" rx="30"/><rect x="485" y="168" width="150" height="150" rx="40"/></g><g fill="#fff" font-family="Tahoma,Arial" font-weight="900" text-anchor="middle"><text x="142" y="247" font-size="22">ت</text><text x="249" y="252" font-size="30">ت</text><text x="385" y="254" font-size="42">ت</text><text x="560" y="265" font-size="56">ت</text></g><text x="380" y="380" text-anchor="middle" direction="rtl" font-family="Tahoma,Arial,sans-serif" font-size="18" font-weight="800" fill="#4f46e5">جاهز</text></svg>