<svg xmlns="http://www.w3.org/2000/svg" width="960" height="340" viewBox="0 0 960 340" role="img"><defs><linearGradient id="main" x1="0" y1="0" x2="1" y2="1"><stop stop-color="#4f46e5"/><stop offset="1" stop-color="#818cf8"/></linearGradient><linearGradient id="soft" x1="0" y1="0" x2="1" y2="1"><stop stop-color="#06b6d4" stop-opacity=".18"/><stop offset="1" stop-color="#4f46e5" stop-opacity=".04"/></linearGradient><pattern id="check" width="22" height="22" patternUnits="userSpaceOnUse"><rect width="11" height="11" fill="#ebe9f7"/><rect x="11" y="11" width="11" height="11" fill="#ebe9f7"/><rect x="11" width="11" height="11" fill="#fff"/><rect y="11" width="11" height="11" fill="#fff"/></pattern><filter id="shadow" x="-20%" y="-20%" width="140%" height="140%"><feDropShadow dx="0" dy="12" stdDeviation="14" flood-color="#302860" flood-opacity=".12"/></filter></defs><rect width="960" height="340" rx="34" fill="#f8f7ff"/><path d="M0 250 Q220 190 430 260 T960 225 V340 H0Z" fill="url(#soft)"/><rect x="40" y="95" width="200" height="170" rx="29" fill="#fff" stroke="#ddd9ed" filter="url(#shadow)"/><circle cx="140" cy="95" r="27" fill="url(#main)"/><text x="140" y="104" text-anchor="middle" direction="rtl" font-family="Tahoma,Arial,sans-serif" font-size="21" font-weight="900" fill="#fff">1</text><text x="140" y="173" text-anchor="middle" direction="rtl" font-family="Tahoma,Arial,sans-serif" font-size="17" font-weight="800" fill="#302b50">بسّط</text><text x="140" y="220" text-anchor="middle" direction="rtl" font-family="Tahoma,Arial,sans-serif" font-size="14" font-weight="700" fill="#4f46e5">ابدأ</text><rect x="270" y="119" width="200" height="170" rx="29" fill="#fff" stroke="#ddd9ed" filter="url(#shadow)"/><circle cx="370" cy="119" r="27" fill="url(#main)"/><text x="370" y="128" text-anchor="middle" direction="rtl" font-family="Tahoma,Arial,sans-serif" font-size="21" font-weight="900" fill="#fff">2</text><text x="370" y="197" text-anchor="middle" direction="rtl" font-family="Tahoma,Arial,sans-serif" font-size="17" font-weight="800" fill="#302b50">ولّد</text><text x="370" y="244" text-anchor="middle" direction="rtl" font-family="Tahoma,Arial,sans-serif" font-size="14" font-weight="700" fill="#4f46e5">اضبط</text><rect x="500" y="119" width="200" height="170" rx="29" fill="#fff" stroke="#ddd9ed" filter="url(#shadow)"/><circle cx="600" cy="119" r="27" fill="url(#main)"/><text x="600" y="128" text-anchor="middle" direction="rtl" font-family="Tahoma,Arial,sans-serif" font-size="21" font-weight="900" fill="#fff">3</text><text x="600" y="197" text-anchor="middle" direction="rtl" font-family="Tahoma,Arial,sans-serif" font-size="17" font-weight="800" fill="#302b50">اختبر</text><text x="600" y="244" text-anchor="middle" direction="rtl" font-family="Tahoma,Arial,sans-serif" font-size="14" font-weight="700" fill="#4f46e5">راجع</text><rect x="730" y="95" width="200" height="170" rx="29" fill="#fff" stroke="#ddd9ed" filter="url(#shadow)"/><circle cx="830" cy="95" r="27" fill="url(#main)"/><text x="830" y="104" text-anchor="middle" direction="rtl" font-family="Tahoma,Arial,sans-serif" font-size="21" font-weight="900" fill="#fff">4</text><text x="830" y="173" text-anchor="middle" direction="rtl" font-family="Tahoma,Arial,sans-serif" font-size="17" font-weight="800" fill="#302b50">اربط</text><text x="830" y="220" text-anchor="middle" direction="rtl" font-family="Tahoma,Arial,sans-serif" font-size="14" font-weight="700" fill="#4f46e5">اعتمد</text><path d="M60 300 Q480 288 900 300" fill="none" stroke="#06b6d4" stroke-width="5" stroke-dasharray="10 10" opacity=".55"/></svg>