<svg xmlns="http://www.w3.org/2000/svg" width="760" height="520" viewBox="0 0 760 520" role="img"><defs><linearGradient id="main" x1="0" y1="0" x2="1" y2="1"><stop stop-color="#2563eb"/><stop offset="1" stop-color="#60a5fa"/></linearGradient><linearGradient id="soft" x1="0" y1="0" x2="1" y2="1"><stop stop-color="#f59e0b" stop-opacity=".18"/><stop offset="1" stop-color="#2563eb" stop-opacity=".04"/></linearGradient><pattern id="check" width="22" height="22" patternUnits="userSpaceOnUse"><rect width="11" height="11" fill="#ebe9f7"/><rect x="11" y="11" width="11" height="11" fill="#ebe9f7"/><rect x="11" width="11" height="11" fill="#fff"/><rect y="11" width="11" height="11" fill="#fff"/></pattern><filter id="shadow" x="-20%" y="-20%" width="140%" height="140%"><feDropShadow dx="0" dy="12" stdDeviation="14" flood-color="#302860" flood-opacity=".12"/></filter></defs><rect width="760" height="520" rx="34" fill="#f8f7ff"/><path d="M0 430 Q220 370 430 440 T760 405 V520 H0Z" fill="url(#soft)"/><text x="380" y="64" text-anchor="middle" direction="rtl" font-family="Tahoma,Arial,sans-serif" font-size="23" font-weight="800" fill="#302b50">مقارنة صادقة بين الأصل والتحسين</text><rect x="70" y="115" width="620" height="305" rx="30" fill="#fff" stroke="#d8d4e8" filter="url(#shadow)"/><clipPath id="clipA"><rect x="95" y="140" width="270" height="255" rx="20"/></clipPath><clipPath id="clipB"><rect x="395" y="140" width="270" height="255" rx="20"/></clipPath><g clip-path="url(#clipA)"><rect x="95" y="140" width="270" height="255" fill="#d7d5df"/><g fill="#b7b4c3"><rect x="95" y="140" width="45" height="45"/><rect x="185" y="185" width="45" height="45"/><rect x="275" y="230" width="45" height="45"/><rect x="140" y="275" width="45" height="45"/></g></g><g clip-path="url(#clipB)"><rect x="395" y="140" width="270" height="255" fill="url(#soft)"/><circle cx="520" cy="235" r="65" fill="#f59e0b" opacity=".55"/><path d="M410 365l80-95 65 60 45-70 55 105" fill="none" stroke="#2563eb" stroke-width="14"/></g><path d="M380 140v255" stroke="#2563eb" stroke-width="6"/><text x="230" y="385" text-anchor="middle" direction="rtl" font-family="Tahoma,Arial,sans-serif" font-size="17" font-weight="800" fill="#302b50">محدود</text><text x="530" y="385" text-anchor="middle" direction="rtl" font-family="Tahoma,Arial,sans-serif" font-size="17" font-weight="800" fill="#2563eb">أوضح</text></svg>