<svg xmlns="http://www.w3.org/2000/svg" width="960" height="340" viewBox="0 0 960 340" role="img"><defs><linearGradient id="main" x1="0" y1="0" x2="1" y2="1"><stop stop-color="#2563eb"/><stop offset="1" stop-color="#60a5fa"/></linearGradient><linearGradient id="soft" x1="0" y1="0" x2="1" y2="1"><stop stop-color="#f59e0b" stop-opacity=".18"/><stop offset="1" stop-color="#2563eb" stop-opacity=".04"/></linearGradient><pattern id="check" width="22" height="22" patternUnits="userSpaceOnUse"><rect width="11" height="11" fill="#ebe9f7"/><rect x="11" y="11" width="11" height="11" fill="#ebe9f7"/><rect x="11" width="11" height="11" fill="#fff"/><rect y="11" width="11" height="11" fill="#fff"/></pattern><filter id="shadow" x="-20%" y="-20%" width="140%" height="140%"><feDropShadow dx="0" dy="12" stdDeviation="14" flood-color="#302860" flood-opacity=".12"/></filter></defs><rect width="960" height="340" rx="34" fill="#f8f7ff"/><path d="M0 250 Q220 190 430 260 T960 225 V340 H0Z" fill="url(#soft)"/><rect x="60" y="129" width="185" height="185" rx="21" fill="#fff" stroke="#ddd9ed" filter="url(#shadow)"/><circle cx="152.5" cy="129" r="27" fill="url(#main)"/><text x="152.5" y="138" text-anchor="middle" direction="rtl" font-family="Tahoma,Arial,sans-serif" font-size="21" font-weight="900" fill="#fff">1</text><text x="152.5" y="207" text-anchor="middle" direction="rtl" font-family="Tahoma,Arial,sans-serif" font-size="17" font-weight="800" fill="#302b50">شخّص</text><text x="152.5" y="254" text-anchor="middle" direction="rtl" font-family="Tahoma,Arial,sans-serif" font-size="14" font-weight="700" fill="#2563eb">ابدأ</text><rect x="280" y="111" width="185" height="185" rx="21" fill="#fff" stroke="#ddd9ed" filter="url(#shadow)"/><circle cx="372.5" cy="111" r="27" fill="url(#main)"/><text x="372.5" y="120" text-anchor="middle" direction="rtl" font-family="Tahoma,Arial,sans-serif" font-size="21" font-weight="900" fill="#fff">2</text><text x="372.5" y="189" text-anchor="middle" direction="rtl" font-family="Tahoma,Arial,sans-serif" font-size="17" font-weight="800" fill="#302b50">كبر</text><text x="372.5" y="236" text-anchor="middle" direction="rtl" font-family="Tahoma,Arial,sans-serif" font-size="14" font-weight="700" fill="#2563eb">اضبط</text><rect x="500" y="93" width="185" height="185" rx="21" fill="#fff" stroke="#ddd9ed" filter="url(#shadow)"/><circle cx="592.5" cy="93" r="27" fill="url(#main)"/><text x="592.5" y="102" text-anchor="middle" direction="rtl" font-family="Tahoma,Arial,sans-serif" font-size="21" font-weight="900" fill="#fff">3</text><text x="592.5" y="171" text-anchor="middle" direction="rtl" font-family="Tahoma,Arial,sans-serif" font-size="17" font-weight="800" fill="#302b50">قارن</text><text x="592.5" y="218" text-anchor="middle" direction="rtl" font-family="Tahoma,Arial,sans-serif" font-size="14" font-weight="700" fill="#2563eb">راجع</text><rect x="720" y="75" width="185" height="185" rx="21" fill="#fff" stroke="#ddd9ed" filter="url(#shadow)"/><circle cx="812.5" cy="75" r="27" fill="url(#main)"/><text x="812.5" y="84" text-anchor="middle" direction="rtl" font-family="Tahoma,Arial,sans-serif" font-size="21" font-weight="900" fill="#fff">4</text><text x="812.5" y="153" text-anchor="middle" direction="rtl" font-family="Tahoma,Arial,sans-serif" font-size="17" font-weight="800" fill="#302b50">صدّر</text><text x="812.5" y="200" text-anchor="middle" direction="rtl" font-family="Tahoma,Arial,sans-serif" font-size="14" font-weight="700" fill="#2563eb">اعتمد</text><path d="M60 300 Q480 282 900 300" fill="none" stroke="#f59e0b" stroke-width="5" stroke-dasharray="10 10" opacity=".55"/></svg>