<svg xmlns="http://www.w3.org/2000/svg" width="960" height="340" viewBox="0 0 960 340" role="img"><defs><linearGradient id="main" x1="0" y1="0" x2="1" y2="1"><stop stop-color="#7c3aed"/><stop offset="1" stop-color="#a78bfa"/></linearGradient><linearGradient id="soft" x1="0" y1="0" x2="1" y2="1"><stop stop-color="#10b981" stop-opacity=".18"/><stop offset="1" stop-color="#7c3aed" stop-opacity=".04"/></linearGradient><pattern id="check" width="22" height="22" patternUnits="userSpaceOnUse"><rect width="11" height="11" fill="#ebe9f7"/><rect x="11" y="11" width="11" height="11" fill="#ebe9f7"/><rect x="11" width="11" height="11" fill="#fff"/><rect y="11" width="11" height="11" fill="#fff"/></pattern><filter id="shadow" x="-20%" y="-20%" width="140%" height="140%"><feDropShadow dx="0" dy="12" stdDeviation="14" flood-color="#302860" flood-opacity=".12"/></filter></defs><rect width="960" height="340" rx="34" fill="#f8f7ff"/><path d="M0 250 Q220 190 430 260 T960 225 V340 H0Z" fill="url(#soft)"/><rect x="65" y="105" width="180" height="155" rx="22" fill="#fff" stroke="#ddd9ed" filter="url(#shadow)"/><circle cx="155" cy="105" r="27" fill="url(#main)"/><text x="155" y="114" text-anchor="middle" direction="rtl" font-family="Tahoma,Arial,sans-serif" font-size="21" font-weight="900" fill="#fff">1</text><text x="155" y="183" text-anchor="middle" direction="rtl" font-family="Tahoma,Arial,sans-serif" font-size="17" font-weight="800" fill="#302b50">نظف</text><text x="155" y="230" text-anchor="middle" direction="rtl" font-family="Tahoma,Arial,sans-serif" font-size="14" font-weight="700" fill="#7c3aed">ابدأ</text><rect x="285" y="105" width="180" height="155" rx="22" fill="#fff" stroke="#ddd9ed" filter="url(#shadow)"/><circle cx="375" cy="105" r="27" fill="url(#main)"/><text x="375" y="114" text-anchor="middle" direction="rtl" font-family="Tahoma,Arial,sans-serif" font-size="21" font-weight="900" fill="#fff">2</text><text x="375" y="183" text-anchor="middle" direction="rtl" font-family="Tahoma,Arial,sans-serif" font-size="17" font-weight="800" fill="#302b50">حدد</text><text x="375" y="230" text-anchor="middle" direction="rtl" font-family="Tahoma,Arial,sans-serif" font-size="14" font-weight="700" fill="#7c3aed">اضبط</text><rect x="505" y="105" width="180" height="155" rx="22" fill="#fff" stroke="#ddd9ed" filter="url(#shadow)"/><circle cx="595" cy="105" r="27" fill="url(#main)"/><text x="595" y="114" text-anchor="middle" direction="rtl" font-family="Tahoma,Arial,sans-serif" font-size="21" font-weight="900" fill="#fff">3</text><text x="595" y="183" text-anchor="middle" direction="rtl" font-family="Tahoma,Arial,sans-serif" font-size="17" font-weight="800" fill="#302b50">تتبع</text><text x="595" y="230" text-anchor="middle" direction="rtl" font-family="Tahoma,Arial,sans-serif" font-size="14" font-weight="700" fill="#7c3aed">راجع</text><rect x="725" y="105" width="180" height="155" rx="22" fill="#fff" stroke="#ddd9ed" filter="url(#shadow)"/><circle cx="815" cy="105" r="27" fill="url(#main)"/><text x="815" y="114" text-anchor="middle" direction="rtl" font-family="Tahoma,Arial,sans-serif" font-size="21" font-weight="900" fill="#fff">4</text><text x="815" y="183" text-anchor="middle" direction="rtl" font-family="Tahoma,Arial,sans-serif" font-size="17" font-weight="800" fill="#302b50">بسّط</text><text x="815" y="230" text-anchor="middle" direction="rtl" font-family="Tahoma,Arial,sans-serif" font-size="14" font-weight="700" fill="#7c3aed">اعتمد</text><path d="M60 300 Q480 279 900 300" fill="none" stroke="#10b981" stroke-width="5" stroke-dasharray="10 10" opacity=".55"/></svg>