<svg xmlns="http://www.w3.org/2000/svg" width="760" height="520" viewBox="0 0 760 520" role="img"><defs><linearGradient id="main" x1="0" y1="0" x2="1" y2="1"><stop stop-color="#334155"/><stop offset="1" stop-color="#64748b"/></linearGradient><linearGradient id="soft" x1="0" y1="0" x2="1" y2="1"><stop stop-color="#6366f1" stop-opacity=".18"/><stop offset="1" stop-color="#334155" stop-opacity=".04"/></linearGradient><pattern id="check" width="22" height="22" patternUnits="userSpaceOnUse"><rect width="11" height="11" fill="#ebe9f7"/><rect x="11" y="11" width="11" height="11" fill="#ebe9f7"/><rect x="11" width="11" height="11" fill="#fff"/><rect y="11" width="11" height="11" fill="#fff"/></pattern><filter id="shadow" x="-20%" y="-20%" width="140%" height="140%"><feDropShadow dx="0" dy="12" stdDeviation="14" flood-color="#302860" flood-opacity=".12"/></filter></defs><rect width="760" height="520" rx="34" fill="#f8f7ff"/><path d="M0 430 Q220 370 430 440 T760 405 V520 H0Z" fill="url(#soft)"/><text x="380" y="64" text-anchor="middle" direction="rtl" font-family="Tahoma,Arial,sans-serif" font-size="23" font-weight="800" fill="#302b50">صورة تتحول إلى تدفق نصي منظم</text><rect x="75" y="145" width="230" height="220" rx="28" fill="#fff" stroke="#d9d5ea" filter="url(#shadow)"/><rect x="105" y="175" width="170" height="125" rx="18" fill="url(#soft)"/><path d="M120 285l45-52 37 31 31-40 27 61" fill="none" stroke="#334155" stroke-width="11"/><path d="M330 255h70m-25-24 28 24-28 24" fill="none" stroke="#334155" stroke-width="8"/><rect x="425" y="120" width="290" height="280" rx="28" fill="#1f2434" filter="url(#shadow)"/><g stroke-linecap="round" fill="none"><path d="M465 170h190M465 208h150M465 246h215M465 284h175M465 322h205M465 360h130" stroke="#a9b5d8" stroke-width="12"/><path d="M465 170h70M465 246h95M465 322h55" stroke="#6366f1" stroke-width="12"/></g><text x="570" y="390" text-anchor="middle" direction="rtl" font-family="Tahoma,Arial,sans-serif" font-size="16" font-weight="800" fill="#fff">محدد</text></svg>