<svg xmlns="http://www.w3.org/2000/svg" width="760" height="520" viewBox="0 0 760 520" role="img"><defs><linearGradient id="main" x1="0" y1="0" x2="1" y2="1"><stop stop-color="#7c3aed"/><stop offset="1" stop-color="#a78bfa"/></linearGradient><linearGradient id="soft" x1="0" y1="0" x2="1" y2="1"><stop stop-color="#10b981" stop-opacity=".18"/><stop offset="1" stop-color="#7c3aed" stop-opacity=".04"/></linearGradient><pattern id="check" width="22" height="22" patternUnits="userSpaceOnUse"><rect width="11" height="11" fill="#ebe9f7"/><rect x="11" y="11" width="11" height="11" fill="#ebe9f7"/><rect x="11" width="11" height="11" fill="#fff"/><rect y="11" width="11" height="11" fill="#fff"/></pattern><filter id="shadow" x="-20%" y="-20%" width="140%" height="140%"><feDropShadow dx="0" dy="12" stdDeviation="14" flood-color="#302860" flood-opacity=".12"/></filter></defs><rect width="760" height="520" rx="34" fill="#f8f7ff"/><path d="M0 430 Q220 370 430 440 T760 405 V520 H0Z" fill="url(#soft)"/><text x="380" y="64" text-anchor="middle" direction="rtl" font-family="Tahoma,Arial,sans-serif" font-size="23" font-weight="800" fill="#302b50">من شبكة بكسلات إلى منحنيات قابلة للتحرير</text><rect x="70" y="115" width="620" height="305" rx="30" fill="#fff" stroke="#d8d4e8" filter="url(#shadow)"/><path d="M150 340C205 135 350 155 395 280S570 405 625 185" fill="none" stroke="url(#main)" stroke-width="15" stroke-linecap="round"/><path d="M150 340 250 180M395 280 510 360M625 185 540 150" fill="none" stroke="#bbb5d8" stroke-width="3"/><g fill="#fff" stroke="#7c3aed" stroke-width="6"><circle cx="150" cy="340" r="13"/><circle cx="250" cy="180" r="13"/><circle cx="395" cy="280" r="13"/><circle cx="510" cy="360" r="13"/><circle cx="625" cy="185" r="13"/><circle cx="540" cy="150" r="13"/></g><path d="M105 165h85v85h-85z" fill="url(#check)" opacity=".8"/><text x="385" y="397" text-anchor="middle" direction="rtl" font-family="Tahoma,Arial,sans-serif" font-size="18" font-weight="800" fill="#7c3aed">نظيف</text></svg>