<svg xmlns="http://www.w3.org/2000/svg" width="760" height="520" viewBox="0 0 760 520" role="img"><defs><linearGradient id="main" x1="0" y1="0" x2="1" y2="1"><stop stop-color="#db2777"/><stop offset="1" stop-color="#fb7185"/></linearGradient><linearGradient id="soft" x1="0" y1="0" x2="1" y2="1"><stop stop-color="#6366f1" stop-opacity=".18"/><stop offset="1" stop-color="#db2777" stop-opacity=".04"/></linearGradient><pattern id="check" width="22" height="22" patternUnits="userSpaceOnUse"><rect width="11" height="11" fill="#ebe9f7"/><rect x="11" y="11" width="11" height="11" fill="#ebe9f7"/><rect x="11" width="11" height="11" fill="#fff"/><rect y="11" width="11" height="11" fill="#fff"/></pattern><filter id="shadow" x="-20%" y="-20%" width="140%" height="140%"><feDropShadow dx="0" dy="12" stdDeviation="14" flood-color="#302860" flood-opacity=".12"/></filter></defs><rect width="760" height="520" rx="34" fill="#f8f7ff"/><path d="M0 430 Q220 370 430 440 T760 405 V520 H0Z" fill="url(#soft)"/><text x="380" y="64" text-anchor="middle" direction="rtl" font-family="Tahoma,Arial,sans-serif" font-size="23" font-weight="800" fill="#302b50">فرشاة دقيقة تزيل العنصر وتراجع الخلفية</text><rect x="70" y="115" width="620" height="305" rx="30" fill="#fff" stroke="#d8d4e8" filter="url(#shadow)"/><rect x="95" y="140" width="570" height="255" rx="22" fill="url(#soft)"/><path d="M110 370l95-105 60 60 80-95 105 140" fill="none" stroke="#db2777" stroke-width="14"/><circle cx="470" cy="245" r="72" fill="#fff" stroke="#fb7185" stroke-width="5" stroke-dasharray="11 9"/><path d="M505 180 620 295" stroke="#3f3a55" stroke-width="25" stroke-linecap="round"/><path d="M490 165l38-38 40 40-38 38Z" fill="url(#main)"/><g fill="#6366f1"><circle cx="450" cy="225" r="8"/><circle cx="490" cy="270" r="6"/><circle cx="435" cy="285" r="5"/></g><text x="470" y="345" text-anchor="middle" direction="rtl" font-family="Tahoma,Arial,sans-serif" font-size="17" font-weight="800" fill="#db2777">متجانس</text></svg>