<svg xmlns="http://www.w3.org/2000/svg" width="960" height="340" viewBox="0 0 960 340" role="img"><defs><linearGradient id="main" x1="0" y1="0" x2="1" y2="1"><stop stop-color="#db2777"/><stop offset="1" stop-color="#fb7185"/></linearGradient><linearGradient id="soft" x1="0" y1="0" x2="1" y2="1"><stop stop-color="#6366f1" stop-opacity=".18"/><stop offset="1" stop-color="#db2777" stop-opacity=".04"/></linearGradient><pattern id="check" width="22" height="22" patternUnits="userSpaceOnUse"><rect width="11" height="11" fill="#ebe9f7"/><rect x="11" y="11" width="11" height="11" fill="#ebe9f7"/><rect x="11" width="11" height="11" fill="#fff"/><rect y="11" width="11" height="11" fill="#fff"/></pattern><filter id="shadow" x="-20%" y="-20%" width="140%" height="140%"><feDropShadow dx="0" dy="12" stdDeviation="14" flood-color="#302860" flood-opacity=".12"/></filter></defs><rect width="960" height="340" rx="34" fill="#f8f7ff"/><path d="M0 250 Q220 190 430 260 T960 225 V340 H0Z" fill="url(#soft)"/><rect x="55" y="70" width="190" height="180" rx="23" fill="#fff" stroke="#ddd9ed" filter="url(#shadow)"/><circle cx="150" cy="70" r="27" fill="url(#main)"/><text x="150" y="79" text-anchor="middle" direction="rtl" font-family="Tahoma,Arial,sans-serif" font-size="21" font-weight="900" fill="#fff">1</text><text x="150" y="148" text-anchor="middle" direction="rtl" font-family="Tahoma,Arial,sans-serif" font-size="17" font-weight="800" fill="#302b50">اختر</text><text x="150" y="195" text-anchor="middle" direction="rtl" font-family="Tahoma,Arial,sans-serif" font-size="14" font-weight="700" fill="#db2777">ابدأ</text><rect x="280" y="105" width="190" height="180" rx="23" fill="#fff" stroke="#ddd9ed" filter="url(#shadow)"/><circle cx="375" cy="105" r="27" fill="url(#main)"/><text x="375" y="114" text-anchor="middle" direction="rtl" font-family="Tahoma,Arial,sans-serif" font-size="21" font-weight="900" fill="#fff">2</text><text x="375" y="183" text-anchor="middle" direction="rtl" font-family="Tahoma,Arial,sans-serif" font-size="17" font-weight="800" fill="#302b50">حدد</text><text x="375" y="230" text-anchor="middle" direction="rtl" font-family="Tahoma,Arial,sans-serif" font-size="14" font-weight="700" fill="#db2777">اضبط</text><rect x="505" y="70" width="190" height="180" rx="23" fill="#fff" stroke="#ddd9ed" filter="url(#shadow)"/><circle cx="600" cy="70" r="27" fill="url(#main)"/><text x="600" y="79" text-anchor="middle" direction="rtl" font-family="Tahoma,Arial,sans-serif" font-size="21" font-weight="900" fill="#fff">3</text><text x="600" y="148" text-anchor="middle" direction="rtl" font-family="Tahoma,Arial,sans-serif" font-size="17" font-weight="800" fill="#302b50">امسح</text><text x="600" y="195" text-anchor="middle" direction="rtl" font-family="Tahoma,Arial,sans-serif" font-size="14" font-weight="700" fill="#db2777">راجع</text><rect x="730" y="105" width="190" height="180" rx="23" fill="#fff" stroke="#ddd9ed" filter="url(#shadow)"/><circle cx="825" cy="105" r="27" fill="url(#main)"/><text x="825" y="114" text-anchor="middle" direction="rtl" font-family="Tahoma,Arial,sans-serif" font-size="21" font-weight="900" fill="#fff">4</text><text x="825" y="183" text-anchor="middle" direction="rtl" font-family="Tahoma,Arial,sans-serif" font-size="17" font-weight="800" fill="#302b50">راجع</text><text x="825" y="230" text-anchor="middle" direction="rtl" font-family="Tahoma,Arial,sans-serif" font-size="14" font-weight="700" fill="#db2777">اعتمد</text><path d="M60 300 Q480 276 900 300" fill="none" stroke="#6366f1" stroke-width="5" stroke-dasharray="10 10" opacity=".55"/></svg>