<svg xmlns="http://www.w3.org/2000/svg" width="760" height="520" viewBox="0 0 760 520" role="img"><defs><linearGradient id="main" x1="0" y1="0" x2="1" y2="1"><stop stop-color="#ec4899"/><stop offset="1" stop-color="#fb7185"/></linearGradient><linearGradient id="soft" x1="0" y1="0" x2="1" y2="1"><stop stop-color="#8b5cf6" stop-opacity=".18"/><stop offset="1" stop-color="#ec4899" stop-opacity=".04"/></linearGradient><pattern id="check" width="22" height="22" patternUnits="userSpaceOnUse"><rect width="11" height="11" fill="#ebe9f7"/><rect x="11" y="11" width="11" height="11" fill="#ebe9f7"/><rect x="11" width="11" height="11" fill="#fff"/><rect y="11" width="11" height="11" fill="#fff"/></pattern><filter id="shadow" x="-20%" y="-20%" width="140%" height="140%"><feDropShadow dx="0" dy="12" stdDeviation="14" flood-color="#302860" flood-opacity=".12"/></filter></defs><rect width="760" height="520" rx="34" fill="#f8f7ff"/><path d="M0 430 Q220 370 430 440 T760 405 V520 H0Z" fill="url(#soft)"/><text x="380" y="64" text-anchor="middle" direction="rtl" font-family="Tahoma,Arial,sans-serif" font-size="23" font-weight="800" fill="#302b50">بطاقات تجريبية تكشف التخطيط</text><rect x="78" y="120" width="190" height="270" rx="26" fill="#fff" stroke="#d8d4ed" filter="url(#shadow)"/><rect x="100" y="145" width="146" height="110" rx="16" fill="url(#soft)"/><rect x="100" y="278" width="120" height="13" rx="7" fill="#ec4899" opacity=".45"/><rect x="100" y="306" width="145" height="10" rx="5" fill="#ddd9ed"/><rect x="295" y="155" width="190" height="235" rx="26" fill="#fff" stroke="#d8d4ed" filter="url(#shadow)"/><rect x="317" y="180" width="146" height="78" rx="16" fill="url(#main)" opacity=".35"/><rect x="317" y="280" width="130" height="12" rx="6" fill="#fb7185" opacity=".55"/><rect x="512" y="105" width="190" height="285" rx="26" fill="#fff" stroke="#d8d4ed" filter="url(#shadow)"/><rect x="534" y="130" width="146" height="135" rx="16" fill="url(#soft)"/><path d="M552 244l38-44 31 25 26-35 22 54" fill="none" stroke="#ec4899" stroke-width="9"/><text x="390" y="370" text-anchor="middle" direction="rtl" font-family="Tahoma,Arial,sans-serif" font-size="17" font-weight="800" fill="#ec4899">اختبار</text></svg>