<svg xmlns="http://www.w3.org/2000/svg" width="760" height="520" viewBox="0 0 760 520" role="img"><defs><linearGradient id="main" x1="0" y1="0" x2="1" y2="1"><stop stop-color="#6558e8"/><stop offset="1" stop-color="#9b8cff"/></linearGradient><linearGradient id="soft" x1="0" y1="0" x2="1" y2="1"><stop stop-color="#38bdf8" stop-opacity=".18"/><stop offset="1" stop-color="#6558e8" stop-opacity=".04"/></linearGradient><pattern id="check" width="22" height="22" patternUnits="userSpaceOnUse"><rect width="11" height="11" fill="#ebe9f7"/><rect x="11" y="11" width="11" height="11" fill="#ebe9f7"/><rect x="11" width="11" height="11" fill="#fff"/><rect y="11" width="11" height="11" fill="#fff"/></pattern><filter id="shadow" x="-20%" y="-20%" width="140%" height="140%"><feDropShadow dx="0" dy="12" stdDeviation="14" flood-color="#302860" flood-opacity=".12"/></filter></defs><rect width="760" height="520" rx="34" fill="#f8f7ff"/><path d="M0 430 Q220 370 430 440 T760 405 V520 H0Z" fill="url(#soft)"/><text x="380" y="64" text-anchor="middle" direction="rtl" font-family="Tahoma,Arial,sans-serif" font-size="23" font-weight="800" fill="#302b50">من شفافية محفوظة إلى صورة أخف</text><rect x="65" y="105" width="270" height="310" rx="30" fill="url(#check)" stroke="#d8d4ed" filter="url(#shadow)"/><path d="M92 348l58-78 43 48 35-43 78 73" fill="none" stroke="#6558e8" stroke-width="15" stroke-linecap="round" stroke-linejoin="round"/><circle cx="150" cy="205" r="32" fill="#38bdf8" opacity=".75"/><path d="M355 255h62m-24-28 28 28-28 28" fill="none" stroke="#6558e8" stroke-width="10" stroke-linecap="round" stroke-linejoin="round"/><rect x="440" y="105" width="255" height="310" rx="30" fill="#fff" stroke="#d8d4ed" filter="url(#shadow)"/><rect x="468" y="133" width="199" height="174" rx="22" fill="url(#main)" opacity=".88"/><path d="M480 288l48-64 45 48 34-38 47 54" fill="none" stroke="#fff" stroke-width="12" opacity=".9"/><text x="200" y="392" text-anchor="middle" direction="rtl" font-family="Tahoma,Arial,sans-serif" font-size="18" font-weight="800" fill="#302b50">شفاف</text><text x="568" y="350" text-anchor="middle" direction="rtl" font-family="Tahoma,Arial,sans-serif" font-size="19" font-weight="800" fill="#6558e8">مراجعة</text></svg>