<svg xmlns="http://www.w3.org/2000/svg" width="760" height="520" viewBox="0 0 760 520" role="img"><defs><linearGradient id="main" x1="0" y1="0" x2="1" y2="1"><stop stop-color="#0f9f8f"/><stop offset="1" stop-color="#59d3c2"/></linearGradient><linearGradient id="soft" x1="0" y1="0" x2="1" y2="1"><stop stop-color="#7c6cf2" stop-opacity=".18"/><stop offset="1" stop-color="#0f9f8f" stop-opacity=".04"/></linearGradient><pattern id="check" width="22" height="22" patternUnits="userSpaceOnUse"><rect width="11" height="11" fill="#ebe9f7"/><rect x="11" y="11" width="11" height="11" fill="#ebe9f7"/><rect x="11" width="11" height="11" fill="#fff"/><rect y="11" width="11" height="11" fill="#fff"/></pattern><filter id="shadow" x="-20%" y="-20%" width="140%" height="140%"><feDropShadow dx="0" dy="12" stdDeviation="14" flood-color="#302860" flood-opacity=".12"/></filter></defs><rect width="760" height="520" rx="34" fill="#f8f7ff"/><path d="M0 430 Q220 370 430 440 T760 405 V520 H0Z" fill="url(#soft)"/><text x="380" y="64" text-anchor="middle" direction="rtl" font-family="Tahoma,Arial,sans-serif" font-size="23" font-weight="800" fill="#302b50">إطار مضبوط بأبعاد واضحة</text><rect x="130" y="120" width="500" height="290" rx="24" fill="#fff" stroke="#0f9f8f" stroke-width="4" filter="url(#shadow)"/><rect x="165" y="155" width="430" height="220" rx="18" fill="url(#soft)"/><circle cx="260" cy="225" r="40" fill="#7c6cf2" opacity=".7"/><path d="M180 350l110-110 74 68 65-54 145 96" fill="none" stroke="#0f9f8f" stroke-width="14" stroke-linejoin="round"/><path d="M130 92h500m-500 0 20-13m-20 13 20 13m480-13-20-13m20 13-20 13M100 120v290m0-290-13 20m13-20 13 20m-13 270-13-20m13 20 13-20" stroke="#59d3c2" stroke-width="6" fill="none" stroke-linecap="round"/><text x="380" y="89" text-anchor="middle" direction="rtl" font-family="Tahoma,Arial,sans-serif" font-size="17" font-weight="800" fill="#0f9f8f">محدد</text><text x="92" y="275" text-anchor="middle" direction="rtl" font-family="Tahoma,Arial,sans-serif" font-size="17" font-weight="800" fill="#0f9f8f">متوازن</text></svg>