<svg xmlns="http://www.w3.org/2000/svg" width="760" height="520" viewBox="0 0 760 520" role="img"><defs><linearGradient id="main" x1="0" y1="0" x2="1" y2="1"><stop stop-color="#ea580c"/><stop offset="1" stop-color="#f59e0b"/></linearGradient><linearGradient id="soft" x1="0" y1="0" x2="1" y2="1"><stop stop-color="#0ea5e9" stop-opacity=".18"/><stop offset="1" stop-color="#ea580c" stop-opacity=".04"/></linearGradient><pattern id="check" width="22" height="22" patternUnits="userSpaceOnUse"><rect width="11" height="11" fill="#ebe9f7"/><rect x="11" y="11" width="11" height="11" fill="#ebe9f7"/><rect x="11" width="11" height="11" fill="#fff"/><rect y="11" width="11" height="11" fill="#fff"/></pattern><filter id="shadow" x="-20%" y="-20%" width="140%" height="140%"><feDropShadow dx="0" dy="12" stdDeviation="14" flood-color="#302860" flood-opacity=".12"/></filter></defs><rect width="760" height="520" rx="34" fill="#f8f7ff"/><path d="M0 430 Q220 370 430 440 T760 405 V520 H0Z" fill="url(#soft)"/><text x="380" y="64" text-anchor="middle" direction="rtl" font-family="Tahoma,Arial,sans-serif" font-size="23" font-weight="800" fill="#302b50">ميزان ذكي يوازن الحجم مع الجودة</text><path d="M380 135v235M220 170h320" stroke="#ea580c" stroke-width="14" stroke-linecap="round"/><circle cx="380" cy="125" r="25" fill="url(#main)"/><path d="M220 170 135 330h170Z" fill="#fff" stroke="#f59e0b" stroke-width="6" filter="url(#shadow)"/><path d="M540 170 455 330h170Z" fill="#fff" stroke="#f59e0b" stroke-width="6" filter="url(#shadow)"/><rect x="315" y="370" width="130" height="35" rx="18" fill="url(#main)"/><text x="220" y="280" text-anchor="middle" direction="rtl" font-family="Tahoma,Arial,sans-serif" font-size="19" font-weight="800" fill="#ea580c">أقل</text><text x="540" y="280" text-anchor="middle" direction="rtl" font-family="Tahoma,Arial,sans-serif" font-size="19" font-weight="800" fill="#ea580c">محفوظة</text><text x="380" y="398" text-anchor="middle" direction="rtl" font-family="Tahoma,Arial,sans-serif" font-size="16" font-weight="800" fill="#fff">مراجع</text></svg>