<svg xmlns="http://www.w3.org/2000/svg" width="960" height="360" viewBox="0 0 960 360" role="img"><defs><linearGradient id="main" x1="0" y1="0" x2="1" y2="1"><stop stop-color="#ea580c"/><stop offset="1" stop-color="#f59e0b"/></linearGradient><linearGradient id="soft" x1="0" y1="0" x2="1" y2="1"><stop stop-color="#0ea5e9" stop-opacity=".18"/><stop offset="1" stop-color="#ea580c" stop-opacity=".04"/></linearGradient><pattern id="check" width="22" height="22" patternUnits="userSpaceOnUse"><rect width="11" height="11" fill="#ebe9f7"/><rect x="11" y="11" width="11" height="11" fill="#ebe9f7"/><rect x="11" width="11" height="11" fill="#fff"/><rect y="11" width="11" height="11" fill="#fff"/></pattern><filter id="shadow" x="-20%" y="-20%" width="140%" height="140%"><feDropShadow dx="0" dy="12" stdDeviation="14" flood-color="#302860" flood-opacity=".12"/></filter></defs><rect width="960" height="360" rx="34" fill="#f8f7ff"/><path d="M0 270 Q220 210 430 280 T960 245 V360 H0Z" fill="url(#soft)"/><rect x="70" y="66" width="820" height="72" rx="18" fill="#fff" stroke="#ddd9ed"/><circle cx="110" cy="102" r="22" fill="url(#main)"/><text x="110" y="110" text-anchor="middle" direction="rtl" font-family="Tahoma,Arial,sans-serif" font-size="18" font-weight="900" fill="#fff">1</text><text x="270" y="110" text-anchor="middle" direction="rtl" font-family="Tahoma,Arial,sans-serif" font-size="17" font-weight="800" fill="#302b50">هدف حجم</text><text x="515" y="110" text-anchor="middle" direction="rtl" font-family="Tahoma,Arial,sans-serif" font-size="16" font-weight="800" fill="#ea580c">شبكة محدودة</text><text x="760" y="110" text-anchor="middle" direction="rtl" font-family="Tahoma,Arial,sans-serif" font-size="15" font-weight="700" fill="#625d72">تشوه محتمل</text><rect x="70" y="158" width="820" height="72" rx="18" fill="#fff" stroke="#ddd9ed"/><circle cx="110" cy="194" r="22" fill="url(#main)"/><text x="110" y="202" text-anchor="middle" direction="rtl" font-family="Tahoma,Arial,sans-serif" font-size="18" font-weight="900" fill="#fff">2</text><text x="270" y="202" text-anchor="middle" direction="rtl" font-family="Tahoma,Arial,sans-serif" font-size="17" font-weight="800" fill="#302b50">هدف جودة</text><text x="515" y="202" text-anchor="middle" direction="rtl" font-family="Tahoma,Arial,sans-serif" font-size="16" font-weight="800" fill="#ea580c">منتج مهم</text><text x="760" y="202" text-anchor="middle" direction="rtl" font-family="Tahoma,Arial,sans-serif" font-size="15" font-weight="700" fill="#625d72">وزن متغير</text><rect x="70" y="250" width="820" height="72" rx="18" fill="#fff" stroke="#ddd9ed"/><circle cx="110" cy="286" r="22" fill="url(#main)"/><text x="110" y="294" text-anchor="middle" direction="rtl" font-family="Tahoma,Arial,sans-serif" font-size="18" font-weight="900" fill="#fff">3</text><text x="270" y="294" text-anchor="middle" direction="rtl" font-family="Tahoma,Arial,sans-serif" font-size="17" font-weight="800" fill="#302b50">اختيار صيغة</text><text x="515" y="294" text-anchor="middle" direction="rtl" font-family="Tahoma,Arial,sans-serif" font-size="16" font-weight="800" fill="#ea580c">ويب حديث</text><text x="760" y="294" text-anchor="middle" direction="rtl" font-family="Tahoma,Arial,sans-serif" font-size="15" font-weight="700" fill="#625d72">التوافق</text></svg>