<svg xmlns="http://www.w3.org/2000/svg" width="760" height="520" viewBox="0 0 760 520" role="img"><defs><linearGradient id="main" x1="0" y1="0" x2="1" y2="1"><stop stop-color="#2563eb"/><stop offset="1" stop-color="#38bdf8"/></linearGradient><linearGradient id="soft" x1="0" y1="0" x2="1" y2="1"><stop stop-color="#10b981" stop-opacity=".18"/><stop offset="1" stop-color="#2563eb" stop-opacity=".04"/></linearGradient><pattern id="check" width="22" height="22" patternUnits="userSpaceOnUse"><rect width="11" height="11" fill="#ebe9f7"/><rect x="11" y="11" width="11" height="11" fill="#ebe9f7"/><rect x="11" width="11" height="11" fill="#fff"/><rect y="11" width="11" height="11" fill="#fff"/></pattern><filter id="shadow" x="-20%" y="-20%" width="140%" height="140%"><feDropShadow dx="0" dy="12" stdDeviation="14" flood-color="#302860" flood-opacity=".12"/></filter></defs><rect width="760" height="520" rx="34" fill="#f8f7ff"/><path d="M0 430 Q220 370 430 440 T760 405 V520 H0Z" fill="url(#soft)"/><text x="380" y="64" text-anchor="middle" direction="rtl" font-family="Tahoma,Arial,sans-serif" font-size="23" font-weight="800" fill="#302b50">صيغة ويب أخف مع تفاصيل محفوظة</text><rect x="95" y="135" width="360" height="245" rx="30" fill="#fff" stroke="#dcd8ee" filter="url(#shadow)"/><rect x="125" y="165" width="300" height="170" rx="20" fill="url(#soft)"/><path d="M140 315l75-85 60 54 46-65 88 96" fill="none" stroke="#2563eb" stroke-width="15"/><path d="M500 275h155m-55-55 60 55-60 55" fill="none" stroke="url(#main)" stroke-width="18" stroke-linecap="round" stroke-linejoin="round"/><path d="M510 220h70M485 255h80M515 330h70" stroke="#10b981" stroke-width="8" stroke-linecap="round"/><text x="575" y="385" text-anchor="middle" direction="rtl" font-family="Tahoma,Arial,sans-serif" font-size="19" font-weight="800" fill="#2563eb">أسرع</text></svg>