<svg xmlns="http://www.w3.org/2000/svg" width="760" height="520" viewBox="0 0 760 520" role="img"><defs><linearGradient id="main" x1="0" y1="0" x2="1" y2="1"><stop stop-color="#be123c"/><stop offset="1" stop-color="#fb7185"/></linearGradient><linearGradient id="soft" x1="0" y1="0" x2="1" y2="1"><stop stop-color="#7c3aed" stop-opacity=".18"/><stop offset="1" stop-color="#be123c" stop-opacity=".04"/></linearGradient><pattern id="check" width="22" height="22" patternUnits="userSpaceOnUse"><rect width="11" height="11" fill="#ebe9f7"/><rect x="11" y="11" width="11" height="11" fill="#ebe9f7"/><rect x="11" width="11" height="11" fill="#fff"/><rect y="11" width="11" height="11" fill="#fff"/></pattern><filter id="shadow" x="-20%" y="-20%" width="140%" height="140%"><feDropShadow dx="0" dy="12" stdDeviation="14" flood-color="#302860" flood-opacity=".12"/></filter></defs><rect width="760" height="520" rx="34" fill="#f8f7ff"/><path d="M0 430 Q220 370 430 440 T760 405 V520 H0Z" fill="url(#soft)"/><text x="380" y="64" text-anchor="middle" direction="rtl" font-family="Tahoma,Arial,sans-serif" font-size="23" font-weight="800" fill="#302b50">طبقة هوية متوازنة فوق الصورة</text><rect x="95" y="120" width="570" height="300" rx="30" fill="#fff" stroke="#d8d4e8" filter="url(#shadow)"/><rect x="125" y="150" width="510" height="240" rx="22" fill="url(#soft)"/><circle cx="250" cy="225" r="52" fill="#7c3aed" opacity=".6"/><path d="M145 365l105-110 82 70 68-74 210 114" fill="none" stroke="#be123c" stroke-width="15"/><g transform="rotate(-18 380 280)"><rect x="225" y="240" width="310" height="80" rx="18" fill="#fff" opacity=".75" stroke="#fb7185" stroke-width="3"/><text x="380" y="291" text-anchor="middle" direction="rtl" font-family="Tahoma,Arial,sans-serif" font-size="23" font-weight="800" fill="#be123c">واضحة</text></g></svg>