<svg xmlns="http://www.w3.org/2000/svg" width="760" height="520" viewBox="0 0 760 520" role="img"><defs><linearGradient id="g" x1="0" y1="0" x2="1" y2="1"><stop stop-color="#d9467a"/><stop offset="1" stop-color="#fb7185"/></linearGradient><linearGradient id="soft" x1="0" y1="0" x2="1" y2="1"><stop stop-color="#6558e8" stop-opacity=".22"/><stop offset="1" stop-color="#d9467a" stop-opacity=".05"/></linearGradient><filter id="sh" x="-20%" y="-20%" width="140%" height="140%"><feDropShadow dx="0" dy="12" stdDeviation="13" flood-color="#302860" flood-opacity=".12"/></filter></defs><rect width="760" height="520" rx="34" fill="#f8f7ff"/><circle cx="90" cy="68" r="74" fill="#d9467a" opacity=".07"/><circle cx="690" cy="475" r="90" fill="#6558e8" opacity=".09"/><text x="380" y="58" text-anchor="middle" direction="rtl" font-family="Cairo,Tahoma,Arial,sans-serif" font-size="25" font-weight="900" fill="#282344">مؤقت تنازلي ذكي</text><circle cx="270" cy="270" r="135" fill="#fff" stroke="#e3e0ed" stroke-width="22" filter="url(#sh)"/><path d="M270 135a135 135 0 1 1-116 66" fill="none" stroke="url(#g)" stroke-width="22" stroke-linecap="round"/><text x="270" y="260" text-anchor="middle" direction="rtl" font-family="Cairo,Tahoma,Arial,sans-serif" font-size="42" font-weight="900" fill="#d9467a">24:59</text><text x="270" y="310" text-anchor="middle" direction="rtl" font-family="Cairo,Tahoma,Arial,sans-serif" font-size="18" font-weight="800" fill="#6558e8">وقت متبقٍ</text><rect x="500" y="190" width="170" height="160" rx="24" fill="#fff" stroke="#dcd8ed" stroke-width="2" filter="url(#sh)"/><text x="585" y="242" text-anchor="middle" direction="rtl" font-family="Cairo,Tahoma,Arial,sans-serif" font-size="20" font-weight="900" fill="#d9467a">تركيز</text><text x="585" y="292" text-anchor="middle" direction="rtl" font-family="Cairo,Tahoma,Arial,sans-serif" font-size="15" font-weight="700" fill="#655f74">ثم استراحة</text><circle cx="22" cy="495" r="3" fill="#d9467a" opacity=".45"/><circle cx="37" cy="495" r="3" fill="#d9467a" opacity=".45"/><circle cx="52" cy="495" r="3" fill="#d9467a" opacity=".45"/><circle cx="67" cy="495" r="3" fill="#d9467a" opacity=".45"/></svg>