<svg xmlns="http://www.w3.org/2000/svg" width="760" height="520" viewBox="0 0 760 520" role="img"><defs><linearGradient id="g" x1="0" y1="0" x2="1" y2="1"><stop stop-color="#7c3aed"/><stop offset="1" stop-color="#a78bfa"/></linearGradient><linearGradient id="soft" x1="0" y1="0" x2="1" y2="1"><stop stop-color="#ec4899" stop-opacity=".22"/><stop offset="1" stop-color="#7c3aed" stop-opacity=".05"/></linearGradient><filter id="sh" x="-20%" y="-20%" width="140%" height="140%"><feDropShadow dx="0" dy="12" stdDeviation="13" flood-color="#302860" flood-opacity=".12"/></filter></defs><rect width="760" height="520" rx="34" fill="#f8f7ff"/><circle cx="90" cy="68" r="74" fill="#7c3aed" opacity=".07"/><circle cx="690" cy="475" r="90" fill="#ec4899" opacity=".09"/><text x="380" y="58" text-anchor="middle" direction="rtl" font-family="Cairo,Tahoma,Arial,sans-serif" font-size="25" font-weight="900" fill="#282344">محول التاريخ الهجري والميلادي</text><rect x="60" y="145" width="240" height="235" rx="25" fill="#fff" stroke="#dcd8ed" stroke-width="2" filter="url(#sh)"/><text x="180" y="210" text-anchor="middle" direction="rtl" font-family="Cairo,Tahoma,Arial,sans-serif" font-size="23" font-weight="900" fill="#7c3aed">14 مارس 2026</text><text x="180" y="270" text-anchor="middle" direction="rtl" font-family="Cairo,Tahoma,Arial,sans-serif" font-size="17" font-weight="800" fill="#ec4899">ميلادي</text><path d="M335 260h82m-28-28 31 28-31 28" fill="none" stroke="#7c3aed" stroke-width="12" stroke-linecap="round" stroke-linejoin="round"/><rect x="500" y="145" width="205" height="235" rx="25" fill="#fff" stroke="#dcd8ed" stroke-width="2" filter="url(#sh)"/><text x="602" y="210" text-anchor="middle" direction="rtl" font-family="Cairo,Tahoma,Arial,sans-serif" font-size="22" font-weight="900" fill="#7c3aed">25 رمضان 1447</text><text x="602" y="270" text-anchor="middle" direction="rtl" font-family="Cairo,Tahoma,Arial,sans-serif" font-size="17" font-weight="800" fill="#ec4899">هجري</text><path d="M545 325h115" stroke="#dcd8e8" stroke-width="9" stroke-linecap="round"/><circle cx="22" cy="495" r="3" fill="#7c3aed" opacity=".45"/><circle cx="37" cy="495" r="3" fill="#7c3aed" opacity=".45"/><circle cx="52" cy="495" r="3" fill="#7c3aed" opacity=".45"/><circle cx="67" cy="495" r="3" fill="#7c3aed" opacity=".45"/><circle cx="82" cy="495" r="3" fill="#7c3aed" opacity=".45"/><circle cx="97" cy="495" r="3" fill="#7c3aed" opacity=".45"/><circle cx="112" cy="495" r="3" fill="#7c3aed" opacity=".45"/></svg>