<svg xmlns="http://www.w3.org/2000/svg" width="760" height="520" viewBox="0 0 760 520" role="img"><defs><linearGradient id="g" x1="0" y1="0" x2="1" y2="1"><stop stop-color="#6558e8"/><stop offset="1" stop-color="#9285ff"/></linearGradient><linearGradient id="soft" x1="0" y1="0" x2="1" y2="1"><stop stop-color="#10a7a0" stop-opacity=".22"/><stop offset="1" stop-color="#6558e8" stop-opacity=".05"/></linearGradient><filter id="sh" x="-20%" y="-20%" width="140%" height="140%"><feDropShadow dx="0" dy="12" stdDeviation="13" flood-color="#302860" flood-opacity=".12"/></filter></defs><rect width="760" height="520" rx="34" fill="#f8f7ff"/><circle cx="90" cy="68" r="74" fill="#6558e8" opacity=".07"/><circle cx="690" cy="475" r="90" fill="#10a7a0" opacity=".09"/><text x="380" y="58" text-anchor="middle" direction="rtl" font-family="Cairo,Tahoma,Arial,sans-serif" font-size="25" font-weight="900" fill="#282344">محول الخطوط أون لاين</text><rect x="65" y="130" width="280" height="275" rx="28" fill="#fff" stroke="#dcd8ed" stroke-width="2" filter="url(#sh)"/><text x="205" y="205" text-anchor="middle" direction="rtl" font-family="Cairo,Tahoma,Arial,sans-serif" font-size="48" font-weight="900" fill="#6558e8">أبجد</text><text x="205" y="270" text-anchor="middle" direction="rtl" font-family="Cairo,Tahoma,Arial,sans-serif" font-size="24" font-weight="800" fill="#10a7a0">عنوان عربي</text><text x="205" y="325" text-anchor="middle" direction="rtl" font-family="Cairo,Tahoma,Arial,sans-serif" font-size="17" font-weight="600" fill="#5f5a70">نص للقراءة والاختبار</text><path d="M365 270h82m-28-28 31 28-31 28" fill="none" stroke="#6558e8" stroke-width="12" stroke-linecap="round" stroke-linejoin="round"/><rect x="505" y="155" width="195" height="225" rx="28" fill="#fff" stroke="#dcd8ed" stroke-width="2" filter="url(#sh)"/><text x="602" y="225" text-anchor="middle" direction="rtl" font-family="Cairo,Tahoma,Arial,sans-serif" font-size="28" font-weight="900" fill="#6558e8">WOFF2</text><text x="602" y="275" text-anchor="middle" direction="rtl" font-family="Cairo,Tahoma,Arial,sans-serif" font-size="17" font-weight="800" fill="#10a7a0">خفيف للويب</text><path d="M550 325h105" stroke="#ddd9e8" stroke-width="9" stroke-linecap="round"/><circle cx="22" cy="495" r="3" fill="#6558e8" opacity=".45"/><circle cx="37" cy="495" r="3" fill="#6558e8" opacity=".45"/><circle cx="52" cy="495" r="3" fill="#6558e8" opacity=".45"/><circle cx="67" cy="495" r="3" fill="#6558e8" opacity=".45"/><circle cx="82" cy="495" r="3" fill="#6558e8" opacity=".45"/><circle cx="97" cy="495" r="3" fill="#6558e8" opacity=".45"/><circle cx="112" cy="495" r="3" fill="#6558e8" opacity=".45"/><circle cx="127" cy="495" r="3" fill="#6558e8" opacity=".45"/><circle cx="142" cy="495" r="3" fill="#6558e8" opacity=".45"/><circle cx="157" cy="495" r="3" fill="#6558e8" opacity=".45"/></svg>