<svg xmlns="http://www.w3.org/2000/svg" width="960" height="360" viewBox="0 0 960 360" role="img"><defs><linearGradient id="g" x1="0" y1="0" x2="1" y2="1"><stop stop-color="#6558e8"/><stop offset="1" stop-color="#9285ff"/></linearGradient><linearGradient id="soft" x1="0" y1="0" x2="1" y2="1"><stop stop-color="#10a7a0" stop-opacity=".22"/><stop offset="1" stop-color="#6558e8" stop-opacity=".05"/></linearGradient><filter id="sh" x="-20%" y="-20%" width="140%" height="140%"><feDropShadow dx="0" dy="12" stdDeviation="13" flood-color="#302860" flood-opacity=".12"/></filter></defs><rect width="960" height="360" rx="34" fill="#f8f7ff"/><circle cx="90" cy="68" r="74" fill="#6558e8" opacity=".07"/><circle cx="890" cy="315" r="90" fill="#10a7a0" opacity=".09"/><g transform="translate(858 12)" opacity=".78"><rect x="-10" y="-8" width="92" height="66" rx="24" fill="#fff" stroke="url(#g)" stroke-width="2"/><rect x="0" y="48" width="4" height="10" rx="2" fill="url(#g)"/><rect x="7" y="39" width="4" height="19" rx="2" fill="url(#g)"/><rect x="14" y="30" width="4" height="28" rx="2" fill="url(#g)"/><rect x="21" y="21" width="4" height="37" rx="2" fill="url(#g)"/><rect x="28" y="48" width="4" height="10" rx="2" fill="url(#g)"/><rect x="35" y="39" width="4" height="19" rx="2" fill="url(#g)"/><rect x="42" y="30" width="4" height="28" rx="2" fill="url(#g)"/><rect x="49" y="21" width="4" height="37" rx="2" fill="url(#g)"/><rect x="56" y="48" width="4" height="10" rx="2" fill="url(#g)"/><rect x="0" y="33" width="4" height="19" rx="2" fill="url(#g)"/><circle cx="63" cy="10" r="5" fill="url(#g)"/></g><rect x="65" y="50" width="830" height="58" rx="18" fill="#fff" stroke="#ddd9ed"/><circle cx="103" cy="79" r="19" fill="url(#g)"/><text x="103" y="86" text-anchor="middle" direction="rtl" font-family="Cairo,Tahoma,Arial,sans-serif" font-size="16" font-weight="900" fill="#fff">1</text><text x="270" y="87" text-anchor="middle" direction="rtl" font-family="Cairo,Tahoma,Arial,sans-serif" font-size="16" font-weight="800" fill="#302b50">إعداد سريع</text><text x="520" y="87" text-anchor="middle" direction="rtl" font-family="Cairo,Tahoma,Arial,sans-serif" font-size="15" font-weight="800" fill="#6558e8">تجربة أولى على عينة صغيرة</text><text x="760" y="87" text-anchor="middle" direction="rtl" font-family="Cairo,Tahoma,Arial,sans-serif" font-size="14" font-weight="700" fill="#615c71">راجع الوضوح والوظيفة</text><rect x="83" y="122" width="794" height="58" rx="18" fill="#fff" stroke="#ddd9ed"/><circle cx="121" cy="151" r="19" fill="url(#g)"/><text x="121" y="158" text-anchor="middle" direction="rtl" font-family="Cairo,Tahoma,Arial,sans-serif" font-size="16" font-weight="900" fill="#fff">2</text><text x="270" y="159" text-anchor="middle" direction="rtl" font-family="Cairo,Tahoma,Arial,sans-serif" font-size="16" font-weight="800" fill="#302b50">إعداد متوازن</text><text x="520" y="159" text-anchor="middle" direction="rtl" font-family="Cairo,Tahoma,Arial,sans-serif" font-size="15" font-weight="800" fill="#6558e8">الاستخدام اليومي والمشاركة المعتادة</text><text x="750" y="159" text-anchor="middle" direction="rtl" font-family="Cairo,Tahoma,Arial,sans-serif" font-size="14" font-weight="700" fill="#615c71">وازن الحجم والدقة والوقت</text><rect x="101" y="194" width="758" height="58" rx="18" fill="#fff" stroke="#ddd9ed"/><circle cx="139" cy="223" r="19" fill="url(#g)"/><text x="139" y="230" text-anchor="middle" direction="rtl" font-family="Cairo,Tahoma,Arial,sans-serif" font-size="16" font-weight="900" fill="#fff">3</text><text x="270" y="231" text-anchor="middle" direction="rtl" font-family="Cairo,Tahoma,Arial,sans-serif" font-size="16" font-weight="800" fill="#302b50">أعلى جودة</text><text x="520" y="231" text-anchor="middle" direction="rtl" font-family="Cairo,Tahoma,Arial,sans-serif" font-size="15" font-weight="800" fill="#6558e8">الأرشفة أو العرض الكبير عند الحاجة</text><text x="740" y="231" text-anchor="middle" direction="rtl" font-family="Cairo,Tahoma,Arial,sans-serif" font-size="14" font-weight="700" fill="#615c71">اختبر التوافق وحجم الناتج</text><rect x="119" y="266" width="722" height="58" rx="18" fill="#fff" stroke="#ddd9ed"/><circle cx="157" cy="295" r="19" fill="url(#g)"/><text x="157" y="302" text-anchor="middle" direction="rtl" font-family="Cairo,Tahoma,Arial,sans-serif" font-size="16" font-weight="900" fill="#fff">4</text><text x="270" y="303" text-anchor="middle" direction="rtl" font-family="Cairo,Tahoma,Arial,sans-serif" font-size="16" font-weight="800" fill="#302b50">بديل يدوي</text><text x="520" y="303" text-anchor="middle" direction="rtl" font-family="Cairo,Tahoma,Arial,sans-serif" font-size="15" font-weight="800" fill="#6558e8">عندما تفشل المعالجة الآلية</text><text x="730" y="303" text-anchor="middle" direction="rtl" font-family="Cairo,Tahoma,Arial,sans-serif" font-size="14" font-weight="700" fill="#615c71">يحافظ على التحكم لكنه أبطأ</text></svg>