<svg xmlns="http://www.w3.org/2000/svg" width="760" height="520" viewBox="0 0 760 520" role="img"><defs><linearGradient id="g" x1="0" y1="0" x2="1" y2="1"><stop stop-color="#334155"/><stop offset="1" stop-color="#64748b"/></linearGradient><linearGradient id="soft" x1="0" y1="0" x2="1" y2="1"><stop stop-color="#6558e8" stop-opacity=".22"/><stop offset="1" stop-color="#334155" stop-opacity=".05"/></linearGradient><filter id="sh" x="-20%" y="-20%" width="140%" height="140%"><feDropShadow dx="0" dy="12" stdDeviation="13" flood-color="#302860" flood-opacity=".12"/></filter></defs><rect width="760" height="520" rx="34" fill="#f8f7ff"/><circle cx="90" cy="68" r="74" fill="#334155" opacity=".07"/><circle cx="690" cy="475" r="90" fill="#6558e8" opacity=".09"/><text x="380" y="58" text-anchor="middle" direction="rtl" font-family="Cairo,Tahoma,Arial,sans-serif" font-size="25" font-weight="900" fill="#282344">أسعار الذهب حول العالم</text><path d="M90 360 170 315l72 18 85-100 78 42 92-120 120 40" fill="none" stroke="url(#g)" stroke-width="12" stroke-linecap="round"/><circle cx="90" cy="360" r="10" fill="#334155"/><circle cx="170" cy="315" r="10" fill="#6558e8"/><circle cx="242" cy="333" r="10" fill="#334155"/><circle cx="327" cy="233" r="10" fill="#6558e8"/><circle cx="405" cy="275" r="10" fill="#334155"/><circle cx="497" cy="155" r="10" fill="#6558e8"/><circle cx="617" cy="195" r="10" fill="#334155"/><rect x="485" y="285" width="200" height="110" rx="24" fill="#fff" stroke="#dcd8ed" stroke-width="2" filter="url(#sh)"/><text x="585" y="332" text-anchor="middle" direction="rtl" font-family="Cairo,Tahoma,Arial,sans-serif" font-size="17" font-weight="800" fill="#334155">السعر المرجعي</text><text x="585" y="370" text-anchor="middle" direction="rtl" font-family="Cairo,Tahoma,Arial,sans-serif" font-size="15" font-weight="700" fill="#6558e8">وقت التحديث</text><path d="M130 150l55-35 55 35-18 70h-74Z" fill="#f2b84b" opacity=".8"/><circle cx="22" cy="495" r="3" fill="#334155" opacity=".45"/><circle cx="37" cy="495" r="3" fill="#334155" opacity=".45"/><circle cx="52" cy="495" r="3" fill="#334155" opacity=".45"/><circle cx="67" cy="495" r="3" fill="#334155" opacity=".45"/><circle cx="82" cy="495" r="3" fill="#334155" opacity=".45"/><circle cx="97" cy="495" r="3" fill="#334155" opacity=".45"/><circle cx="112" cy="495" r="3" fill="#334155" opacity=".45"/><circle cx="127" cy="495" r="3" fill="#334155" opacity=".45"/><circle cx="142" cy="495" r="3" fill="#334155" opacity=".45"/></svg>