<svg xmlns="http://www.w3.org/2000/svg" width="760" height="520" viewBox="0 0 760 520" role="img"><defs><linearGradient id="g" x1="0" y1="0" x2="1" y2="1"><stop stop-color="#ea580c"/><stop offset="1" stop-color="#f59e0b"/></linearGradient><linearGradient id="soft" x1="0" y1="0" x2="1" y2="1"><stop stop-color="#2563eb" stop-opacity=".22"/><stop offset="1" stop-color="#ea580c" stop-opacity=".05"/></linearGradient><filter id="sh" x="-20%" y="-20%" width="140%" height="140%"><feDropShadow dx="0" dy="12" stdDeviation="13" flood-color="#302860" flood-opacity=".12"/></filter></defs><rect width="760" height="520" rx="34" fill="#f8f7ff"/><circle cx="90" cy="68" r="74" fill="#ea580c" opacity=".07"/><circle cx="690" cy="475" r="90" fill="#2563eb" opacity=".09"/><text x="380" y="58" text-anchor="middle" direction="rtl" font-family="Cairo,Tahoma,Arial,sans-serif" font-size="25" font-weight="900" fill="#282344">تحويل الميلادي إلى هجري</text><rect x="135" y="120" width="490" height="300" rx="30" fill="#fff" stroke="#dcd8ed" stroke-width="2" filter="url(#sh)"/><rect x="135" y="120" width="490" height="72" rx="30" fill="url(#g)"/><text x="380" y="168" text-anchor="middle" direction="rtl" font-family="Cairo,Tahoma,Arial,sans-serif" font-size="25" font-weight="900" fill="#fff">رمضان 1447</text><text x="185" y="230" text-anchor="middle" direction="rtl" font-family="Cairo,Tahoma,Arial,sans-serif" font-size="14" font-weight="800" fill="#ea580c">س</text><text x="250" y="230" text-anchor="middle" direction="rtl" font-family="Cairo,Tahoma,Arial,sans-serif" font-size="14" font-weight="800" fill="#ea580c">ح</text><text x="315" y="230" text-anchor="middle" direction="rtl" font-family="Cairo,Tahoma,Arial,sans-serif" font-size="14" font-weight="800" fill="#ea580c">ن</text><text x="380" y="230" text-anchor="middle" direction="rtl" font-family="Cairo,Tahoma,Arial,sans-serif" font-size="14" font-weight="800" fill="#ea580c">ث</text><text x="445" y="230" text-anchor="middle" direction="rtl" font-family="Cairo,Tahoma,Arial,sans-serif" font-size="14" font-weight="800" fill="#ea580c">ر</text><text x="510" y="230" text-anchor="middle" direction="rtl" font-family="Cairo,Tahoma,Arial,sans-serif" font-size="14" font-weight="800" fill="#ea580c">خ</text><text x="575" y="230" text-anchor="middle" direction="rtl" font-family="Cairo,Tahoma,Arial,sans-serif" font-size="14" font-weight="800" fill="#ea580c">ج</text><circle cx="185" cy="275" r="18" fill="#f0eef8" opacity="1"/><circle cx="250" cy="275" r="18" fill="#f0eef8" opacity="1"/><circle cx="315" cy="275" r="18" fill="#f0eef8" opacity="1"/><circle cx="380" cy="275" r="18" fill="#f0eef8" opacity="1"/><circle cx="445" cy="275" r="18" fill="#f0eef8" opacity="1"/><circle cx="510" cy="275" r="18" fill="#f0eef8" opacity="1"/><circle cx="575" cy="275" r="18" fill="#f0eef8" opacity="1"/><circle cx="185" cy="330" r="18" fill="#f0eef8" opacity="1"/><circle cx="250" cy="330" r="18" fill="#f0eef8" opacity="1"/><circle cx="315" cy="330" r="18" fill="#f0eef8" opacity="1"/><circle cx="380" cy="330" r="18" fill="#2563eb" opacity=".75"/><circle cx="445" cy="330" r="18" fill="#f0eef8" opacity="1"/><circle cx="510" cy="330" r="18" fill="#f0eef8" opacity="1"/><circle cx="575" cy="330" r="18" fill="#f0eef8" opacity="1"/><circle cx="185" cy="385" r="18" fill="#f0eef8" opacity="1"/><circle cx="250" cy="385" r="18" fill="#f0eef8" opacity="1"/><circle cx="315" cy="385" r="18" fill="#f0eef8" opacity="1"/><circle cx="380" cy="385" r="18" fill="#f0eef8" opacity="1"/><circle cx="445" cy="385" r="18" fill="#f0eef8" opacity="1"/><circle cx="510" cy="385" r="18" fill="#f0eef8" opacity="1"/><circle cx="575" cy="385" r="18" fill="#f0eef8" opacity="1"/><circle cx="22" cy="495" r="3" fill="#ea580c" opacity=".45"/><circle cx="37" cy="495" r="3" fill="#ea580c" opacity=".45"/><circle cx="52" cy="495" r="3" fill="#ea580c" opacity=".45"/><circle cx="67" cy="495" r="3" fill="#ea580c" opacity=".45"/><circle cx="82" cy="495" r="3" fill="#ea580c" opacity=".45"/><circle cx="97" cy="495" r="3" fill="#ea580c" opacity=".45"/><circle cx="112" cy="495" r="3" fill="#ea580c" opacity=".45"/><circle cx="127" cy="495" r="3" fill="#ea580c" opacity=".45"/></svg>