<svg xmlns="http://www.w3.org/2000/svg" width="760" height="520" viewBox="0 0 760 520" role="img"><defs><linearGradient id="g" x1="0" y1="0" x2="1" y2="1"><stop stop-color="#6558e8"/><stop offset="1" stop-color="#9285ff"/></linearGradient><linearGradient id="soft" x1="0" y1="0" x2="1" y2="1"><stop stop-color="#10a7a0" stop-opacity=".22"/><stop offset="1" stop-color="#6558e8" stop-opacity=".05"/></linearGradient><filter id="sh" x="-20%" y="-20%" width="140%" height="140%"><feDropShadow dx="0" dy="12" stdDeviation="13" flood-color="#302860" flood-opacity=".12"/></filter></defs><rect width="760" height="520" rx="34" fill="#f8f7ff"/><circle cx="90" cy="68" r="74" fill="#6558e8" opacity=".07"/><circle cx="690" cy="475" r="90" fill="#10a7a0" opacity=".09"/><text x="380" y="58" text-anchor="middle" direction="rtl" font-family="Cairo,Tahoma,Arial,sans-serif" font-size="25" font-weight="900" fill="#282344">مولد QR Code مجانًا</text><rect x="55" y="160" width="250" height="205" rx="28" fill="#fff" stroke="#dcd8ed" stroke-width="2" filter="url(#sh)"/><text x="180" y="220" text-anchor="middle" direction="rtl" font-family="Cairo,Tahoma,Arial,sans-serif" font-size="21" font-weight="900" fill="#6558e8">رابط أو نص</text><path d="M95 270h170" stroke="#d9d5e8" stroke-width="10" stroke-linecap="round"/><path d="M125 310h110" stroke="#e3e0ec" stroke-width="8" stroke-linecap="round"/><path d="M335 265h82m-28-28 31 28-31 28" fill="none" stroke="#6558e8" stroke-width="12" stroke-linecap="round" stroke-linejoin="round"/><g transform="translate(500 150)"><rect width="205" height="205" rx="18" fill="#fff" stroke="#6558e8" stroke-width="5"/><rect x="18" y="18" width="36" height="36" rx="4" fill="none" stroke="#6558e8" stroke-width="9"/><rect x="151" y="18" width="36" height="36" rx="4" fill="none" stroke="#6558e8" stroke-width="9"/><rect x="18" y="151" width="36" height="36" rx="4" fill="none" stroke="#6558e8" stroke-width="9"/><rect x="70" y="70" width="15" height="15" rx="3" fill="#6558e8"/><rect x="94" y="70" width="15" height="15" rx="3" fill="#10a7a0"/><rect x="118" y="70" width="15" height="15" rx="3" fill="#6558e8"/><rect x="142" y="70" width="15" height="15" rx="3" fill="#10a7a0"/><rect x="70" y="98" width="15" height="15" rx="3" fill="#6558e8"/><rect x="94" y="98" width="15" height="15" rx="3" fill="#10a7a0"/><rect x="118" y="98" width="15" height="15" rx="3" fill="#6558e8"/><rect x="142" y="98" width="15" height="15" rx="3" fill="#10a7a0"/></g><circle cx="22" cy="495" r="3" fill="#6558e8" opacity=".45"/></svg>