<svg xmlns="http://www.w3.org/2000/svg" width="760" height="520" viewBox="0 0 760 520" role="img"><defs><linearGradient id="g" x1="0" y1="0" x2="1" y2="1"><stop stop-color="#0f8f83"/><stop offset="1" stop-color="#39c6b8"/></linearGradient><linearGradient id="soft" x1="0" y1="0" x2="1" y2="1"><stop stop-color="#6558e8" stop-opacity=".22"/><stop offset="1" stop-color="#0f8f83" stop-opacity=".05"/></linearGradient><filter id="sh" x="-20%" y="-20%" width="140%" height="140%"><feDropShadow dx="0" dy="12" stdDeviation="13" flood-color="#302860" flood-opacity=".12"/></filter></defs><rect width="760" height="520" rx="34" fill="#f8f7ff"/><circle cx="90" cy="68" r="74" fill="#0f8f83" opacity=".07"/><circle cx="690" cy="475" r="90" fill="#6558e8" opacity=".09"/><text x="380" y="58" text-anchor="middle" direction="rtl" font-family="Cairo,Tahoma,Arial,sans-serif" font-size="25" font-weight="900" fill="#282344">قارئ QR Code</text><g transform="translate(75 150)"><rect width="220" height="220" rx="18" fill="#fff" stroke="#0f8f83" stroke-width="5"/><rect x="18" y="18" width="36" height="36" rx="4" fill="none" stroke="#0f8f83" stroke-width="9"/><rect x="166" y="18" width="36" height="36" rx="4" fill="none" stroke="#0f8f83" stroke-width="9"/><rect x="18" y="166" width="36" height="36" rx="4" fill="none" stroke="#0f8f83" stroke-width="9"/><rect x="70" y="70" width="15" height="15" rx="3" fill="#0f8f83"/><rect x="94" y="70" width="15" height="15" rx="3" fill="#6558e8"/><rect x="118" y="70" width="15" height="15" rx="3" fill="#0f8f83"/><rect x="142" y="70" width="15" height="15" rx="3" fill="#6558e8"/><rect x="70" y="98" width="15" height="15" rx="3" fill="#0f8f83"/><rect x="94" y="98" width="15" height="15" rx="3" fill="#6558e8"/><rect x="118" y="98" width="15" height="15" rx="3" fill="#0f8f83"/><rect x="142" y="98" width="15" height="15" rx="3" fill="#6558e8"/><path d="M-12 121.00000000000001h244" stroke="#e34f67" stroke-width="7" filter="url(#sh)"/></g><path d="M330 260h82m-28-28 31 28-31 28" fill="none" stroke="#0f8f83" stroke-width="12" stroke-linecap="round" stroke-linejoin="round"/><rect x="480" y="155" width="230" height="215" rx="28" fill="#fff" stroke="#dcd8ed" stroke-width="2" filter="url(#sh)"/><text x="595" y="215" text-anchor="middle" direction="rtl" font-family="Cairo,Tahoma,Arial,sans-serif" font-size="20" font-weight="900" fill="#0f8f83">معاينة المحتوى</text><path d="M520 260h150" stroke="#6558e8" stroke-width="11" stroke-linecap="round"/><path d="M540 305h110" stroke="#ddd9e9" stroke-width="9" stroke-linecap="round"/><circle cx="22" cy="495" r="3" fill="#0f8f83" opacity=".45"/><circle cx="37" cy="495" r="3" fill="#0f8f83" opacity=".45"/></svg>