<svg xmlns="http://www.w3.org/2000/svg" width="960" height="360" viewBox="0 0 960 360" role="img"><defs><linearGradient id="g" x1="0" y1="0" x2="1" y2="1"><stop stop-color="#4f46e5"/><stop offset="1" stop-color="#7c6cf2"/></linearGradient><linearGradient id="soft" x1="0" y1="0" x2="1" y2="1"><stop stop-color="#0f9f8f" stop-opacity=".22"/><stop offset="1" stop-color="#4f46e5" stop-opacity=".05"/></linearGradient><filter id="sh" x="-20%" y="-20%" width="140%" height="140%"><feDropShadow dx="0" dy="12" stdDeviation="13" flood-color="#302860" flood-opacity=".12"/></filter></defs><rect width="960" height="360" rx="34" fill="#f8f7ff"/><circle cx="90" cy="68" r="74" fill="#4f46e5" opacity=".07"/><circle cx="890" cy="315" r="90" fill="#0f9f8f" opacity=".09"/><g transform="translate(858 12)" opacity=".78"><rect x="-10" y="-8" width="92" height="66" rx="19" fill="#fff" stroke="url(#g)" stroke-width="2"/><rect x="0" y="48" width="4" height="10" rx="2" fill="url(#g)"/><rect x="7" y="39" width="4" height="19" rx="2" fill="url(#g)"/><rect x="14" y="30" width="4" height="28" rx="2" fill="url(#g)"/><rect x="21" y="21" width="4" height="37" rx="2" fill="url(#g)"/><rect x="28" y="48" width="4" height="10" rx="2" fill="url(#g)"/><circle cx="63" cy="10" r="8" fill="url(#g)"/></g><g transform="translate(45 55)"><rect width="420" height="115" rx="24" fill="#fff" stroke="#ddd9ed" filter="url(#sh)"/><rect width="14" height="115" rx="7" fill="#4f46e5"/><text x="210" y="42" text-anchor="middle" direction="rtl" font-family="Cairo,Tahoma,Arial,sans-serif" font-size="17" font-weight="800" fill="#302b50">إعداد سريع</text><text x="210" y="75" text-anchor="middle" direction="rtl" font-family="Cairo,Tahoma,Arial,sans-serif" font-size="14" font-weight="800" fill="#4f46e5">تجربة أولى على عينة صغيرة</text><text x="210" y="101" text-anchor="middle" direction="rtl" font-family="Cairo,Tahoma,Arial,sans-serif" font-size="13" font-weight="700" fill="#625d72">راجع الوضوح والوظيفة</text></g><g transform="translate(490 55)"><rect width="420" height="115" rx="24" fill="#fff" stroke="#ddd9ed" filter="url(#sh)"/><rect width="14" height="115" rx="7" fill="#0f9f8f"/><text x="210" y="42" text-anchor="middle" direction="rtl" font-family="Cairo,Tahoma,Arial,sans-serif" font-size="17" font-weight="800" fill="#302b50">إعداد متوازن</text><text x="210" y="75" text-anchor="middle" direction="rtl" font-family="Cairo,Tahoma,Arial,sans-serif" font-size="14" font-weight="800" fill="#4f46e5">الاستخدام اليومي والمشاركة المعتادة</text><text x="210" y="101" text-anchor="middle" direction="rtl" font-family="Cairo,Tahoma,Arial,sans-serif" font-size="13" font-weight="700" fill="#625d72">وازن الحجم والدقة والوقت</text></g><g transform="translate(45 195)"><rect width="420" height="115" rx="24" fill="#fff" stroke="#ddd9ed" filter="url(#sh)"/><rect width="14" height="115" rx="7" fill="#4f46e5"/><text x="210" y="42" text-anchor="middle" direction="rtl" font-family="Cairo,Tahoma,Arial,sans-serif" font-size="17" font-weight="800" fill="#302b50">أعلى جودة</text><text x="210" y="75" text-anchor="middle" direction="rtl" font-family="Cairo,Tahoma,Arial,sans-serif" font-size="14" font-weight="800" fill="#4f46e5">الأرشفة أو العرض الكبير عند الحاجة</text><text x="210" y="101" text-anchor="middle" direction="rtl" font-family="Cairo,Tahoma,Arial,sans-serif" font-size="13" font-weight="700" fill="#625d72">اختبر التوافق وحجم الناتج</text></g><g transform="translate(490 195)"><rect width="420" height="115" rx="24" fill="#fff" stroke="#ddd9ed" filter="url(#sh)"/><rect width="14" height="115" rx="7" fill="#0f9f8f"/><text x="210" y="42" text-anchor="middle" direction="rtl" font-family="Cairo,Tahoma,Arial,sans-serif" font-size="17" font-weight="800" fill="#302b50">بديل يدوي</text><text x="210" y="75" text-anchor="middle" direction="rtl" font-family="Cairo,Tahoma,Arial,sans-serif" font-size="14" font-weight="800" fill="#4f46e5">عندما تفشل المعالجة الآلية</text><text x="210" y="101" text-anchor="middle" direction="rtl" font-family="Cairo,Tahoma,Arial,sans-serif" font-size="13" font-weight="700" fill="#625d72">يحافظ على التحكم لكنه أبطأ</text></g></svg>