<svg xmlns="http://www.w3.org/2000/svg" width="760" height="520" viewBox="0 0 760 520" role="img"><defs><linearGradient id="g" x1="0" y1="0" x2="1" y2="1"><stop stop-color="#4f46e5"/><stop offset="1" stop-color="#7c6cf2"/></linearGradient><linearGradient id="soft" x1="0" y1="0" x2="1" y2="1"><stop stop-color="#0f9f8f" stop-opacity=".22"/><stop offset="1" stop-color="#4f46e5" stop-opacity=".05"/></linearGradient><filter id="sh" x="-20%" y="-20%" width="140%" height="140%"><feDropShadow dx="0" dy="12" stdDeviation="13" flood-color="#302860" flood-opacity=".12"/></filter></defs><rect width="760" height="520" rx="34" fill="#f8f7ff"/><circle cx="90" cy="68" r="74" fill="#4f46e5" opacity=".07"/><circle cx="690" cy="475" r="90" fill="#0f9f8f" opacity=".09"/><text x="380" y="58" text-anchor="middle" direction="rtl" font-family="Cairo,Tahoma,Arial,sans-serif" font-size="25" font-weight="900" fill="#282344">أداة القرعة العشوائية</text><rect x="70" y="145" width="250" height="250" rx="30" fill="#fff" stroke="#dcd8ed" stroke-width="2" filter="url(#sh)"/><rect x="105" y="185" width="180" height="28" rx="12" fill="#dedbea" opacity="1"/><rect x="105" y="230" width="180" height="28" rx="12" fill="#dedbea" opacity="1"/><rect x="105" y="275" width="180" height="28" rx="12" fill="#0f9f8f" opacity=".65"/><rect x="105" y="320" width="180" height="28" rx="12" fill="#dedbea" opacity="1"/><path d="M350 265h82m-28-28 31 28-31 28" fill="none" stroke="#4f46e5" stroke-width="12" stroke-linecap="round" stroke-linejoin="round"/><circle cx="585" cy="270" r="118" fill="url(#g)" filter="url(#sh)"/><text x="585" y="260" text-anchor="middle" direction="rtl" font-family="Cairo,Tahoma,Arial,sans-serif" font-size="20" font-weight="700" fill="#fff">الفائز</text><text x="585" y="307" text-anchor="middle" direction="rtl" font-family="Cairo,Tahoma,Arial,sans-serif" font-size="27" font-weight="900" fill="#fff">اسم 03</text><circle cx="22" cy="495" r="3" fill="#4f46e5" opacity=".45"/><circle cx="37" cy="495" r="3" fill="#4f46e5" opacity=".45"/><circle cx="52" cy="495" r="3" fill="#4f46e5" opacity=".45"/><circle cx="67" cy="495" r="3" fill="#4f46e5" opacity=".45"/><circle cx="82" cy="495" r="3" fill="#4f46e5" opacity=".45"/></svg>