<svg xmlns="http://www.w3.org/2000/svg" width="960" height="340" viewBox="0 0 960 340" role="img"><defs><linearGradient id="g" x1="0" y1="0" x2="1" y2="1"><stop stop-color="#2563eb"/><stop offset="1" stop-color="#60a5fa"/></linearGradient><linearGradient id="soft" x1="0" y1="0" x2="1" y2="1"><stop stop-color="#8b5cf6" stop-opacity=".22"/><stop offset="1" stop-color="#2563eb" stop-opacity=".05"/></linearGradient><filter id="sh" x="-20%" y="-20%" width="140%" height="140%"><feDropShadow dx="0" dy="12" stdDeviation="13" flood-color="#302860" flood-opacity=".12"/></filter></defs><rect width="960" height="340" rx="34" fill="#f8f7ff"/><circle cx="90" cy="68" r="74" fill="#2563eb" opacity=".07"/><circle cx="890" cy="295" r="90" fill="#8b5cf6" opacity=".09"/><g transform="translate(858 12)" opacity=".78"><rect x="-10" y="-8" width="92" height="66" rx="17" fill="#fff" stroke="url(#g)" stroke-width="2"/><rect x="0" y="48" width="4" height="10" rx="2" fill="url(#g)"/><rect x="7" y="39" width="4" height="19" rx="2" fill="url(#g)"/><rect x="14" y="30" width="4" height="28" rx="2" fill="url(#g)"/><circle cx="63" cy="10" r="6" fill="url(#g)"/></g><rect x="40" y="100" width="200" height="165" rx="22" fill="#fff" stroke="#ddd9ed" filter="url(#sh)"/><circle cx="140" cy="100" r="27" fill="url(#g)"/><text x="140" y="109" text-anchor="middle" direction="rtl" font-family="Cairo,Tahoma,Arial,sans-serif" font-size="21" font-weight="900" fill="#fff">1</text><text x="140" y="172" text-anchor="middle" direction="rtl" font-family="Cairo,Tahoma,Arial,sans-serif" font-size="19" font-weight="800" fill="#302b50">حدّد</text><text x="140" y="222" text-anchor="middle" direction="rtl" font-family="Cairo,Tahoma,Arial,sans-serif" font-size="14" font-weight="700" fill="#2563eb">مصدر</text><rect x="270" y="125" width="200" height="165" rx="22" fill="#fff" stroke="#ddd9ed" filter="url(#sh)"/><circle cx="370" cy="125" r="27" fill="url(#g)"/><text x="370" y="134" text-anchor="middle" direction="rtl" font-family="Cairo,Tahoma,Arial,sans-serif" font-size="21" font-weight="900" fill="#fff">2</text><text x="370" y="197" text-anchor="middle" direction="rtl" font-family="Cairo,Tahoma,Arial,sans-serif" font-size="19" font-weight="800" fill="#302b50">اضبط</text><text x="370" y="247" text-anchor="middle" direction="rtl" font-family="Cairo,Tahoma,Arial,sans-serif" font-size="14" font-weight="700" fill="#2563eb">إعداد</text><rect x="500" y="125" width="200" height="165" rx="22" fill="#fff" stroke="#ddd9ed" filter="url(#sh)"/><circle cx="600" cy="125" r="27" fill="url(#g)"/><text x="600" y="134" text-anchor="middle" direction="rtl" font-family="Cairo,Tahoma,Arial,sans-serif" font-size="21" font-weight="900" fill="#fff">3</text><text x="600" y="197" text-anchor="middle" direction="rtl" font-family="Cairo,Tahoma,Arial,sans-serif" font-size="19" font-weight="800" fill="#302b50">نفّذ</text><text x="600" y="247" text-anchor="middle" direction="rtl" font-family="Cairo,Tahoma,Arial,sans-serif" font-size="14" font-weight="700" fill="#2563eb">معالجة</text><rect x="730" y="100" width="200" height="165" rx="22" fill="#fff" stroke="#ddd9ed" filter="url(#sh)"/><circle cx="830" cy="100" r="27" fill="url(#g)"/><text x="830" y="109" text-anchor="middle" direction="rtl" font-family="Cairo,Tahoma,Arial,sans-serif" font-size="21" font-weight="900" fill="#fff">4</text><text x="830" y="172" text-anchor="middle" direction="rtl" font-family="Cairo,Tahoma,Arial,sans-serif" font-size="19" font-weight="800" fill="#302b50">راجع</text><text x="830" y="222" text-anchor="middle" direction="rtl" font-family="Cairo,Tahoma,Arial,sans-serif" font-size="14" font-weight="700" fill="#2563eb">اعتماد</text><path d="M65 300 Q480 296 895 300" fill="none" stroke="#8b5cf6" stroke-width="5" stroke-dasharray="10 10" opacity=".5"/></svg>