<svg xmlns="http://www.w3.org/2000/svg" width="760" height="520" viewBox="0 0 760 520" role="img"><defs><linearGradient id="g" x1="0" y1="0" x2="1" y2="1"><stop stop-color="#2563eb"/><stop offset="1" stop-color="#60a5fa"/></linearGradient><linearGradient id="soft" x1="0" y1="0" x2="1" y2="1"><stop stop-color="#8b5cf6" stop-opacity=".22"/><stop offset="1" stop-color="#2563eb" stop-opacity=".05"/></linearGradient><filter id="sh" x="-20%" y="-20%" width="140%" height="140%"><feDropShadow dx="0" dy="12" stdDeviation="13" flood-color="#302860" flood-opacity=".12"/></filter></defs><rect width="760" height="520" rx="34" fill="#f8f7ff"/><circle cx="90" cy="68" r="74" fill="#2563eb" opacity=".07"/><circle cx="690" cy="475" r="90" fill="#8b5cf6" opacity=".09"/><text x="380" y="58" text-anchor="middle" direction="rtl" font-family="Cairo,Tahoma,Arial,sans-serif" font-size="25" font-weight="900" fill="#282344">ساعة إيقاف أون لاين</text><circle cx="245" cy="270" r="128" fill="#fff" stroke="url(#g)" stroke-width="14" filter="url(#sh)"/><path d="M245 142v-34M210 105h70M245 270l62-76" stroke="#2563eb" stroke-width="13" stroke-linecap="round"/><text x="245" y="330" text-anchor="middle" direction="rtl" font-family="Cairo,Tahoma,Arial,sans-serif" font-size="26" font-weight="900" fill="#2563eb">00:42.18</text><rect x="445" y="145" width="240" height="250" rx="28" fill="#fff" stroke="#dcd8ed" stroke-width="2" filter="url(#sh)"/><text x="565" y="205" text-anchor="middle" direction="rtl" font-family="Cairo,Tahoma,Arial,sans-serif" font-size="17" font-weight="800" fill="#2563eb">الجولة 1 — 12.4</text><text x="565" y="268" text-anchor="middle" direction="rtl" font-family="Cairo,Tahoma,Arial,sans-serif" font-size="17" font-weight="800" fill="#2563eb">الجولة 2 — 14.1</text><text x="565" y="331" text-anchor="middle" direction="rtl" font-family="Cairo,Tahoma,Arial,sans-serif" font-size="17" font-weight="800" fill="#8b5cf6">الجولة 3 — 15.7</text><circle cx="22" cy="495" r="3" fill="#2563eb" opacity=".45"/><circle cx="37" cy="495" r="3" fill="#2563eb" opacity=".45"/><circle cx="52" cy="495" r="3" fill="#2563eb" opacity=".45"/></svg>