<svg xmlns="http://www.w3.org/2000/svg" width="760" height="520" viewBox="0 0 760 520" role="img"><defs><linearGradient id="g" x1="0" y1="0" x2="1" y2="1"><stop stop-color="#0f766e"/><stop offset="1" stop-color="#14b8a6"/></linearGradient><linearGradient id="soft" x1="0" y1="0" x2="1" y2="1"><stop stop-color="#f59e0b" stop-opacity=".22"/><stop offset="1" stop-color="#0f766e" stop-opacity=".05"/></linearGradient><filter id="sh" x="-20%" y="-20%" width="140%" height="140%"><feDropShadow dx="0" dy="12" stdDeviation="13" flood-color="#302860" flood-opacity=".12"/></filter></defs><rect width="760" height="520" rx="34" fill="#f8f7ff"/><circle cx="90" cy="68" r="74" fill="#0f766e" opacity=".07"/><circle cx="690" cy="475" r="90" fill="#f59e0b" opacity=".09"/><text x="380" y="58" text-anchor="middle" direction="rtl" font-family="Cairo,Tahoma,Arial,sans-serif" font-size="25" font-weight="900" fill="#282344">اختبار سرعة الكتابة</text><rect x="55" y="145" width="420" height="245" rx="28" fill="#fff" stroke="#dcd8ed" stroke-width="2" filter="url(#sh)"/><rect x="90" y="190" width="46" height="38" rx="9" fill="#f59e0b" opacity=".72"/><rect x="148" y="190" width="46" height="38" rx="9" fill="#e1deec" opacity="1"/><rect x="206" y="190" width="46" height="38" rx="9" fill="#e1deec" opacity="1"/><rect x="264" y="190" width="46" height="38" rx="9" fill="#e1deec" opacity="1"/><rect x="322" y="190" width="46" height="38" rx="9" fill="#e1deec" opacity="1"/><rect x="380" y="190" width="46" height="38" rx="9" fill="#f59e0b" opacity=".72"/><rect x="90" y="245" width="46" height="38" rx="9" fill="#e1deec" opacity="1"/><rect x="148" y="245" width="46" height="38" rx="9" fill="#e1deec" opacity="1"/><rect x="206" y="245" width="46" height="38" rx="9" fill="#e1deec" opacity="1"/><rect x="264" y="245" width="46" height="38" rx="9" fill="#e1deec" opacity="1"/><rect x="322" y="245" width="46" height="38" rx="9" fill="#f59e0b" opacity=".72"/><rect x="380" y="245" width="46" height="38" rx="9" fill="#e1deec" opacity="1"/><rect x="90" y="300" width="46" height="38" rx="9" fill="#e1deec" opacity="1"/><rect x="148" y="300" width="46" height="38" rx="9" fill="#e1deec" opacity="1"/><rect x="206" y="300" width="46" height="38" rx="9" fill="#e1deec" opacity="1"/><rect x="264" y="300" width="46" height="38" rx="9" fill="#f59e0b" opacity=".72"/><rect x="322" y="300" width="46" height="38" rx="9" fill="#e1deec" opacity="1"/><rect x="380" y="300" width="46" height="38" rx="9" fill="#e1deec" opacity="1"/><rect x="505" y="165" width="200" height="205" rx="30" fill="#fff" stroke="#dcd8ed" stroke-width="2" filter="url(#sh)"/><text x="605" y="230" text-anchor="middle" direction="rtl" font-family="Cairo,Tahoma,Arial,sans-serif" font-size="32" font-weight="900" fill="#0f766e">42 WPM</text><text x="605" y="280" text-anchor="middle" direction="rtl" font-family="Cairo,Tahoma,Arial,sans-serif" font-size="18" font-weight="800" fill="#f59e0b">الدقة 96٪</text><path d="M555 325h100" stroke="#0f766e" stroke-width="8" stroke-linecap="round"/><circle cx="22" cy="495" r="3" fill="#0f766e" opacity=".45"/><circle cx="37" cy="495" r="3" fill="#0f766e" opacity=".45"/><circle cx="52" cy="495" r="3" fill="#0f766e" opacity=".45"/><circle cx="67" cy="495" r="3" fill="#0f766e" opacity=".45"/><circle cx="82" cy="495" r="3" fill="#0f766e" opacity=".45"/><circle cx="97" cy="495" r="3" fill="#0f766e" opacity=".45"/></svg>